<?xml version="1.0" encoding="utf-8"?>
<!-- Generator: Adobe Illustrator 19.0.0, SVG Export Plug-In . SVG Version: 6.00 Build 0)  -->
<svg version="1.1" id="Layer_1" xmlns="http://www.w3.org/2000/svg" xmlns:xlink="http://www.w3.org/1999/xlink" x="0px" y="0px"
	 viewBox="0 0 129.7 166" style="enable-background:new 0 0 129.7 166;" xml:space="preserve">
<style type="text/css">
	.st0{fill:#FFFFFF;}
</style>
<g id="XMLID_98_">
	<path id="XMLID_996_" class="st0" d="M129.6,59c0.3-4.6-0.2-9.2-1.2-13.8c-0.7-3.1-1.4-6.3-2.5-9.3c-1.5-4.2-3.7-8-6.4-11.5
		c-3.8-4.9-8.3-8.8-13.7-11.8c-2.7-1.5-5.5-2.8-8.3-4C96.2,8,94.7,7.4,93.2,7c-2.4-0.6-4.8-1.2-7.2-1.7c-3.2-0.6-6.4-1-9.7-1.4
		c-0.7-0.1-1.4-0.1-2.2-0.2c0-0.1,0-0.1,0-0.2c-1.3-0.1-2.6-0.1-3.8-0.2c-3.2,0.2-6.4,0.5-9.6,0.4c-0.1,0-0.2,0-0.2,0
		c-3.9,0.2-7.7,1.3-11.4,2.5c-3.2,1.1-6.3,2.6-9.5,4c-3.7,1.6-7.1,3.9-10.3,6.3c-4.7,3.6-8.8,7.9-12,13c-2.8,4.5-4.7,9.4-5.3,14.7
		c-0.8,6.1,0.1,12.2,0.8,18.2c0.3,2.8,0.9,5.6,1.4,8.4c0.3,1.6,0.5,3.2,2.4,3.9c0.2,0.1,0.4,0.3,0.5,0.4c1.5,2,3,3.9,4.3,6
		c0.9,1.4,1.7,2.9,2.7,4.6c0.1-0.7,0.2-1.1,0.2-1.6c0-4.5-0.1-9,0-13.4c0-1.6,0.4-3.2,0.8-4.7c0.3-1.2,1.6-2.1,2.8-2
		c1.4,0.2,2.7,0.6,4,1c1.7,0.5,3.4,1.3,5.2,1.8c1.8,0.5,3.7,0.8,5.6,1c4.3,0.7,8.5,0.1,12.5-1.3c3-1.1,5.9-2.5,8.7-4
		c3-1.6,5.8-3.5,8.7-5.3c4.3-2.7,8.4-5.6,13.3-7.1c5.1-1.6,9.6-0.4,12.7,3.7c2.7,3.5,4.4,7.4,5.6,11.6c1.2,4.1,2.1,8.3,3.1,12.4
		c0.1,0.3,0.2,0.5,0.4,1.1c0.4-0.5,0.7-0.8,0.9-1.2c1-2.2,2.2-4.1,4.3-5.3c0.9-0.6,2.1-0.5,3,0.2c1.4,1.1,1.9,2.6,2.2,4.4
		c1,5.9,0.2,11.5-3,16.7c-1,1.6-2.2,2.9-4.3,3.1c-0.8,0.1-1.6,0.6-2.3,1.1c-1.9,1.4-2.5,3.3-2.6,5.6c-0.2,4-0.4,8-0.6,12
		c-0.4,5.2-1.1,10.5-2.5,15.5c-0.4,1.4-1,2.8-1.8,3.9c-4.5,5.6-10.6,9.1-16.9,12.2c-3.6,1.8-7.5,3.1-11.3,4.7
		c-1,0.4-1.9,0.7-2.6,1.8c-2.4,3.8-5.2,7.2-9,9.8c-0.6,0.4-1.1,1-1.8,1.6c1.8,0.4,3.3,0.9,4.8,1c1.7,0.1,3.5,0.2,5.2-0.4
		c2-0.7,4.1-0.9,6.1-1.6c3.8-1.3,7.7-2.7,11.4-4.3c5.5-2.3,10.6-5.2,15.3-8.9c2.8-2.3,5.6-4.7,7.9-7.5c3-3.6,4.1-8.1,5.2-12.6
		c0.4-1.6,0.7-3.3,0.9-5c0.4-3,0.9-6,1.2-9c0.3-2.6,0.3-5.2,0.5-7.8c0-0.5,0.4-1.1,0.8-1.4c0.7-0.7,1.6-1.1,2.3-1.8
		c3.3-2.8,5.2-6.5,6.4-10.5c1.2-4,1.8-8.2,1.7-12.5c0-0.8,0.2-1.6,0.2-2.4c-0.1-2.7-0.4-5.3-0.6-8c-0.1-0.9-0.3-1.9-0.2-2.8
		C128.9,66,129.4,62.5,129.6,59z"/>
	<path id="XMLID_1773_" class="st0" d="M11,153.3c0.6-3.8,1-7.7,1.7-11.5c1-5.3,0.8-10.7,0.5-16.1c-0.2-3.3-0.8-6.5-1.9-9.7
		c-0.7-2-1.1-4.2-1.7-6.3c-0.6-2-1.2-4-1.8-6c-0.6-1.8-1.1-3.6-1.7-5.4c-0.9-2.6-1.7-5.2-2.7-7.7c-0.8-2.1-1.6-4.1-2.4-6.2
		C1,84.5,1,84.3,1,84.2c-0.4-0.9-1.4-1.7-0.8-2.7C1,80.4,1.9,79.2,3,78.5c2.9-1.8,5.7-0.8,8.3,1c3,2.1,5.1,4.9,6.5,8.3
		c1.4,3.2,2.8,6.4,4.1,9.7c0.8,1.8,1.5,3.7,2.2,5.5c0.3,0.9,0.8,1,1.3,0.3c2.9-3.7,6.5-6.7,10.2-9.6c3.5-2.7,7.1-5.3,10.8-7.7
		c3.9-2.5,7.9-4.9,12.1-7.1c4.4-2.4,9-4.6,13.6-6.5c2.1-0.8,4.5-0.9,6.6,0.4c2.1,1.2,2.1,2.9,1.5,5.1c-0.6,1.9-2.2,2.8-3.7,3.7
		c-5.2,3-10.5,6-15.6,9.2c-3.9,2.5-7.6,5.4-11.3,8.1c-0.4,0.3-0.8,0.7-1.1,1.1c-0.6,0.7-0.7,1.5-0.2,2.2c0.6,0.7,1.4,0.6,2.1,0
		c2.2-1.6,4.4-3.2,6.7-4.8c2.8-1.9,5.6-3.8,8.5-5.6c3.5-2.2,7-4.3,10.6-6.3c3.5-2,7.2-3.6,11.2-4.5c1.7-0.4,3.5-0.3,5.2,0.6
		c1.5,0.8,2.3,3.8,1.5,5.7c-0.6,1.6-1.8,2.4-3.3,3.1c-3,1.4-6,3-8.8,4.6c-3.9,2.2-7.7,4.5-11.5,6.9c-3.3,2.1-6.6,4.4-9.9,6.7
		c-0.4,0.3-0.8,0.7-1,1.2c-0.4,0.8,0.1,1.4,1,1.5c1.2,0.2,2.1-0.3,3.1-0.9c3.8-2.3,7.6-4.7,11.5-7c5-3.1,10.1-6.1,15.2-9.2
		c1.7-1,3.5-1.4,5.4-1.1c3,0.5,3.9,2.9,2.7,5.7c-0.7,1.7-2.1,2.7-3.5,3.7c-5.5,3.8-11,7.7-16.5,11.5c-2.6,1.8-5.3,3.6-8,5.5
		c-0.8,0.6-1.4,1.3-2.1,2c-0.5,0.5-0.7,1.2-0.1,1.7c0.4,0.3,1.2,0.4,1.7,0.2c0.9-0.3,1.8-0.8,2.6-1.3c5.9-4,11.8-8,17.7-12.1
		c0.7-0.5,1.6-0.9,2.2-1.5c1.4-1.3,4.6-1,5.9,0.7c0.8,1.2,1.1,2.5,0.8,3.9c-0.3,1.9-1.6,2.9-2.9,4c-5.3,4.3-10.5,8.7-15.9,12.7
		c-4.3,3.3-7.2,7.6-9.8,12.1c-2.5,4.2-4.8,8.6-7.9,12.4c-2.3,2.7-5.1,4.7-7.9,6.8c-1.8,1.3-7,4.4-7.2,4.5
		C43.9,165.8,10.1,159.1,11,153.3z"/>
</g>
</svg>
