<?xml version="1.0" encoding="utf-8"?>
<!-- Generator: Adobe Illustrator 19.0.0, SVG Export Plug-In . SVG Version: 6.00 Build 0)  -->
<svg version="1.1" id="Layer_1" xmlns="http://www.w3.org/2000/svg" xmlns:xlink="http://www.w3.org/1999/xlink" x="0px" y="0px"
	 viewBox="0 0 22 19.9" style="enable-background:new 0 0 22 19.9;" xml:space="preserve">
<style type="text/css">
	.st0{fill:#FFF6EE;}
</style>
<g id="XMLID_5139_">
	<defs>
		<path id="XMLID_5148_" d="M17.2,0.1c-2.5-0.5-5,0.8-6.3,3.1C9.7,0.9,7.3-0.4,4.7,0.1C1.5,0.7-0.5,4,0.1,7.5
			C0.4,8.7,1,9.9,1.8,10.7l0,0l0,0C1.8,10.8,1.9,10.9,2,11l8.7,9l9.1-8.8c0.1-0.1,0.2-0.2,0.3-0.3l0,0h0c0.9-0.8,1.5-2,1.7-3.4
			C22.5,4,20.5,0.7,17.2,0.1z"/>
	</defs>
	<use xlink:href="#XMLID_5148_"  style="overflow:visible;fill:#A34824;"/>
	<clipPath id="XMLID_67_">
		<use xlink:href="#XMLID_5148_"  style="overflow:visible;"/>
	</clipPath>
</g>
<g id="XMLID_3757_">
	<path id="XMLID_14041_" class="st0" d="M3.6,2c0,0,0.2-0.1,0.4-0.2c0.2-0.1,0.6-0.2,0.9-0.2c0.3,0,0.6,0.1,0.9,0.2
		C5.9,1.9,6.1,2,6.1,2S5.9,2.1,5.7,2.2C5.5,2.3,5.1,2.4,4.8,2.4C4.5,2.4,4.2,2.3,4,2.2C3.7,2.1,3.6,2,3.6,2z"/>
</g>
<g id="XMLID_1704_">
	<path id="XMLID_13754_" class="st0" d="M3.2,4.2c0,0,0.2-0.1,0.4-0.2c0.2-0.1,0.6-0.2,0.9-0.2c0.3,0,0.6,0.1,0.9,0.2
		c0.2,0.1,0.4,0.2,0.4,0.2S5.6,4.3,5.4,4.4C5.1,4.5,4.8,4.6,4.5,4.6c-0.3,0-0.6-0.1-0.9-0.2C3.4,4.3,3.2,4.2,3.2,4.2z"/>
</g>
<g id="XMLID_1286_">
	<path id="XMLID_13738_" class="st0" d="M2.3,3.1c0,0,0.3-0.1,0.7-0.2c0.4-0.1,1-0.2,1.5-0.2c0.6,0,1.1,0.1,1.5,0.2
		C6.4,3,6.7,3.1,6.7,3.1S6.4,3.2,6,3.3c-0.4,0.1-1,0.2-1.5,0.2C4,3.5,3.4,3.4,3,3.3C2.6,3.2,2.3,3.1,2.3,3.1z"/>
</g>
</svg>
