<?xml version="1.0" encoding="utf-8"?>
<!-- Generator: Adobe Illustrator 19.0.0, SVG Export Plug-In . SVG Version: 6.00 Build 0)  -->
<svg version="1.1" id="Layer_1" xmlns="http://www.w3.org/2000/svg" xmlns:xlink="http://www.w3.org/1999/xlink" x="0px" y="0px"
	 viewBox="0 0 207.6 128.9" style="enable-background:new 0 0 207.6 128.9;" xml:space="preserve">
<style type="text/css">
	.st0{fill:#FFFFFF;}
</style>
<g id="XMLID_1051_">
	<path id="XMLID_1209_" class="st0" d="M110.4,128.7c-3.4,0.2-7.1,0.2-10.7,0.1c-5.6-0.2-11.3,0-16.9-0.6c-3.3-0.4-6.6-0.9-9.9-1.8
		c-1.7-0.5-3.4-1-5-1.6c-1.9-0.8-3.9-1.7-5.6-2.8c-2.2-1.5-4-3.3-5.7-5.3c-1.9-2.1-2.8-4.7-3.8-7.3c-1.1-2.9-1.2-5.9-1.7-8.9
		c-0.5-3.1,0-6.3,0.4-9.4c0.4-3.2,1-6.3,1.7-9.4c0.5-2.2,1.4-4.4,1.8-6.6c0.6-2.7,2-5,2.8-7.5c1-3,2.7-5.7,4-8.6
		c1.2-2.5,2.6-4.9,4-7.3c1.9-3.3,4.1-6.4,6.4-9.4c2.5-3.2,5.1-6.1,8-8.8c0.9-0.8,1.8-1.7,2.7-2.5c0.5-0.5,1.2-0.5,1.9-0.5
		c7.3,0,14.7,0,22,0c4.9,0,9.8,0.1,14.7-0.1c2-0.1,3.4,0.8,4.8,2c1.8,1.7,3.6,3.3,5.2,5.2c1.5,1.7,2.8,3.4,4.2,5.1
		c1.5,1.8,2.7,3.7,4,5.5c1,1.4,1.9,3,2.8,4.5c1,1.8,2,3.5,3,5.3c0.5,0.9,0.9,1.8,1.3,2.8c0.9,2.2,2,4.3,2.9,6.5
		c1,2.4,1.9,4.9,2.8,7.4c0.6,1.8,1.1,3.7,1.7,5.6c0.8,2.7,1,5.5,1.7,8.2c0.7,3,0.6,6.2,0.7,9.3c0.1,3.7-0.4,7.4-1.5,10.9
		c-1.1,3.5-2.8,6.7-5.3,9.5c-2,2.1-4.3,3.9-6.9,5.2c-2.3,1.2-4.9,2-7.4,2.8c-3.6,1-7.3,1.5-10.9,2
		C119.9,128.8,115.3,128.6,110.4,128.7z M90.6,91.8c0,0,0-0.1,0-0.1c-1.2,0-2.3,0-3.5,0c-0.6,0-1.2,0.1-1.2,0.9
		c-0.1,3.7,0.7,7.2,2.9,10.2c2.4,3.2,5.6,5.4,9.7,6.2c0.7,0.1,1.4,0.3,2.1,0.6c0.8,0.3,1.3,0.8,1.2,1.8c-0.1,1.4,0,2.8,0,4.3
		c0,1,0.5,1.4,1.4,1.4c1.1,0,2.2,0,3.3,0c1,0,1.4-0.4,1.4-1.4c0-1.5,0-3,0-4.6c0-1,0.4-1.6,1.4-1.8c0.4-0.1,0.8-0.2,1.1-0.3
		c3-0.4,5.6-1.6,7.9-3.6c2.5-2.2,3.9-5,4.4-8.2c0.2-1.6,0.2-3.2,0.2-4.8c0.1-2.8-0.9-5.3-2.6-7.4c-2.8-3.5-6.5-5.7-10.7-7.3
		c-1.3-0.5-2.8-0.9-4-1.5c-1.2-0.6-2.5-1-3.6-1.7c-2.4-1.5-4.4-3.1-4.6-6.1c-0.1-2.6-0.1-5.1,2-7.1c2-1.9,4.4-2.1,7-1.9
		c1.5,0.1,2.7,0.8,3.7,1.6c2.3,1.9,2.9,4.7,3.3,7.4c0.1,0.8,0.3,1.3,1.3,1.3c2.4,0,4.7,0,7.1,0c0.8,0,1-0.5,1-1.2
		c-0.1-3.4-1-6.7-2.7-9.6c-2-3.4-4.9-5.7-8.9-6.6c-0.6-0.1-1.2-0.3-1.7-0.6c-0.5-0.3-1.1-0.7-1-1.4c0.2-1.8,0.1-3.7,0.1-5.5
		c0-1.2-0.4-1.7-1.6-1.7c-1.2,0-2.3,0.1-3.5,0.1c-0.9,0-1.3,0.4-1.2,1.3c0,1.8,0,3.7,0,5.5c0,0.9-0.4,1.4-1.3,1.6
		c-3.2,0.8-6.2,1.9-8.6,4.2c-1,1-2,2.1-2.7,3.3c-1,1.7-1.3,3.6-1.6,5.5c-0.6,3.7-0.1,7.1,1.8,10.3c1.6,2.8,4,4.8,6.8,6.3
		c0.9,0.5,2,0.8,2.9,1.3c1.3,0.8,2.8,1.2,4.2,1.7c2.5,1,5.1,1.8,7.2,3.6c1.3,1.1,2.3,2.5,2.5,4.2c0.3,1.9,0.2,3.7-0.7,5.6
		c-1.2,2.3-3,3.4-5.3,4c-1.8,0.4-3.8,0.4-5.6,0c-2.5-0.6-4.4-2-5.6-4.4c-0.7-1.4-1-2.8-1.1-4.3c-0.1-0.8-0.3-1.3-1.3-1.3
		C92.8,91.8,91.7,91.8,90.6,91.8z"/>
	<path id="XMLID_1208_" class="st0" d="M204.6,101.2c-1,0.5-1.4,1.6-2.2,2.3c-2.3,2.1-4.8,3.8-7.9,4.6c-4.1,1.1-8.2,2-12.4,2.1
		c-5.8,0.1-11.7,0.5-17.5,0.2c-2.7-0.1-2.9-0.4-2.1-3c0.8-2.4,0.7-5,0.8-7.5c0.2-3.8,0-7.6-0.5-11.3c-0.6-3.6-1.2-7.3-2.2-10.8
		c-0.8-2.8-1.8-5.6-2.8-8.4c-0.5-1.5-1.2-3-1.7-4.5c-0.7-2.1-1.8-4.1-2.7-6.2c-0.6-1.2-1.1-2.5-1.8-3.7c-0.9-1.6-1.7-3.3-2.7-4.9
		c-0.8-1.3-0.9-1.7,0.1-2.9c1.6-2.1,3.5-3.9,5.4-5.6c0.8-0.7,1.7-1,2.7-1c3.3-0.1,6.7,0,10,0c4.7,0,9.5,0.1,14.2-0.1
		c2.2-0.1,4,0.7,5.5,2.2c1.9,1.9,3.7,3.9,5.3,6c1.4,1.8,2.8,3.6,4,5.4c1,1.6,2.1,3.1,2.8,4.9c0.3,0.8,0.8,1.5,1.2,2.2
		c1.2,2,2,4.2,2.8,6.3c0.6,1.5,1.2,3.1,1.7,4.7c0.4,1.7,1.1,3.4,1.5,5.1c1.3,5.4,2.2,10.9,1.1,16.5c-0.4,1.9-0.9,3.7-1.5,5.5
		C205.3,100,204.5,100.3,204.6,101.2L204.6,101.2z"/>
	<path id="XMLID_1204_" class="st0" d="M48.5,73.6C48.1,74,48.1,74.5,48,75c-0.9,2.8-1.6,5.7-2.3,8.6c-0.7,3.2-0.9,6.5-1.4,9.7
		c-0.6,3.4-0.4,6.9,0.3,10.3c0.4,1.9,0.2,3.8,0.8,5.7c0.2,0.7-0.6,1-1.2,1.1c-0.7,0.1-1.3,0.1-2,0.2c-3.7,0.2-7.4,0.3-11.1,0
		c-3.8-0.3-7.7-0.2-11.5-0.8c-2.9-0.5-5.9-1-8.6-2.2c-3-1.4-5.7-3.2-7.6-6.1c-1.9-2.9-3-6-3.2-9.5c-0.1-2.7-0.2-5.5,0.1-8.2
		C0.6,81.1,1,78.5,2,75.9c0.5-1.5,0.9-3,1.4-4.5C4,69.5,4.6,67.7,5.5,66c0.5-1,0.9-2,1.3-3c1.6-3.5,3.4-6.8,5.6-10
		c2.5-3.7,5.3-7.2,8.5-10.3c1.4-1.3,2.9-2.1,4.9-2.1c7.9,0.1,15.9,0.1,23.8,0.1c1.8,0,3.2,0.5,4.5,1.7c1.8,1.8,3.6,3.6,5.1,5.7
		c0.3,0.4,0.3,0.6,0,1.1c-0.6,1-1,2.1-1.6,3c-1,1.6-1.8,3.4-2.7,5.1c-0.8,1.5-1.3,3.1-2,4.6c-0.6,1.2-1,2.4-1.6,3.6
		c-0.6,1.2-0.9,2.4-1.5,3.6c-0.5,1.1-0.6,2.4-1.2,3.5C48.4,72.9,48.2,73.3,48.5,73.6L48.5,73.6z"/>
	<path id="XMLID_1201_" class="st0" d="M83.6,5.4C86,6.3,88.5,7,91,6.4c1.8-0.5,3.5-1.5,5-2.6c2-1.5,4.1-2.8,6.5-3.6
		c0.7-0.2,1.5-0.2,2.2,0c1.9,0.6,3.6,1.3,5.2,2.5c1.9,1.5,3.9,2.8,6.2,3.6c1.7,0.6,3.5,0.4,5.2-0.1c2.3-0.7,4.7-0.9,7-1.2
		c1.4-0.1,2.9,0,4,1.2c1.1,1.3,1.2,3.5,0.4,5.1c-0.9,1.8-1.8,3.6-3,5.2c-1.8,2.4-3.6,4.9-5.9,6.9c-0.3,0.2-0.6,0.3-0.9,0.3
		c-5.6,0-11.1,0.2-16.7,0.1c-3.6-0.1-7.2,0.1-10.7,0.1c-3.5,0-6.9-0.1-10.4-0.1c-1,0-1.6-0.6-2.2-1.1c-2.6-2.5-4.9-5.3-6.7-8.4
		c-0.8-1.4-1.6-2.9-1.8-4.7c-0.3-2.7,0.7-4.2,3.5-4.4c1-0.1,2,0,3.1,0.2c0.7,0.1,1.4,0.4,2.2,0.1C83.3,5.5,83.4,5.6,83.6,5.4z"/>
	<path id="XMLID_1198_" class="st0" d="M37.8,33.6c-4.1,0-8.2,0-12.3,0c-1.3,0-2.2-0.4-3.1-1.3c-1.8-2-3.5-4-4.7-6.4
		c-0.5-1-0.8-2.2-0.1-3.1c0.7-1,1.9-1,3-0.7c2.6,0.6,5.3,1,8,0.8c1.4-0.1,2.5-0.9,3.5-1.6c1.4-0.9,2.7-1.9,4.2-2.6
		c1-0.5,1.9-0.4,2.9,0.1c2.1,0.9,3.9,2.5,5.9,3.6c1.1,0.6,2.5,0.7,3.7,0.5c1.9-0.2,3.9-0.3,5.8-0.9c1.1-0.4,2.3-0.4,3.2,0.7
		c0.5,0.6,0.5,1.1,0.3,1.7c-1.1,2.9-2.9,5.3-4.9,7.7c-1.1,1.3-2.3,1.5-3.8,1.5C45.5,33.6,41.6,33.6,37.8,33.6
		C37.8,33.6,37.8,33.6,37.8,33.6z"/>
	<path id="XMLID_1064_" class="st0" d="M169.7,33.5c-4,0-8.1-0.1-12.1,0c-1.7,0-2.7-0.7-3.7-1.9c-1.6-1.9-3.1-3.9-4.3-6.2
		c-0.4-0.8-0.7-1.9-0.1-2.6c0.6-0.8,1.7-1.1,2.8-0.8c2,0.5,4,0.7,6.1,0.8c1.1,0.1,2.2-0.1,3.3-0.2c1.1-0.2,1.9-0.9,2.7-1.5
		c1.4-1,2.9-1.9,4.5-2.6c0.5-0.2,1.1-0.2,1.7,0c1.4,0.6,2.9,1.3,4.1,2.3c2.2,1.7,4.6,2.3,7.3,2c1.8-0.2,3.7-0.3,5.4-0.8
		c1.2-0.3,2.1,0.3,2.8,1.1c0.5,0.5,0.1,1.3-0.1,1.9c-0.7,1.9-2,3.5-3.1,5.2c-0.7,1-1.5,1.9-2.4,2.7c-0.6,0.5-1.4,0.6-2.2,0.6
		C178.2,33.5,174,33.5,169.7,33.5z"/>
</g>
</svg>
