<?xml version="1.0" encoding="utf-8"?>
<!-- Generator: Adobe Illustrator 19.0.0, SVG Export Plug-In . SVG Version: 6.00 Build 0)  -->
<svg version="1.1" id="Layer_1" xmlns="http://www.w3.org/2000/svg" xmlns:xlink="http://www.w3.org/1999/xlink" x="0px" y="0px"
	 viewBox="-940 522.7 37.4 36.3" style="enable-background:new -940 522.7 37.4 36.3;" xml:space="preserve">
<style type="text/css">
	.st0{fill:#EB2228;}
	.st1{fill:#FFFFFF;}
	.st2{fill:#FFE746;}
	.st3{fill:#989798;}
	.st4{fill:#2E4A24;}
	.st5{fill:#74BE45;}
</style>
<g id="XMLID_1136_">
	<circle id="XMLID_1385_" class="st0" cx="-921.3" cy="540.9" r="17.9"/>
	<g id="XMLID_1368_">
		<path id="XMLID_1380_" class="st1" d="M-930.1,528.4c-0.3,0.4-0.6,0.8-0.8,1.2l0.7,0.4c0.2-0.4,0.4-0.8,0.6-1.2L-930.1,528.4z"/>
		<path id="XMLID_1378_" class="st1" d="M-929,527.9c0.3-0.4,0.5-0.8,0.8-1.1l-0.1-0.2c-0.4,0.3-0.7,0.6-1,1L-929,527.9z"/>
		<path id="XMLID_1376_" class="st1" d="M-927.5,525.9c0.1-0.1,0.1-0.1,0.2-0.2C-927.4,525.8-927.4,525.9-927.5,525.9L-927.5,525.9z
			"/>
		<path id="XMLID_1374_" class="st1" d="M-912.3,528.6l-0.5,0.5c0.2,0.4,0.4,0.8,0.6,1.2l0.7-0.4C-911.8,529.4-912,529-912.3,528.6z
			"/>
		<path id="XMLID_1372_" class="st1" d="M-914.2,526.9c0.3,0.4,0.5,0.7,0.8,1.1l0.4-0.3c-0.3-0.4-0.7-0.7-1-1L-914.2,526.9z"/>
		<path id="XMLID_1371_" class="st1" d="M-913.9,544.6l0.7-0.8l0.7,0.7c0.3-0.4,0.6-0.8,0.8-1.2l-0.8-0.5l0.5-1l0.8,0.5
			c0.2-0.4,0.4-0.9,0.6-1.4l-0.9-0.3l0.3-1.1l0.9,0.3c0.1-0.5,0.2-1,0.3-1.5l-0.9-0.1l0.1-1.1l0.9,0.1c0-0.2,0-0.5,0-0.7
			c0-0.3,0-0.5,0-0.7l-0.9,0.1l-0.1-1.1l0.9-0.1c-0.1-0.5-0.2-1-0.3-1.5l-0.7,0.3l-0.3-1.1l0.9-0.3c-0.2-0.4-0.4-0.9-0.6-1.3
			l-0.8,0.5c0.4,1.1,0.6,2.3,0.6,3.6c-0.1,6.2-4.7,11.1-10.2,11c-5.6-0.1-10.1-5.2-10-11.3c0-1.2,0.3-2.4,0.7-3.6l-0.7-0.5
			c-0.2,0.5-0.4,0.9-0.6,1.4l0.9,0.3l-0.3,1.1l-0.9-0.3c-0.1,0.5-0.2,1-0.3,1.5l0.9,0.1l-0.1,1.1l-0.9-0.1c0,0.2,0,0.5,0,0.7
			c0,0.3,0,0.5,0,0.7l0.9-0.1l0.1,1.1l-0.9,0.1c0.1,0.5,0.2,1,0.3,1.5l0.9-0.3l0.3,1.1l-1,0.3c0.2,0.5,0.3,0.9,0.5,1.4l0.8-0.5
			l0.5,1l-0.7,0.5c0.2,0.4,0.5,0.8,0.8,1.2l0.7-0.7l0.7,0.8l-0.7,0.7c0.3,0.4,0.7,0.7,1,1l0.6-0.8l0.8,0.7l-0.6,0.8
			c0.4,0.3,0.8,0.5,1.2,0.8l0.4-0.9l0.9,0.5l-0.4,0.9c0.4,0.2,0.9,0.3,1.3,0.5l0.2-1l1,0.2l-0.2,1c0.4,0.1,0.9,0.1,1.4,0.2v-1h1v1
			c0.5,0,0.9-0.1,1.4-0.1l-0.2-1l1-0.2l0.2,1c0.4-0.1,0.9-0.3,1.3-0.4l-0.4-0.9l1-0.4l0.4,0.9c0.4-0.2,0.8-0.5,1.2-0.7l-0.5-0.8
			l0.8-0.7l0.5,0.8c0.4-0.3,0.7-0.6,1-1L-913.9,544.6z"/>
		<path id="XMLID_1370_" class="st1" d="M-914.8,526c-0.1,0-0.1-0.1-0.2-0.1C-915,526-914.9,526-914.8,526L-914.8,526z"/>
	</g>
	
		<ellipse id="XMLID_1366_" transform="matrix(1.064179e-002 -0.9999 0.9999 1.064179e-002 -1446.2654 -392.1402)" class="st2" cx="-921.3" cy="534.8" rx="10.3" ry="9.5"/>
	<g id="XMLID_1360_">
		<path id="XMLID_1365_" class="st3" d="M-913.6,533.2c-0.6-3.6-3.3-6.3-6.6-6.9v2.6c2.7,0.2,4.1,1.1,5.2,2
			C-914.2,531.7-913.8,532.5-913.6,533.2z"/>
		<path id="XMLID_1364_" class="st3" d="M-913.6,536.7c0.1-0.6,0.2-1.2,0.2-1.8c0-0.3,0-0.5,0-0.8c0,0-0.6-1.7-1.8-2.5
			c-0.6-0.5-1.6-1.7-5-1.9v2.8C-916.5,532.8-913.6,534.6-913.6,536.7z"/>
		<path id="XMLID_1362_" class="st3" d="M-920.3,536.4v2.7c1.9,0.3,3.3,1.2,3.3,2.2c0,0.5-0.4,1-0.9,1.4c1.1-0.5,2-1.3,2.8-2.3
			c0-0.1,0-0.3,0-0.4C-915.2,538.1-917.4,536.7-920.3,536.4z"/>
		<path id="XMLID_1361_" class="st3" d="M-913.9,537.4c0-2.1-2.8-3.9-6.4-4.2v2.6c3.1,0.3,5.2,1.7,5.4,3.4c0,0.3,0,0.7,0,0.7
			s0.7-1,1-1.9C-913.9,537.8-913.9,537.6-913.9,537.4z"/>
	</g>
	<g id="XMLID_1355_">
		<path id="XMLID_1359_" class="st3" d="M-922.3,536.3v2.7c-1.9,0.2-3.3,1.1-3.3,2.1c0,0.5,0.3,1,0.9,1.4c-1.1-0.6-2-1.4-2.7-2.4
			c0-0.1,0-0.3,0-0.4C-927.5,538-925.3,536.6-922.3,536.3z"/>
		<path id="XMLID_1358_" class="st3" d="M-929,533c0.7-3.5,3.4-6.3,6.8-6.7v2.6c-2.7,0.1-4.1,1-5.2,1.9
			C-928.3,531.5-928.8,532.4-929,533z"/>
		<path id="XMLID_1357_" class="st3" d="M-929.1,536.5c-0.1-0.6-0.1-2.2-0.1-2.6c0,0,0.4-1.2,1.8-2.5c0.6-0.5,1.7-1.6,5-1.8v2.8
			C-926.1,532.7-929,534.4-929.1,536.5z"/>
		<path id="XMLID_1356_" class="st3" d="M-928.8,537.3c0-2.1,2.8-3.8,6.5-4.1v2.6c-3.1,0.2-5.2,1.5-5.5,3.3c-0.1,0.3,0,0.7,0,0.7
			s-0.7-1-0.9-2C-928.8,537.6-928.8,537.4-928.8,537.3z"/>
	</g>
	<path id="XMLID_1351_" class="st4" d="M-919.3,541.8l-0.4-0.9h-3.1l-0.5,0.9c-2,0.9-3.5,3-3.5,5.5c0,3.3,2.4,6,5.4,6
		s5.5-2.6,5.6-5.9C-915.9,544.9-917.3,542.7-919.3,541.8z"/>
	<path id="XMLID_1346_" class="st0" d="M-921.3,534.4v0.8c0,0.6,0.5,1.1,0.5,1.6c0,0.6-0.2,1.3-0.2,1.3s0.1-0.7,0-1
		c-0.1-0.2-0.3-0.7-0.5-1.1c-0.2-0.4-0.2-0.8-0.2-0.8s-0.2,0.6-0.2,0.8c0,0.5,0.3,1,0.4,1.6c0.1,0.4-0.1,0.7-0.1,0.7s0-0.4-0.1-0.6
		c-0.1-0.3-0.3-0.6-0.4-0.9c-0.1-0.3-0.1-0.6-0.1-0.6s-0.2,0.4-0.2,0.8c0,0.4,0.3,0.9,0.3,1.4c0,0.4-0.1,0.7-0.1,0.7s0-0.3-0.1-0.5
		c-0.1-0.3-0.3-0.6-0.4-0.9c0-0.2,0.1-0.6,0.1-0.6s-0.5,1-0.5,1.6c0,0.7,0.6,1.7,0.6,1.7l-0.4,0.5h3.1l-0.4-0.4c0,0,0.9-2.3,0.6-3.4
		c-0.2-0.7-0.9-1.2-1.3-1.9C-921.2,534.6-921.3,534.4-921.3,534.4z"/>
	<path id="XMLID_1338_" class="st1" d="M-921.5,557.2h1.4v-1h-0.3V552l1.3-0.6l-1.2-0.6l0.1-7.4c0,0,0-1-0.3-1.7
		c-0.2-0.7-0.8-1.7-0.8-1.7s-0.6,1.1-0.8,1.7c-0.3,0.7-0.3,1.7-0.3,1.7l-0.1,7.4l-1.3,0.6l1.2,0.6v4.2h-0.3v1H-921.5"/>
	<path id="XMLID_1153_" class="st5" d="M-917.2,550.7c0,0-1.2,1-1.5,1.7c-0.5,1.1-0.1,1.6-0.1,1.6s-0.2,0.3-0.4,0.4
		c-0.1,0.1-0.3,0.1-0.4,0.1c0.3-0.6,0.6-1.3,0.8-2.2c0.1-0.5,0.1-1,0.1-1.4c0-0.1,0.1-0.2,0.2-0.3c0.1-0.1,0.2-0.2,0.2-0.2
		s0.7-0.2,0.7-1.5c0-1-0.4-2.3-0.4-2.3s-0.7,1-0.8,1.9c-0.2,1.5,0.3,1.8,0.3,1.8s0,0.1-0.1,0.2c-0.1,0.1-0.1,0.1-0.1,0.1
		c-0.1-1.1-0.4-2-0.8-2.7c0-0.1,0.1-0.3,0.1-0.4c0-0.2,0-0.4,0-0.4s0.7-0.1,0.3-1.9c-0.2-0.7-0.9-1.8-0.9-1.8s-0.4,1.3-0.3,2.1
		c0,1.3,0.7,1.6,0.7,1.6s0,0.2,0,0.3c0,0.1,0,0.3-0.1,0.3c-0.7-1.2-1.5-2-1.5-2s-0.1-0.9-1-1.7c-0.9-0.7-2-0.9-2-0.9s0.1,1,1,1.9
		c0.7,0.7,1.9,0.9,1.9,0.9s0.9,0.7,1.5,2c0,0-0.1,0-0.1-0.1c-0.1,0-0.2,0-0.2,0s0-1-1.6-1.2c-0.9-0.1-2.2,0.3-2.2,0.3s1.2,1,1.9,1.2
		c1.3,0.4,1.8-0.2,1.8-0.2s0.1,0,0.2,0.1c0.1,0,0.2,0.1,0.2,0.1c0.4,0.8,0.6,1.8,0.6,3c-0.1-0.1-0.4-0.3-0.4-0.3s0-0.8-0.8-1.2
		c-1.7-0.7-3.1-0.4-3.1-0.4s0.9,1,1.7,1.4c1.1,0.6,2.2,0.4,2.2,0.4s0.1,0,0.3,0.2c0.1,0,0.1,0.1,0.1,0.1c0,0.3,0,0.6-0.1,0.9
		c-0.5,3.3-3.8,4.2-3.8,4.2v0.7c0,0,1.9-0.6,3.1-2.5c0.1,0,0.3,0,0.5-0.1c0.3-0.2,0.6-0.6,0.6-0.6s0.6,0,1-0.7
		C-917.1,552.2-917.2,550.7-917.2,550.7z"/>
</g>
</svg>
