<?xml version="1.0" encoding="utf-8"?>
<!-- Generator: Adobe Illustrator 19.0.0, SVG Export Plug-In . SVG Version: 6.00 Build 0)  -->
<svg version="1.1" id="Layer_1" xmlns="http://www.w3.org/2000/svg" xmlns:xlink="http://www.w3.org/1999/xlink" x="0px" y="0px"
	 viewBox="0 0 134.1 204.5" style="enable-background:new 0 0 134.1 204.5;" xml:space="preserve">
<style type="text/css">
	.st0{fill:#FFFFFF;}
</style>
<g id="XMLID_17_">
	<path id="XMLID_25_" class="st0" d="M124.6,100.1c-0.4,1-1.1,1.5-2.2,1.8c-4.2,1-8.3,2-12.5,3.1c-2.4,0.6-4.8,1.2-7.2,1.8
		c-0.6,0.1-0.7,0.6-0.9,1.1c-2.7,6.1-5.4,12.3-8.1,18.4c-0.7,1.5-1.5,1.8-2.9,1.2c-6.1-2.5-12.2-4.9-18.3-7.4
		c-0.8-0.3-1.5-0.4-2.3,0.1c-4.9,2.9-9.9,5.8-14.9,8.7c-0.8,0.5-1.6,0.9-2.3,1.3c-1.4,0.8-2.3,0.6-3.2-0.8
		c-2.4-3.9-4.9-7.7-7.3-11.6c-1-1.6-2.1-3.2-3-4.8c-0.7-1.3-1.7-1.7-3.1-1.5c-0.2,0-0.5,0-0.7,0c-1.2-0.2-2.4-0.5-3.7-0.4
		c-0.2,0-0.3,0-0.5,0c-3-0.5-6-0.6-8.9-1c-2.2-0.3-4.5-0.2-6.7-1l0-0.1l-0.1,0c0-0.3-0.2-0.5-0.4-0.6c0-0.6-0.1-1.2-0.1-1.8
		c0.2-1.6,0.4-3.3,0.4-4.9c0-2.6,0.7-5.2,0.5-7.9c0.1-0.4,0.1-0.7,0-1.1c0.4-2.1,0.4-4.2,0.5-6.2c0-0.5-0.2-0.7-0.5-1
		c-5-4.4-9.9-8.9-14.9-13.3c-1.5-1.3-1.6-2.2-0.3-3.7c4.3-5.1,8.5-10.2,12.8-15.3c0.4-0.4,0.6-0.8,0.5-1.5c-0.8-3.3-1.4-6.6-2.2-9.9
		c-0.4-1.8-0.6-3.6-1.3-5.3c0-0.2,0-0.3-0.1-0.5c0.1-0.4,0-0.8-0.1-1.2c-0.2-1.1-0.5-2.1-0.7-3.2c-0.2-1.5,0.3-2.2,1.8-2.6
		c1.3-0.3,2.7-0.6,4-1c4.8-1.2,9.6-2.4,14.3-3.6c0.9-0.2,2.1-0.1,2.6-1.4c1-2.6,2.2-5.2,3.4-7.7c1.6-3.7,3.3-7.4,4.9-11.1
		c0.5-1.1,1.4-1.4,2.5-1c6.3,2.5,12.7,5.1,19,7.7C63,11,63.5,11,64,10.6c5.7-3.3,11.3-6.7,17-10c1.7-1,2.6-0.8,3.7,0.9
		c3.5,5.5,7,11.1,10.4,16.7c0.5,0.9,1.2,1.1,2.1,1.2c4.1,0.4,8.1,0.9,12.2,1.2c2.1,0.2,4.2,0.6,6.3,0.5c0.4,0.1,0.7,0.1,1.1,0.1
		c2,0.7,2.1,1.1,1.9,3.2c-0.1,1.1-0.2,2.3-0.1,3.4c0,0.2,0,0.4,0,0.6c-0.1,0.7-0.2,1.5-0.3,2.2c-0.2,3.3-0.4,6.6-0.6,9.9
		c0,0.2,0,0.3,0,0.5c-0.1,0.9-0.1,1.8-0.3,2.7c-0.1,0.8,0.1,1.4,0.7,1.9c1.4,1.2,2.8,2.5,4.2,3.7c1.8,1.5,3.4,3.4,5.4,4.7
		c1.6,1.7,3.5,3.2,5.2,4.8c1.3,1.2,1.3,1.9,0.3,3.3c-1,1.3-2.3,2.5-3.2,3.9c-0.9,0.8-1.7,1.8-2.4,2.8c-0.3,0.2-0.5,0.4-0.6,0.7
		c-0.1,0-0.2,0.1-0.3,0.2c-2.2,2.7-4.5,5.4-6.7,8c-0.4,0.5-0.3,0.9-0.2,1.4c0.2,0.9,0.4,1.8,0.6,2.6c0.9,4,1.7,8.1,2.6,12.1
		c0.4,1.9,0.6,3.8,1.3,5.6C124.6,99.8,124.6,99.9,124.6,100.1z M74.9,104.4c0.2,0,0.5-0.1,0.7-0.1c0.6,0.2,1-0.2,1.6-0.3
		c4.6-1.1,8.8-3,12.6-5.8c9.9-7.1,15.7-16.7,17.1-28.9c0.7-6-0.1-11.7-2.1-17.3c-2.9-8.1-7.8-14.6-14.9-19.5
		c-6.4-4.4-13.5-6.8-21.2-7.1c-6.8-0.3-13.3,1.2-19.3,4.2c-3.4,1.7-6.6,3.7-9.3,6.4c-0.1,0.1-0.3,0.3-0.4,0.4
		c-0.9,0.5-1.5,1.4-2.1,2.1c-5.9,6.5-9.2,14.2-10.2,22.9c-0.5,4.8-0.1,9.5,1.1,14.2c1.6,5.8,4.3,11,8.1,15.6
		c4.6,5.4,10.3,9.3,16.9,11.8c1.7,0.6,3.4,1.3,5.3,1.4c0.2,0,0.3,0,0.5,0c0.5,0.3,1.1,0.5,1.7,0.4c0.3,0.1,0.6,0.1,0.9,0.1
		c3.6,0.7,7.2,0.6,10.8,0c0.2,0.1,0.5,0,0.7-0.1C73.8,104.9,74.4,104.8,74.9,104.4z"/>
	<path id="XMLID_24_" class="st0" d="M28.5,132.5c0.2-1.3,0.1-2.6,0.1-3.9c0-0.6,0.2-1,0.8-1.3c2.4-1.3,4.8-2.7,7.2-4.1
		c0.8-0.4,1.2-0.4,1.7,0.5c3.4,5.6,6.9,11.1,10.3,16.6c0.9,1.4,1.8,1.6,3.3,0.8c6.2-3.6,12.3-7.1,18.5-10.7c0.7-0.4,1.3-0.4,2-0.1
		c6.3,2.5,12.5,5.1,18.8,7.6c0.6,0.2,1.1,0.5,1.7,0.6c0.7,0.2,1.4,0.1,1.9-0.7l0.1,0l0-0.1c1.1-1.5,1.5-3.3,2.3-5
		c1.2-2.6,2.2-5.3,3.3-7.9c0.2-0.5,0.6-0.7,1.1-0.6c1.1,0.3,2.2,0.6,3.3,0.9c0.7,0.2,0.6,0.8,0.6,1.3c0,4.7,0,9.3,0,14
		c0,10.1,0,20.2,0,30.2c0,10.9,0,21.8,0,32.7c0,0.4,0.2,0.9-0.2,1.1c-0.4,0.2-0.7-0.3-0.9-0.6c-10.9-9.2-21.8-18.3-32.7-27.5
		c-1.3-1.1-2.7-2.2-4-3.3c-0.6-0.6-1.1-0.6-1.7,0c-8.7,7.4-17.4,14.9-26.1,22.3c-3.4,2.9-6.7,5.8-10.1,8.6c-0.3,0.3-0.6,0.7-1.2,0.6
		c0-0.9,0-1.7,0-2.6c0.1-2.9,0.2-5.8,0-8.7c0.1-2.9,0.1-5.8,0-8.7c0.1-2.9,0.1-5.8,0-8.7c0-2.9,0-5.8,0-8.7c0.1-2.9,0.1-5.8,0-8.7
		c0-2.9,0-5.8,0-8.7c0.1-2.9,0.1-5.8,0-8.7C28.5,138.3,28.5,135.4,28.5,132.5z"/>
	<path id="XMLID_18_" class="st0" d="M89.9,88.6c-1.2,1-2.4,2-3.5,3l-0.1,0l0,0.1c-2.2,1.3-4.4,2.7-6.8,3.7c-4.9,2-10,2.7-15.2,2.3
		c-7.1-0.6-13.2-3.3-18.6-7.9c-4.1-3.6-7.2-7.9-9-13.1c-0.1-0.2-0.2-0.4-0.4-0.5c0-0.2-0.1-0.3-0.1-0.5c-1.1-3.9-1.9-7.8-1.6-11.8
		c0.2-2,0.5-4,0.8-6c0,0,0,0,0-0.1c0,0,0-0.1,0-0.1c0-0.1,0-0.1,0-0.2l0,0c0.8-1,0.8-2.3,1.2-3.4C38.9,47.9,42.6,42.8,48,39
		c3.2-2.3,6.7-4.1,10.6-5c0.3-0.1,0.6-0.2,0.9-0.4c0.2,0,0.5-0.1,0.7-0.1c0.6,0.1,1.2-0.1,1.7-0.4c0.3,0,0.6-0.1,0.9-0.1
		c1.8,0,3.6-0.4,5.5-0.2c1.1,0.1,2.3,0.4,3.4,0.2c0.2,0,0.3,0,0.5,0.1c0.5,0.3,1.1,0.5,1.7,0.4c0.2,0,0.3,0,0.5,0.1
		c2,0.7,4.1,1.3,6.1,2.2c6.3,2.9,11.3,7.3,14.8,13.4c1.2,2.1,2.2,4.2,2.8,6.5c0.1,0.3,0.2,0.6,0.4,0.7c0,0.2,0,0.3,0.1,0.5
		c-0.1,0.5,0,0.9,0.4,1.3c0,0.2,0,0.3,0.1,0.5c-0.1,1.3,0.4,2.5,0.5,3.7c0.2,3.1,0.2,6.1-0.4,9.1c0,0.2,0,0.4,0,0.6
		c0,0.2,0,0.3-0.1,0.5c-0.5,0.9-0.6,1.9-0.8,2.8c0,0.1-0.1,0.3-0.1,0.4c-0.1,0.2-0.3,0.3-0.3,0.5c-0.7,2.3-1.9,4.4-3.1,6.4
		c-1,1.7-2.4,3.1-3.5,4.7l-0.1,0l0,0.1c-0.2,0-0.3,0.1-0.3,0.4l-0.1,0l0,0.1C90.2,88,90.1,88.3,89.9,88.6L89.9,88.6z M70.4,75
		c1.4-1.6,2.9-3.2,4.2-4.8c1.2-1.4,2.5-2.7,3.6-4.3c3.4-3.6,6.5-7.4,9.6-11.2c0.9-1.1,0.8-2.8,0-4c-1.5-2.1-4.7-2.3-6.7-0.4
		c-1.2,1.1-2.3,2.3-3.4,3.4c-5.2,5.2-10.5,10.4-15.7,15.7c-0.4,0.4-0.7,0.9-1.4,0.3c-2.2-1.6-4.4-3.1-6.6-4.7
		c-1.1-0.9-2.4-1.2-3.7-1c-2.6,0.4-4.2,3.3-2.8,5.3c1.3,1.8,2.8,3.6,4.5,5.1c0.5,0.8,1.2,1.6,1.9,2.2c1.2,1.5,2.4,2.9,3.8,4.2
		c0.3,0.6,0.7,1,1.2,1.4c0.6,1,1.4,1.7,2.2,2.6c0.4,0.5,0.8,0.3,1.1-0.1c0.7-0.9,1.4-1.7,2.1-2.6C66.3,79.9,68.6,77.6,70.4,75z"/>
</g>
</svg>
