<?xml version="1.0" encoding="utf-8"?>
<!-- Generator: Adobe Illustrator 19.0.0, SVG Export Plug-In . SVG Version: 6.00 Build 0)  -->
<svg version="1.1" id="Layer_1" xmlns="http://www.w3.org/2000/svg" xmlns:xlink="http://www.w3.org/1999/xlink" x="0px" y="0px"
	 viewBox="0 0 595.3 841.9" style="enable-background:new 0 0 595.3 841.9;" xml:space="preserve">
<style type="text/css">
	.st0{fill:#FFFFFF;}
</style>
<g id="XMLID_15359_">
	<g id="XMLID_253_">
		<path id="XMLID_282_" class="st0" d="M281.6,624.3c0-0.1,0-0.2,0-0.2c0.1-1.5,0.7-2.9,1.7-4.1c0.7-0.9,1.6-1.5,2.6-2
			c0.5-0.2,0.9-0.4,1.4-0.6c0.1,0,0.2,0,0.2,0.1c1.1,1.2,2.2,2.3,3.4,3.4c1.5,1.4,3.1,2.4,5,3c0,0,0.1,0,0.1,0
			c0-0.1,0.1-0.3,0.1-0.4c0.2-0.9,0.6-1.6,1.2-2.2c0.7-0.7,1.5-1.1,2.5-1.3c0.9-0.2,1.8,0,2.7,0.4c1.2,0.6,1.9,1.5,2.4,2.8
			c0.1,0.2,0.1,0.4,0.2,0.6c0,0,0,0,0,0.1c0,0,0.1,0,0.1,0c1.4-0.5,2.7-1.2,3.8-2.1c0.3-0.3,0.6-0.5,0.9-0.8c1.3-1.3,2.6-2.6,3.9-4
			c1.8-1.9,3.6-3.8,5.4-5.7c0,0,0.1-0.1,0.1-0.1c-0.2-0.1-0.4-0.1-0.7-0.2c0,0,0.1,0,0.1,0c0.8-0.3,1.7-0.5,2.5-0.8c0,0,0,0,0,0
			c0,0,0,0.1,0,0.1c0,0.1-0.1,0.2-0.1,0.3c-0.2,0.7-0.3,1.4-0.5,2.1c0,0,0,0.1,0,0.1c-0.1-0.2-0.2-0.4-0.3-0.6
			c-1.8,2-3.6,3.9-5.4,5.8c0,0,0.1,0,0.1,0.1c1,0.5,1.8,1.1,2.5,2c0.9,1.1,1.5,2.3,1.7,3.7c0.2,1.6,0,3-0.7,4.5
			c-0.8,1.7-2.2,2.9-3.9,3.6c-0.8,0.3-1.6,0.5-2.4,0.6c-2.1,0.2-4-0.4-5.7-1.7c-1.2-0.9-2-2.2-2.5-3.6c-0.1-0.4-0.2-0.8-0.2-1.2
			c0,0,0-0.1,0-0.1c0,0,0,0,0,0c-2.4,0.6-4.7,0.6-7.1,0c0,0.2-0.1,0.3-0.1,0.5c-0.3,1.4-0.9,2.7-1.9,3.8c-1.1,1.2-2.5,1.9-4.2,2.3
			c-2.1,0.4-4,0-5.8-1.1c-1.4-0.9-2.5-2.2-3-3.8c-0.2-0.6-0.3-1.2-0.4-1.8c0-0.1,0-0.2,0-0.2C281.6,624.9,281.6,624.6,281.6,624.3z
			 M288.1,619.9C288,619.9,288,619.8,288.1,619.9c-0.4-0.4-0.7-0.7-1-1c-0.1-0.1-0.1-0.1-0.2,0c-0.5,0.2-1,0.5-1.4,0.8
			c-0.8,0.6-1.4,1.2-1.9,2c-0.4,0.8-0.7,1.6-0.8,2.5c-0.1,0.7,0,1.5,0.2,2.2c0.3,1.3,1.1,2.4,2.1,3.3c1.1,0.9,2.4,1.4,3.8,1.5
			c0.7,0.1,1.4,0,2.1-0.2c1.2-0.3,2.3-0.9,3.2-1.8c0.9-0.9,1.5-2,1.7-3.3c0-0.2,0-0.3,0.1-0.5c-0.5-0.2-0.9-0.4-1.4-0.5
			c0,0.1,0,0.2,0,0.2c0,0.7-0.2,1.4-0.6,2.1c-1,1.9-3.1,2.9-5.3,2.6c-1.1-0.2-2.1-0.7-2.9-1.5c-1.3-1.4-1.7-3-1.3-4.9
			c0.6-1.8,1.7-2.9,3.5-3.4C287.9,619.9,288,619.9,288.1,619.9z M305.3,625.4c0,0.1,0,0.2,0,0.3c0.1,0.6,0.2,1.2,0.5,1.7
			c0.5,1.2,1.4,2.1,2.4,2.7c1.1,0.7,2.3,1,3.6,1c0.8,0,1.5-0.1,2.3-0.4c1.5-0.5,2.6-1.4,3.4-2.8c0.8-1.3,1.1-2.8,0.8-4.3
			c-0.2-1.1-0.6-2-1.3-2.9c-0.7-0.9-1.7-1.6-2.7-2c0,0,0,0,0,0c-0.4,0.4-0.7,0.7-1.1,1.1c0,0,0,0,0,0c0,0,0.1,0,0.1,0
			c0.9,0.3,1.7,0.7,2.4,1.4c1.4,1.4,1.7,3.5,1,5.3c-0.7,1.8-2.5,3.1-4.6,3.1c-0.7,0-1.3-0.1-1.9-0.3c-2-0.7-3.4-2.5-3.4-4.7
			c0,0,0,0,0-0.1C306.3,625,305.8,625.2,305.3,625.4z M304,624.2c0-0.3-0.1-0.5-0.2-0.7c-0.3-0.8-0.8-1.5-1.6-1.9
			c-0.8-0.4-1.6-0.6-2.4-0.4c-0.9,0.2-1.6,0.7-2.1,1.6c-0.2,0.4-0.4,0.8-0.4,1.3c0,0.1,0,0.1,0,0.2
			C299.5,624.8,301.7,624.8,304,624.2z"/>
		<path id="XMLID_281_" class="st0" d="M301.4,608.5c0.1,0,0.1,0,0.2,0c2.5,0.1,4.9,0.7,7.1,1.8c1.8,0.9,3.5,2,4.9,3.5
			c0,0,0.1,0.1,0.1,0.1c-0.3,0.3-0.7,0.7-1,1c-3.3-3.2-7.4-4.9-12-5c-4.7,0.1-8.7,1.7-12,5c-0.3-0.3-0.7-0.7-1-1
			c0,0,0.1-0.1,0.1-0.1c2.3-2.3,5.1-3.9,8.3-4.7c0.8-0.2,1.6-0.4,2.3-0.4c0.5-0.1,1-0.1,1.5-0.1c0,0,0.1,0,0.1,0
			C300.4,608.5,300.9,608.5,301.4,608.5z"/>
		<path id="XMLID_280_" class="st0" d="M317.3,648.7c0,0,0-0.1,0-0.1c0-1,0-2.1,0-3.1c0,0,0-0.1,0-0.1c0.1,0,0.3,0,0.4,0
			c0,0,0,0.1,0,0.1c0,1.1,0,2.1,0,3.2c0,0,0,0.1,0,0.1C317.6,648.7,317.4,648.7,317.3,648.7z"/>
		<path id="XMLID_279_" class="st0" d="M317.6,640.4c0.3,0,0.5,0,0.8,0c0,0,0-0.1,0-0.1c0-0.6,0-1.1,0-1.7c0-0.1,0-0.2,0-0.3
			c-0.1-0.3-0.3-0.5-0.6-0.4c-0.2,0.1-0.4,0.2-0.5,0.4c0,0,0,0.1,0,0.1c0,0.4-0.1,0.8-0.1,1.3c0,0.4-0.1,0.9-0.1,1.3
			c0,0.1,0,0.3,0,0.4c-0.4,0-0.9,0-1.3,0c0-0.1,0-0.3,0-0.4c0-0.3,0.1-0.7,0.1-1c0-0.4,0.1-0.9,0.1-1.3c0.1-0.6,0-1.2-0.2-1.7
			c0,0,0,0,0-0.1c0,0,0.1,0,0.1,0c0.3,0,0.6,0,1,0c0.1,0,0.1,0,0.2,0.1c0,0.1,0.1,0.2,0.1,0.4c0,0,0,0,0.1,0
			c0.4-0.4,0.9-0.5,1.4-0.5c0.5,0,0.9,0.3,1.1,0.8c0.1,0.3,0.1,0.5,0.2,0.8c0,0.2,0,0.4,0,0.6c0,0.7,0,1.5,0,2.2c0,0.1,0,0.1,0,0.1
			c-0.1,0-1.9,0-2.2,0C317.6,641.3,317.6,640.5,317.6,640.4z"/>
		<path id="XMLID_278_" class="st0" d="M295.8,637.9c0-0.3,0-0.7,0-1c0.1,0,0.2,0,0.3,0c0.3,0,0.6,0,0.8,0.1
			c0.4,0.1,0.6,0.3,0.8,0.7c0.1,0.3,0.2,0.5,0.2,0.8c0,0.4,0.1,0.7,0,1.1c0,0.4-0.1,0.7-0.3,1.1c-0.3,0.6-0.8,0.9-1.4,1
			c-0.3,0-0.6,0-0.9-0.1c-0.5-0.2-0.9-0.5-1.1-1c-0.2-0.4-0.2-0.7-0.2-1.1c0-0.8,0-1.5,0-2.3c0,0,0,0,0-0.1c0.1,0,1.2,0,1.4,0
			c0,0,0,0.1,0,0.1c0,0.7,0,1.4,0,2.1c0,0.3,0,0.5,0.1,0.8c0,0.1,0.1,0.2,0.1,0.3c0.2,0.3,0.6,0.3,0.8,0c0.1-0.1,0.2-0.3,0.2-0.4
			c0.1-0.5,0.1-0.9,0-1.4c0,0,0-0.1,0-0.1c-0.1-0.3-0.3-0.4-0.6-0.4C295.9,637.9,295.9,637.9,295.8,637.9z"/>
		<path id="XMLID_277_" class="st0" d="M281.8,636c0.5,0,0.9,0,1.4,0c0,0.3,0,0.6,0,0.9c0.2,0,0.4,0,0.6,0c0.2,0,0.4,0,0.6,0
			c0.2,0,0.4,0,0.6,0c0.2,0,0.4,0,0.6,0c0,0,0,0.1,0,0.1c0,0.2,0,0.4,0,0.7c0,0.1,0,0.1,0,0.2c-0.2,0.6-0.4,1.2-0.5,1.8
			c-0.1,0.4-0.2,0.8-0.3,1.2c0,0.2-0.1,0.4-0.1,0.6c0,0,0,0,0,0.1c-0.4,0-0.9,0-1.3,0c0.2-1.2,0.5-2.3,0.9-3.5c-0.2,0-0.3,0-0.5,0
			c-0.1,0-0.3,0-0.4,0c-0.2,0-0.3,0-0.5,0c-0.1,0-0.3,0-0.4,0c-0.1,0-0.3,0-0.4,0C281.8,637.3,281.8,636.7,281.8,636z"/>
		<path id="XMLID_276_" class="st0" d="M314.5,637.9c-0.1,0-0.1,0.1-0.2,0.1c-0.3,0.1-0.4,0.3-0.4,0.6c0,0.1,0,0.1,0,0.2
			c0,0.8,0,1.7,0,2.5c0,0,0,0.1,0,0.2c-0.5,0-0.9,0-1.4,0c0,0,0-0.1,0-0.1c0-0.9,0-1.7,0-2.6c0-0.3,0.1-0.5,0.3-0.7c0,0,0,0,0,0
			c-0.7,0-1.4,0-2.1,0c0-0.1,0-0.9,0-1c1.3,0,2.5,0,3.8,0C314.5,637.2,314.5,637.5,314.5,637.9z"/>
		<path id="XMLID_275_" class="st0" d="M303.1,638c0-0.4,0-0.7,0-1.1c0.1,0,0.3,0,0.4,0c0.4,0,0.8,0,1.2,0c0.3,0,0.5,0,0.8,0.1
			c0.1,0,0.2,0.1,0.3,0.1c0.3,0.2,0.5,0.5,0.6,0.8c0,0.2,0.1,0.4,0.1,0.6c0,1,0,1.9,0,2.9c0,0,0,0.1,0,0.1c-0.5,0-0.9,0-1.4,0
			c0,0,0-0.1,0-0.1c0-0.9,0-1.8,0-2.6c0-0.1,0-0.1,0-0.2c0-0.3-0.2-0.5-0.6-0.6c-0.2,0-0.4,0-0.7,0
			C303.6,637.9,303.3,637.9,303.1,638z"/>
		<path id="XMLID_274_" class="st0" d="M300.7,632.4c-0.7-1.2-1.4-2.4-2.1-3.7c1.4,0.2,2.8,0.2,4.3-0.1c0,0,0,0,0,0
			C302.1,629.9,301.4,631.1,300.7,632.4z"/>
		<path id="XMLID_273_" class="st0" d="M309.4,641.4c-0.5,0-0.9,0-1.3,0c0-0.1,0-4.2,0-4.5c0.1,0,1.2,0,1.4,0
			C309.4,638.4,309.4,639.9,309.4,641.4z"/>
		<path id="XMLID_272_" class="st0" d="M291,640c0-1,0-2,0-3.1c0.1,0,1.2,0,1.4,0c0,0,0,0.1,0,0.1c0,0.6,0,1.2,0,1.9
			c0,0.1,0,0.2-0.1,0.2c-0.2,0.3-0.4,0.5-0.6,0.8c0,0.1-0.1,0.1-0.2,0.1C291.4,640,291.2,640,291,640z"/>
		<path id="XMLID_271_" class="st0" d="M307.4,644.3c0,0.1,0,0.1,0,0.2c0,0.7,0,1.4,0,2.1c0,0.1,0,0.3-0.1,0.4
			c-0.1,0.3-0.3,0.5-0.6,0.5c-0.1,0-0.1,0-0.2,0c-0.1,0-0.1,0-0.2,0c0-0.1,0-0.2,0-0.4c0.1,0,0.1,0,0.1,0c0.2,0,0.4-0.1,0.4-0.3
			c0-0.1,0-0.1,0-0.2c0-0.7,0-1.4,0-2.1c0,0,0-0.1,0-0.1c-0.1,0-0.2,0-0.4,0c0-0.1,0-0.2,0-0.4c0.2,0,0.3,0,0.5,0c0.3,0,0.6,0,0.9,0
			c0.2,0,0.5,0,0.7,0.1c0.4,0.1,0.5,0.4,0.6,0.8c0,0.1,0,0.1,0,0.2c0,0.8,0,1.5,0,2.3c0,0,0,0.1,0,0.1c-0.2,0-0.3,0-0.5,0
			c0-0.1,0-0.1,0-0.2c0-0.7,0-1.5,0-2.2c0-0.1,0-0.1,0-0.2c0-0.2-0.1-0.4-0.3-0.5c-0.1-0.1-0.2-0.1-0.4-0.1
			C307.9,644.3,307.6,644.3,307.4,644.3z"/>
		<path id="XMLID_270_" class="st0" d="M285.5,644.4c0-0.1,0-0.3,0-0.4c0,0,0.1,0,0.1,0c0.3-0.1,0.7-0.1,1-0.1
			c0.4,0.1,0.6,0.3,0.8,0.6c0.1,0.2,0.2,0.4,0.2,0.7c0,0.3,0,0.6,0,0.9c0,0.3-0.1,0.5-0.2,0.8c-0.2,0.3-0.5,0.5-0.8,0.5
			c-0.3,0.1-0.6,0-1,0c0,0-0.1,0-0.1,0c0-0.1,0-0.3,0-0.4c0,0,0.1,0,0.1,0c0.2,0.1,0.5,0.1,0.7,0.1c0.4,0,0.6-0.2,0.7-0.5
			c0.1-0.2,0.1-0.3,0.1-0.5c0-0.3,0-0.5,0-0.8c0-0.2,0-0.4-0.1-0.5c-0.1-0.3-0.4-0.4-0.6-0.4C286,644.3,285.8,644.3,285.5,644.4z"/>
		<path id="XMLID_269_" class="st0" d="M287.4,638.4c-0.3,0-0.6,0-1,0c0.1-0.7,0.2-1.4,0.3-2c0,0,0.1,0,0.1,0c0.3,0,0.7,0,1,0
			c0.1,0,0.2,0,0.1,0.2c-0.2,0.6-0.3,1.2-0.5,1.8C287.4,638.3,287.4,638.3,287.4,638.4z"/>
		<path id="XMLID_268_" class="st0" d="M289.2,638.4c-0.3,0-0.6,0-1,0c0.1-0.7,0.2-1.3,0.3-2c0,0,0,0,0.1,0c0.3,0,0.7,0,1,0
			c0.1,0,0.1,0,0.1,0.1C289.6,637.1,289.5,637.7,289.2,638.4C289.2,638.3,289.2,638.3,289.2,638.4z"/>
		<path id="XMLID_267_" class="st0" d="M293.5,644.3c-0.6,0-1.2,0-1.9,0c0-0.1,0-0.2,0-0.3c0.1,0,2.3,0,2.5,0c0,0.1,0,0.2,0,0.3
			c0,0-0.1,0-0.1,0c-0.3,0.1-0.4,0.3-0.4,0.6c0,0.1,0,0.2,0,0.3c0,0.7,0,1.4,0,2.1c0,0,0,0.1,0,0.2c-0.2,0-0.3,0-0.4,0
			c0,0,0-0.1,0-0.1c0-0.8,0-1.5,0-2.3C293.1,644.7,293.2,644.6,293.5,644.3z"/>
		<path id="XMLID_266_" class="st0" d="M319,647.4c-0.1,0-0.3,0-0.4,0c0-0.1,0-0.2,0-0.3c0.1-0.4,0.2-0.7,0.3-1.1
			c0.1-0.5,0.3-1,0.5-1.6c0,0,0-0.1,0-0.1c-0.7,0-1.4,0-2.1,0c0-0.1,0-0.2,0-0.3c0.8,0,1.7,0,2.5,0c0,0.2,0,0.3,0,0.5
			c-0.2,0.7-0.4,1.4-0.6,2.1C319.1,646.8,319,647.1,319,647.4C319,647.4,319,647.4,319,647.4z"/>
		<path id="XMLID_265_" class="st0" d="M295.2,644.3c0-0.1,0-0.2,0-0.4c0.2,0,0.3,0,0.5,0c0.3,0,0.5,0,0.8,0c0.2,0,0.5,0,0.7,0.1
			c0.3,0.1,0.5,0.4,0.6,0.7c0,0.1,0,0.2,0,0.3c0,0.7,0,1.5,0,2.2c0,0,0,0.1,0,0.2c-0.2,0-0.3,0-0.5,0c0-0.1,0-0.1,0-0.2
			c0-0.7,0-1.5,0-2.2c0-0.1,0-0.1,0-0.2c0-0.2-0.2-0.4-0.4-0.5c-0.2-0.1-0.3-0.1-0.5-0.1c-0.3,0-0.7,0-1,0
			C295.3,644.3,295.3,644.3,295.2,644.3z"/>
		<path id="XMLID_264_" class="st0" d="M301.7,647.4c-0.2,0-0.3,0-0.4,0c0-0.1,0-0.1,0-0.2c0-0.7,0-1.4,0-2.2c0-0.1,0-0.1,0-0.2
			c0-0.3-0.1-0.4-0.4-0.5c-0.2-0.1-0.3-0.1-0.5-0.1c-0.3,0-0.7,0-1,0c0,0-0.1,0-0.1,0c0-0.1,0-0.2,0-0.4c0,0,0,0,0.1,0
			c0.4,0,0.9,0,1.3,0c0.2,0,0.4,0,0.5,0.1c0.4,0.1,0.6,0.4,0.6,0.8c0,0.1,0,0.1,0,0.2c0,0.8,0,1.5,0,2.3
			C301.7,647.3,301.7,647.3,301.7,647.4z"/>
		<path id="XMLID_263_" class="st0" d="M281.8,644.3c0-0.1,0-0.2,0-0.4c0,0,0,0,0.1,0c0.4,0,0.8,0,1.2,0c0.2,0,0.4,0,0.6,0.1
			c0.4,0.1,0.6,0.4,0.6,0.8c0,0,0,0.1,0,0.1c0,0.8,0,1.5,0,2.3c0,0,0,0.1,0,0.1c-0.1,0-0.3,0-0.4,0c0,0,0-0.1,0-0.1
			c0-0.7,0-1.4,0-2.2c0-0.1,0-0.1,0-0.2c0-0.3-0.1-0.4-0.4-0.5c-0.2-0.1-0.3-0.1-0.5-0.1c-0.3,0-0.7,0-1,0
			C281.9,644.3,281.9,644.3,281.8,644.3z"/>
		<path id="XMLID_262_" class="st0" d="M313.8,644.3c0-0.1,0-0.2,0-0.4c0,0,0.1,0,0.1,0c0.3,0,0.6,0,0.8,0c0.2,0,0.3,0,0.5,0.1
			c0.4,0.1,0.6,0.4,0.7,0.9c0,0,0,0.1,0,0.1c0,0.7,0,1.5,0,2.2c0,0,0,0.1,0,0.1c-0.2,0-0.3,0-0.5,0c0-0.1,0-0.1,0-0.1
			c0-0.7,0-1.5,0-2.2c0-0.1,0-0.1,0-0.2c0-0.2-0.2-0.4-0.4-0.5c-0.2-0.1-0.3-0.1-0.5-0.1c-0.2,0-0.4,0-0.6,0
			C313.9,644.3,313.9,644.3,313.8,644.3z"/>
		<path id="XMLID_261_" class="st0" d="M290.5,647.4c-0.1,0-0.2,0-0.4,0c0,0-0.1,0-0.1,0c0-0.1,0-0.1,0-0.1c0-0.7,0-1.4,0-2.1
			c0,0,0-0.1,0-0.1c0-0.5-0.3-0.7-0.6-0.7c-0.1,0-0.2,0-0.3,0c-0.2,0-0.4,0-0.6,0c0-0.1,0-0.2,0-0.4c0,0,0.1,0,0.1,0
			c0.3,0,0.6,0,0.9,0c0.2,0,0.3,0,0.5,0.1c0.4,0.2,0.6,0.4,0.6,0.8c0,0,0,0.1,0,0.1c0,0.8,0,1.5,0,2.3
			C290.5,647.3,290.5,647.4,290.5,647.4z"/>
		<path id="XMLID_260_" class="st0" d="M295.7,647.4c-0.1,0-0.3,0-0.4,0c0-0.7,0-1.5,0-2.2c0.1,0,0.3,0,0.4,0
			C295.7,645.9,295.7,646.7,295.7,647.4z"/>
		<path id="XMLID_259_" class="st0" d="M281.8,645.2c0.1,0,0.3,0,0.4,0c0,0.7,0,1.5,0,2.2c-0.1,0-0.3,0-0.4,0
			C281.8,646.7,281.8,645.9,281.8,645.2z"/>
		<path id="XMLID_258_" class="st0" d="M299.6,647.4c-0.2,0-0.3,0-0.4,0c0-0.7,0-1.5,0-2.2c0.1,0,0.3,0,0.4,0
			C299.6,645.9,299.6,646.7,299.6,647.4z"/>
		<path id="XMLID_257_" class="st0" d="M310.6,644c0.1,0,0.3,0,0.4,0c0,0.1,0,0.1,0,0.1c0,0.5,0,1,0,1.6c0,0.1,0,0.2-0.1,0.2
			c-0.1,0.1-0.2,0.2-0.2,0.3c0,0.1,0,0.1-0.1,0.1C310.6,646.1,310.6,644.2,310.6,644z"/>
		<path id="XMLID_256_" class="st0" d="M312.4,646.2c0-0.8,0-1.5,0-2.3c0.1,0,0.3,0,0.4,0c0,0,0,0.1,0,0.1c0,0.5,0,1.1,0,1.6
			c0,0.1,0,0.1-0.1,0.2c-0.1,0.1-0.2,0.2-0.2,0.3C312.5,646.2,312.4,646.3,312.4,646.2z"/>
		<path id="XMLID_255_" class="st0" d="M311.2,616.4c-0.3,0.3-0.7,0.7-1,1c-2.7-2.6-5.8-3.9-9.6-3.9c-3.7,0-6.9,1.4-9.6,4
			c-0.3-0.3-0.7-0.7-1-1c0.1-0.3,1.5-1.4,2.3-1.9c2-1.3,4.2-2.1,6.6-2.4c2.7-0.3,5.3,0.1,7.7,1.2
			C308.4,614.1,309.9,615.1,311.2,616.4z"/>
		<path id="XMLID_254_" class="st0" d="M308.6,619.1c-0.3,0.3-0.7,0.7-1,1c-1.9-1.8-4.2-2.8-6.9-2.8c-2.7,0-5,1-6.9,2.8
			c-0.3-0.3-0.7-0.7-1-1C296.8,614.9,304.1,614.6,308.6,619.1z"/>
	</g>
</g>
</svg>
