<?xml version="1.0" encoding="utf-8"?>
<!-- Generator: Adobe Illustrator 19.0.0, SVG Export Plug-In . SVG Version: 6.00 Build 0)  -->
<svg version="1.1" id="Layer_1" xmlns="http://www.w3.org/2000/svg" xmlns:xlink="http://www.w3.org/1999/xlink" x="0px" y="0px"
	 viewBox="0 0 25.1 25.3" style="enable-background:new 0 0 25.1 25.3;" xml:space="preserve">
<g id="XMLID_1108_">
	<g id="XMLID_295_">
		<path id="XMLID_324_" d="M0,9.9c0-0.1,0-0.1,0-0.2c0.1-1,0.4-1.8,1.1-2.6c0.5-0.5,1-1,1.6-1.3C3,5.8,3.3,5.7,3.6,5.6
			c0.1,0,0.1,0,0.2,0c0.7,0.7,1.4,1.5,2.1,2.1c0.9,0.9,2,1.5,3.2,1.9c0,0,0,0,0.1,0c0-0.1,0-0.2,0.1-0.3C9.3,8.9,9.6,8.4,10,8
			c0.4-0.4,1-0.7,1.6-0.8c0.6-0.1,1.2,0,1.7,0.3c0.7,0.4,1.2,1,1.5,1.7c0,0.1,0.1,0.3,0.1,0.4c0,0,0,0,0,0c0,0,0,0,0.1,0
			c0.9-0.3,1.7-0.8,2.4-1.3c0.2-0.2,0.4-0.3,0.6-0.5c0.8-0.8,1.7-1.7,2.5-2.5c1.1-1.2,2.3-2.4,3.4-3.6c0,0,0,0,0.1-0.1
			c-0.1,0-0.3-0.1-0.4-0.1c0,0,0,0,0.1,0c0.5-0.2,1-0.3,1.6-0.5c0,0,0,0,0,0c0,0,0,0,0,0c0,0.1,0,0.1,0,0.2
			c-0.1,0.5-0.2,0.9-0.3,1.4c0,0,0,0,0,0.1c-0.1-0.1-0.1-0.3-0.2-0.4c-1.1,1.2-2.3,2.5-3.4,3.7c0,0,0.1,0,0.1,0
			c0.6,0.3,1.1,0.7,1.6,1.2c0.6,0.7,1,1.4,1.1,2.3c0.1,1,0,1.9-0.4,2.8c-0.5,1.1-1.4,1.8-2.4,2.3c-0.5,0.2-1,0.3-1.5,0.4
			c-1.3,0.1-2.5-0.3-3.6-1.1c-0.8-0.6-1.3-1.4-1.6-2.3c-0.1-0.2-0.1-0.5-0.2-0.7c0,0,0,0,0,0c0,0,0,0,0,0c-1.5,0.4-3,0.4-4.5,0
			c0,0.1,0,0.2-0.1,0.3c-0.2,0.9-0.6,1.7-1.2,2.4c-0.7,0.8-1.6,1.2-2.6,1.4c-1.3,0.3-2.5,0-3.7-0.7c-0.9-0.6-1.5-1.4-1.9-2.4
			c-0.1-0.4-0.2-0.8-0.3-1.2c0,0,0-0.1,0-0.1C0,10.3,0,10.1,0,9.9z M4.1,7.2C4.1,7.1,4,7.1,4.1,7.2C3.8,6.9,3.6,6.7,3.5,6.5
			c-0.1-0.1-0.1-0.1-0.1,0C3,6.6,2.7,6.8,2.4,7C1.9,7.4,1.5,7.8,1.2,8.3C1,8.8,0.8,9.3,0.8,9.9c0,0.5,0,0.9,0.1,1.4
			c0.2,0.8,0.7,1.5,1.3,2.1c0.7,0.6,1.5,0.9,2.4,1c0.4,0,0.9,0,1.3-0.1c0.8-0.2,1.5-0.6,2-1.1c0.6-0.6,0.9-1.3,1.1-2.1
			c0-0.1,0-0.2,0-0.3c-0.3-0.1-0.6-0.2-0.9-0.3c0,0.1,0,0.1,0,0.1c0,0.5-0.2,0.9-0.4,1.3c-0.6,1.2-2,1.8-3.3,1.6
			c-0.7-0.1-1.3-0.4-1.9-0.9c-0.8-0.9-1.1-1.9-0.8-3.1C2.1,8.3,2.9,7.5,4,7.2C4,7.2,4,7.2,4.1,7.2z M15,10.6c0,0.1,0,0.1,0,0.2
			c0,0.4,0.2,0.7,0.3,1.1c0.3,0.7,0.9,1.3,1.5,1.7c0.7,0.4,1.4,0.7,2.2,0.7c0.5,0,1-0.1,1.4-0.2c0.9-0.3,1.7-0.9,2.2-1.7
			c0.5-0.8,0.7-1.8,0.5-2.7c-0.1-0.7-0.4-1.3-0.8-1.8c-0.5-0.6-1.1-1-1.7-1.3c0,0,0,0,0,0c-0.2,0.2-0.5,0.5-0.7,0.7c0,0,0,0,0,0
			c0,0,0,0,0.1,0c0.6,0.2,1.1,0.5,1.5,0.9c0.9,0.9,1.1,2.2,0.6,3.4c-0.5,1.1-1.6,1.9-2.9,2c-0.4,0-0.8,0-1.2-0.2
			c-1.2-0.4-2.1-1.6-2.1-3c0,0,0,0,0,0C15.6,10.4,15.3,10.5,15,10.6z M14.1,9.9c0-0.2-0.1-0.3-0.1-0.5c-0.2-0.5-0.5-0.9-1-1.2
			c-0.5-0.3-1-0.4-1.5-0.2c-0.6,0.1-1,0.5-1.3,1C10,9.2,9.9,9.5,9.9,9.8c0,0,0,0.1,0,0.1C11.3,10.3,12.7,10.3,14.1,9.9z"/>
		<path id="XMLID_323_" d="M12.5,0c0,0,0.1,0,0.1,0c1.6,0.1,3.1,0.5,4.5,1.1c1.2,0.6,2.2,1.3,3.1,2.2c0,0,0,0,0.1,0.1
			C20,3.6,19.8,3.8,19.6,4C17.5,2,15,0.9,12,0.9C9.1,0.9,6.6,2,4.4,4C4.2,3.8,4,3.6,3.8,3.4c0,0,0,0,0.1-0.1c1.5-1.4,3.2-2.4,5.2-3
			c0.5-0.1,1-0.2,1.5-0.3C10.9,0,11.2,0,11.5,0c0,0,0.1,0,0.1,0C11.9,0,12.2,0,12.5,0z"/>
		<path id="XMLID_322_" d="M22.5,25.3C22.5,25.3,22.5,25.3,22.5,25.3c0-0.7,0-1.4,0-2.1c0,0,0,0,0-0.1c0.1,0,0.2,0,0.3,0
			c0,0,0,0,0,0.1c0,0.7,0,1.3,0,2c0,0,0,0,0,0.1C22.7,25.3,22.6,25.3,22.5,25.3z"/>
		<path id="XMLID_321_" d="M22.7,20.1c0.2,0,0.3,0,0.5,0c0,0,0,0,0-0.1c0-0.4,0-0.7,0-1.1c0-0.1,0-0.1,0-0.2
			c-0.1-0.2-0.2-0.3-0.4-0.2c-0.1,0-0.2,0.1-0.3,0.3c0,0,0,0,0,0.1c0,0.3,0,0.5-0.1,0.8c0,0.3,0,0.6-0.1,0.8c0,0.1,0,0.2,0,0.2
			c-0.3,0-0.6,0-0.8,0c0-0.1,0-0.2,0-0.3c0-0.2,0-0.4,0.1-0.6c0-0.3,0-0.5,0.1-0.8c0-0.4,0-0.7-0.1-1.1c0,0,0,0,0,0c0,0,0,0,0.1,0
			c0.2,0,0.4,0,0.6,0c0.1,0,0.1,0,0.1,0.1c0,0.1,0,0.1,0.1,0.2c0,0,0,0,0,0c0.3-0.2,0.6-0.3,0.9-0.3c0.3,0,0.6,0.2,0.7,0.5
			c0.1,0.2,0.1,0.3,0.1,0.5c0,0.1,0,0.2,0,0.4c0,0.5,0,0.9,0,1.4c0,0,0,0.1,0,0.1c-0.1,0-1.2,0-1.4,0C22.7,20.7,22.7,20.2,22.7,20.1
			z"/>
		<path id="XMLID_320_" d="M9,18.5c0-0.2,0-0.4,0-0.7c0.1,0,0.1,0,0.2,0c0.2,0,0.4,0,0.5,0c0.2,0.1,0.4,0.2,0.5,0.4
			c0.1,0.2,0.1,0.3,0.1,0.5c0,0.2,0,0.5,0,0.7c0,0.2-0.1,0.5-0.2,0.7c-0.2,0.4-0.5,0.6-0.9,0.6c-0.2,0-0.4,0-0.5,0
			c-0.3-0.1-0.6-0.3-0.7-0.7c-0.1-0.2-0.2-0.5-0.2-0.7c0-0.5,0-0.9,0-1.4c0,0,0,0,0,0c0.1,0,0.7,0,0.9,0c0,0,0,0.1,0,0.1
			c0,0.4,0,0.9,0,1.3c0,0.2,0,0.3,0.1,0.5c0,0.1,0,0.1,0.1,0.2c0.1,0.2,0.4,0.2,0.5,0c0.1-0.1,0.1-0.2,0.1-0.3
			c0.1-0.3,0.1-0.6,0-0.9c0,0,0,0,0-0.1C9.4,18.6,9.2,18.5,9,18.5C9,18.5,9,18.5,9,18.5z"/>
		<path id="XMLID_319_" d="M0.1,17.3c0.3,0,0.6,0,0.9,0c0,0.2,0,0.4,0,0.6c0.1,0,0.2,0,0.4,0c0.1,0,0.2,0,0.4,0c0.1,0,0.2,0,0.4,0
			c0.1,0,0.2,0,0.4,0c0,0,0,0,0,0.1c0,0.1,0,0.3,0,0.4c0,0,0,0.1,0,0.1c-0.1,0.4-0.2,0.8-0.3,1.1C2,19.8,2,20.1,1.9,20.3
			c0,0.1-0.1,0.2-0.1,0.4c0,0,0,0,0,0c-0.3,0-0.6,0-0.8,0c0.1-0.7,0.3-1.5,0.6-2.2c-0.1,0-0.2,0-0.3,0c-0.1,0-0.2,0-0.3,0
			c-0.1,0-0.2,0-0.3,0c-0.1,0-0.2,0-0.3,0c-0.1,0-0.2,0-0.3,0C0.1,18.1,0.1,17.7,0.1,17.3z"/>
		<path id="XMLID_318_" d="M20.7,18.5c0,0-0.1,0-0.1,0.1c-0.2,0.1-0.2,0.2-0.2,0.4c0,0,0,0.1,0,0.1c0,0.5,0,1.1,0,1.6
			c0,0,0,0.1,0,0.1c-0.3,0-0.6,0-0.9,0c0,0,0,0,0-0.1c0-0.5,0-1.1,0-1.6c0-0.2,0-0.3,0.2-0.5c0,0,0,0,0,0c-0.4,0-0.9,0-1.3,0
			c0-0.1,0-0.6,0-0.7c0.8,0,1.6,0,2.4,0C20.7,18.1,20.7,18.3,20.7,18.5z"/>
		<path id="XMLID_317_" d="M13.6,18.6c0-0.2,0-0.4,0-0.7c0.1,0,0.2,0,0.3,0c0.2,0,0.5,0,0.7,0c0.2,0,0.3,0,0.5,0.1
			c0.1,0,0.1,0,0.2,0.1c0.2,0.1,0.3,0.3,0.4,0.5c0,0.1,0,0.2,0,0.4c0,0.6,0,1.2,0,1.8c0,0,0,0,0,0.1c-0.3,0-0.6,0-0.9,0
			c0,0,0-0.1,0-0.1c0-0.6,0-1.1,0-1.7c0,0,0-0.1,0-0.1c0-0.2-0.1-0.3-0.4-0.4c-0.1,0-0.3,0-0.4,0C13.9,18.5,13.7,18.5,13.6,18.6z"/>
		<path id="XMLID_316_" d="M12.1,15c-0.4-0.8-0.9-1.5-1.3-2.3c0.9,0.1,1.8,0.1,2.7,0c0,0,0,0,0,0C13,13.5,12.5,14.3,12.1,15z"/>
		<path id="XMLID_315_" d="M17.5,20.7c-0.3,0-0.6,0-0.8,0c0-0.1,0-2.6,0-2.8c0.1,0,0.7,0,0.9,0C17.5,18.8,17.5,19.8,17.5,20.7z"/>
		<path id="XMLID_314_" d="M6,19.8c0-0.6,0-1.3,0-1.9c0.1,0,0.8,0,0.9,0c0,0,0,0.1,0,0.1c0,0.4,0,0.8,0,1.2c0,0.1,0,0.1,0,0.1
			c-0.1,0.2-0.3,0.3-0.4,0.5c0,0-0.1,0.1-0.1,0.1C6.2,19.8,6.1,19.8,6,19.8z"/>
		<path id="XMLID_313_" d="M16.3,22.5C16.3,22.6,16.3,22.6,16.3,22.5c0,0.5,0,1,0,1.4c0,0.1,0,0.2,0,0.3c-0.1,0.2-0.2,0.3-0.4,0.3
			c0,0-0.1,0-0.1,0c0,0-0.1,0-0.1,0c0-0.1,0-0.2,0-0.2c0,0,0.1,0,0.1,0c0.2,0,0.3-0.1,0.3-0.2c0,0,0-0.1,0-0.1c0-0.4,0-0.9,0-1.3
			c0,0,0-0.1,0-0.1c-0.1,0-0.2,0-0.2,0c0-0.1,0-0.2,0-0.2c0.1,0,0.2,0,0.3,0c0.2,0,0.4,0,0.6,0c0.1,0,0.3,0,0.4,0.1
			c0.2,0.1,0.3,0.3,0.4,0.5c0,0,0,0.1,0,0.1c0,0.5,0,1,0,1.4c0,0,0,0.1,0,0.1c-0.1,0-0.2,0-0.3,0c0,0,0-0.1,0-0.1c0-0.5,0-0.9,0-1.4
			c0,0,0-0.1,0-0.1c0-0.1-0.1-0.2-0.2-0.3c-0.1,0-0.2-0.1-0.2-0.1C16.6,22.5,16.4,22.5,16.3,22.5z"/>
		<path id="XMLID_312_" d="M2.5,22.6c0-0.1,0-0.2,0-0.2c0,0,0,0,0.1,0c0.2-0.1,0.4-0.1,0.7,0c0.2,0,0.4,0.2,0.5,0.4
			c0.1,0.1,0.1,0.3,0.1,0.4c0,0.2,0,0.4,0,0.6c0,0.2-0.1,0.3-0.1,0.5c-0.1,0.2-0.3,0.3-0.5,0.3c-0.2,0-0.4,0-0.6,0c0,0,0,0-0.1,0
			c0-0.1,0-0.2,0-0.2c0,0,0,0,0.1,0c0.1,0,0.3,0.1,0.4,0.1c0.2,0,0.4-0.1,0.5-0.3c0-0.1,0.1-0.2,0.1-0.3c0-0.2,0-0.3,0-0.5
			c0-0.1,0-0.2-0.1-0.3c-0.1-0.2-0.2-0.3-0.4-0.3C2.8,22.5,2.6,22.6,2.5,22.6z"/>
		<path id="XMLID_311_" d="M3.7,18.8c-0.2,0-0.4,0-0.6,0c0.1-0.4,0.1-0.9,0.2-1.3c0,0,0,0,0.1,0c0.2,0,0.4,0,0.6,0
			c0.1,0,0.1,0,0.1,0.1C3.9,18,3.8,18.4,3.7,18.8C3.7,18.8,3.7,18.8,3.7,18.8z"/>
		<path id="XMLID_310_" d="M4.8,18.8c-0.2,0-0.4,0-0.6,0c0.1-0.4,0.1-0.9,0.2-1.3c0,0,0,0,0,0c0.2,0,0.4,0,0.7,0
			c0.1,0,0.1,0,0.1,0.1C5.1,18,5,18.4,4.8,18.8C4.8,18.8,4.8,18.8,4.8,18.8z"/>
		<path id="XMLID_309_" d="M7.5,22.5c-0.4,0-0.8,0-1.2,0c0-0.1,0-0.1,0-0.2c0.1,0,1.5,0,1.6,0c0,0.1,0,0.1,0,0.2c0,0,0,0-0.1,0
			c-0.2,0.1-0.2,0.2-0.3,0.4c0,0.1,0,0.1,0,0.2c0,0.4,0,0.9,0,1.3c0,0,0,0.1,0,0.1c-0.1,0-0.2,0-0.3,0c0,0,0,0,0-0.1
			c0-0.5,0-1,0-1.4C7.3,22.8,7.3,22.7,7.5,22.5z"/>
		<path id="XMLID_308_" d="M23.6,24.5c-0.1,0-0.2,0-0.3,0c0-0.1,0-0.1,0-0.2c0.1-0.2,0.1-0.5,0.2-0.7c0.1-0.3,0.2-0.7,0.3-1
			c0,0,0-0.1,0-0.1c-0.4,0-0.9,0-1.3,0c0-0.1,0-0.1,0-0.2c0.5,0,1.1,0,1.6,0c0,0.1,0,0.2,0,0.3c-0.1,0.4-0.3,0.9-0.4,1.3
			C23.7,24.1,23.6,24.3,23.6,24.5C23.6,24.5,23.6,24.5,23.6,24.5z"/>
		<path id="XMLID_307_" d="M8.6,22.6c0-0.1,0-0.2,0-0.2c0.1,0,0.2,0,0.3,0c0.2,0,0.3,0,0.5,0c0.2,0,0.3,0,0.4,0.1
			c0.2,0.1,0.3,0.2,0.4,0.5c0,0.1,0,0.1,0,0.2c0,0.5,0,0.9,0,1.4c0,0,0,0.1,0,0.1c-0.1,0-0.2,0-0.3,0c0,0,0-0.1,0-0.1
			c0-0.5,0-0.9,0-1.4c0,0,0-0.1,0-0.1c0-0.2-0.1-0.3-0.2-0.3c-0.1,0-0.2-0.1-0.3-0.1C9.1,22.5,8.9,22.5,8.6,22.6
			C8.7,22.6,8.6,22.6,8.6,22.6z"/>
		<path id="XMLID_306_" d="M12.7,24.5c-0.1,0-0.2,0-0.3,0c0,0,0-0.1,0-0.1c0-0.5,0-0.9,0-1.4c0,0,0-0.1,0-0.1c0-0.2-0.1-0.3-0.2-0.3
			c-0.1,0-0.2-0.1-0.3-0.1c-0.2,0-0.4,0-0.7,0c0,0,0,0-0.1,0c0-0.1,0-0.2,0-0.2c0,0,0,0,0,0c0.3,0,0.5,0,0.8,0c0.1,0,0.2,0,0.3,0.1
			c0.2,0.1,0.4,0.3,0.4,0.5c0,0,0,0.1,0,0.1C12.7,23.5,12.7,23.9,12.7,24.5C12.7,24.4,12.7,24.5,12.7,24.5z"/>
		<path id="XMLID_305_" d="M0.1,22.6c0-0.1,0-0.2,0-0.2c0,0,0,0,0,0c0.3,0,0.5,0,0.8,0c0.1,0,0.3,0,0.4,0.1c0.2,0.1,0.4,0.3,0.4,0.5
			c0,0,0,0.1,0,0.1c0,0.5,0,1,0,1.5c0,0,0,0,0,0.1c-0.1,0-0.2,0-0.3,0c0,0,0-0.1,0-0.1c0-0.5,0-0.9,0-1.4c0,0,0-0.1,0-0.1
			c0-0.2-0.1-0.3-0.2-0.3c-0.1,0-0.2-0.1-0.3-0.1C0.7,22.5,0.4,22.5,0.1,22.6C0.2,22.6,0.2,22.6,0.1,22.6z"/>
		<path id="XMLID_304_" d="M20.3,22.5c0-0.1,0-0.2,0-0.2c0,0,0,0,0.1,0c0.2,0,0.4,0,0.5,0c0.1,0,0.2,0,0.3,0.1
			c0.3,0.1,0.4,0.3,0.4,0.6c0,0,0,0.1,0,0.1c0,0.5,0,0.9,0,1.4c0,0,0,0.1,0,0.1c-0.1,0-0.2,0-0.3,0c0,0,0-0.1,0-0.1
			c0-0.5,0-0.9,0-1.4c0,0,0-0.1,0-0.1c0-0.1-0.1-0.3-0.2-0.3c-0.1,0-0.2-0.1-0.3-0.1C20.7,22.5,20.5,22.5,20.3,22.5
			C20.4,22.5,20.4,22.5,20.3,22.5z"/>
		<path id="XMLID_303_" d="M5.6,24.5c-0.1,0-0.2,0-0.2,0c0,0,0,0-0.1,0c0,0,0-0.1,0-0.1c0-0.4,0-0.9,0-1.3c0,0,0,0,0-0.1
			c0-0.3-0.2-0.4-0.4-0.5c-0.1,0-0.1,0-0.2,0c-0.1,0-0.3,0-0.4,0c0-0.1,0-0.1,0-0.2c0,0,0,0,0.1,0c0.2,0,0.4,0,0.5,0
			c0.1,0,0.2,0,0.3,0.1c0.2,0.1,0.4,0.3,0.4,0.5c0,0,0,0,0,0.1C5.6,23.5,5.6,23.9,5.6,24.5C5.6,24.5,5.6,24.5,5.6,24.5z"/>
		<path id="XMLID_302_" d="M8.9,24.5c-0.1,0-0.2,0-0.3,0c0-0.5,0-0.9,0-1.4c0.1,0,0.2,0,0.3,0C8.9,23.6,8.9,24,8.9,24.5z"/>
		<path id="XMLID_301_" d="M0.1,23.1c0.1,0,0.2,0,0.3,0c0,0.5,0,0.9,0,1.4c-0.1,0-0.2,0-0.3,0C0.1,24,0.1,23.6,0.1,23.1z"/>
		<path id="XMLID_300_" d="M11.4,24.5c-0.1,0-0.2,0-0.3,0c0-0.5,0-0.9,0-1.4c0.1,0,0.2,0,0.3,0C11.4,23.6,11.4,24,11.4,24.5z"/>
		<path id="XMLID_299_" d="M18.3,22.3c0.1,0,0.2,0,0.3,0c0,0,0,0.1,0,0.1c0,0.3,0,0.7,0,1c0,0.1,0,0.1,0,0.1
			c-0.1,0.1-0.1,0.1-0.1,0.2c0,0,0,0-0.1,0C18.3,23.7,18.3,22.5,18.3,22.3z"/>
		<path id="XMLID_298_" d="M19.4,23.8c0-0.5,0-1,0-1.4c0.1,0,0.2,0,0.3,0c0,0,0,0,0,0.1c0,0.3,0,0.7,0,1c0,0,0,0.1,0,0.1
			C19.6,23.6,19.5,23.7,19.4,23.8C19.5,23.8,19.4,23.8,19.4,23.8z"/>
		<path id="XMLID_297_" d="M18.7,5c-0.2,0.2-0.4,0.4-0.6,0.6c-1.7-1.6-3.7-2.5-6-2.5C9.7,3.1,7.7,4,6,5.6C5.8,5.4,5.6,5.2,5.4,5
			c0.1-0.2,1-0.9,1.5-1.2C8.1,2.9,9.5,2.4,11,2.3c1.7-0.2,3.3,0.1,4.9,0.8C16.9,3.5,17.9,4.1,18.7,5z"/>
		<path id="XMLID_296_" d="M17,6.7c-0.2,0.2-0.4,0.4-0.6,0.6c-1.2-1.2-2.7-1.8-4.3-1.8c-1.7,0-3.1,0.6-4.4,1.8
			C7.5,7.1,7.2,6.9,7,6.7C9.6,4,14.2,3.8,17,6.7z"/>
	</g>
</g>
</svg>
