<?xml version="1.0" encoding="utf-8"?>
<!-- Generator: Adobe Illustrator 19.0.0, SVG Export Plug-In . SVG Version: 6.00 Build 0)  -->
<svg version="1.1" id="Layer_1" xmlns="http://www.w3.org/2000/svg" xmlns:xlink="http://www.w3.org/1999/xlink" x="0px" y="0px"
	 viewBox="0 0 39.9 40.3" style="enable-background:new 0 0 39.9 40.3;" xml:space="preserve">
<style type="text/css">
	.st0{fill:#FFFFFF;}
</style>
<g id="XMLID_15359_">
	<g id="XMLID_253_">
		<path id="XMLID_282_" class="st0" d="M0.3,15.8c0-0.1,0-0.2,0-0.2C0.4,14.1,1,12.7,2,11.5c0.7-0.9,1.6-1.5,2.6-2
			C5.1,9.3,5.5,9.1,6,8.9c0.1,0,0.2,0,0.2,0.1c1.1,1.2,2.2,2.3,3.4,3.4c1.5,1.4,3.1,2.4,5,3h0.1c0-0.1,0.1-0.3,0.1-0.4
			c0.2-0.9,0.6-1.6,1.2-2.2c0.7-0.7,1.5-1.1,2.5-1.3c0.9-0.2,1.8,0,2.7,0.4c1.2,0.6,1.9,1.5,2.4,2.8c0.1,0.2,0.1,0.4,0.2,0.6
			c0,0,0,0,0,0.1h0.1c1.4-0.5,2.7-1.2,3.8-2.1c0.3-0.3,0.6-0.5,0.9-0.8c1.3-1.3,2.6-2.6,3.9-4c1.8-1.9,3.6-3.8,5.4-5.7L38,2.7
			c-0.2-0.1-0.4-0.1-0.7-0.2h0.1c0.8-0.3,1.7-0.5,2.5-0.8l0,0v0.1c0,0.1-0.1,0.2-0.1,0.3c-0.2,0.7-0.3,1.4-0.5,2.1v0.1
			c-0.1-0.2-0.2-0.4-0.3-0.6c-1.8,2-3.6,3.9-5.4,5.8c0,0,0.1,0,0.1,0.1c1,0.5,1.8,1.1,2.5,2c0.9,1.1,1.5,2.3,1.7,3.7
			c0.2,1.6,0,3-0.7,4.5c-0.8,1.7-2.2,2.9-3.9,3.6c-0.8,0.3-1.6,0.5-2.4,0.6c-2.1,0.2-4-0.4-5.7-1.7c-1.2-0.9-2-2.2-2.5-3.6
			c-0.1-0.4-0.2-0.8-0.2-1.2v-0.1l0,0c-2.4,0.6-4.7,0.6-7.1,0c0,0.2-0.1,0.3-0.1,0.5c-0.3,1.4-0.9,2.7-1.9,3.8
			c-1.1,1.2-2.5,1.9-4.2,2.3c-2.1,0.4-4,0-5.8-1.1c-1.4-0.9-2.5-2.2-3-3.8c-0.2-0.6-0.3-1.2-0.4-1.8c0-0.1,0-0.2,0-0.2
			C0.3,16.4,0.3,16.1,0.3,15.8z M6.8,11.4C6.7,11.4,6.7,11.3,6.8,11.4c-0.4-0.4-0.7-0.7-1-1c-0.1-0.1-0.1-0.1-0.2,0
			c-0.5,0.2-1,0.5-1.4,0.8c-0.8,0.6-1.4,1.2-1.9,2c-0.4,0.8-0.7,1.6-0.8,2.5c-0.1,0.7,0,1.5,0.2,2.2c0.3,1.3,1.1,2.4,2.1,3.3
			c1.1,0.9,2.4,1.4,3.8,1.5c0.7,0.1,1.4,0,2.1-0.2c1.2-0.3,2.3-0.9,3.2-1.8c0.9-0.9,1.5-2,1.7-3.3c0-0.2,0-0.3,0.1-0.5
			c-0.5-0.2-0.9-0.4-1.4-0.5c0,0.1,0,0.2,0,0.2c0,0.7-0.2,1.4-0.6,2.1c-1,1.9-3.1,2.9-5.3,2.6c-1.1-0.2-2.1-0.7-2.9-1.5
			c-1.3-1.4-1.7-3-1.3-4.9C3.8,13.1,4.9,12,6.8,11.4C6.6,11.4,6.7,11.4,6.8,11.4z M24,16.9c0,0.1,0,0.2,0,0.3
			c0.1,0.6,0.2,1.2,0.5,1.7c0.5,1.2,1.4,2.1,2.4,2.7c1.1,0.7,2.3,1,3.6,1c0.8,0,1.5-0.1,2.3-0.4c1.5-0.5,2.6-1.4,3.4-2.8
			c0.8-1.3,1.1-2.8,0.8-4.3c-0.2-1.1-0.6-2-1.3-2.9c-0.7-0.9-1.7-1.6-2.7-2l0,0c-0.4,0.4-0.7,0.7-1.1,1.1l0,0H32
			c0.9,0.3,1.7,0.7,2.4,1.4c1.4,1.4,1.7,3.5,1,5.3s-2.5,3.1-4.6,3.1c-0.7,0-1.3-0.1-1.9-0.3c-2-0.7-3.4-2.5-3.4-4.7c0,0,0,0,0-0.1
			C25,16.5,24.5,16.7,24,16.9z M22.7,15.7c0-0.3-0.1-0.5-0.2-0.7c-0.3-0.8-0.8-1.5-1.6-1.9c-0.8-0.4-1.6-0.6-2.4-0.4
			c-0.9,0.2-1.6,0.7-2.1,1.6c-0.2,0.4-0.4,0.8-0.4,1.3c0,0.1,0,0.1,0,0.2C18.2,16.3,20.4,16.3,22.7,15.7z"/>
		<path id="XMLID_281_" class="st0" d="M20.1,0c0.1,0,0.1,0,0.2,0c2.5,0.1,4.9,0.7,7.1,1.8c1.8,0.9,3.5,2,4.9,3.5l0.1,0.1
			c-0.3,0.3-0.7,0.7-1,1c-3.3-3.2-7.4-4.9-12-5c-4.7,0.1-8.7,1.7-12,5c-0.3-0.3-0.7-0.7-1-1l0.1-0.1c2.3-2.3,5.1-3.9,8.3-4.7
			c0.8-0.2,1.6-0.4,2.3-0.4c0.5-0.1,1-0.1,1.5-0.1h0.1C19.1,0,19.6,0,20.1,0z"/>
		<path id="XMLID_280_" class="st0" d="M36,40.2L36,40.2c0-1.1,0-2.2,0-3.2v-0.1c0.1,0,0.3,0,0.4,0V37c0,1.1,0,2.1,0,3.2v0.1
			C36.3,40.2,36.1,40.2,36,40.2z"/>
		<path id="XMLID_279_" class="st0" d="M36.3,31.9c0.3,0,0.5,0,0.8,0v-0.1c0-0.6,0-1.1,0-1.7c0-0.1,0-0.2,0-0.3
			c-0.1-0.3-0.3-0.5-0.6-0.4c-0.2,0.1-0.4,0.2-0.5,0.4v0.1c0,0.4-0.1,0.8-0.1,1.3c0,0.4-0.1,0.9-0.1,1.3c0,0.1,0,0.3,0,0.4
			c-0.4,0-0.9,0-1.3,0c0-0.1,0-0.3,0-0.4c0-0.3,0.1-0.7,0.1-1c0-0.4,0.1-0.9,0.1-1.3c0.1-0.6,0-1.2-0.2-1.7c0,0,0,0,0-0.1h0.1
			c0.3,0,0.6,0,1,0c0.1,0,0.1,0,0.2,0.1c0,0.1,0.1,0.2,0.1,0.4c0,0,0,0,0.1,0c0.4-0.4,0.9-0.5,1.4-0.5s0.9,0.3,1.1,0.8
			c0.1,0.3,0.1,0.5,0.2,0.8c0,0.2,0,0.4,0,0.6c0,0.7,0,1.5,0,2.2c0,0.1,0,0.1,0,0.1c-0.1,0-1.9,0-2.2,0C36.3,32.8,36.3,32,36.3,31.9
			z"/>
		<path id="XMLID_278_" class="st0" d="M14.5,29.4c0-0.3,0-0.7,0-1c0.1,0,0.2,0,0.3,0c0.3,0,0.6,0,0.8,0.1c0.4,0.1,0.6,0.3,0.8,0.7
			c0.1,0.3,0.2,0.5,0.2,0.8c0,0.4,0.1,0.7,0,1.1c0,0.4-0.1,0.7-0.3,1.1c-0.3,0.6-0.8,0.9-1.4,1c-0.3,0-0.6,0-0.9-0.1
			c-0.5-0.2-0.9-0.5-1.1-1c-0.2-0.4-0.2-0.7-0.2-1.1c0-0.8,0-1.5,0-2.3c0,0,0,0,0-0.1c0.1,0,1.2,0,1.4,0v0.1c0,0.7,0,1.4,0,2.1
			c0,0.3,0,0.5,0.1,0.8c0,0.1,0.1,0.2,0.1,0.3c0.2,0.3,0.6,0.3,0.8,0c0.1-0.1,0.2-0.3,0.2-0.4c0.1-0.5,0.1-0.9,0-1.4V30
			c-0.1-0.3-0.3-0.4-0.6-0.4C14.6,29.4,14.6,29.4,14.5,29.4z"/>
		<path id="XMLID_277_" class="st0" d="M0.5,27.5c0.5,0,0.9,0,1.4,0c0,0.3,0,0.6,0,0.9c0.2,0,0.4,0,0.6,0s0.4,0,0.6,0s0.4,0,0.6,0
			s0.4,0,0.6,0v0.1c0,0.2,0,0.4,0,0.7c0,0.1,0,0.1,0,0.2c-0.2,0.6-0.4,1.2-0.5,1.8c-0.1,0.4-0.2,0.8-0.3,1.2c0,0.2-0.1,0.4-0.1,0.6
			c0,0,0,0,0,0.1c-0.4,0-0.9,0-1.3,0c0.2-1.2,0.5-2.3,0.9-3.5c-0.2,0-0.3,0-0.5,0c-0.1,0-0.3,0-0.4,0c-0.2,0-0.3,0-0.5,0
			c-0.1,0-0.3,0-0.4,0s-0.3,0-0.4,0C0.5,28.8,0.5,28.2,0.5,27.5z"/>
		<path id="XMLID_276_" class="st0" d="M33.2,29.4c-0.1,0-0.1,0.1-0.2,0.1c-0.3,0.1-0.4,0.3-0.4,0.6c0,0.1,0,0.1,0,0.2
			c0,0.8,0,1.7,0,2.5c0,0,0,0.1,0,0.2c-0.5,0-0.9,0-1.4,0v-0.1c0-0.9,0-1.7,0-2.6c0-0.3,0.1-0.5,0.3-0.7l0,0c-0.7,0-1.4,0-2.1,0
			c0-0.1,0-0.9,0-1c1.3,0,2.5,0,3.8,0C33.2,28.7,33.2,29,33.2,29.4z"/>
		<path id="XMLID_275_" class="st0" d="M21.8,29.5c0-0.4,0-0.7,0-1.1c0.1,0,0.3,0,0.4,0c0.4,0,0.8,0,1.2,0c0.3,0,0.5,0,0.8,0.1
			c0.1,0,0.2,0.1,0.3,0.1c0.3,0.2,0.5,0.5,0.6,0.8c0,0.2,0.1,0.4,0.1,0.6c0,1,0,1.9,0,2.9V33c-0.5,0-0.9,0-1.4,0v-0.1
			c0-0.9,0-1.8,0-2.6c0-0.1,0-0.1,0-0.2c0-0.3-0.2-0.5-0.6-0.6c-0.2,0-0.4,0-0.7,0C22.3,29.4,22,29.4,21.8,29.5z"/>
		<path id="XMLID_274_" class="st0" d="M19.4,23.9c-0.7-1.2-1.4-2.4-2.1-3.7c1.4,0.2,2.8,0.2,4.3-0.1l0,0
			C20.8,21.4,20.1,22.6,19.4,23.9z"/>
		<path id="XMLID_273_" class="st0" d="M28.1,32.9c-0.5,0-0.9,0-1.3,0c0-0.1,0-4.2,0-4.5c0.1,0,1.2,0,1.4,0
			C28.1,29.9,28.1,31.4,28.1,32.9z"/>
		<path id="XMLID_272_" class="st0" d="M9.7,31.5c0-1,0-2,0-3.1c0.1,0,1.2,0,1.4,0v0.1c0,0.6,0,1.2,0,1.9c0,0.1,0,0.2-0.1,0.2
			c-0.2,0.3-0.4,0.5-0.6,0.8c0,0.1-0.1,0.1-0.2,0.1C10.1,31.5,9.9,31.5,9.7,31.5z"/>
		<path id="XMLID_271_" class="st0" d="M26.1,35.8c0,0.1,0,0.1,0,0.2c0,0.7,0,1.4,0,2.1c0,0.1,0,0.3-0.1,0.4
			c-0.1,0.3-0.3,0.5-0.6,0.5c-0.1,0-0.1,0-0.2,0s-0.1,0-0.2,0c0-0.1,0-0.2,0-0.4c0.1,0,0.1,0,0.1,0c0.2,0,0.4-0.1,0.4-0.3
			c0-0.1,0-0.1,0-0.2c0-0.7,0-1.4,0-2.1v-0.1c-0.1,0-0.2,0-0.4,0c0-0.1,0-0.2,0-0.4c0.2,0,0.3,0,0.5,0c0.3,0,0.6,0,0.9,0
			c0.2,0,0.5,0,0.7,0.1c0.4,0.1,0.5,0.4,0.6,0.8c0,0.1,0,0.1,0,0.2c0,0.8,0,1.5,0,2.3V39c-0.2,0-0.3,0-0.5,0c0-0.1,0-0.1,0-0.2
			c0-0.7,0-1.5,0-2.2c0-0.1,0-0.1,0-0.2c0-0.2-0.1-0.4-0.3-0.5c-0.1-0.1-0.2-0.1-0.4-0.1C26.6,35.8,26.3,35.8,26.1,35.8z"/>
		<path id="XMLID_270_" class="st0" d="M4.2,35.9c0-0.1,0-0.3,0-0.4h0.1c0.3-0.1,0.7-0.1,1-0.1c0.4,0.1,0.6,0.3,0.8,0.6
			c0.1,0.2,0.2,0.4,0.2,0.7s0,0.6,0,0.9c0,0.3-0.1,0.5-0.2,0.8c-0.2,0.3-0.5,0.5-0.8,0.5c-0.3,0.1-0.6,0-1,0H4.2c0-0.1,0-0.3,0-0.4
			h0.1c0.2,0.1,0.5,0.1,0.7,0.1c0.4,0,0.6-0.2,0.7-0.5c0.1-0.2,0.1-0.3,0.1-0.5c0-0.3,0-0.5,0-0.8c0-0.2,0-0.4-0.1-0.5
			c-0.1-0.3-0.4-0.4-0.6-0.4C4.7,35.8,4.5,35.8,4.2,35.9z"/>
		<path id="XMLID_269_" class="st0" d="M6.1,29.9c-0.3,0-0.6,0-1,0c0.1-0.7,0.2-1.4,0.3-2h0.1c0.3,0,0.7,0,1,0c0.1,0,0.2,0,0.1,0.2
			C6.4,28.7,6.3,29.3,6.1,29.9C6.1,29.8,6.1,29.8,6.1,29.9z"/>
		<path id="XMLID_268_" class="st0" d="M7.9,29.9c-0.3,0-0.6,0-1,0c0.1-0.7,0.2-1.3,0.3-2c0,0,0,0,0.1,0c0.3,0,0.7,0,1,0
			c0.1,0,0.1,0,0.1,0.1C8.3,28.6,8.2,29.2,7.9,29.9C7.9,29.8,7.9,29.8,7.9,29.9z"/>
		<path id="XMLID_267_" class="st0" d="M12.2,35.8c-0.6,0-1.2,0-1.9,0c0-0.1,0-0.2,0-0.3c0.1,0,2.3,0,2.5,0c0,0.1,0,0.2,0,0.3h-0.1
			c-0.3,0.1-0.4,0.3-0.4,0.6c0,0.1,0,0.2,0,0.3c0,0.7,0,1.4,0,2.1c0,0,0,0.1,0,0.2c-0.2,0-0.3,0-0.4,0v-0.1c0-0.8,0-1.5,0-2.3
			C11.8,36.2,11.9,36.1,12.2,35.8z"/>
		<path id="XMLID_266_" class="st0" d="M37.7,38.9c-0.1,0-0.3,0-0.4,0c0-0.1,0-0.2,0-0.3c0.1-0.4,0.2-0.7,0.3-1.1
			c0.1-0.5,0.3-1,0.5-1.6v-0.1c-0.7,0-1.4,0-2.1,0c0-0.1,0-0.2,0-0.3c0.8,0,1.7,0,2.5,0c0,0.2,0,0.3,0,0.5c-0.2,0.7-0.4,1.4-0.6,2.1
			C37.8,38.3,37.7,38.6,37.7,38.9L37.7,38.9z"/>
		<path id="XMLID_265_" class="st0" d="M13.9,35.8c0-0.1,0-0.2,0-0.4c0.2,0,0.3,0,0.5,0c0.3,0,0.5,0,0.8,0c0.2,0,0.5,0,0.7,0.1
			c0.3,0.1,0.5,0.4,0.6,0.7c0,0.1,0,0.2,0,0.3c0,0.7,0,1.5,0,2.2c0,0,0,0.1,0,0.2c-0.2,0-0.3,0-0.5,0c0-0.1,0-0.1,0-0.2
			c0-0.7,0-1.5,0-2.2c0-0.1,0-0.1,0-0.2c0-0.2-0.2-0.4-0.4-0.5c-0.2-0.1-0.3-0.1-0.5-0.1c-0.3,0-0.7,0-1,0
			C14,35.8,14,35.8,13.9,35.8z"/>
		<path id="XMLID_264_" class="st0" d="M20.4,38.9c-0.2,0-0.3,0-0.4,0c0-0.1,0-0.1,0-0.2c0-0.7,0-1.4,0-2.2c0-0.1,0-0.1,0-0.2
			c0-0.3-0.1-0.4-0.4-0.5c-0.2-0.1-0.3-0.1-0.5-0.1c-0.3,0-0.7,0-1,0H18c0-0.1,0-0.2,0-0.4c0,0,0,0,0.1,0c0.4,0,0.9,0,1.3,0
			c0.2,0,0.4,0,0.5,0.1c0.4,0.1,0.6,0.4,0.6,0.8c0,0.1,0,0.1,0,0.2c0,0.8,0,1.5,0,2.3C20.4,38.8,20.4,38.8,20.4,38.9z"/>
		<path id="XMLID_263_" class="st0" d="M0.5,35.8c0-0.1,0-0.2,0-0.4c0,0,0,0,0.1,0c0.4,0,0.8,0,1.2,0c0.2,0,0.4,0,0.6,0.1
			C2.8,35.6,3,35.9,3,36.3v0.1c0,0.8,0,1.5,0,2.3v0.1c-0.1,0-0.3,0-0.4,0v-0.1c0-0.7,0-1.4,0-2.2c0-0.1,0-0.1,0-0.2
			c0-0.3-0.1-0.4-0.4-0.5c-0.2-0.1-0.3-0.1-0.5-0.1c-0.3,0-0.7,0-1,0C0.6,35.8,0.6,35.8,0.5,35.8z"/>
		<path id="XMLID_262_" class="st0" d="M32.5,35.8c0-0.1,0-0.2,0-0.4h0.1c0.3,0,0.6,0,0.8,0c0.2,0,0.3,0,0.5,0.1
			c0.4,0.1,0.6,0.4,0.7,0.9v0.1c0,0.7,0,1.5,0,2.2v0.1c-0.2,0-0.3,0-0.5,0c0-0.1,0-0.1,0-0.1c0-0.7,0-1.5,0-2.2c0-0.1,0-0.1,0-0.2
			c0-0.2-0.2-0.4-0.4-0.5c-0.2-0.1-0.3-0.1-0.5-0.1s-0.4,0-0.6,0C32.6,35.8,32.6,35.8,32.5,35.8z"/>
		<path id="XMLID_261_" class="st0" d="M9.2,38.9c-0.1,0-0.2,0-0.4,0H8.7c0-0.1,0-0.1,0-0.1c0-0.7,0-1.4,0-2.1v-0.1
			c0-0.5-0.3-0.7-0.6-0.7c-0.1,0-0.2,0-0.3,0c-0.2,0-0.4,0-0.6,0c0-0.1,0-0.2,0-0.4h0.1c0.3,0,0.6,0,0.9,0c0.2,0,0.3,0,0.5,0.1
			c0.4,0.2,0.6,0.4,0.6,0.8v0.1c0,0.8,0,1.5,0,2.3C9.2,38.8,9.2,38.9,9.2,38.9z"/>
		<path id="XMLID_260_" class="st0" d="M14.4,38.9c-0.1,0-0.3,0-0.4,0c0-0.7,0-1.5,0-2.2c0.1,0,0.3,0,0.4,0
			C14.4,37.4,14.4,38.2,14.4,38.9z"/>
		<path id="XMLID_259_" class="st0" d="M0.5,36.7c0.1,0,0.3,0,0.4,0c0,0.7,0,1.5,0,2.2c-0.1,0-0.3,0-0.4,0
			C0.5,38.2,0.5,37.4,0.5,36.7z"/>
		<path id="XMLID_258_" class="st0" d="M18.3,38.9c-0.2,0-0.3,0-0.4,0c0-0.7,0-1.5,0-2.2c0.1,0,0.3,0,0.4,0
			C18.3,37.4,18.3,38.2,18.3,38.9z"/>
		<path id="XMLID_257_" class="st0" d="M29.3,35.5c0.1,0,0.3,0,0.4,0c0,0.1,0,0.1,0,0.1c0,0.5,0,1,0,1.6c0,0.1,0,0.2-0.1,0.2
			c-0.1,0.1-0.2,0.2-0.2,0.3s0,0.1-0.1,0.1C29.3,37.6,29.3,35.7,29.3,35.5z"/>
		<path id="XMLID_256_" class="st0" d="M31.1,37.7c0-0.8,0-1.5,0-2.3c0.1,0,0.3,0,0.4,0v0.1c0,0.5,0,1.1,0,1.6c0,0.1,0,0.1-0.1,0.2
			c-0.1,0.1-0.2,0.2-0.2,0.3C31.2,37.7,31.1,37.8,31.1,37.7z"/>
		<path id="XMLID_255_" class="st0" d="M29.9,7.9c-0.3,0.3-0.7,0.7-1,1C26.2,6.3,23.1,5,19.3,5c-3.7,0-6.9,1.4-9.6,4
			C9.4,8.7,9,8.3,8.7,8c0.1-0.3,1.5-1.4,2.3-1.9c2-1.3,4.2-2.1,6.6-2.4c2.7-0.3,5.3,0.1,7.7,1.2C27.1,5.6,28.6,6.6,29.9,7.9z"/>
		<path id="XMLID_254_" class="st0" d="M27.3,10.6c-0.3,0.3-0.7,0.7-1,1c-1.9-1.8-4.2-2.8-6.9-2.8c-2.7,0-5,1-6.9,2.8
			c-0.3-0.3-0.7-0.7-1-1C15.5,6.4,22.8,6.1,27.3,10.6z"/>
	</g>
</g>
</svg>
