<?xml version="1.0" encoding="utf-8"?>
<!-- Generator: Adobe Illustrator 19.0.0, SVG Export Plug-In . SVG Version: 6.00 Build 0)  -->
<svg version="1.1" id="Layer_1" xmlns="http://www.w3.org/2000/svg" xmlns:xlink="http://www.w3.org/1999/xlink" x="0px" y="0px"
	 viewBox="0 0 104.2 95" style="enable-background:new 0 0 104.2 95;" xml:space="preserve">
<style type="text/css">
	.st0{fill:#25110A;}
	.st1{fill:#FFF6EE;}
	.st2{fill:#CFA46B;}
	.st3{fill:#A34824;}
	.st4{clip-path:url(#XMLID_100_);fill:none;stroke:#A34824;stroke-width:0.6011;stroke-miterlimit:10;}
	.st5{clip-path:url(#XMLID_100_);fill:none;stroke:#A34824;stroke-width:0.8499;stroke-miterlimit:10;}
	.st6{clip-path:url(#XMLID_100_);fill:none;stroke:#A34824;stroke-width:0.7373;stroke-miterlimit:10;}
	.st7{fill:#A34924;}
	.st8{clip-path:url(#XMLID_124_);fill:none;stroke:#A34824;stroke-width:0.8004;stroke-miterlimit:10;}
	.st9{fill:#E4C092;stroke:#A34824;stroke-width:1.4745;stroke-miterlimit:10;}
	.st10{clip-path:url(#XMLID_126_);fill:#A34824;}
	.st11{clip-path:url(#XMLID_129_);fill:#FFE6CA;stroke:#A34A24;stroke-width:0.4117;stroke-miterlimit:10;}
</style>
<g id="XMLID_10_">
	<g id="XMLID_49877_">
		<rect id="XMLID_68_" x="0" y="0" class="st0" width="104.2" height="95"/>
	</g>
	<rect id="XMLID_49876_" x="3.8" y="3.3" class="st1" width="96.6" height="87.8"/>
	<rect id="XMLID_49875_" x="6.8" y="5.5" class="st2" width="90.6" height="65.1"/>
	<g id="XMLID_49870_">
		<g>
			<path id="XMLID_124_" class="st3" d="M39.2,77.3l-3.5,8.8h-2.9l3.4-8.4h-5.7v-5.1h2.8v3h5.9V77.3z"/>
			<path id="XMLID_126_" class="st3" d="M41.4,77.7h-0.9v-2.1h3.7v10.5h-2.8V77.7z"/>
			<path id="XMLID_129_" class="st3" d="M45.7,86.2v-2.5c0.3,0,0.6,0.1,0.8,0.1c1.3,0,2.2-0.6,2.6-1.8v-4.3h-2.3v-2.1h5v5.3
				c0,0.6,0.1,1.1,0.2,1.7l0.7,3.5h-2.5l-0.6-2.7h-0.1c-0.1,0.5-0.3,1-0.6,1.4c-0.3,0.4-0.7,0.8-1.1,1c-0.4,0.2-0.9,0.4-1.5,0.4
				C46.2,86.2,46,86.2,45.7,86.2z"/>
			<path id="XMLID_133_" class="st3" d="M58.6,79.1c0-0.5-0.1-0.8-0.4-1.1s-0.6-0.4-1.1-0.4h-3.2v-2.1h3.4c0.8,0,1.6,0.1,2.2,0.4
				s1.1,0.7,1.4,1.3c0.3,0.6,0.5,1.2,0.5,2v6.8h-2.8V79.1z"/>
			<path id="XMLID_135_" class="st3" d="M71.9,76.6c0.7,0.7,1.1,1.7,1.1,3v6.5h-2.8l0-6.8c0-0.5-0.1-1-0.4-1.2s-0.6-0.4-1.1-0.4
				h-1.4c-0.1,0.3-0.2,0.7-0.2,1.1s-0.1,0.8-0.1,1.1v3c0,0.7-0.1,1.3-0.4,1.8s-0.6,0.9-1.1,1.2s-1.1,0.4-1.7,0.4
				c-0.4,0-0.9,0-1.3-0.1V84c0.3,0,0.5,0,0.6,0c0.8,0,1.3-0.5,1.3-1.4v-2.6c0-0.4,0.1-0.8,0.2-1.3s0.3-0.8,0.4-1.1h-1.6v-2.1h5.4
				C70.2,75.5,71.2,75.9,71.9,76.6z"/>
		</g>
		<g>
			<path id="XMLID_101_" class="st3" d="M39.2,77.3l-3.5,8.8h-2.9l3.4-8.4h-5.7v-5.1h2.8v3h5.9V77.3z"/>
			<path id="XMLID_103_" class="st3" d="M41.4,77.7h-0.9v-2.1h3.7v10.5h-2.8V77.7z"/>
			<path id="XMLID_105_" class="st3" d="M45.7,86.2v-2.5c0.3,0,0.6,0.1,0.8,0.1c1.3,0,2.2-0.6,2.6-1.8v-4.3h-2.3v-2.1h5v5.3
				c0,0.6,0.1,1.1,0.2,1.7l0.7,3.5h-2.5l-0.6-2.7h-0.1c-0.1,0.5-0.3,1-0.6,1.4c-0.3,0.4-0.7,0.8-1.1,1c-0.4,0.2-0.9,0.4-1.5,0.4
				C46.2,86.2,46,86.2,45.7,86.2z"/>
			<path id="XMLID_108_" class="st3" d="M58.6,79.1c0-0.5-0.1-0.8-0.4-1.1s-0.6-0.4-1.1-0.4h-3.2v-2.1h3.4c0.8,0,1.6,0.1,2.2,0.4
				s1.1,0.7,1.4,1.3c0.3,0.6,0.5,1.2,0.5,2v6.8h-2.8V79.1z"/>
			<path id="XMLID_113_" class="st3" d="M71.9,76.6c0.7,0.7,1.1,1.7,1.1,3v6.5h-2.8l0-6.8c0-0.5-0.1-1-0.4-1.2s-0.6-0.4-1.1-0.4
				h-1.4c-0.1,0.3-0.2,0.7-0.2,1.1s-0.1,0.8-0.1,1.1v3c0,0.7-0.1,1.3-0.4,1.8s-0.6,0.9-1.1,1.2s-1.1,0.4-1.7,0.4
				c-0.4,0-0.9,0-1.3-0.1V84c0.3,0,0.5,0,0.6,0c0.8,0,1.3-0.5,1.3-1.4v-2.6c0-0.4,0.1-0.8,0.2-1.3s0.3-0.8,0.4-1.1h-1.6v-2.1h5.4
				C70.2,75.5,71.2,75.9,71.9,76.6z"/>
		</g>
		<g id="XMLID_121_">
			<path id="XMLID_57_" class="st3" d="M39.2,77.3l-3.5,8.8h-2.9l3.4-8.4h-5.7v-5.1h2.8v3h5.9V77.3z"/>
			<path id="XMLID_61_" class="st3" d="M41.4,77.7h-0.9v-2.1h3.7v10.5h-2.8V77.7z"/>
			<path id="XMLID_63_" class="st3" d="M45.7,86.2v-2.5c0.3,0,0.6,0.1,0.8,0.1c1.3,0,2.2-0.6,2.6-1.8v-4.3h-2.3v-2.1h5v5.3
				c0,0.6,0.1,1.1,0.2,1.7l0.7,3.5h-2.5l-0.6-2.7h-0.1c-0.1,0.5-0.3,1-0.6,1.4c-0.3,0.4-0.7,0.8-1.1,1c-0.4,0.2-0.9,0.4-1.5,0.4
				C46.2,86.2,46,86.2,45.7,86.2z"/>
			<path id="XMLID_70_" class="st3" d="M58.6,79.1c0-0.5-0.1-0.8-0.4-1.1s-0.6-0.4-1.1-0.4h-3.2v-2.1h3.4c0.8,0,1.6,0.1,2.2,0.4
				s1.1,0.7,1.4,1.3c0.3,0.6,0.5,1.2,0.5,2v6.8h-2.8V79.1z"/>
			<path id="XMLID_98_" class="st3" d="M71.9,76.6c0.7,0.7,1.1,1.7,1.1,3v6.5h-2.8l0-6.8c0-0.5-0.1-1-0.4-1.2s-0.6-0.4-1.1-0.4h-1.4
				c-0.1,0.3-0.2,0.7-0.2,1.1s-0.1,0.8-0.1,1.1v3c0,0.7-0.1,1.3-0.4,1.8s-0.6,0.9-1.1,1.2s-1.1,0.4-1.7,0.4c-0.4,0-0.9,0-1.3-0.1V84
				c0.3,0,0.5,0,0.6,0c0.8,0,1.3-0.5,1.3-1.4v-2.6c0-0.4,0.1-0.8,0.2-1.3s0.3-0.8,0.4-1.1h-1.6v-2.1h5.4
				C70.2,75.5,71.2,75.9,71.9,76.6z"/>
		</g>
	</g>
	<g id="XMLID_49750_">
		<g id="XMLID_49814_">
			<g id="XMLID_49816_">
				<defs>
					<polygon id="XMLID_49817_" points="59.1,17.1 46.2,8.4 18.9,8.9 19.2,65.8 59.4,65.2 					"/>
				</defs>
				<use xlink:href="#XMLID_49817_"  style="overflow:visible;fill:#FFE6CA;"/>
				<clipPath id="XMLID_100_">
					<use xlink:href="#XMLID_49817_"  style="overflow:visible;"/>
				</clipPath>
				<line id="XMLID_49869_" class="st4" x1="-18.6" y1="154.6" x2="67.8" y2="152.3"/>
				<line id="XMLID_49868_" class="st4" x1="-16.8" y1="151.4" x2="69.6" y2="149.1"/>
				<line id="XMLID_49867_" class="st5" x1="-15.9" y1="147.1" x2="70.5" y2="144.8"/>
				<line id="XMLID_49866_" class="st5" x1="-16.2" y1="143.3" x2="70.2" y2="141"/>
				<line id="XMLID_49865_" class="st5" x1="-14.4" y1="140.1" x2="71.9" y2="137.8"/>
				<line id="XMLID_49864_" class="st5" x1="-13.5" y1="135.8" x2="72.8" y2="133.5"/>
				<line id="XMLID_49863_" class="st5" x1="-13.9" y1="132" x2="72.5" y2="129.7"/>
				<line id="XMLID_49862_" class="st5" x1="-12.1" y1="128.8" x2="74.3" y2="126.5"/>
				<line id="XMLID_49861_" class="st5" x1="-11.2" y1="124.5" x2="75.2" y2="122.2"/>
				<line id="XMLID_49859_" class="st5" x1="-11.5" y1="120.7" x2="74.9" y2="118.4"/>
				<line id="XMLID_49858_" class="st5" x1="-9.8" y1="117.7" x2="76.6" y2="115.4"/>
				<line id="XMLID_49857_" class="st5" x1="-8.9" y1="113.4" x2="77.5" y2="111.1"/>
				<line id="XMLID_49856_" class="st5" x1="-9.2" y1="109.6" x2="77.2" y2="107.3"/>
				<line id="XMLID_49855_" class="st5" x1="-7.4" y1="106.4" x2="79" y2="104.2"/>
				<line id="XMLID_49854_" class="st6" x1="-6.5" y1="102.1" x2="79.9" y2="99.8"/>
				<line id="XMLID_49853_" class="st6" x1="-6.8" y1="98.3" x2="79.5" y2="96.1"/>
				<line id="XMLID_49852_" class="st6" x1="-6.3" y1="93.5" x2="80.1" y2="91.2"/>
				<line id="XMLID_49851_" class="st6" x1="-5.4" y1="89.2" x2="81" y2="86.9"/>
				<line id="XMLID_49850_" class="st6" x1="-5.7" y1="85.4" x2="80.6" y2="83.1"/>
				<line id="XMLID_49849_" class="st6" x1="-5.5" y1="80.7" x2="80.9" y2="79.5"/>
				<line id="XMLID_49848_" class="st6" x1="-4.6" y1="76.4" x2="81.8" y2="75.2"/>
				<line id="XMLID_49845_" class="st6" x1="23.3" y1="20.3" x2="55" y2="20.3"/>
				<line id="XMLID_49842_" class="st6" x1="23.3" y1="23.1" x2="55" y2="23.1"/>
				<line id="XMLID_49839_" class="st6" x1="23.3" y1="26.6" x2="55" y2="26.6"/>
				<line id="XMLID_49836_" class="st6" x1="23.3" y1="29.7" x2="55" y2="29.7"/>
				<line id="XMLID_49833_" class="st6" x1="23.3" y1="32.5" x2="55" y2="32.5"/>
				<line id="XMLID_49830_" class="st6" x1="23.3" y1="35.7" x2="55" y2="35.7"/>
				<line id="XMLID_49827_" class="st6" x1="23.3" y1="38.7" x2="55" y2="38.7"/>
				<line id="XMLID_49824_" class="st6" x1="23.3" y1="41.9" x2="55" y2="41.9"/>
				<line id="XMLID_49821_" class="st6" x1="23.3" y1="44.7" x2="55" y2="44.7"/>
				<line id="XMLID_49818_" class="st6" x1="23.3" y1="48.2" x2="55" y2="48.2"/>
				
					<use xlink:href="#XMLID_49817_"  style="overflow:visible;fill:none;stroke:#A34924;stroke-width:0.8788;stroke-miterlimit:10;"/>
			</g>
			<polygon id="XMLID_49815_" class="st7" points="59.1,17.1 46.3,8.4 51.2,17.2 			"/>
		</g>
		<g id="XMLID_49767_">
			<defs>
				<path id="XMLID_49768_" d="M85.3,66.6l0-16.3L69.4,29.7c-0.6,0.3,1.4,3.9,4.6,11.4c0.2,0.4,0.2,0.9,0,1.4
					c-2.6,5.9-5.3,12.7-7.9,18.6l1.4,5.6L85.3,66.6z"/>
			</defs>
			<clipPath id="XMLID_138_">
				<use xlink:href="#XMLID_49768_"  style="overflow:visible;"/>
			</clipPath>
			
				<path id="XMLID_49813_" style="clip-path:url(#XMLID_138_);fill:none;stroke:#A34824;stroke-width:0.8004;stroke-miterlimit:10;" d="
				M126.4,25.8"/>
			
				<line id="XMLID_49812_" style="clip-path:url(#XMLID_138_);fill:none;stroke:#A34824;stroke-width:0.8004;stroke-miterlimit:10;" x1="42" y1="32.9" x2="93.1" y2="98"/>
			
				<line id="XMLID_49811_" style="clip-path:url(#XMLID_138_);fill:none;stroke:#A34824;stroke-width:0.8004;stroke-miterlimit:10;" x1="43" y1="31.8" x2="94.1" y2="97"/>
			
				<line id="XMLID_49810_" style="clip-path:url(#XMLID_138_);fill:none;stroke:#A34824;stroke-width:0.8004;stroke-miterlimit:10;" x1="43.7" y1="30.2" x2="94.8" y2="95.3"/>
			
				<line id="XMLID_49809_" style="clip-path:url(#XMLID_138_);fill:none;stroke:#A34824;stroke-width:0.8004;stroke-miterlimit:10;" x1="45.6" y1="30.3" x2="96.7" y2="95.4"/>
			
				<line id="XMLID_49808_" style="clip-path:url(#XMLID_138_);fill:none;stroke:#A34824;stroke-width:0.8004;stroke-miterlimit:10;" x1="47.1" y1="29.3" x2="98.2" y2="94.5"/>
			
				<line id="XMLID_49807_" style="clip-path:url(#XMLID_138_);fill:none;stroke:#A34824;stroke-width:0.8004;stroke-miterlimit:10;" x1="47.8" y1="27.6" x2="98.9" y2="92.8"/>
			
				<line id="XMLID_49806_" style="clip-path:url(#XMLID_138_);fill:none;stroke:#A34824;stroke-width:0.8004;stroke-miterlimit:10;" x1="50.3" y1="28.3" x2="101.4" y2="93.4"/>
			
				<line id="XMLID_49805_" style="clip-path:url(#XMLID_138_);fill:none;stroke:#A34824;stroke-width:0.8004;stroke-miterlimit:10;" x1="51.1" y1="26.9" x2="102.2" y2="92"/>
			
				<line id="XMLID_49804_" style="clip-path:url(#XMLID_138_);fill:none;stroke:#A34824;stroke-width:0.8004;stroke-miterlimit:10;" x1="51.7" y1="25.2" x2="102.8" y2="90.3"/>
			
				<line id="XMLID_49803_" style="clip-path:url(#XMLID_138_);fill:none;stroke:#A34824;stroke-width:0.8004;stroke-miterlimit:10;" x1="53.7" y1="25.1" x2="104.8" y2="90.2"/>
			
				<line id="XMLID_49802_" style="clip-path:url(#XMLID_138_);fill:none;stroke:#A34824;stroke-width:0.8004;stroke-miterlimit:10;" x1="55" y1="24.4" x2="106.1" y2="89.6"/>
			
				<line id="XMLID_49801_" style="clip-path:url(#XMLID_138_);fill:none;stroke:#A34824;stroke-width:0.8004;stroke-miterlimit:10;" x1="55.7" y1="22.7" x2="106.8" y2="87.9"/>
			
				<line id="XMLID_49799_" style="clip-path:url(#XMLID_138_);fill:none;stroke:#A34824;stroke-width:0.8004;stroke-miterlimit:10;" x1="57.3" y1="22.3" x2="108.4" y2="87.4"/>
			
				<line id="XMLID_49798_" style="clip-path:url(#XMLID_138_);fill:none;stroke:#A34824;stroke-width:0.8004;stroke-miterlimit:10;" x1="59" y1="21.9" x2="110.1" y2="87.1"/>
			
				<line id="XMLID_49797_" style="clip-path:url(#XMLID_138_);fill:none;stroke:#A34824;stroke-width:0.8004;stroke-miterlimit:10;" x1="59.7" y1="20.3" x2="110.8" y2="85.4"/>
			
				<line id="XMLID_49796_" style="clip-path:url(#XMLID_138_);fill:none;stroke:#A34824;stroke-width:0.8004;stroke-miterlimit:10;" x1="62.1" y1="20.8" x2="113.2" y2="86"/>
			
				<line id="XMLID_49795_" style="clip-path:url(#XMLID_138_);fill:none;stroke:#A34824;stroke-width:0.8004;stroke-miterlimit:10;" x1="62.9" y1="19.5" x2="114" y2="84.7"/>
			
				<line id="XMLID_49794_" style="clip-path:url(#XMLID_138_);fill:none;stroke:#A34824;stroke-width:0.8004;stroke-miterlimit:10;" x1="63.6" y1="17.8" x2="114.7" y2="83"/>
			
				<line id="XMLID_49793_" style="clip-path:url(#XMLID_138_);fill:none;stroke:#A34824;stroke-width:0.8004;stroke-miterlimit:10;" x1="63.7" y1="15.8" x2="114.8" y2="80.9"/>
			
				<line id="XMLID_49792_" style="clip-path:url(#XMLID_138_);fill:none;stroke:#A34824;stroke-width:0.8004;stroke-miterlimit:10;" x1="67.2" y1="17.9" x2="118.3" y2="83"/>
			
				<line id="XMLID_49791_" style="clip-path:url(#XMLID_138_);fill:none;stroke:#A34824;stroke-width:0.8004;stroke-miterlimit:10;" x1="67" y1="15.2" x2="118.1" y2="80.4"/>
			
				<path id="XMLID_49790_" style="clip-path:url(#XMLID_138_);fill:none;stroke:#A34824;stroke-width:0.8004;stroke-miterlimit:10;" d="
				M100.6,45.1"/>
			
				<line id="XMLID_49789_" style="clip-path:url(#XMLID_138_);fill:none;stroke:#A34824;stroke-width:0.8004;stroke-miterlimit:10;" x1="16.1" y1="52.2" x2="67.2" y2="117.3"/>
			
				<line id="XMLID_49788_" style="clip-path:url(#XMLID_138_);fill:none;stroke:#A34824;stroke-width:0.8004;stroke-miterlimit:10;" x1="17.2" y1="51.2" x2="68.3" y2="116.3"/>
			
				<line id="XMLID_49787_" style="clip-path:url(#XMLID_138_);fill:none;stroke:#A34824;stroke-width:0.8004;stroke-miterlimit:10;" x1="17.9" y1="49.5" x2="69" y2="114.6"/>
			
				<line id="XMLID_49786_" style="clip-path:url(#XMLID_138_);fill:none;stroke:#A34824;stroke-width:0.8004;stroke-miterlimit:10;" x1="19.7" y1="49.6" x2="70.8" y2="114.7"/>
			
				<line id="XMLID_49785_" style="clip-path:url(#XMLID_138_);fill:none;stroke:#A34824;stroke-width:0.8004;stroke-miterlimit:10;" x1="21.2" y1="48.6" x2="72.3" y2="113.8"/>
			
				<line id="XMLID_49784_" style="clip-path:url(#XMLID_138_);fill:none;stroke:#A34824;stroke-width:0.8004;stroke-miterlimit:10;" x1="21.9" y1="47" x2="73" y2="112.1"/>
			
				<line id="XMLID_49783_" style="clip-path:url(#XMLID_138_);fill:none;stroke:#A34824;stroke-width:0.8004;stroke-miterlimit:10;" x1="24.4" y1="47.6" x2="75.5" y2="112.8"/>
			
				<line id="XMLID_49782_" style="clip-path:url(#XMLID_138_);fill:none;stroke:#A34824;stroke-width:0.8004;stroke-miterlimit:10;" x1="25.2" y1="46.2" x2="76.3" y2="111.3"/>
			
				<line id="XMLID_49781_" style="clip-path:url(#XMLID_138_);fill:none;stroke:#A34824;stroke-width:0.8004;stroke-miterlimit:10;" x1="25.9" y1="44.5" x2="77" y2="109.7"/>
			
				<line id="XMLID_49780_" style="clip-path:url(#XMLID_138_);fill:none;stroke:#A34824;stroke-width:0.8004;stroke-miterlimit:10;" x1="27.8" y1="44.4" x2="78.9" y2="109.5"/>
			
				<line id="XMLID_49779_" style="clip-path:url(#XMLID_138_);fill:none;stroke:#A34824;stroke-width:0.8004;stroke-miterlimit:10;" x1="29.2" y1="43.7" x2="80.3" y2="108.9"/>
			
				<line id="XMLID_49778_" style="clip-path:url(#XMLID_138_);fill:none;stroke:#A34824;stroke-width:0.8004;stroke-miterlimit:10;" x1="29.8" y1="42" x2="80.9" y2="107.2"/>
			
				<line id="XMLID_49777_" style="clip-path:url(#XMLID_138_);fill:none;stroke:#A34824;stroke-width:0.8004;stroke-miterlimit:10;" x1="31.4" y1="41.6" x2="82.5" y2="106.8"/>
			
				<line id="XMLID_49776_" style="clip-path:url(#XMLID_138_);fill:none;stroke:#A34824;stroke-width:0.8004;stroke-miterlimit:10;" x1="33.1" y1="41.3" x2="84.2" y2="106.4"/>
			
				<line id="XMLID_49775_" style="clip-path:url(#XMLID_138_);fill:none;stroke:#A34824;stroke-width:0.8004;stroke-miterlimit:10;" x1="33.8" y1="39.6" x2="84.9" y2="104.7"/>
			
				<line id="XMLID_49774_" style="clip-path:url(#XMLID_138_);fill:none;stroke:#A34824;stroke-width:0.8004;stroke-miterlimit:10;" x1="36.2" y1="40.1" x2="87.3" y2="105.3"/>
			
				<line id="XMLID_49773_" style="clip-path:url(#XMLID_138_);fill:none;stroke:#A34824;stroke-width:0.8004;stroke-miterlimit:10;" x1="37" y1="38.8" x2="88.1" y2="104"/>
			
				<line id="XMLID_49772_" style="clip-path:url(#XMLID_138_);fill:none;stroke:#A34824;stroke-width:0.8004;stroke-miterlimit:10;" x1="37.7" y1="37.1" x2="88.8" y2="102.3"/>
			
				<line id="XMLID_49771_" style="clip-path:url(#XMLID_138_);fill:none;stroke:#A34824;stroke-width:0.8004;stroke-miterlimit:10;" x1="37.8" y1="35.1" x2="88.9" y2="100.2"/>
			
				<line id="XMLID_49770_" style="clip-path:url(#XMLID_138_);fill:none;stroke:#A34824;stroke-width:0.8004;stroke-miterlimit:10;" x1="41.4" y1="37.2" x2="92.5" y2="102.4"/>
			
				<line id="XMLID_49769_" style="clip-path:url(#XMLID_138_);fill:none;stroke:#A34824;stroke-width:0.8004;stroke-miterlimit:10;" x1="41.1" y1="34.5" x2="92.2" y2="99.7"/>
		</g>
		<path id="XMLID_49766_" class="st3" d="M46.6,40.6c0.2,0.7,1.4,6.2,6.4,8.6c4.8,2.3,10.9,0.9,14.9-3.6c-3.5-5.2-7-10.4-10.6-15.5
			c-0.2,3.1-0.4,6.2-0.6,9.2C53.3,39.7,49.9,40.1,46.6,40.6z"/>
		<path id="XMLID_49765_" class="st9" d="M70.1,37.9l-2.3-5.3c-0.5-2.1-3-4.6-3-4.6c-0.6-0.4-1.3-0.6-2.1-0.7c-2-0.1-4-0.1-6-0.2
			c0,0-4.7-0.6-5.5,0.4c-0.5,0.7,1.3,4.8,3.4,5l3.3,0.2c-0.1,0.6-0.1,1.3,0.1,2l1,4.1c-0.5,0.2-1,0.4-1.6,0.6
			c-2.1,0.8-4.2,1.9-5.4,2.8c-0.1,0-0.1,0.1-0.2,0.1c-0.3-1.2-0.8-2.4-1.5-3.4l1.6-2.7c0.5-0.8,0.6-3.9,0-5c-0.6-1-1.6-1.3-1.6-1.3
			c-1.7-0.3-2.7,0.6-3.6,2l-3.3,5.5c-1.3,1.3-1.9,3.4-1.6,5.5l2.3,12.4c0.1,0.5,0.2,0.9,0.3,1.3c1,4.5,2.6,9.7,2.6,9.7h17.7
			c-0.5-1.8-1.2-3.9-1.6-5.7c0.9-1.7,1.8-3.6,2.7-5.4c1.8-3.8,3.4-7.5,4.8-11c0.3-0.4,0.6-1,0.7-1.7C71.6,40.9,71.1,39.1,70.1,37.9z
			"/>
		<g id="XMLID_49754_">
			<g id="XMLID_119_">
				<defs>
					<path id="XMLID_120_" d="M63.1,60.7c2.7-5.8,4.7-10.6,7.4-16.4c0.1-0.5,0.8-3.1,0.8-3.7c0-1.4-1.2-1.9-1.5-2.7
						c0.1-1-0.9-2.5-1.4-4.3c-0.3-0.9-1.4-2.9-2.4-4.1c-1.9-2.2-3.4-2.7-3.8-2.1c-0.2,0.2,0.2,0.6,0.5,1.2c2.5,4.8,1.6,6.4,3.7,9.1
						c0.7,0.9,1.2,1.2,1.4,2.1c0.4,1.5-0.4,2.9-0.7,3.5c-2.7,4.9-10,10.3-14.3,13.1c-1.7,1.1-4,0.5-4.9-1.3c0,0-5.2-10.8-5.2-10.8
						c-0.8-1.1,2,13.5,2.3,14.7c0.4,1.3,0.8,3.1,1,3.8c0.1,0.3,0.6-0.3,1-0.9c0.4-0.6,1.2-0.7,1.8-0.3c2.4,1.6,6.3,3.9,8.6,4.7
						c2.1-0.1,5.2,0.1,7.4,0L63.1,60.7z"/>
				</defs>
				<clipPath id="XMLID_139_">
					<use xlink:href="#XMLID_120_"  style="overflow:visible;"/>
				</clipPath>
			</g>
			<g id="XMLID_114_">
				<defs>
					<path id="XMLID_116_" d="M63.1,60.7c2.7-5.8,4.7-10.6,7.4-16.4c0.1-0.5,0.8-3.1,0.8-3.7c0-1.4-1.2-1.9-1.5-2.7
						c0.1-1-0.9-2.5-1.4-4.3c-0.3-0.9-1.4-2.9-2.4-4.1c-1.9-2.2-3.4-2.7-3.8-2.1c-0.2,0.2,0.2,0.6,0.5,1.2c2.5,4.8,1.6,6.4,3.7,9.1
						c0.7,0.9,1.2,1.2,1.4,2.1c0.4,1.5-0.4,2.9-0.7,3.5c-2.7,4.9-10,10.3-14.3,13.1c-1.7,1.1-4,0.5-4.9-1.3c0,0-5.2-10.8-5.2-10.8
						c-0.8-1.1,2,13.5,2.3,14.7c0.4,1.3,0.8,3.1,1,3.8c0.1,0.3,0.6-0.3,1-0.9c0.4-0.6,1.2-0.7,1.8-0.3c2.4,1.6,6.3,3.9,8.6,4.7
						c2.1-0.1,5.2,0.1,7.4,0L63.1,60.7z"/>
				</defs>
				<use xlink:href="#XMLID_116_"  style="overflow:visible;fill:#A34824;"/>
				<clipPath id="XMLID_140_">
					<use xlink:href="#XMLID_116_"  style="overflow:visible;"/>
				</clipPath>
				<path id="XMLID_118_" style="clip-path:url(#XMLID_140_);fill:#A34824;" d="M108.8,16.7"/>
			</g>
			<g id="XMLID_111_">
				<defs>
					<path id="XMLID_112_" d="M63.1,60.7c2.7-5.8,4.7-10.6,7.4-16.4c0.1-0.5,0.8-3.1,0.8-3.7c0-1.4-1.2-1.9-1.5-2.7
						c0.1-1-0.9-2.5-1.4-4.3c-0.3-0.9-1.4-2.9-2.4-4.1c-1.9-2.2-3.4-2.7-3.8-2.1c-0.2,0.2,0.2,0.6,0.5,1.2c2.5,4.8,1.6,6.4,3.7,9.1
						c0.7,0.9,1.2,1.2,1.4,2.1c0.4,1.5-0.4,2.9-0.7,3.5c-2.7,4.9-10,10.3-14.3,13.1c-1.7,1.1-4,0.5-4.9-1.3c0,0-5.2-10.8-5.2-10.8
						c-0.8-1.1,2,13.5,2.3,14.7c0.4,1.3,0.8,3.1,1,3.8c0.1,0.3,0.6-0.3,1-0.9c0.4-0.6,1.2-0.7,1.8-0.3c2.4,1.6,6.3,3.9,8.6,4.7
						c2.1-0.1,5.2,0.1,7.4,0L63.1,60.7z"/>
				</defs>
				<clipPath id="XMLID_141_">
					<use xlink:href="#XMLID_112_"  style="overflow:visible;"/>
				</clipPath>
			</g>
		</g>
		<g id="XMLID_49751_">
			<defs>
				<path id="XMLID_49752_" d="M61.7,56.2c0,0.1-0.4,0.8-1.1,1c-0.6,0.2-1.1-0.1-1.2-0.2c-3.3-9.6-6.6-19.2-9.9-28.8l0.1-3.4
					l2.3,2.6C55.1,37,58.4,46.6,61.7,56.2z"/>
			</defs>
			<use xlink:href="#XMLID_49752_"  style="overflow:visible;fill:#CDA062;"/>
			<clipPath id="XMLID_143_">
				<use xlink:href="#XMLID_49752_"  style="overflow:visible;"/>
			</clipPath>
			
				<path id="XMLID_49753_" style="clip-path:url(#XMLID_143_);fill:#FFE6CA;stroke:#A34A24;stroke-width:0.4117;stroke-miterlimit:10;" d="
				M50.6,28L50.4,28c-1.3,0.4-2.7-0.4-3.1-1.7l-0.5-1.9c-0.4-1.3,0.4-2.7,1.7-3.1l0.2-0.1c1.3-0.4,2.7,0.4,3.1,1.7l0.5,1.9
				C52.7,26.2,51.9,27.6,50.6,28z"/>
			
				<use xlink:href="#XMLID_49752_"  style="overflow:visible;fill:none;stroke:#A34924;stroke-width:0.8788;stroke-miterlimit:10;"/>
		</g>
	</g>
</g>
</svg>
