<?xml version="1.0" encoding="utf-8"?>
<!-- Generator: Adobe Illustrator 19.0.0, SVG Export Plug-In . SVG Version: 6.00 Build 0)  -->
<svg version="1.1" id="Layer_1" xmlns="http://www.w3.org/2000/svg" xmlns:xlink="http://www.w3.org/1999/xlink" x="0px" y="0px"
	 viewBox="0 0 104.2 95" style="enable-background:new 0 0 104.2 95;" xml:space="preserve">
<style type="text/css">
	.st0{fill:#25110A;}
	.st1{fill:#29170F;}
	.st2{fill:#FFF6EE;}
	.st3{fill:#CFA46B;}
	.st4{fill:#A34824;}
	.st5{fill:none;}
	.st6{fill:#FFE6CA;}
	.st7{fill:none;stroke:#A34824;stroke-width:0.7563;stroke-miterlimit:10;}
	.st8{clip-path:url(#XMLID_15_);fill:#29170F;}
	.st9{clip-path:url(#XMLID_15_);fill:none;stroke:#A34824;stroke-width:0.7563;stroke-miterlimit:10;}
</style>
<g id="XMLID_50354_">
	<rect id="XMLID_73_" x="0" class="st0" width="104.2" height="95"/>
</g>
<path id="XMLID_50353_" class="st1" d="M88.1,24c-0.1-0.6-0.4-1.5-1.1-2.4c-1-1.3-2.2-2-2.8-2.2c0.2,0.3,1,1.3,1,2.8
	c0,1.8-1.1,2.9-1.3,3.1c0.3-0.7,0.6-1.8,0.3-2.9c-0.6-1.9-2.6-2.2-3.4-4.2c-0.3-0.7-0.4-1.8,0.1-3.3c1.4-0.4,2.8-0.8,4.2-1.2
	c-0.5,1.9-0.3,3.1,0.1,3.9c0.8,1.7,2.3,2.1,2.9,4.1C88.3,22.6,88.2,23.5,88.1,24z"/>
<path id="XMLID_50352_" class="st1" d="M88.1,24c-0.1-0.6-0.4-1.5-1.1-2.4c-1-1.3-2.2-2-2.8-2.2c0.2,0.3,1,1.3,1,2.8
	c0,1.8-1.1,2.9-1.3,3.1c0.3-0.7,0.6-1.8,0.3-2.9c-0.6-1.9-2.6-2.2-3.4-4.2c-0.3-0.7-0.4-1.8,0.1-3.3c1.4-0.4,2.8-0.8,4.2-1.2
	c-0.5,1.9-0.3,3.1,0.1,3.9c0.8,1.7,2.3,2.1,2.9,4.1C88.3,22.6,88.2,23.5,88.1,24z"/>
<rect id="XMLID_50351_" x="3.8" y="3.3" class="st2" width="96.6" height="87.8"/>
<rect id="XMLID_50350_" x="6.8" y="5.9" class="st3" width="90.6" height="65.1"/>
<g id="XMLID_50345_">
	<g>
		<path id="XMLID_32_" class="st4" d="M28.3,75.6h9v10.5h-9V75.6z M34.5,83.9v-6.2H31v6.2H34.5z"/>
		<path id="XMLID_35_" class="st4" d="M40.8,77.7h-1.7v-2.1h4.4v6h-2.8V77.7z"/>
		<path id="XMLID_37_" class="st4" d="M49.9,79.1c0-0.5-0.1-0.8-0.4-1.1s-0.6-0.4-1.1-0.4h-3.2v-2.1h3.4c0.8,0,1.6,0.1,2.2,0.4
			s1.1,0.7,1.4,1.3c0.3,0.6,0.5,1.2,0.5,2v6.8h-2.8V79.1z"/>
		<path id="XMLID_39_" class="st4" d="M57.3,86.1c-0.7-0.1-1.4-0.3-2-0.5l0.5-2c0.6,0.2,1.1,0.3,1.7,0.4s1.1,0.1,1.5,0.1
			c0.8,0,1.5-0.2,1.9-0.6s0.6-0.9,0.6-1.7v-4.2h-3.1c-0.3,0.7-0.4,1.3-0.4,2v0.5c0.3,0.1,0.6,0.1,0.9,0.1v1.9
			c-0.3,0.1-0.7,0.1-1.1,0.1c-0.5,0-0.9-0.1-1.4-0.2s-0.8-0.3-1.2-0.5v-1c0-0.6,0.1-1.1,0.2-1.6s0.3-0.9,0.5-1.3H55v-2.1h9.3v5.9
			c0,1.1-0.2,2-0.7,2.7s-1,1.2-1.8,1.6s-1.6,0.5-2.6,0.5C58.6,86.3,58,86.3,57.3,86.1z"/>
		<path id="XMLID_41_" class="st4" d="M69.3,85.7c-0.7-0.4-1.3-1-1.7-1.7S67,82.3,67,81.4v-0.6c0-0.5,0.1-1,0.3-1.6s0.4-1,0.7-1.3
			c0.1-0.1,0.1-0.1,0.1-0.1l0,0c-0.2,0-0.7,0.1-1.4,0.3l-0.5-2c0.7-0.2,1.5-0.4,2.5-0.5s1.8-0.2,2.6-0.2c1.6,0,2.9,0.4,3.8,1.3
			s1.3,2.1,1.3,3.7v1c0,1-0.2,1.8-0.6,2.6s-0.9,1.3-1.7,1.7s-1.5,0.6-2.5,0.6C70.8,86.3,70,86.1,69.3,85.7z M72.8,83.7
			c0.3-0.2,0.5-0.5,0.7-0.9s0.2-0.9,0.2-1.4v-1c0-0.9-0.2-1.6-0.5-2.1c-0.3-0.5-0.8-0.7-1.5-0.7c-0.6,0-1.1,0.3-1.4,0.8
			c-0.3,0.5-0.5,1.3-0.5,2.2v0.8c0,0.5,0.1,1,0.2,1.4s0.4,0.7,0.7,0.9s0.6,0.3,1,0.3C72.1,84,72.5,83.9,72.8,83.7z"/>
	</g>
	<g>
		<path id="XMLID_16_" class="st4" d="M28.3,75.6h9v10.5h-9V75.6z M34.5,83.9v-6.2H31v6.2H34.5z"/>
		<path id="XMLID_20_" class="st4" d="M40.8,77.7h-1.7v-2.1h4.4v6h-2.8V77.7z"/>
		<path id="XMLID_23_" class="st4" d="M49.9,79.1c0-0.5-0.1-0.8-0.4-1.1s-0.6-0.4-1.1-0.4h-3.2v-2.1h3.4c0.8,0,1.6,0.1,2.2,0.4
			s1.1,0.7,1.4,1.3c0.3,0.6,0.5,1.2,0.5,2v6.8h-2.8V79.1z"/>
		<path id="XMLID_27_" class="st4" d="M57.3,86.1c-0.7-0.1-1.4-0.3-2-0.5l0.5-2c0.6,0.2,1.1,0.3,1.7,0.4s1.1,0.1,1.5,0.1
			c0.8,0,1.5-0.2,1.9-0.6s0.6-0.9,0.6-1.7v-4.2h-3.1c-0.3,0.7-0.4,1.3-0.4,2v0.5c0.3,0.1,0.6,0.1,0.9,0.1v1.9
			c-0.3,0.1-0.7,0.1-1.1,0.1c-0.5,0-0.9-0.1-1.4-0.2s-0.8-0.3-1.2-0.5v-1c0-0.6,0.1-1.1,0.2-1.6s0.3-0.9,0.5-1.3H55v-2.1h9.3v5.9
			c0,1.1-0.2,2-0.7,2.7s-1,1.2-1.8,1.6s-1.6,0.5-2.6,0.5C58.6,86.3,58,86.3,57.3,86.1z"/>
		<path id="XMLID_29_" class="st4" d="M69.3,85.7c-0.7-0.4-1.3-1-1.7-1.7S67,82.3,67,81.4v-0.6c0-0.5,0.1-1,0.3-1.6s0.4-1,0.7-1.3
			c0.1-0.1,0.1-0.1,0.1-0.1l0,0c-0.2,0-0.7,0.1-1.4,0.3l-0.5-2c0.7-0.2,1.5-0.4,2.5-0.5s1.8-0.2,2.6-0.2c1.6,0,2.9,0.4,3.8,1.3
			s1.3,2.1,1.3,3.7v1c0,1-0.2,1.8-0.6,2.6s-0.9,1.3-1.7,1.7s-1.5,0.6-2.5,0.6C70.8,86.3,70,86.1,69.3,85.7z M72.8,83.7
			c0.3-0.2,0.5-0.5,0.7-0.9s0.2-0.9,0.2-1.4v-1c0-0.9-0.2-1.6-0.5-2.1c-0.3-0.5-0.8-0.7-1.5-0.7c-0.6,0-1.1,0.3-1.4,0.8
			c-0.3,0.5-0.5,1.3-0.5,2.2v0.8c0,0.5,0.1,1,0.2,1.4s0.4,0.7,0.7,0.9s0.6,0.3,1,0.3C72.1,84,72.5,83.9,72.8,83.7z"/>
	</g>
	<g id="XMLID_25_">
		<path id="XMLID_2_" class="st4" d="M28.3,75.6h9v10.5h-9V75.6z M34.5,83.9v-6.2H31v6.2H34.5z"/>
		<path id="XMLID_5_" class="st4" d="M40.8,77.7h-1.7v-2.1h4.4v6h-2.8V77.7z"/>
		<path id="XMLID_7_" class="st4" d="M49.9,79.1c0-0.5-0.1-0.8-0.4-1.1s-0.6-0.4-1.1-0.4h-3.2v-2.1h3.4c0.8,0,1.6,0.1,2.2,0.4
			s1.1,0.7,1.4,1.3c0.3,0.6,0.5,1.2,0.5,2v6.8h-2.8V79.1z"/>
		<path id="XMLID_9_" class="st4" d="M57.3,86.1c-0.7-0.1-1.4-0.3-2-0.5l0.5-2c0.6,0.2,1.1,0.3,1.7,0.4s1.1,0.1,1.5,0.1
			c0.8,0,1.5-0.2,1.9-0.6s0.6-0.9,0.6-1.7v-4.2h-3.1c-0.3,0.7-0.4,1.3-0.4,2v0.5c0.3,0.1,0.6,0.1,0.9,0.1v1.9
			c-0.3,0.1-0.7,0.1-1.1,0.1c-0.5,0-0.9-0.1-1.4-0.2s-0.8-0.3-1.2-0.5v-1c0-0.6,0.1-1.1,0.2-1.6s0.3-0.9,0.5-1.3H55v-2.1h9.3v5.9
			c0,1.1-0.2,2-0.7,2.7s-1,1.2-1.8,1.6s-1.6,0.5-2.6,0.5C58.6,86.3,58,86.3,57.3,86.1z"/>
		<path id="XMLID_12_" class="st4" d="M69.3,85.7c-0.7-0.4-1.3-1-1.7-1.7S67,82.3,67,81.4v-0.6c0-0.5,0.1-1,0.3-1.6s0.4-1,0.7-1.3
			c0.1-0.1,0.1-0.1,0.1-0.1l0,0c-0.2,0-0.7,0.1-1.4,0.3l-0.5-2c0.7-0.2,1.5-0.4,2.5-0.5s1.8-0.2,2.6-0.2c1.6,0,2.9,0.4,3.8,1.3
			s1.3,2.1,1.3,3.7v1c0,1-0.2,1.8-0.6,2.6s-0.9,1.3-1.7,1.7s-1.5,0.6-2.5,0.6C70.8,86.3,70,86.1,69.3,85.7z M72.8,83.7
			c0.3-0.2,0.5-0.5,0.7-0.9s0.2-0.9,0.2-1.4v-1c0-0.9-0.2-1.6-0.5-2.1c-0.3-0.5-0.8-0.7-1.5-0.7c-0.6,0-1.1,0.3-1.4,0.8
			c-0.3,0.5-0.5,1.3-0.5,2.2v0.8c0,0.5,0.1,1,0.2,1.4s0.4,0.7,0.7,0.9s0.6,0.3,1,0.3C72.1,84,72.5,83.9,72.8,83.7z"/>
	</g>
</g>
<g id="XMLID_50309_">
	<g id="XMLID_50317_">
		<path id="XMLID_50344_" class="st5" d="M81.1,18.8c-0.7,0.1-1.4,0.3-2,0.4c-10.5,2.2-21,4.3-31.5,6.5c-0.4,0.1-0.6,0.3-0.6,0.7
			c0,0.9-0.1,1.8-0.1,2.7c0,1.9,0,3.8,0,5.8C58,32,69.2,29.3,80.4,26.5C80.1,23.9,80,21.3,81.1,18.8z"/>
		<path id="XMLID_50343_" class="st5" d="M51.2,40.4c0-0.2-0.4-0.4-0.6-0.5c-10.1-2.1-20.3-4.2-30.4-6.3c-0.9-0.2-1.9-0.4-3-0.6
			c1.2,2.6,1,5.1,0.8,7.7c11.2,2.8,22.3,5.5,33.5,8.3C51.4,46.1,51.3,43.3,51.2,40.4z"/>
		<path id="XMLID_50342_" class="st5" d="M18.4,27.3c7.7,2.1,15.4,4.3,23.1,6.4c1.2,0.3,2.5,0.7,3.8,1.1c0.1-3.1,0.2-6.1,0.3-9.1
			c-0.2-0.1-0.4-0.2-0.5-0.2C36.4,22.7,27.7,19.8,19,17c-1.3-0.4-2.3,0-2.7,1.3c-0.8,2.5-0.6,5,0.4,7.4C17,26.5,17.6,27.1,18.4,27.3
			z"/>
		<path id="XMLID_50341_" class="st5" d="M42.6,54c-8.6-2.8-17.2-5.6-25.8-8.4c-1.5-0.5-2.5-0.1-3,1.5c-0.7,2.5-0.5,4.9,0.5,7.3
			c0.3,0.7,0.9,1.3,1.7,1.5c7.3,2,14.7,4.1,22,6.2c1.6,0.4,3.2,0.9,4.9,1.3c0.1-2.9,0.2-5.7,0.3-8.4C43.3,54.4,43.1,54.2,42.6,54z"
			/>
		<path id="XMLID_50340_" class="st5" d="M79,31.4c-5.2,1.7-10.5,3.4-15.7,5.1c-3.3,1.1-6.6,2.2-10,3.3c-0.2,0.1-0.6,0.4-0.6,0.6
			c0.1,2.9,0.2,5.7,0.3,8.7c0.3-0.1,0.5-0.1,0.7-0.2c8.5-2.4,17.1-4.8,25.6-7.1c1.3-0.4,2.1-1.1,2.5-2.3c0.7-2.1,0.8-4.2,0.3-6.3
			C81.8,31.3,80.7,30.8,79,31.4z"/>
		<path id="XMLID_50339_" class="st5" d="M78,47.5c-3.9,0.8-7.9,1.6-11.8,2.4c-4.3,0.9-8.7,1.5-12.9,3.1c-0.1,0.1-0.3,0.1-0.4,0.1
			c-1-0.4-2,0-3,0.2c-1.7,0.3-3.4,0.7-5.1,1c-0.1,3-0.2,6-0.3,9.1c11.3-2.8,22.4-5.6,33.6-8.4c-0.3-2.6-0.4-5.2,0.7-7.7
			C78.4,47.4,78.2,47.5,78,47.5z"/>
		<path id="XMLID_50318_" class="st4" d="M86.9,27.8c-0.2-0.1-0.3-0.3-0.5-0.3c-1.3-0.5-2.7-1-4-1.5c-0.4-0.1-0.6-0.3-0.6-0.7
			c0-1.1-0.1-2.3,0-3.4c0.2-1.9,0.9-3.5,3-4.1c0.3-0.1,0.6-0.2,0.7-0.4c0.2-0.3,0.6-0.7,0.5-1c0-0.3-0.5-0.6-0.8-0.7
			c-8.3-2.5-16.5-5-24.8-7.5c-0.3-0.1-0.6-0.2-0.9-0.1c-2.2,0.3-4.4,0.6-6.6,0.9c-5.7,0.8-11.4,1.6-17.1,2.4
			C30,12,24.1,12.9,18.3,13.7c-2,0.3-3.5,1.4-4.1,3.2c-1.5,4.2-1.1,8.2,1.6,11.8c0.1,0.1,0.1,0.2,0.1,0.3c-1,0.3-1.9,0.6-2.8,0.8
			c-0.9,0.3-1.1,1-0.4,1.6c0.3,0.3,0.8,0.5,1.2,0.7c1.1,0.4,1.8,1.2,2.2,2.3c0.6,1.5,0.5,3.2,0.5,4.8c0,0.8-0.3,1.1-1,1.3
			c-1.3,0.4-2.6,1-3.9,1.5c-0.2,0.1-0.4,0.4-0.6,0.7c0.2,0.2,0.5,0.4,0.7,0.5c0.4,0.2,0.9,0.2,1.2,0.3c-0.5,0.8-1.1,1.6-1.3,2.4
			c-1.1,3.5-0.8,6.9,0.8,10.2c0.6,1.2,1.6,2,2.9,2.5c8.9,2.9,17.8,5.8,26.7,8.6c0.5,0.2,1.2,0.2,1.7,0.1c11.3-2.7,22.6-5.5,33.9-8.2
			c2.2-0.5,4.3-1,6.5-1.6c0.2-0.1,0.5-0.3,0.7-0.4c-0.2-0.2-0.3-0.6-0.5-0.7c-0.4-0.3-0.8-0.5-1.3-0.7c-1-0.4-2.1-0.7-3.1-1.1
			c-0.2-0.1-0.5-0.3-0.5-0.5c0-1.3-0.1-2.6,0-3.8c0.2-1.8,1-3.3,2.9-3.9c0.4-0.1,0.7-0.4,1-0.7c0.5-0.5,0.4-1.2-0.3-1.4
			c-0.4-0.2-0.9-0.3-1.4-0.4c2.2-1.7,2.9-4.1,3.1-6.7c0.3-2.6,0.2-5.1-1.6-7.3c0.3-0.1,0.4-0.2,0.6-0.2c0.9-0.2,1.9-0.4,2.8-0.7
			C87.3,28.6,87.4,28.3,86.9,27.8z M47,29c0-0.9,0.1-1.8,0.1-2.7c0-0.4,0.1-0.6,0.6-0.7c10.5-2.1,21-4.3,31.5-6.5
			c0.6-0.1,1.2-0.2,2-0.4c-1.2,2.5-1,5.1-0.7,7.7C69.2,29.3,58,32,47,34.8C47,32.9,47,31,47,29z M16.2,18.3c0.4-1.3,1.4-1.7,2.7-1.3
			c8.7,2.8,17.4,5.7,26.1,8.5c0.2,0.1,0.3,0.1,0.5,0.2c-0.1,3-0.2,6-0.3,9.1c-1.3-0.4-2.6-0.7-3.8-1.1c-7.7-2.1-15.4-4.3-23.1-6.4
			c-0.9-0.2-1.4-0.8-1.8-1.6C15.6,23.3,15.4,20.8,16.2,18.3z M43,63.4c-1.7-0.5-3.3-0.9-4.9-1.3c-7.3-2.1-14.7-4.1-22-6.2
			c-0.8-0.2-1.4-0.8-1.7-1.5c-1-2.3-1.2-4.8-0.5-7.3c0.4-1.6,1.4-2,3-1.5c8.6,2.8,17.2,5.6,25.8,8.4c0.5,0.2,0.7,0.4,0.6,0.9
			C43.2,57.7,43.1,60.5,43,63.4z M17.9,40.8c0.2-2.6,0.4-5.1-0.8-7.7c1.1,0.2,2,0.4,3,0.6c10.1,2.1,20.3,4.2,30.4,6.3
			c0.2,0,0.6,0.3,0.6,0.5c0.1,2.9,0.2,5.7,0.3,8.7C40.2,46.3,29.1,43.6,17.9,40.8z M78.1,55c-11.2,2.8-22.3,5.6-33.6,8.4
			c0.1-3.1,0.2-6,0.3-9.1c1.7-0.4,3.4-0.7,5.1-1c1-0.2,2-0.6,3-0.2c0.1,0,0.3,0,0.4-0.1c4.2-1.5,8.6-2.1,12.9-3.1
			c3.9-0.9,7.8-1.6,11.8-2.4c0.2,0,0.4-0.1,0.8-0.1C77.7,49.9,77.8,52.4,78.1,55z M81.9,39.5c-0.4,1.2-1.2,1.9-2.5,2.3
			c-8.6,2.3-17.1,4.8-25.6,7.1c-0.2,0.1-0.4,0.1-0.7,0.2c-0.1-3-0.2-5.8-0.3-8.7c0-0.2,0.3-0.5,0.6-0.6c3.3-1.1,6.6-2.2,10-3.3
			c5.2-1.7,10.5-3.4,15.7-5.1c1.8-0.6,2.9-0.1,3.3,1.7C82.8,35.3,82.6,37.4,81.9,39.5z"/>
	</g>
	<path id="XMLID_50316_" class="st6" d="M53,49.1c0-1.1-0.1-2.2-0.1-3.3c0-1-0.1-2-0.1-3c0-0.8,0-1.6-0.1-2.4c0-0.2,0.3-0.5,0.6-0.6
		c3.3-1.1,6.6-2.2,10-3.3c5.2-1.7,10.5-3.4,15.7-5.1c1.8-0.6,2.9-0.1,3.3,1.7c0.5,2.1,0.4,4.3-0.3,6.3c-0.4,1.2-1.2,1.9-2.5,2.3
		c-8.6,2.3-17.1,4.8-25.6,7.1C53.5,48.9,53.3,49,53,49.1z"/>
	<path id="XMLID_50314_" class="st6" d="M45.6,25.7c-0.1,3-0.2,6-0.3,9.1c-1.3-0.4-2.6-0.7-3.8-1.1c-7.7-2.1-15.4-4.3-23.1-6.4
		c-0.9-0.2-1.4-0.8-1.8-1.6c-1-2.4-1.2-4.9-0.4-7.4c0.4-1.3,1.4-1.7,2.7-1.3c8.7,2.8,17.4,5.7,26.1,8.5
		C45.2,25.6,45.4,25.6,45.6,25.7z"/>
	<path id="XMLID_50313_" class="st6" d="M43,63.4c-1.7-0.5-3.3-0.9-4.9-1.3c-7.3-2.1-14.7-4.1-22-6.2c-0.8-0.2-1.4-0.8-1.7-1.5
		c-1-2.3-1.2-4.8-0.5-7.3c0.4-1.6,1.4-2,3-1.5c8.6,2.8,17.2,5.6,25.8,8.4c0.5,0.2,0.7,0.4,0.6,0.9C43.2,57.7,43.1,60.5,43,63.4z"/>
	<path id="XMLID_50312_" class="st6" d="M51.5,49.1c-11.2-2.8-22.4-5.6-33.5-8.3c0.2-2.6,0.4-5.1-0.8-7.7c1.1,0.2,2,0.4,3,0.6
		c10.1,2.1,20.3,4.2,30.4,6.3c0.2,0,0.6,0.3,0.6,0.5c0,0.6,0,1.1,0.1,1.7"/>
	<path id="XMLID_50311_" class="st6" d="M81.1,18.8c-1.2,2.5-1,5.1-0.7,7.7C69.2,29.3,58,32,47,34.8c0-1.9,0-3.8,0-5.8
		c0-0.9,0.1-1.8,0.1-2.7c0-0.4,0.1-0.6,0.6-0.7c10.5-2.1,21-4.3,31.5-6.5C79.8,19.1,80.4,19,81.1,18.8z"/>
	<path id="XMLID_50310_" class="st6" d="M44.8,54.3c1.7-0.4,3.4-0.7,5.1-1c1-0.2,2-0.6,3-0.2c0.1,0,0.3,0,0.4-0.1
		c4.2-1.5,8.6-2.1,12.9-3.1c3.9-0.9,7.8-1.6,11.8-2.4c0.2,0,0.4-0.1,0.8-0.1c-1.1,2.5-1,5-0.7,7.7c-11.2,2.8-22.3,5.6-33.6,8.4
		C44.6,60.3,44.7,57.4,44.8,54.3z"/>
</g>
<line id="XMLID_50306_" class="st7" x1="58.3" y1="28" x2="80.3" y2="23.6"/>
<line id="XMLID_50303_" class="st7" x1="47" y1="28" x2="69" y2="23.6"/>
<line id="XMLID_50300_" class="st7" x1="79.7" y1="40.2" x2="52.6" y2="48.1"/>
<path id="XMLID_50297_" class="st7" d="M68.2,39.5C63,41,57.8,42.5,52.6,44.1"/>
<line id="XMLID_50294_" class="st7" x1="48.3" y1="57.8" x2="78.9" y2="51.2"/>
<line id="XMLID_50291_" class="st7" x1="53.4" y1="54.5" x2="79.4" y2="49.1"/>
<path id="XMLID_50290_" class="st7" d="M44.1,61.3c9.9-2.3,19.8-4.7,29.6-7"/>
<g id="XMLID_50023_">
	<defs>
		<polygon id="XMLID_50024_" points="83.8,43 85.4,45.4 81,49.4 81.1,53.3 86.1,55.4 87.7,57.8 49.1,66.8 94,67.2 94,38 85.4,39.5 
					"/>
	</defs>
	<clipPath id="XMLID_15_">
		<use xlink:href="#XMLID_50024_"  style="overflow:visible;"/>
	</clipPath>
	<path id="XMLID_50289_" class="st8" d="M125.1,17.3"/>
	<line id="XMLID_50288_" class="st9" x1="49.1" y1="66.8" x2="126.1" y2="57.3"/>
	<line id="XMLID_50287_" class="st9" x1="49" y1="65.2" x2="126" y2="55.6"/>
	<line id="XMLID_50286_" class="st9" x1="48" y1="63.8" x2="125" y2="54.2"/>
	<line id="XMLID_50285_" class="st9" x1="49" y1="62.4" x2="126" y2="52.8"/>
	<line id="XMLID_50284_" class="st9" x1="49" y1="60.7" x2="126" y2="51.1"/>
	<line id="XMLID_50283_" class="st9" x1="47.9" y1="59.3" x2="125" y2="49.8"/>
	<line id="XMLID_50282_" class="st9" x1="48.9" y1="58" x2="125.9" y2="48.4"/>
	<line id="XMLID_50281_" class="st9" x1="48.9" y1="56.3" x2="125.9" y2="46.7"/>
	<line id="XMLID_50280_" class="st9" x1="47.9" y1="55" x2="124.9" y2="45.4"/>
	<line id="XMLID_50279_" class="st9" x1="48.9" y1="53.6" x2="125.9" y2="44"/>
	<line id="XMLID_50278_" class="st9" x1="48.8" y1="51.9" x2="125.8" y2="42.4"/>
	<line id="XMLID_50277_" class="st9" x1="47.8" y1="50.6" x2="124.8" y2="41"/>
	<line id="XMLID_50276_" class="st9" x1="48.8" y1="49.2" x2="125.8" y2="39.7"/>
	<line id="XMLID_50275_" class="st9" x1="48.8" y1="47.6" x2="125.8" y2="38"/>
	<line id="XMLID_50274_" class="st9" x1="47.7" y1="46.2" x2="124.8" y2="36.6"/>
	<line id="XMLID_50273_" class="st9" x1="48.7" y1="44.9" x2="125.7" y2="35.3"/>
	<line id="XMLID_50272_" class="st9" x1="48.7" y1="43.3" x2="125.7" y2="33.7"/>
	<line id="XMLID_50271_" class="st9" x1="47.7" y1="41.9" x2="124.7" y2="32.3"/>
	<line id="XMLID_50265_" class="st9" x1="48.7" y1="40.6" x2="125.7" y2="31"/>
	<line id="XMLID_50264_" class="st9" x1="48.6" y1="38.9" x2="125.6" y2="29.3"/>
	<line id="XMLID_50263_" class="st9" x1="47.6" y1="37.5" x2="124.6" y2="27.9"/>
</g>
<path id="XMLID_50022_" class="st1" d="M80.2,31.4c-0.1-0.6-0.4-1.5-1.1-2.4c-1-1.3-2.2-2-2.8-2.2c0.2,0.3,1,1.3,1,2.8
	c0,1.8-1.1,2.9-1.3,3.1c0.3-0.7,0.6-1.8,0.3-2.9c-0.6-1.9-2.6-2.2-3.4-4.2c-0.3-0.7-0.4-1.8,0.1-3.3c1.4-0.4,2.8-0.8,4.2-1.2
	c-0.5,1.9-0.3,3.1,0.1,3.9c0.8,1.7,2.3,2.1,2.9,4.1C80.4,29.9,80.3,30.8,80.2,31.4z"/>
</svg>
