<?xml version="1.0" encoding="utf-8"?>
<!-- Generator: Adobe Illustrator 19.0.0, SVG Export Plug-In . SVG Version: 6.00 Build 0)  -->
<svg version="1.1" id="Layer_1" xmlns="http://www.w3.org/2000/svg" xmlns:xlink="http://www.w3.org/1999/xlink" x="0px" y="0px"
	 viewBox="0 0 104.2 95" style="enable-background:new 0 0 104.2 95;" xml:space="preserve">
<style type="text/css">
	.st0{fill:#25110A;}
	.st1{fill:#FFF6EE;}
	.st2{fill:#A34824;}
	.st3{fill:#CFA46B;}
	.st4{fill:#FFE6CA;}
	.st5{clip-path:url(#XMLID_28_);fill:#29170F;}
	.st6{clip-path:url(#XMLID_28_);fill:none;stroke:#A34824;stroke-width:0.7563;stroke-miterlimit:10;}
	.st7{clip-path:url(#XMLID_49_);fill:#29170F;}
	.st8{clip-path:url(#XMLID_49_);fill:none;stroke:#A34824;stroke-width:0.7563;stroke-miterlimit:10;}
</style>
<g id="XMLID_1_">
	<g id="XMLID_62484_">
		<rect id="XMLID_10_" x="0" y="0" class="st0" width="104.2" height="95"/>
	</g>
	<rect id="XMLID_62483_" x="3.9" y="3.2" class="st1" width="96.6" height="87.8"/>
	<g id="XMLID_62478_">
		<g>
			<path id="XMLID_49_" class="st2" d="M13.6,77.3h-1.7v-2.1h4.4v6h-2.8V77.3z"/>
			<path id="XMLID_51_" class="st2" d="M27.2,83.7v2.1h-9.1v-2.2h5.1v-4.7c0-0.5-0.1-0.9-0.4-1.2c-0.3-0.3-0.7-0.4-1.3-0.4h-2.8
				v-2.1h3c0.9,0,1.7,0.2,2.3,0.5s1.1,0.7,1.5,1.3s0.5,1.3,0.5,2.1v4.4L27.2,83.7z"/>
			<path id="XMLID_53_" class="st2" d="M32.5,78.8c0-0.5-0.1-0.8-0.4-1.1c-0.3-0.2-0.6-0.4-1.1-0.4h-3.2v-2.1h3.4
				c0.8,0,1.6,0.1,2.2,0.4s1.1,0.7,1.4,1.3c0.3,0.6,0.5,1.2,0.5,2v6.8h-2.8V78.8z"/>
			<path id="XMLID_55_" class="st2" d="M41.6,83.6c0.7,0,1.3-0.3,1.7-0.7s0.6-1,0.6-1.8v-3.8h-6.1v-2.1h8.9v5.9c0,1-0.2,1.8-0.6,2.5
				c-0.4,0.7-1,1.2-1.7,1.6c-0.8,0.4-1.7,0.6-2.7,0.6V83.6z M37.9,82c0-1,0.2-1.8,0.6-2.3h2.2c-0.1,0.5-0.2,1.1-0.2,2v7.6h-2.7V82z"
				/>
			<path id="XMLID_58_" class="st2" d="M57.6,78.8c0-0.5-0.1-0.8-0.4-1.1s-0.6-0.4-1.1-0.4h-3.2v-2.1h3.4c0.8,0,1.6,0.1,2.2,0.4
				s1.1,0.7,1.4,1.3c0.3,0.6,0.5,1.2,0.5,2v6.8h-2.8V78.8z"/>
			<path id="XMLID_60_" class="st2" d="M65.7,83.2c0.5,0.2,1.1,0.4,1.6,0.5c0.6,0.1,1.1,0.2,1.6,0.2c1.3,0,2.3-0.3,3-0.8
				s1.1-1.4,1.1-2.5v-5.4h2.7v5.7c0,1.1-0.3,2-0.9,2.8s-1.4,1.3-2.4,1.7c-1,0.4-2.1,0.6-3.4,0.6c-1,0-2-0.1-3-0.4c-1-0.2-2-0.6-3-1
				v-9.5h2.7V83.2z M67.9,81.4c0.1-0.4,0.1-0.9,0.1-1.3v-4.9h2.7v4.3c0,0.6-0.1,1.2-0.2,1.7c-0.1,0.5-0.3,0.9-0.6,1.2l-2.2,0
				C67.7,82.2,67.8,81.8,67.9,81.4z"/>
			<path id="XMLID_63_" class="st2" d="M78.7,77.3h-0.9v-2.1h3.7v10.5h-2.8V77.3z"/>
			<path id="XMLID_65_" class="st2" d="M83.5,85.5l0.4-2c0.9,0.2,1.6,0.3,2.3,0.3c0.9,0,1.5-0.2,1.9-0.6s0.6-0.9,0.6-1.7v-4.2h-4.8
				v-2.1h7.5v5.9c0,1.7-0.4,2.9-1.3,3.7s-2.1,1.2-3.6,1.2C85.7,85.9,84.7,85.8,83.5,85.5z"/>
		</g>
		<g>
			<path id="XMLID_29_" class="st2" d="M13.6,77.3h-1.7v-2.1h4.4v6h-2.8V77.3z"/>
			<path id="XMLID_33_" class="st2" d="M27.2,83.7v2.1h-9.1v-2.2h5.1v-4.7c0-0.5-0.1-0.9-0.4-1.2c-0.3-0.3-0.7-0.4-1.3-0.4h-2.8
				v-2.1h3c0.9,0,1.7,0.2,2.3,0.5s1.1,0.7,1.5,1.3s0.5,1.3,0.5,2.1v4.4L27.2,83.7z"/>
			<path id="XMLID_35_" class="st2" d="M32.5,78.8c0-0.5-0.1-0.8-0.4-1.1c-0.3-0.2-0.6-0.4-1.1-0.4h-3.2v-2.1h3.4
				c0.8,0,1.6,0.1,2.2,0.4s1.1,0.7,1.4,1.3c0.3,0.6,0.5,1.2,0.5,2v6.8h-2.8V78.8z"/>
			<path id="XMLID_37_" class="st2" d="M41.6,83.6c0.7,0,1.3-0.3,1.7-0.7s0.6-1,0.6-1.8v-3.8h-6.1v-2.1h8.9v5.9c0,1-0.2,1.8-0.6,2.5
				c-0.4,0.7-1,1.2-1.7,1.6c-0.8,0.4-1.7,0.6-2.7,0.6V83.6z M37.9,82c0-1,0.2-1.8,0.6-2.3h2.2c-0.1,0.5-0.2,1.1-0.2,2v7.6h-2.7V82z"
				/>
			<path id="XMLID_40_" class="st2" d="M57.6,78.8c0-0.5-0.1-0.8-0.4-1.1s-0.6-0.4-1.1-0.4h-3.2v-2.1h3.4c0.8,0,1.6,0.1,2.2,0.4
				s1.1,0.7,1.4,1.3c0.3,0.6,0.5,1.2,0.5,2v6.8h-2.8V78.8z"/>
			<path id="XMLID_42_" class="st2" d="M65.7,83.2c0.5,0.2,1.1,0.4,1.6,0.5c0.6,0.1,1.1,0.2,1.6,0.2c1.3,0,2.3-0.3,3-0.8
				s1.1-1.4,1.1-2.5v-5.4h2.7v5.7c0,1.1-0.3,2-0.9,2.8s-1.4,1.3-2.4,1.7c-1,0.4-2.1,0.6-3.4,0.6c-1,0-2-0.1-3-0.4c-1-0.2-2-0.6-3-1
				v-9.5h2.7V83.2z M67.9,81.4c0.1-0.4,0.1-0.9,0.1-1.3v-4.9h2.7v4.3c0,0.6-0.1,1.2-0.2,1.7c-0.1,0.5-0.3,0.9-0.6,1.2l-2.2,0
				C67.7,82.2,67.8,81.8,67.9,81.4z"/>
			<path id="XMLID_45_" class="st2" d="M78.7,77.3h-0.9v-2.1h3.7v10.5h-2.8V77.3z"/>
			<path id="XMLID_47_" class="st2" d="M83.5,85.5l0.4-2c0.9,0.2,1.6,0.3,2.3,0.3c0.9,0,1.5-0.2,1.9-0.6s0.6-0.9,0.6-1.7v-4.2h-4.8
				v-2.1h7.5v5.9c0,1.7-0.4,2.9-1.3,3.7s-2.1,1.2-3.6,1.2C85.7,85.9,84.7,85.8,83.5,85.5z"/>
		</g>
		<g id="XMLID_30_">
			<path id="XMLID_3_" class="st2" d="M13.6,77.3h-1.7v-2.1h4.4v6h-2.8V77.3z"/>
			<path id="XMLID_5_" class="st2" d="M27.2,83.7v2.1h-9.1v-2.2h5.1v-4.7c0-0.5-0.1-0.9-0.4-1.2c-0.3-0.3-0.7-0.4-1.3-0.4h-2.8v-2.1
				h3c0.9,0,1.7,0.2,2.3,0.5s1.1,0.7,1.5,1.3s0.5,1.3,0.5,2.1v4.4L27.2,83.7z"/>
			<path id="XMLID_7_" class="st2" d="M32.5,78.8c0-0.5-0.1-0.8-0.4-1.1c-0.3-0.2-0.6-0.4-1.1-0.4h-3.2v-2.1h3.4
				c0.8,0,1.6,0.1,2.2,0.4s1.1,0.7,1.4,1.3c0.3,0.6,0.5,1.2,0.5,2v6.8h-2.8V78.8z"/>
			<path id="XMLID_11_" class="st2" d="M41.6,83.6c0.7,0,1.3-0.3,1.7-0.7s0.6-1,0.6-1.8v-3.8h-6.1v-2.1h8.9v5.9c0,1-0.2,1.8-0.6,2.5
				c-0.4,0.7-1,1.2-1.7,1.6c-0.8,0.4-1.7,0.6-2.7,0.6V83.6z M37.9,82c0-1,0.2-1.8,0.6-2.3h2.2c-0.1,0.5-0.2,1.1-0.2,2v7.6h-2.7V82z"
				/>
			<path id="XMLID_18_" class="st2" d="M57.6,78.8c0-0.5-0.1-0.8-0.4-1.1s-0.6-0.4-1.1-0.4h-3.2v-2.1h3.4c0.8,0,1.6,0.1,2.2,0.4
				s1.1,0.7,1.4,1.3c0.3,0.6,0.5,1.2,0.5,2v6.8h-2.8V78.8z"/>
			<path id="XMLID_20_" class="st2" d="M65.7,83.2c0.5,0.2,1.1,0.4,1.6,0.5c0.6,0.1,1.1,0.2,1.6,0.2c1.3,0,2.3-0.3,3-0.8
				s1.1-1.4,1.1-2.5v-5.4h2.7v5.7c0,1.1-0.3,2-0.9,2.8s-1.4,1.3-2.4,1.7c-1,0.4-2.1,0.6-3.4,0.6c-1,0-2-0.1-3-0.4c-1-0.2-2-0.6-3-1
				v-9.5h2.7V83.2z M67.9,81.4c0.1-0.4,0.1-0.9,0.1-1.3v-4.9h2.7v4.3c0,0.6-0.1,1.2-0.2,1.7c-0.1,0.5-0.3,0.9-0.6,1.2l-2.2,0
				C67.7,82.2,67.8,81.8,67.9,81.4z"/>
			<path id="XMLID_23_" class="st2" d="M78.7,77.3h-0.9v-2.1h3.7v10.5h-2.8V77.3z"/>
			<path id="XMLID_25_" class="st2" d="M83.5,85.5l0.4-2c0.9,0.2,1.6,0.3,2.3,0.3c0.9,0,1.5-0.2,1.9-0.6s0.6-0.9,0.6-1.7v-4.2h-4.8
				v-2.1h7.5v5.9c0,1.7-0.4,2.9-1.3,3.7s-2.1,1.2-3.6,1.2C85.7,85.9,84.7,85.8,83.5,85.5z"/>
		</g>
	</g>
	<rect id="XMLID_62477_" x="6.5" y="5.7" class="st3" width="90.6" height="65.1"/>
	<g id="XMLID_62439_">
		<path id="XMLID_62457_" class="st2" d="M72.7,49.7c-0.2,0.9-0.4,1.6-0.6,2.4c-0.3,1.2-1.1,2-2.4,2.1c-1.9,0.1-3.9,0.3-5.9,0.2
			c-2.2-0.1-3-1-3.1-3.2c-0.1-2.2-0.1-4.3-0.1-6.5c0-1,0-2,0-2.9c0-0.4-0.1-0.8-0.2-1.3c-0.3-0.1-0.6-0.2-0.9-0.2
			c-6.6,0-13.3,0-19.8,0.1c-0.6,0.6-0.4,1.3-0.4,1.9c0,2.8-0.1,5.6-0.1,8.4c0,3-1.3,4.2-4.1,4c-1-0.1-2.1,0-3.1-0.1
			c-0.7,0-1.4-0.2-2.1-0.3c-1-0.2-1.7-0.9-2-1.9c-0.2-0.7-0.4-1.5-0.5-2.3c-0.9-0.1-1.7-0.2-2.5-0.4c-2-0.4-2.8-1.1-3.2-3.1
			c-0.3-1.4-0.3-2.9-0.5-4.4c-0.1-0.5-0.1-1.1-0.1-1.7c-0.7-0.1-1.3-0.2-1.9-0.4c-0.6-0.2-1-0.6-1-1.2c0-1.3-0.1-2.5,0-3.8
			c0-1,0.3-1.3,1.4-1.5c0.5-0.1,0.9-0.2,1.5-0.3c0-0.7,0-1.3,0-1.9c0-1.2-0.1-2.4,0-3.6c0.2-2.3,1.1-3.2,3.5-3.4
			c0.8-0.1,1.7-0.1,2.6-0.2c0.1-0.6,0.2-1.2,0.3-1.7c0.3-1.7,1.3-2.8,3-3.1c1.7-0.3,3.3-0.4,5-0.1c1.4,0.2,2.3,1,2.7,2.3
			c0.2,0.7,0.4,1.5,0.4,2.2c0.2,2.6,0.3,5.2,0.4,7.7c0,0.6,0.1,1.1,0.1,1.8c0.4,0.1,0.8,0.2,1.2,0.2c1.8,0,3.6-0.1,5.4-0.1
			c3.1,0,6.3,0.1,9.4,0.2c1.6,0,3.2,0.2,4.8-0.1c0.6-0.7,0.4-1.5,0.5-2.2c0.1-2.6,0.2-5.2,0.4-7.7c0-0.7,0.2-1.4,0.4-2
			c0.3-1.2,1.1-1.9,2.3-2.2c2-0.5,4-0.4,6,0.2c1.1,0.4,1.8,1.3,2.1,2.4c0.2,0.7,0.3,1.3,0.4,2c1,0.1,1.9,0.2,2.8,0.3
			c0.5,0.1,1,0.1,1.4,0.3c1,0.4,1.6,1.1,1.6,2.2c0,1.4,0,2.8,0,4.2c0,0.7,0,1.4,0,2.2c0.7,0.1,1.2,0.2,1.7,0.4
			c0.8,0.2,1.3,0.7,1.4,1.6c0.1,1.1,0.2,2.2,0.2,3.3c0,1.3-0.3,1.7-1.7,1.9c-0.3,0.1-0.7,0.1-1.1,0.2c-0.1,0.5-0.2,1-0.2,1.4
			c-0.1,1.1-0.1,2.2-0.2,3.3c0,0.4-0.1,0.8-0.2,1.2c-0.4,1.9-1.4,2.7-3.3,3C74.3,49.7,73.6,49.7,72.7,49.7z M38.1,37
			c-0.1,0-0.1,0-0.2,0c0-1.4,0-2.8,0-4.2c0-2.8-0.1-5.6-0.1-8.4c0-2-0.7-2.9-2.6-3.5c-1.3-0.4-2.5-0.3-3.7,0.1
			c-1.2,0.4-1.9,1.2-2,2.4c-0.1,0.5-0.1,1.1-0.1,1.7c0,6.1,0,12.3,0,18.4c0,1.6-0.1,3.2-0.1,4.8c0,0.5,0,1,0,1.5
			c0.2,1.6,1.1,2.8,2.7,3.1c1.4,0.2,2.9,0.2,4.4,0.2c1,0,1.5-0.6,1.6-1.6c0.1-1,0.2-1.9,0.2-2.9C38.1,44.7,38.1,40.9,38.1,37z
			 M62.3,37.3C62.2,37.3,62.2,37.3,62.3,37.3c-0.1,4.1-0.1,8.1-0.1,12.2c0,0.5,0.1,1,0.2,1.5c0.3,1.2,1.2,2.1,2.5,2.1
			c1,0,2,0,2.9-0.2c1.9-0.3,2.8-1.3,3.1-3.2C71,48.8,71,47.9,71,47c0-5.7,0-11.3,0-17c0-1.5,0.1-2.9,0-4.4c-0.1-1-0.3-1.9-0.6-2.9
			c-0.4-1.2-1.4-1.9-2.7-2.1c-0.5-0.1-1-0.1-1.5-0.1c-1.8,0-2.9,0.8-3.4,2.5c-0.3,1.1-0.4,2.2-0.4,3.3C62.3,30,62.3,33.7,62.3,37.3z
			 M27.4,26c-0.8-0.4-1.5-0.2-2.3-0.1c-1.1,0.2-1.7,0.9-1.9,1.9C23,28.7,23,29.5,23,30.4c0,3.8,0.1,7.5,0.2,11.3
			c0,1.3,0.1,2.7,0.3,4c0.3,2,1.2,2.8,3.2,2.8c0.3,0,0.5-0.1,0.8-0.1c0.4-1.9,0.5-7.1,0.2-20.1C27.7,27.5,27.8,26.7,27.4,26z
			 M72.7,25.8c0,0.4-0.1,0.7-0.1,1.1c0,3.4,0,6.8-0.1,10.2c0,2.9,0,5.7,0,8.6c0,0.8-0.1,1.7,0.3,2.4c2.9,0.3,4-0.6,4.2-3.3
			c0-0.1,0-0.3,0-0.4c0-4.5,0.1-9.1,0.1-13.6c0-1-0.1-2.1-0.2-3.1c0-1-0.6-1.5-1.5-1.8C74.5,25.7,73.6,25.6,72.7,25.8z M60.7,35.2
			c-0.7,0-1.2-0.1-1.7-0.1c-0.8,0-1.5,0-2.3,0c-5.2,0-10.5,0-15.7,0c-0.5,0-0.9,0.2-1.4,0.3c-0.1,1.2-0.2,2.3,0.2,3.5
			c2.3,0,4.6,0,6.9,0.1c2.4,0,4.7,0,7.1,0c2.3,0,4.6,0.1,7-0.3C60.8,37.5,60.9,36.5,60.7,35.2z M80.2,38.7c0-1.3,0-2.5-0.2-3.5
			c-0.6-0.4-1-0.4-1.5,0c0,0.8,0,1.7,0,2.6C78.6,38.8,78.8,38.9,80.2,38.7z M21.4,35.1c-0.5,0-0.9,0-1.3,0c-0.3,1.2-0.3,2.4,0,3.6
			c0.4,0,0.8,0,1.3,0c0-0.8,0.1-1.4,0.1-2.1C21.4,36.1,21.4,35.6,21.4,35.1z"/>
		<path id="XMLID_62455_" class="st4" d="M38.1,37c0,3.8,0,7.7,0,11.5c0,1-0.1,2-0.2,2.9c-0.1,1-0.6,1.6-1.6,1.6
			c-1.5,0.1-2.9,0.1-4.4-0.2c-1.6-0.3-2.5-1.5-2.7-3.1c-0.1-0.5,0-1,0-1.5c0-1.6,0.1-3.2,0.1-4.8c0-6.1,0-12.3,0-18.4
			c0-0.6,0-1.1,0.1-1.7c0.2-1.2,0.8-2,2-2.4c1.2-0.4,2.4-0.5,3.7-0.1c1.9,0.6,2.6,1.5,2.6,3.5c0.1,2.8,0.1,5.6,0.1,8.4
			c0,1.4,0,2.8,0,4.2C37.9,37,38,37,38.1,37z"/>
		<path id="XMLID_62453_" class="st4" d="M62.3,37.3c0.1-3.6,0.1-7.3,0.2-10.9c0-1.1,0.1-2.2,0.4-3.3c0.5-1.7,1.6-2.5,3.4-2.5
			c0.5,0,1,0,1.5,0.1c1.3,0.2,2.3,0.8,2.7,2.1c0.3,0.9,0.5,1.9,0.6,2.9c0.1,1.5,0,2.9,0,4.4c0,5.7,0,11.3,0,17c0,0.9,0,1.8-0.1,2.7
			c-0.2,1.9-1.2,2.9-3.1,3.2c-1,0.2-2,0.2-2.9,0.2c-1.3,0-2.2-0.8-2.5-2.1c-0.1-0.5-0.2-1-0.2-1.5C62.2,45.4,62.2,41.4,62.3,37.3
			C62.2,37.3,62.2,37.3,62.3,37.3z"/>
		<path id="XMLID_62452_" class="st4" d="M27.4,26c0.3,0.7,0.2,1.5,0.2,2.2c0.2,13,0.1,18.2-0.2,20.1c-0.3,0-0.5,0.1-0.8,0.1
			c-2,0-2.9-0.8-3.2-2.8c-0.2-1.3-0.2-2.6-0.3-4c-0.1-3.8-0.1-7.5-0.2-11.3c0-0.8,0.1-1.7,0.2-2.5c0.2-1,0.8-1.7,1.9-1.9
			C25.9,25.8,26.6,25.6,27.4,26z"/>
		<path id="XMLID_62451_" class="st4" d="M72.7,25.8c1-0.2,1.8-0.1,2.7,0.1c0.9,0.3,1.4,0.8,1.5,1.8c0,1,0.2,2.1,0.2,3.1
			c0,4.5-0.1,9.1-0.1,13.6c0,0.1,0,0.3,0,0.4c-0.2,2.7-1.3,3.6-4.2,3.3c-0.3-0.8-0.2-1.6-0.3-2.4c0-2.9,0-5.7,0-8.6
			c0-3.4,0-6.8,0.1-10.2C72.5,26.5,72.6,26.2,72.7,25.8z"/>
		<path id="XMLID_62450_" class="st4" d="M60.7,35.2c0.2,1.3,0.1,2.3,0,3.5c-2.4,0.3-4.7,0.3-7,0.3c-2.4,0-4.7,0-7.1,0
			c-2.3,0-4.6,0-6.9-0.1c-0.4-1.2-0.3-2.3-0.2-3.5c0.5-0.1,1-0.3,1.4-0.3c5.2,0,10.5,0,15.7,0c0.8,0,1.5,0,2.3,0
			C59.5,35.1,60,35.1,60.7,35.2z"/>
		<path id="XMLID_62449_" class="st4" d="M80.2,38.7c-1.4,0.1-1.6,0-1.7-0.9c0-0.9,0-1.8,0-2.6c0.5-0.4,0.9-0.4,1.5,0
			C80.3,36.3,80.2,37.5,80.2,38.7z"/>
		<path id="XMLID_62448_" class="st4" d="M21.4,35.1c0,0.5,0.1,1,0.1,1.5c0,0.7-0.1,1.4-0.1,2.1c-0.5,0-0.9,0-1.3,0
			c-0.3-1.2-0.3-2.4,0-3.6C20.5,35.1,20.9,35.1,21.4,35.1z"/>
		<path id="XMLID_62445_" class="st2" d="M60.7,35.2l0.6,4.3l0.6,4.2l0.2-1.5c0.1,0.4-0.1,2.1,0.2,3.5c0.1,0.5,0.4,0.8,0.8,0.9
			c1,0.5,2.2-0.1,2.6-1.1c0.6-1.7,1.7-4.4,2.1-5.5c0.4-1.2,0.7-2.4,0.9-3.6l0.1-0.8c0.2-1.2,0.3-2.5,0.3-3.7v0v-3.8
			c0,0-0.2-3.3-0.3-5.3c-0.1-0.9-0.6-2-1.5-2.1l-1.5-0.4c0.1,0.1,1.6-0.2,3.4,0.1c0.9,0.2,3.3,4.4,3.4,5.3c0,0,0.5,10.6,2,10.3
			c1.5-0.3,2.3-6.7,1.6-8.9c-0.1-0.2-0.3-0.9,0-1.2c0.2-0.2,0.7,0.7,1,0.9c0.3,2.8,0.5,4.9,0.8,7.7c0.1-0.5,0.8-0.7,1.1-0.3l0.6,0.8
			c0.3-0.5,0.8,0.2,0.9,0.3l0,3.1c0,0.2-0.6,0.4-0.8,0.5l-1.2,0.8c-0.1,0.1-0.2,0.2-0.3,0.4l-1.4,6.1c0,0.1-0.1,0.2-0.2,0.3
			l-0.2,1.6c-0.1,0.1-1.9,0.3-2,0.3l-2.5,0.6c-0.2,0.1-0.4,0.3-0.5,0.5l-0.5,2.9c0,0.3-0.3,0.5-0.6,0.5h-6.9c-0.1,0-0.3,0-0.4-0.1
			l-1.9-1.4c-0.3-0.2-0.3-0.6-0.1-0.9l0.8-0.9c0.1-0.2,0.2-0.4,0.1-0.6l-1.3-4.3c0-0.1,0-0.3,0-0.4c0,0,1-4.1-0.3-4l-12.3-0.9
			l-8.1,0.7c-0.2,0-0.3,0.1-0.4,0.2l-0.9,1c-0.1,0.1-0.1,0.3-0.1,0.4v9c0,0.1,0,0.3-0.1,0.4l-1.1,1.5c-0.1,0.2-0.3,0.3-0.5,0.3h-6.3
			c-0.3,0-0.5-0.2-0.6-0.4l-1.8-4.5c0-0.1,0-0.2,0-0.3c0.3-3-0.3-6.5,0-9.5c0,2,1,4,0.9,5.1c0,1.4-0.1,2.4,0.4,3.6
			c0.1,0.2,0.8,1.9,1.5,1.9c0,0,0,0,0,0l0,0c1.1-0.1,2.1-0.7,2.8-1.6l0.1-0.1c0.8-1,1.4-2.1,1.8-3.3c0.2-0.6,0.5-1.2,0.7-1.8
			c0.5-1.2,0.8-2.5,0.9-3.9l0.1-13.8c0-0.8,1,9,1.1,9.7l0,0.6c0,0.1,0,0.2,0.1,0.2l1.7,3.2c0.1,0.2,0.4,0.4,0.7,0.3L60.7,35.2z"/>
		<path id="XMLID_62444_" class="st4" d="M26.2,43.8c0.3-1.8,0.6-3.5,0.9-5.3"/>
		<path id="XMLID_62441_" class="st2" d="M25.6,45.3l2-7.4c0.1-0.6,0.2-1.1,0.2-1.7l0-3.8l0.5,17.9c-0.2-0.1-0.5-0.3-0.8-0.5
			c-2.7-1.7-3.5-1.9-4.2-2.7c-0.4-0.5-0.3-1.8-0.1-3.5l0,1c0,0.5,0.4,0.9,0.8,1c0,0,0,0,0,0C24.7,45.8,25.5,45.8,25.6,45.3
			L25.6,45.3z"/>
	</g>
	<g id="XMLID_62372_">
		<defs>
			<path id="XMLID_62373_" d="M80.6,41.5l-0.3,6.1L79.2,50l-3.1,1.4l-1.8,0.1l-0.9,3.1l-1.7,1.3l-10.2,0.1l-1.6-1.2l-0.7-2l0-8
				l-1.8,3.9l-6.8-6c-0.2-0.2-9-0.2-9-0.2c-0.3,0-0.5,0.2-0.4,0.5c0,0,0,7.2-0.1,9.9c0,0.9-0.3,1.8-0.9,2.4
				c-0.1,0.2-0.3,0.3-0.5,0.4l-0.8,0.5c-0.2,0.1-0.4,0.2-0.6,0.2l-9.9-0.6c-0.8-0.2-1.5-0.9-1.8-1.7l-0.8-2.5
				c-0.1-0.2-2.5-1-4.2-1.9l-2-4.7l0.1-3.7l-1.7-0.5l5.2,12.9l6.9,6.6l4.5,6.1h10.2c1.1,0,8.3,0.1,11.3,0.1c0.5,0,0.7-0.6,0.3-0.9
				l-4.8-4.1c-0.3-0.3-0.1-0.9,0.3-0.9l9.6,0.1c0.5,0,1,0.2,1.3,0.5l4,3.5c1.8,1.4,1.5,1.6,3.8,1.6c2,0,17.5,0,21.3,0
				c0.6,0,1.1-0.5,1.1-1.1v-27c0,0-13.3-10.2-13.2-10.5l0,3.8c0,0.5,0.3,1,0.8,1.1L82,33c0.5,0.1,0.9,0.5,1,0.9
				c0.1,0.4,0.2,0.9,0.3,1.2c0.6,3.5,0.1,5.1,0,5.3l-0.2,0.4c-0.1,0.2-0.3,0.4-0.5,0.4L80.6,41.5z"/>
		</defs>
		<clipPath id="XMLID_28_">
			<use xlink:href="#XMLID_62373_"  style="overflow:visible;"/>
		</clipPath>
		<path id="XMLID_62438_" class="st5" d="M116.2,19.5"/>
		<line id="XMLID_62437_" class="st6" x1="45.5" y1="26.5" x2="118.7" y2="84.3"/>
		<polyline id="XMLID_62436_" class="st6" points="46.9,25.1 49.4,27.1 120.1,82.9 		"/>
		<line id="XMLID_62435_" class="st6" x1="47.2" y1="23.1" x2="120.4" y2="80.9"/>
		<line id="XMLID_62434_" class="st6" x1="49.2" y1="22.7" x2="122.5" y2="80.5"/>
		<line id="XMLID_62433_" class="st6" x1="50.6" y1="21.3" x2="123.9" y2="79.1"/>
		<line id="XMLID_62432_" class="st6" x1="50.9" y1="19.3" x2="124.2" y2="77.1"/>
		<line id="XMLID_62431_" class="st6" x1="52.9" y1="19" x2="126.1" y2="76.8"/>
		<line id="XMLID_62430_" class="st6" x1="54.3" y1="17.5" x2="127.6" y2="75.3"/>
		<line id="XMLID_62429_" class="st6" x1="54.6" y1="15.5" x2="127.9" y2="73.3"/>
		<line id="XMLID_62428_" class="st6" x1="56.6" y1="15.2" x2="129.8" y2="73"/>
		<line id="XMLID_62427_" class="st6" x1="58" y1="13.8" x2="131.2" y2="71.6"/>
		<line id="XMLID_62426_" class="st6" x1="58.3" y1="11.8" x2="131.5" y2="69.6"/>
		<line id="XMLID_62425_" class="st6" x1="60.3" y1="11.5" x2="133.5" y2="69.3"/>
		<line id="XMLID_62424_" class="st6" x1="61.7" y1="10" x2="134.9" y2="67.8"/>
		<line id="XMLID_62423_" class="st6" x1="62" y1="8" x2="135.2" y2="65.8"/>
		<line id="XMLID_62422_" class="st6" x1="63.9" y1="7.8" x2="137.2" y2="65.6"/>
		<line id="XMLID_62421_" class="st6" x1="65.3" y1="6.3" x2="138.6" y2="64.1"/>
		<line id="XMLID_62420_" class="st6" x1="65.6" y1="4.3" x2="138.9" y2="62.1"/>
		<line id="XMLID_62419_" class="st6" x1="67.6" y1="4" x2="140.9" y2="61.8"/>
		<line id="XMLID_62418_" class="st6" x1="69" y1="2.6" x2="142.3" y2="60.4"/>
		<line id="XMLID_62417_" class="st6" x1="69.3" y1="0.6" x2="142.6" y2="58.4"/>
		<line id="XMLID_62416_" class="st6" x1="5.8" y1="42" x2="92.6" y2="110.7"/>
		<line id="XMLID_62415_" class="st6" x1="-10" y1="27.4" x2="93.8" y2="109.3"/>
		<line id="XMLID_62414_" class="st6" x1="-3.6" y1="30.1" x2="94.1" y2="107.2"/>
		<line id="XMLID_62413_" class="st6" x1="-1.6" y1="29.7" x2="96.1" y2="106.9"/>
		<line id="XMLID_62412_" class="st6" x1="24.3" y1="47.6" x2="97.5" y2="105.4"/>
		<line id="XMLID_62411_" class="st6" x1="24.6" y1="45.6" x2="97.8" y2="103.4"/>
		<line id="XMLID_62410_" class="st6" x1="26.6" y1="45.3" x2="99.8" y2="103.1"/>
		<line id="XMLID_62409_" class="st6" x1="28" y1="43.9" x2="101.2" y2="101.7"/>
		<line id="XMLID_62408_" class="st6" x1="28.3" y1="41.9" x2="101.5" y2="99.7"/>
		<line id="XMLID_62407_" class="st6" x1="30.3" y1="41.6" x2="103.5" y2="99.4"/>
		<line id="XMLID_62406_" class="st6" x1="31.7" y1="40.1" x2="104.9" y2="97.9"/>
		<line id="XMLID_62405_" class="st6" x1="32" y1="38.1" x2="105.2" y2="95.9"/>
		<line id="XMLID_62404_" class="st6" x1="34.1" y1="37.7" x2="107.4" y2="95.5"/>
		<line id="XMLID_62403_" class="st6" x1="35.4" y1="36.4" x2="108.6" y2="94.2"/>
		<line id="XMLID_62402_" class="st6" x1="35.7" y1="34.4" x2="108.9" y2="92.2"/>
		<line id="XMLID_62401_" class="st6" x1="37.6" y1="33.9" x2="110.8" y2="91.7"/>
		<line id="XMLID_62400_" class="st6" x1="39" y1="32.7" x2="112.2" y2="90.5"/>
		<line id="XMLID_62399_" class="st6" x1="39.3" y1="30.7" x2="112.5" y2="88.5"/>
		<line id="XMLID_62398_" class="st6" x1="41.5" y1="30.3" x2="114.7" y2="88.1"/>
		<line id="XMLID_62397_" class="st6" x1="42.7" y1="28.9" x2="115.9" y2="86.7"/>
		<line id="XMLID_62396_" class="st6" x1="43" y1="26.9" x2="116.2" y2="84.7"/>
		<line id="XMLID_62395_" class="st6" x1="-41.1" y1="53.2" x2="32.2" y2="111"/>
		<polyline id="XMLID_62394_" class="st6" points="-39.6,51.8 -37.1,53.7 33.6,109.6 		"/>
		<line id="XMLID_62393_" class="st6" x1="-39.3" y1="49.7" x2="33.9" y2="107.5"/>
		<line id="XMLID_62392_" class="st6" x1="-37.3" y1="49.4" x2="35.9" y2="107.2"/>
		<line id="XMLID_62390_" class="st6" x1="-35.9" y1="47.9" x2="37.3" y2="105.7"/>
		<line id="XMLID_62389_" class="st6" x1="-35.6" y1="45.9" x2="37.6" y2="103.7"/>
		<line id="XMLID_62388_" class="st6" x1="-33.6" y1="45.6" x2="39.6" y2="103.4"/>
		<line id="XMLID_62387_" class="st6" x1="-32.2" y1="44.2" x2="41" y2="102"/>
		<line id="XMLID_62386_" class="st6" x1="-31.9" y1="42.2" x2="41.3" y2="100"/>
		<line id="XMLID_62385_" class="st6" x1="-29.9" y1="41.9" x2="43.3" y2="99.7"/>
		<line id="XMLID_62384_" class="st6" x1="-28.5" y1="40.4" x2="44.7" y2="98.2"/>
		<line id="XMLID_62383_" class="st6" x1="-28.2" y1="38.4" x2="45" y2="96.2"/>
		<line id="XMLID_62382_" class="st6" x1="-26.2" y1="38.1" x2="47" y2="95.9"/>
		<line id="XMLID_62381_" class="st6" x1="-24.8" y1="36.7" x2="48.4" y2="94.5"/>
		<line id="XMLID_62380_" class="st6" x1="-24.5" y1="34.7" x2="48.7" y2="92.5"/>
		<line id="XMLID_62379_" class="st6" x1="-22.6" y1="34.4" x2="50.6" y2="92.2"/>
		<line id="XMLID_62378_" class="st6" x1="-21.2" y1="33" x2="52" y2="90.8"/>
		<line id="XMLID_62377_" class="st6" x1="-20.9" y1="31" x2="52.3" y2="88.8"/>
		<line id="XMLID_62376_" class="st6" x1="-18.9" y1="30.7" x2="54.3" y2="88.5"/>
		<line id="XMLID_62375_" class="st6" x1="-16.7" y1="29.3" x2="56.5" y2="87.1"/>
		<line id="XMLID_62374_" class="st6" x1="-16.6" y1="27" x2="56.6" y2="84.8"/>
	</g>
	<g id="XMLID_62302_">
		<defs>
			<path id="XMLID_62303_" d="M52.3,32.1l-11.2-8.4c0,0.7,0,8.1,0,8.1"/>
		</defs>
		<clipPath id="XMLID_67_">
			<use xlink:href="#XMLID_62303_"  style="overflow:visible;"/>
		</clipPath>
		<path id="XMLID_62371_" style="clip-path:url(#XMLID_67_);fill:#29170F;" d="M116.1,2.7"/>
		
			<line id="XMLID_62370_" style="clip-path:url(#XMLID_67_);fill:none;stroke:#A34824;stroke-width:0.7563;stroke-miterlimit:10;" x1="45.4" y1="9.8" x2="118.6" y2="67.6"/>
		
			<polyline id="XMLID_62369_" style="clip-path:url(#XMLID_67_);fill:none;stroke:#A34824;stroke-width:0.7563;stroke-miterlimit:10;" points="
			46.8,8.3 49.3,10.3 120,66.1 		"/>
		
			<line id="XMLID_62368_" style="clip-path:url(#XMLID_67_);fill:none;stroke:#A34824;stroke-width:0.7563;stroke-miterlimit:10;" x1="47.1" y1="6.3" x2="120.3" y2="64.1"/>
		
			<line id="XMLID_62367_" style="clip-path:url(#XMLID_67_);fill:none;stroke:#A34824;stroke-width:0.7563;stroke-miterlimit:10;" x1="49.1" y1="6" x2="122.4" y2="63.8"/>
		
			<line id="XMLID_62366_" style="clip-path:url(#XMLID_67_);fill:none;stroke:#A34824;stroke-width:0.7563;stroke-miterlimit:10;" x1="50.5" y1="4.5" x2="123.8" y2="62.3"/>
		
			<line id="XMLID_62365_" style="clip-path:url(#XMLID_67_);fill:none;stroke:#A34824;stroke-width:0.7563;stroke-miterlimit:10;" x1="50.8" y1="2.5" x2="124.1" y2="60.3"/>
		
			<line id="XMLID_62364_" style="clip-path:url(#XMLID_67_);fill:none;stroke:#A34824;stroke-width:0.7563;stroke-miterlimit:10;" x1="52.8" y1="2.2" x2="126" y2="60"/>
		
			<line id="XMLID_62363_" style="clip-path:url(#XMLID_67_);fill:none;stroke:#A34824;stroke-width:0.7563;stroke-miterlimit:10;" x1="54.2" y1="0.8" x2="127.5" y2="58.6"/>
		
			<line id="XMLID_62362_" style="clip-path:url(#XMLID_67_);fill:none;stroke:#A34824;stroke-width:0.7563;stroke-miterlimit:10;" x1="54.5" y1="-1.2" x2="127.8" y2="56.6"/>
		
			<line id="XMLID_62361_" style="clip-path:url(#XMLID_67_);fill:none;stroke:#A34824;stroke-width:0.7563;stroke-miterlimit:10;" x1="56.5" y1="-1.5" x2="129.7" y2="56.3"/>
		
			<line id="XMLID_62360_" style="clip-path:url(#XMLID_67_);fill:none;stroke:#A34824;stroke-width:0.7563;stroke-miterlimit:10;" x1="57.9" y1="-3" x2="131.1" y2="54.8"/>
		
			<line id="XMLID_62359_" style="clip-path:url(#XMLID_67_);fill:none;stroke:#A34824;stroke-width:0.7563;stroke-miterlimit:10;" x1="58.2" y1="-5" x2="131.4" y2="52.8"/>
		
			<line id="XMLID_62358_" style="clip-path:url(#XMLID_67_);fill:none;stroke:#A34824;stroke-width:0.7563;stroke-miterlimit:10;" x1="60.2" y1="-5.3" x2="133.4" y2="52.5"/>
		
			<line id="XMLID_62357_" style="clip-path:url(#XMLID_67_);fill:none;stroke:#A34824;stroke-width:0.7563;stroke-miterlimit:10;" x1="61.6" y1="-6.7" x2="134.8" y2="51.1"/>
		
			<line id="XMLID_62356_" style="clip-path:url(#XMLID_67_);fill:none;stroke:#A34824;stroke-width:0.7563;stroke-miterlimit:10;" x1="61.9" y1="-8.7" x2="135.1" y2="49.1"/>
		
			<line id="XMLID_62355_" style="clip-path:url(#XMLID_67_);fill:none;stroke:#A34824;stroke-width:0.7563;stroke-miterlimit:10;" x1="63.8" y1="-9" x2="137.1" y2="48.8"/>
		
			<line id="XMLID_62354_" style="clip-path:url(#XMLID_67_);fill:none;stroke:#A34824;stroke-width:0.7563;stroke-miterlimit:10;" x1="65.2" y1="-10.4" x2="138.5" y2="47.4"/>
		
			<line id="XMLID_62353_" style="clip-path:url(#XMLID_67_);fill:none;stroke:#A34824;stroke-width:0.7563;stroke-miterlimit:10;" x1="65.5" y1="-12.4" x2="138.8" y2="45.4"/>
		
			<line id="XMLID_62352_" style="clip-path:url(#XMLID_67_);fill:none;stroke:#A34824;stroke-width:0.7563;stroke-miterlimit:10;" x1="67.5" y1="-12.7" x2="140.7" y2="45.1"/>
		
			<line id="XMLID_62351_" style="clip-path:url(#XMLID_67_);fill:none;stroke:#A34824;stroke-width:0.7563;stroke-miterlimit:10;" x1="68.9" y1="-14.2" x2="142.2" y2="43.6"/>
		
			<line id="XMLID_62350_" style="clip-path:url(#XMLID_67_);fill:none;stroke:#A34824;stroke-width:0.7563;stroke-miterlimit:10;" x1="69.2" y1="-16.2" x2="142.5" y2="41.6"/>
		
			<line id="XMLID_62349_" style="clip-path:url(#XMLID_67_);fill:none;stroke:#A34824;stroke-width:0.7563;stroke-miterlimit:10;" x1="5.7" y1="25.3" x2="92.5" y2="93.9"/>
		
			<line id="XMLID_62348_" style="clip-path:url(#XMLID_67_);fill:none;stroke:#A34824;stroke-width:0.7563;stroke-miterlimit:10;" x1="-10.1" y1="10.7" x2="93.6" y2="92.5"/>
		
			<line id="XMLID_62346_" style="clip-path:url(#XMLID_67_);fill:none;stroke:#A34824;stroke-width:0.7563;stroke-miterlimit:10;" x1="-3.7" y1="13.4" x2="93.9" y2="90.5"/>
		
			<line id="XMLID_62345_" style="clip-path:url(#XMLID_67_);fill:none;stroke:#A34824;stroke-width:0.7563;stroke-miterlimit:10;" x1="-1.7" y1="13" x2="96" y2="90.1"/>
		
			<line id="XMLID_62344_" style="clip-path:url(#XMLID_67_);fill:none;stroke:#A34824;stroke-width:0.7563;stroke-miterlimit:10;" x1="24.2" y1="30.9" x2="97.4" y2="88.7"/>
		
			<line id="XMLID_62343_" style="clip-path:url(#XMLID_67_);fill:none;stroke:#A34824;stroke-width:0.7563;stroke-miterlimit:10;" x1="24.5" y1="28.9" x2="97.7" y2="86.7"/>
		
			<line id="XMLID_62340_" style="clip-path:url(#XMLID_67_);fill:none;stroke:#A34824;stroke-width:0.7563;stroke-miterlimit:10;" x1="26.5" y1="28.6" x2="99.7" y2="86.4"/>
		
			<line id="XMLID_62338_" style="clip-path:url(#XMLID_67_);fill:none;stroke:#A34824;stroke-width:0.7563;stroke-miterlimit:10;" x1="27.9" y1="27.1" x2="101.1" y2="84.9"/>
		
			<line id="XMLID_62337_" style="clip-path:url(#XMLID_67_);fill:none;stroke:#A34824;stroke-width:0.7563;stroke-miterlimit:10;" x1="28.2" y1="25.1" x2="101.4" y2="82.9"/>
		
			<line id="XMLID_62336_" style="clip-path:url(#XMLID_67_);fill:none;stroke:#A34824;stroke-width:0.7563;stroke-miterlimit:10;" x1="30.2" y1="24.8" x2="103.4" y2="82.6"/>
		
			<line id="XMLID_62335_" style="clip-path:url(#XMLID_67_);fill:none;stroke:#A34824;stroke-width:0.7563;stroke-miterlimit:10;" x1="31.6" y1="23.4" x2="104.8" y2="81.2"/>
		
			<line id="XMLID_62334_" style="clip-path:url(#XMLID_67_);fill:none;stroke:#A34824;stroke-width:0.7563;stroke-miterlimit:10;" x1="31.9" y1="21.4" x2="105.1" y2="79.2"/>
		
			<line id="XMLID_62333_" style="clip-path:url(#XMLID_67_);fill:none;stroke:#A34824;stroke-width:0.7563;stroke-miterlimit:10;" x1="34" y1="21" x2="107.2" y2="78.8"/>
		
			<line id="XMLID_62332_" style="clip-path:url(#XMLID_67_);fill:none;stroke:#A34824;stroke-width:0.7563;stroke-miterlimit:10;" x1="35.3" y1="19.6" x2="108.5" y2="77.4"/>
		
			<line id="XMLID_62331_" style="clip-path:url(#XMLID_67_);fill:none;stroke:#A34824;stroke-width:0.7563;stroke-miterlimit:10;" x1="35.6" y1="17.6" x2="108.8" y2="75.4"/>
		
			<line id="XMLID_62330_" style="clip-path:url(#XMLID_67_);fill:none;stroke:#A34824;stroke-width:0.7563;stroke-miterlimit:10;" x1="37.5" y1="17.1" x2="110.7" y2="74.9"/>
		
			<line id="XMLID_62329_" style="clip-path:url(#XMLID_67_);fill:none;stroke:#A34824;stroke-width:0.7563;stroke-miterlimit:10;" x1="38.9" y1="15.9" x2="112.1" y2="73.7"/>
		
			<line id="XMLID_62328_" style="clip-path:url(#XMLID_67_);fill:none;stroke:#A34824;stroke-width:0.7563;stroke-miterlimit:10;" x1="39.2" y1="13.9" x2="112.4" y2="71.7"/>
		
			<line id="XMLID_62327_" style="clip-path:url(#XMLID_67_);fill:none;stroke:#A34824;stroke-width:0.7563;stroke-miterlimit:10;" x1="41.4" y1="13.5" x2="114.6" y2="71.3"/>
		
			<line id="XMLID_62326_" style="clip-path:url(#XMLID_67_);fill:none;stroke:#A34824;stroke-width:0.7563;stroke-miterlimit:10;" x1="42.6" y1="12.2" x2="115.8" y2="70"/>
		
			<line id="XMLID_62325_" style="clip-path:url(#XMLID_67_);fill:none;stroke:#A34824;stroke-width:0.7563;stroke-miterlimit:10;" x1="42.9" y1="10.2" x2="116.1" y2="68"/>
		
			<line id="XMLID_62324_" style="clip-path:url(#XMLID_67_);fill:none;stroke:#A34824;stroke-width:0.7563;stroke-miterlimit:10;" x1="-41.2" y1="36.4" x2="32.1" y2="94.2"/>
		
			<polyline id="XMLID_62323_" style="clip-path:url(#XMLID_67_);fill:none;stroke:#A34824;stroke-width:0.7563;stroke-miterlimit:10;" points="
			-39.7,35 -37.2,37 33.5,92.8 		"/>
		
			<line id="XMLID_62322_" style="clip-path:url(#XMLID_67_);fill:none;stroke:#A34824;stroke-width:0.7563;stroke-miterlimit:10;" x1="-39.5" y1="33" x2="33.8" y2="90.8"/>
		
			<line id="XMLID_62321_" style="clip-path:url(#XMLID_67_);fill:none;stroke:#A34824;stroke-width:0.7563;stroke-miterlimit:10;" x1="-37.4" y1="32.6" x2="35.8" y2="90.4"/>
		
			<line id="XMLID_62320_" style="clip-path:url(#XMLID_67_);fill:none;stroke:#A34824;stroke-width:0.7563;stroke-miterlimit:10;" x1="-36" y1="31.2" x2="37.2" y2="89"/>
		
			<line id="XMLID_62319_" style="clip-path:url(#XMLID_67_);fill:none;stroke:#A34824;stroke-width:0.7563;stroke-miterlimit:10;" x1="-35.7" y1="29.2" x2="37.5" y2="87"/>
		
			<line id="XMLID_62318_" style="clip-path:url(#XMLID_67_);fill:none;stroke:#A34824;stroke-width:0.7563;stroke-miterlimit:10;" x1="-33.7" y1="28.9" x2="39.5" y2="86.7"/>
		
			<line id="XMLID_62317_" style="clip-path:url(#XMLID_67_);fill:none;stroke:#A34824;stroke-width:0.7563;stroke-miterlimit:10;" x1="-32.3" y1="27.4" x2="40.9" y2="85.2"/>
		
			<line id="XMLID_62316_" style="clip-path:url(#XMLID_67_);fill:none;stroke:#A34824;stroke-width:0.7563;stroke-miterlimit:10;" x1="-32" y1="25.4" x2="41.2" y2="83.2"/>
		
			<line id="XMLID_62315_" style="clip-path:url(#XMLID_67_);fill:none;stroke:#A34824;stroke-width:0.7563;stroke-miterlimit:10;" x1="-30" y1="25.1" x2="43.2" y2="82.9"/>
		
			<line id="XMLID_62314_" style="clip-path:url(#XMLID_67_);fill:none;stroke:#A34824;stroke-width:0.7563;stroke-miterlimit:10;" x1="-28.6" y1="23.7" x2="44.6" y2="81.5"/>
		
			<line id="XMLID_62313_" style="clip-path:url(#XMLID_67_);fill:none;stroke:#A34824;stroke-width:0.7563;stroke-miterlimit:10;" x1="-28.3" y1="21.7" x2="44.9" y2="79.5"/>
		
			<line id="XMLID_62312_" style="clip-path:url(#XMLID_67_);fill:none;stroke:#A34824;stroke-width:0.7563;stroke-miterlimit:10;" x1="-26.3" y1="21.4" x2="46.9" y2="79.2"/>
		
			<line id="XMLID_62311_" style="clip-path:url(#XMLID_67_);fill:none;stroke:#A34824;stroke-width:0.7563;stroke-miterlimit:10;" x1="-24.9" y1="19.9" x2="48.3" y2="77.7"/>
		
			<line id="XMLID_62310_" style="clip-path:url(#XMLID_67_);fill:none;stroke:#A34824;stroke-width:0.7563;stroke-miterlimit:10;" x1="-24.6" y1="17.9" x2="48.6" y2="75.7"/>
		
			<line id="XMLID_62309_" style="clip-path:url(#XMLID_67_);fill:none;stroke:#A34824;stroke-width:0.7563;stroke-miterlimit:10;" x1="-22.7" y1="17.7" x2="50.5" y2="75.5"/>
		
			<line id="XMLID_62308_" style="clip-path:url(#XMLID_67_);fill:none;stroke:#A34824;stroke-width:0.7563;stroke-miterlimit:10;" x1="-21.3" y1="16.2" x2="51.9" y2="74"/>
		
			<line id="XMLID_62307_" style="clip-path:url(#XMLID_67_);fill:none;stroke:#A34824;stroke-width:0.7563;stroke-miterlimit:10;" x1="-21" y1="14.2" x2="52.2" y2="72"/>
		
			<line id="XMLID_62306_" style="clip-path:url(#XMLID_67_);fill:none;stroke:#A34824;stroke-width:0.7563;stroke-miterlimit:10;" x1="-19" y1="13.9" x2="54.2" y2="71.7"/>
		
			<line id="XMLID_62305_" style="clip-path:url(#XMLID_67_);fill:none;stroke:#A34824;stroke-width:0.7563;stroke-miterlimit:10;" x1="-16.8" y1="12.6" x2="56.4" y2="70.4"/>
		
			<line id="XMLID_62304_" style="clip-path:url(#XMLID_67_);fill:none;stroke:#A34824;stroke-width:0.7563;stroke-miterlimit:10;" x1="-16.7" y1="10.2" x2="56.5" y2="68"/>
	</g>
</g>
</svg>
