<?xml version="1.0" encoding="utf-8"?>
<!-- Generator: Adobe Illustrator 19.0.0, SVG Export Plug-In . SVG Version: 6.00 Build 0)  -->
<svg version="1.1" id="Layer_1" xmlns="http://www.w3.org/2000/svg" xmlns:xlink="http://www.w3.org/1999/xlink" x="0px" y="0px"
	 viewBox="0 0 104.8 52" style="enable-background:new 0 0 104.8 52;" xml:space="preserve">
<style type="text/css">
	.st0{fill:#FFF6EE;}
	.st1{fill:#A34824;}
</style>
<g id="XMLID_2377_">
	<g id="XMLID_58_">
		<rect id="XMLID_62_" x="3.7" y="4.4" class="st0" width="95.9" height="42.2"/>
		<g id="XMLID_59_">
			<g>
				<path id="XMLID_72_" class="st1" d="M21.7,23.1l2-0.5l-0.2,11.9l-5.8,0.7l0.8-3l2.4-0.1L21.7,23.1z M19.8,22.4l1-3.2
					c1.1,0.6,2.2,0.7,3.7,0.7h10l-0.8,2.5H19.8z M34.1,34.5l-3,0.7l0.5-12.1l2-0.5L34.1,34.5z"/>
				<path id="XMLID_76_" class="st1" d="M36.4,22.4l1-3.2c1.1,0.6,2.2,0.7,3.7,0.7h1l-0.8,2.5H36.4z M41.3,34.5l-3,0.7l1-12.1l2-0.5
					V34.5z"/>
				<path id="XMLID_79_" class="st1" d="M44.6,22.4l1-3.2c1.1,0.6,2.2,0.7,3.7,0.7h10l-0.8,2.5H44.6z M56.1,34.5l-3,0.7l1-12.1
					l2-0.5V34.5z"/>
				<path id="XMLID_82_" class="st1" d="M61.1,22.4l1-3.2c1.1,0.6,2.2,0.7,3.7,0.7h1l-0.8,2.5H61.1z M66.1,34.5l-3,0.7l1-12.1l2-0.5
					V34.5z"/>
				<path id="XMLID_85_" class="st1" d="M74.4,32.3L74,34.5l-4.4,0.7l0.9-3l1.3-6.5l2.1-0.1l-0.7,6.6H74.4z M72.8,19.3l12.3,15.2
					l-3.5,0.7l-11.3-15L72.8,19.3z M80.4,22.4l1-3.2c1,0.5,2.2,0.7,3.6,0.7l-1.2,8.8h-3.1l1.9-6.3H80.4z"/>
			</g>
			<g>
				<path id="XMLID_46_" class="st1" d="M21.7,23.1l2-0.5l-0.2,11.9l-5.8,0.7l0.8-3l2.4-0.1L21.7,23.1z M19.8,22.4l1-3.2
					c1.1,0.6,2.2,0.7,3.7,0.7h10l-0.8,2.5H19.8z M34.1,34.5l-3,0.7l0.5-12.1l2-0.5L34.1,34.5z"/>
				<path id="XMLID_52_" class="st1" d="M36.4,22.4l1-3.2c1.1,0.6,2.2,0.7,3.7,0.7h1l-0.8,2.5H36.4z M41.3,34.5l-3,0.7l1-12.1l2-0.5
					V34.5z"/>
				<path id="XMLID_57_" class="st1" d="M44.6,22.4l1-3.2c1.1,0.6,2.2,0.7,3.7,0.7h10l-0.8,2.5H44.6z M56.1,34.5l-3,0.7l1-12.1
					l2-0.5V34.5z"/>
				<path id="XMLID_65_" class="st1" d="M61.1,22.4l1-3.2c1.1,0.6,2.2,0.7,3.7,0.7h1l-0.8,2.5H61.1z M66.1,34.5l-3,0.7l1-12.1l2-0.5
					V34.5z"/>
				<path id="XMLID_68_" class="st1" d="M74.4,32.3L74,34.5l-4.4,0.7l0.9-3l1.3-6.5l2.1-0.1l-0.7,6.6H74.4z M72.8,19.3l12.3,15.2
					l-3.5,0.7l-11.3-15L72.8,19.3z M80.4,22.4l1-3.2c1,0.5,2.2,0.7,3.6,0.7l-1.2,8.8h-3.1l1.9-6.3H80.4z"/>
			</g>
			<g id="XMLID_60_">
				<path id="XMLID_24_" class="st1" d="M21.7,23.1l2-0.5l-0.2,11.9l-5.8,0.7l0.8-3l2.4-0.1L21.7,23.1z M19.8,22.4l1-3.2
					c1.1,0.6,2.2,0.7,3.7,0.7h10l-0.8,2.5H19.8z M34.1,34.5l-3,0.7l0.5-12.1l2-0.5L34.1,34.5z"/>
				<path id="XMLID_32_" class="st1" d="M36.4,22.4l1-3.2c1.1,0.6,2.2,0.7,3.7,0.7h1l-0.8,2.5H36.4z M41.3,34.5l-3,0.7l1-12.1l2-0.5
					V34.5z"/>
				<path id="XMLID_35_" class="st1" d="M44.6,22.4l1-3.2c1.1,0.6,2.2,0.7,3.7,0.7h10l-0.8,2.5H44.6z M56.1,34.5l-3,0.7l1-12.1
					l2-0.5V34.5z"/>
				<path id="XMLID_38_" class="st1" d="M61.1,22.4l1-3.2c1.1,0.6,2.2,0.7,3.7,0.7h1l-0.8,2.5H61.1z M66.1,34.5l-3,0.7l1-12.1l2-0.5
					V34.5z"/>
				<path id="XMLID_41_" class="st1" d="M74.4,32.3L74,34.5l-4.4,0.7l0.9-3l1.3-6.5l2.1-0.1l-0.7,6.6H74.4z M72.8,19.3l12.3,15.2
					l-3.5,0.7l-11.3-15L72.8,19.3z M80.4,22.4l1-3.2c1,0.5,2.2,0.7,3.6,0.7l-1.2,8.8h-3.1l1.9-6.3H80.4z"/>
			</g>
		</g>
	</g>
</g>
</svg>
