<?xml version="1.0" encoding="utf-8"?>
<!-- Generator: Adobe Illustrator 19.0.0, SVG Export Plug-In . SVG Version: 6.00 Build 0)  -->
<svg version="1.1" id="Layer_1" xmlns="http://www.w3.org/2000/svg" xmlns:xlink="http://www.w3.org/1999/xlink" x="0px" y="0px"
	 viewBox="0 0 104.2 50.4" style="enable-background:new 0 0 104.2 50.4;" xml:space="preserve">
<style type="text/css">
	.st0{fill:#25110A;}
	.st1{fill:#FFF6EE;}
	.st2{fill:#A34824;}
</style>
<g id="XMLID_1_">
	<g id="XMLID_62501_">
		<rect id="XMLID_10_" x="0" class="st0" width="104.2" height="50.4"/>
	</g>
	<rect id="XMLID_62500_" x="4.2" y="4.1" class="st1" width="95.9" height="42.2"/>
	<g id="XMLID_62495_">
		<g>
			<path id="XMLID_69_" class="st2" d="M27.6,18.5c1.3,1.2,2,3.1,2,5.5v12h-5l0-12.4c0-1-0.2-1.7-0.6-2.2c-0.4-0.5-1.1-0.7-2-0.7
				h-2.5c-0.2,0.6-0.3,1.2-0.4,1.9c-0.1,0.7-0.1,1.4-0.1,2V30c0,1.3-0.2,2.4-0.7,3.3c-0.5,0.9-1.1,1.6-2,2.1
				c-0.9,0.5-1.9,0.7-3.2,0.7c-0.8,0-1.6-0.1-2.4-0.2v-3.9c0.5,0,0.8,0,1.1,0c1.6,0,2.3-0.8,2.3-2.5V25c0-0.7,0.1-1.5,0.3-2.3
				c0.2-0.8,0.5-1.5,0.8-2.1h-3v-3.9h9.8C24.4,16.6,26.3,17.2,27.6,18.5z"/>
			<path id="XMLID_71_" class="st2" d="M34.6,20.5H33v-3.9h6.8v19.3h-5.1V20.5z"/>
			<path id="XMLID_73_" class="st2" d="M59.9,16.6v3.9h-3.4v15.4h-5V20.5h-8.2v-3.9H59.9z"/>
			<path id="XMLID_75_" class="st2" d="M63.9,20.5h-1.7v-3.9H69v19.3h-5.1V20.5z"/>
			<path id="XMLID_77_" class="st2" d="M86.8,27.8l5.6,8.1h-5.6l-7.2-10.4C79.2,26,79,26.6,79,27.4v8.6h-4.9v-6.4
				c0-1.8,0.3-3.2,0.8-4.3s1.4-1.9,2.7-2.5l-4.3-6.1H79l4.7,6.7l3.3-6.7h5.7L86.8,27.8z"/>
		</g>
		<g>
			<path id="XMLID_56_" class="st2" d="M27.6,18.5c1.3,1.2,2,3.1,2,5.5v12h-5l0-12.4c0-1-0.2-1.7-0.6-2.2c-0.4-0.5-1.1-0.7-2-0.7
				h-2.5c-0.2,0.6-0.3,1.2-0.4,1.9c-0.1,0.7-0.1,1.4-0.1,2V30c0,1.3-0.2,2.4-0.7,3.3c-0.5,0.9-1.1,1.6-2,2.1
				c-0.9,0.5-1.9,0.7-3.2,0.7c-0.8,0-1.6-0.1-2.4-0.2v-3.9c0.5,0,0.8,0,1.1,0c1.6,0,2.3-0.8,2.3-2.5V25c0-0.7,0.1-1.5,0.3-2.3
				c0.2-0.8,0.5-1.5,0.8-2.1h-3v-3.9h9.8C24.4,16.6,26.3,17.2,27.6,18.5z"/>
			<path id="XMLID_58_" class="st2" d="M34.6,20.5H33v-3.9h6.8v19.3h-5.1V20.5z"/>
			<path id="XMLID_60_" class="st2" d="M59.9,16.6v3.9h-3.4v15.4h-5V20.5h-8.2v-3.9H59.9z"/>
			<path id="XMLID_63_" class="st2" d="M63.9,20.5h-1.7v-3.9H69v19.3h-5.1V20.5z"/>
			<path id="XMLID_65_" class="st2" d="M86.8,27.8l5.6,8.1h-5.6l-7.2-10.4C79.2,26,79,26.6,79,27.4v8.6h-4.9v-6.4
				c0-1.8,0.3-3.2,0.8-4.3s1.4-1.9,2.7-2.5l-4.3-6.1H79l4.7,6.7l3.3-6.7h5.7L86.8,27.8z"/>
		</g>
		<g id="XMLID_66_">
			<path id="XMLID_45_" class="st2" d="M27.6,18.5c1.3,1.2,2,3.1,2,5.5v12h-5l0-12.4c0-1-0.2-1.7-0.6-2.2c-0.4-0.5-1.1-0.7-2-0.7
				h-2.5c-0.2,0.6-0.3,1.2-0.4,1.9c-0.1,0.7-0.1,1.4-0.1,2V30c0,1.3-0.2,2.4-0.7,3.3c-0.5,0.9-1.1,1.6-2,2.1
				c-0.9,0.5-1.9,0.7-3.2,0.7c-0.8,0-1.6-0.1-2.4-0.2v-3.9c0.5,0,0.8,0,1.1,0c1.6,0,2.3-0.8,2.3-2.5V25c0-0.7,0.1-1.5,0.3-2.3
				c0.2-0.8,0.5-1.5,0.8-2.1h-3v-3.9h9.8C24.4,16.6,26.3,17.2,27.6,18.5z"/>
			<path id="XMLID_47_" class="st2" d="M34.6,20.5H33v-3.9h6.8v19.3h-5.1V20.5z"/>
			<path id="XMLID_49_" class="st2" d="M59.9,16.6v3.9h-3.4v15.4h-5V20.5h-8.2v-3.9H59.9z"/>
			<path id="XMLID_51_" class="st2" d="M63.9,20.5h-1.7v-3.9H69v19.3h-5.1V20.5z"/>
			<path id="XMLID_53_" class="st2" d="M86.8,27.8l5.6,8.1h-5.6l-7.2-10.4C79.2,26,79,26.6,79,27.4v8.6h-4.9v-6.4
				c0-1.8,0.3-3.2,0.8-4.3s1.4-1.9,2.7-2.5l-4.3-6.1H79l4.7,6.7l3.3-6.7h5.7L86.8,27.8z"/>
		</g>
	</g>
</g>
</svg>
