<?xml version="1.0" encoding="utf-8"?>
<!-- Generator: Adobe Illustrator 19.0.0, SVG Export Plug-In . SVG Version: 6.00 Build 0)  -->
<svg version="1.1" id="Layer_1" xmlns="http://www.w3.org/2000/svg" xmlns:xlink="http://www.w3.org/1999/xlink" x="0px" y="0px"
	 viewBox="0 0 127.6 40.1" style="enable-background:new 0 0 127.6 40.1;" xml:space="preserve">
<style type="text/css">
	.st0{fill:#FFFFFF;}
	.st1{fill:none;stroke:#FFFFFF;stroke-width:0.8;stroke-miterlimit:10;}
	.st2{fill:none;stroke:#FFFFFF;stroke-width:0.4;stroke-miterlimit:10;}
	.st3{fill:none;}
	.st4{fill:none;stroke:#FFFFFF;stroke-width:0.3079;stroke-miterlimit:10;}
	.st5{fill:none;stroke:#FFFFFF;stroke-width:0.4248;stroke-miterlimit:10;}
	.st6{fill:#FFFFFF;stroke:#FFFFFF;stroke-width:0.1037;stroke-miterlimit:10;}
</style>
<g id="XMLID_107718_">
	<path id="XMLID_107750_" class="st0" d="M62.6,0C68.1,0.1,73,2.1,77,6.1c3.9,4,5.8,8.9,5.5,14.5c-0.2,5.3-2.3,9.8-6.2,13.5
		c-4.1,3.9-9.1,5.7-14.8,5.5c-5.4-0.2-10-2.3-13.7-6.1c-3.9-4-5.8-8.9-5.5-14.5c0.2-5.3,2.3-9.8,6.2-13.5C52.4,1.9,57.1,0.1,62.6,0z
		 M42.8,20.3c0.2,5,1.9,9.2,5.3,12.7c3.9,4,8.7,6.1,14.3,6.1c5.2,0,9.7-1.7,13.4-5.2c4.1-3.8,6.2-8.5,6.2-14.1
		c0-5.1-1.8-9.5-5.3-13.2c-3.9-4.1-8.7-6.1-14.4-6.1c-5.1,0-9.6,1.7-13.4,5.2C44.7,9.7,42.7,14.6,42.8,20.3z"/>
	<path id="XMLID_107749_" class="st0" d="M61.1,23.4c0-2.2,0-4.3,0-6.5c0.2,0.2,0.3,0.4,0.5,0.6c0.2,0.2,0.4,0.4,0.6,0.6
		c0.1,0.1,0.1,0.1,0.1,0.2c0,2.1,0,4.1,0,6.2c0,0.1,0,0.1,0,0.2c0.1,0,0.2,0,0.4,0c0-2.1,0-4.1,0-6.2c0.2,0.1,0.3,0.2,0.5,0.2
		c0.2,0.1,0.4,0.2,0.6,0.2c0.1,0,0.1,0.1,0.1,0.2c0,0.4,0,0.7,0,1.1c0,1,0,2,0,3.1c0,0,0,0.1,0,0.1c0.5-0.1,1.1-0.3,1.6-0.4
		c0,0,0,0,0,0c-0.2,0.3-0.3,0.5-0.5,0.8c-0.4,0.5-0.9,1-1.3,1.5c-0.7,0.7-1.4,1.3-2.2,1.7c-0.2,0.1-0.2,0.2-0.2,0.4
		c0,0.5,0,0.9,0,1.4c0,0.1,0,0.1,0.1,0.2c0.1,0,0.1,0,0.2-0.1c0.3-0.2,0.6-0.4,0.8-0.6c0.6-0.5,1.1-1,1.7-1.6c0.6-0.6,1.2-1.3,1.7-2
		c0.3-0.5,0.7-1,1-1.5c0.1-0.1,0.1-0.1,0.3-0.1c0.4-0.1,0.8-0.1,1.2-0.2c0.5-0.1,1-0.3,1.4-0.5c0.2-0.1,0.4-0.1,0.6-0.1
		c0.1,0,0.2,0,0.3,0c0.2,0.8,0.6,1.5,1.1,2.1c0.4,0.5,0.7,1,1.1,1.4c0.4,0.5,0.8,1,1.2,1.5c0.1,0.2,0.3,0.3,0.5,0.5
		c0,0,0,0.1,0.1,0.1c-0.2,0-0.3,0-0.4,0c-0.3,0-0.6,0-0.9,0c-0.6,0-1.2,0-1.9,0c-0.3,0-0.7,0-1,0c-0.4,0-0.7,0-1.1,0.1
		c-0.6,0-1.1,0.1-1.7,0.2c-1,0.1-2.1,0.4-3.1,0.7c-0.2,0.1-0.3,0.1-0.4,0.2c-0.1,0.1,0,0.3,0,0.4c0,0.1,0,0.3,0,0.4
		c-0.9,0-1.8,0-2.7,0c0-0.3,0-0.5,0-0.8c0-0.1,0-0.1-0.1-0.2c-0.7-0.3-1.5-0.5-2.2-0.6c-0.4-0.1-0.8-0.2-1.3-0.2
		c-0.3,0-0.7-0.1-1-0.1c-0.5,0-1-0.1-1.5-0.1c-1.1,0-2.2,0-3.4-0.1c-0.3,0-0.6,0-0.9,0c0,0,0,0-0.1,0c0.1-0.1,0.1-0.2,0.2-0.3
		c0.6-0.6,1.1-1.3,1.7-1.9c0.5-0.6,0.9-1.2,1.4-1.8c0.3-0.5,0.5-1,0.7-1.5c0,0,0.1-0.1,0.1-0.1c0.4,0,0.8,0.1,1.1,0.1
		c0.3,0,0.6,0.1,1,0.1c0.4,0.1,0.8,0.1,1.2,0.2c0.7,0.2,1.5,0.3,2.2,0.5C60.4,23.2,60.7,23.3,61.1,23.4z"/>
	<path id="XMLID_107748_" class="st0" d="M62,1.5c-0.1,0.2-0.2,0.5-0.3,0.7c0,0-0.1,0-0.1,0c-0.1,0-0.2,0-0.3,0
		c-0.5,0-0.9,0.1-1.4,0.1c-1.1,0.1-2.1,0.4-3.2,0.7c-1.6,0.5-3.1,1.3-4.5,2.2c-0.6,0.4-1.1,0.8-1.6,1.3c-0.5,0.5-1,0.9-1.5,1.5
		c-0.9,1-1.6,2-2.3,3.1c-0.8,1.4-1.4,2.9-1.8,4.5c-0.1,0.6-0.2,1.2-0.3,1.7c-0.1,0.3-0.1,0.6-0.1,0.9c0,0.5-0.1,1-0.1,1.4
		c0,0.4,0,0.8,0,1.2c0,0.3,0,0.5,0.1,0.8c0,0.3,0.1,0.6,0.1,1c0.1,0.6,0.2,1.1,0.4,1.7c0.2,0.8,0.5,1.5,0.8,2.2
		c0.4,0.9,0.8,1.8,1.4,2.6c0.2-0.2,0.3-0.3,0.5-0.4c0.5-0.4,1-0.8,1.6-1c0.1,0,0.2-0.1,0.4-0.1c0.1,0,0.2,0.1,0.1,0.2
		c-0.1,0.2-0.2,0.3-0.3,0.5c0,0-0.1,0.1-0.1,0.1c0.3,0,0.7,0,1-0.1c0,0,0,0,0.1,0c1.3,0,2.6,0,3.9,0c0.4,0,0.7,0,1.1,0.1
		c0.6,0,1.2,0.1,1.7,0.2c0.9,0.1,1.8,0.3,2.7,0.6c0.3,0.1,0.6,0.2,0.8,0.3c0,0,0.1,0,0.1,0.1c-0.3-0.1-0.5-0.2-0.8-0.2
		c-0.5-0.1-1-0.2-1.5-0.3c-0.5-0.1-1-0.1-1.5-0.2c-0.4,0-0.8-0.1-1.2-0.1c-1,0-2.1,0-3.1-0.1c-0.5,0-1,0-1.5,0.1c-0.3,0-0.6,0-1,0.1
		c-0.5,0-1,0.1-1.5,0.1c-0.4,0-0.8,0.1-1.2,0.1c-0.1,0-0.2,0-0.3,0c1.4,2.2,3.2,4,5.4,5.4c2.2,1.4,4.5,2.3,7.1,2.7
		c-0.1-0.1-0.2-0.2-0.2-0.2c-0.1-0.1-0.2-0.2-0.3-0.3c2.2,0,4.3,0,6.5,0c-0.2,0.2-0.3,0.3-0.5,0.5c3.1-0.5,6-1.7,8.4-3.6
		c3.6-2.9,5.8-6.6,6.5-11.2c0.7-5.1-0.5-9.8-3.9-13.8c-3.4-4-7.8-6.1-13.1-6.4C63.1,2,63,1.7,62.9,1.5c4.1,0.1,7.7,1.4,10.9,3.8
		c3.9,3,6.3,6.9,7,11.7c0.8,5.4-0.6,10.4-4.2,14.6c-3.3,3.9-7.5,6-12.6,6.5c-6,0.5-11.1-1.4-15.2-5.7c-3.6-3.7-5.2-8.3-5-13.4
		c0.1-3.4,1.2-6.6,3.2-9.4c1.9-2.7,4.4-4.8,7.4-6.3C56.8,2.1,59.3,1.6,62,1.5z"/>
	<path id="XMLID_107747_" class="st0" d="M65.2,10.1c-0.4-0.1-0.8-0.2-1.1-0.3c-0.5-0.1-1-0.1-1.5-0.1c-0.9,0.1-1.7,0.4-2.4,1
		c-0.8,0.6-1.2,1.4-1.5,2.4c-0.1,0.3-0.1,0.6-0.1,1c0,0.7,0.2,1.4,0.5,2.1c0.3,0.6,0.7,1.2,1.1,1.7c0.2,0.2,0.4,0.4,0.6,0.6
		c0,0,0,0.1,0,0.1c0,0.8,0,1.6,0,2.4c-0.3-0.2-0.5-0.3-0.8-0.5c-0.4-0.3-0.9-0.7-1.3-1c-0.8-0.7-1.4-1.6-1.8-2.6
		c-0.2-0.5-0.4-1-0.5-1.6c-0.1-0.5-0.1-0.9-0.1-1.4c0-0.8,0.2-1.5,0.5-2.3c0.3-0.6,0.7-1.2,1.2-1.6c0.4-0.4,0.9-0.7,1.5-1
		c0.4-0.1,0.8-0.3,1.2-0.4c0.6-0.2,1.2-0.2,1.8-0.1c0.7,0,1.3,0.2,2,0.4C64.8,9,65,9,65.2,9.1c0.2,0.1,0.1,0.2,0.1,0.3
		C65.3,9.6,65.2,9.9,65.2,10.1z"/>
	<path id="XMLID_107746_" class="st0" d="M58.3,7.5c0.2,0.2,0.3,0.4,0.5,0.5c-0.4,0.3-0.8,0.5-1.1,0.8c-0.5,0.4-1,0.8-1.4,1.3
		c-0.3,0.4-0.7,0.8-1,1.3c-0.5,0.8-0.8,1.6-1,2.5c-0.1,0.6-0.2,1.2-0.1,1.8c0,0.6,0.2,1.2,0.4,1.8c0.4,1.2,1,2.3,1.8,3.4
		c0.4,0.5,1.1,1.2,1.6,1.7c-0.2,0-0.4-0.1-0.5-0.1c-0.3,0-0.6-0.1-0.9-0.1c-0.3,0-0.7-0.1-1-0.1c-0.2,0-0.4,0-0.6-0.1
		c-0.1,0-0.2,0-0.3,0c0,0-0.1,0-0.1-0.1c-0.7-1-1.3-2-1.7-3.2c-0.2-0.6-0.3-1.2-0.4-1.8c-0.1-0.6-0.1-1.2-0.1-1.8
		c0.1-1.4,0.5-2.8,1.2-4c0.3-0.4,0.6-0.8,0.9-1.2c0.8-0.8,1.7-1.5,2.7-1.9C57.5,7.8,57.9,7.6,58.3,7.5z"/>
	<path id="XMLID_107745_" class="st0" d="M61.3,28.7c0-0.5,0-1,0-1.5c0,0,0-0.1,0.1-0.1c0.5-0.4,1.1-0.7,1.6-1.1
		c0.5-0.5,1-1,1.5-1.5c0.7-0.7,1.2-1.5,1.6-2.3c0.4-0.7,0.7-1.5,0.9-2.4c0,0,0-0.1,0-0.1c0.3,0.1,0.5,0,0.8-0.2
		c-0.1,0.2-0.1,0.4-0.1,0.6c-0.1,0.3-0.2,0.5-0.2,0.8c0,0,0,0.1,0,0.1c0,0,0.1,0,0.1-0.1c0.5-0.7,1.2-1.3,2-1.7
		c0.5-0.2,1-0.4,1.5-0.4c0.5-0.1,1-0.1,1.5-0.1c-0.2,0.3-0.3,0.6-0.5,0.9c-0.2,0.4-0.5,0.7-0.8,1.1c-0.4,0.5-0.9,0.9-1.5,1.1
		c-0.5,0.2-0.9,0.4-1.4,0.5c-0.6,0.2-1.1,0.3-1.7,0.4c-0.1,0-0.2,0.1-0.2,0.1c-0.3,0.5-0.6,1-1,1.5c-0.3,0.4-0.6,0.8-1,1.2
		c-0.5,0.6-1.1,1.2-1.7,1.7c-0.4,0.4-0.9,0.8-1.4,1.2C61.4,28.6,61.4,28.6,61.3,28.7z"/>
	<path id="XMLID_107744_" class="st0" d="M63.8,8.5c-0.4-0.1-0.8-0.1-1.2-0.2c0-1.1,0-2.2,0-3.3c-0.1,0-0.2,0-0.4,0
		c0,1.1,0,2.2,0,3.3c-0.4,0-0.8,0.1-1.2,0.1c0,0,0-0.1,0-0.1c0-1.1,0-2.2,0-3.3c0-0.2,0.1-0.4,0.2-0.5c0.4-1,0.8-2,1.1-3
		c0-0.1,0-0.1,0.1-0.2c0.1,0.3,0.2,0.6,0.3,0.9c0.3,0.9,0.7,1.7,1,2.6c0,0.1,0,0.1,0,0.2C63.8,6.1,63.8,7.3,63.8,8.5
		C63.8,8.4,63.8,8.5,63.8,8.5z"/>
	<path id="XMLID_107743_" class="st0" d="M67.6,7.4c0.3,0.2,0.6,0.4,0.8,0.6c0.7,0.5,1.3,1,1.8,1.6c0.5,0.6,1,1.2,1.4,1.8
		c0.6,0.9,1,1.9,1.4,2.9c0.2,0.7,0.4,1.3,0.5,2c0,0.3,0.1,0.6,0.1,0.9c0,0.4,0.1,0.8,0,1.2c0,0.6-0.1,1.1-0.2,1.7
		c-0.1,0.7-0.3,1.4-0.6,2c-0.3,0.7-0.7,1.4-1.1,2c0,0,0,0-0.1,0.1c-0.1-0.2-0.3-0.4-0.4-0.6c0,0,0-0.1,0-0.1c0.7-1,1.2-2.2,1.4-3.4
		c0.1-0.4,0.1-0.8,0.2-1.3c0-0.3,0.1-0.6,0.1-0.9c0-0.6-0.1-1.3-0.2-1.9c-0.2-1.3-0.7-2.4-1.3-3.6c-0.4-0.7-0.8-1.4-1.4-2
		C69.7,10,69.4,9.6,69,9.2c-0.3-0.3-0.7-0.6-1.1-0.9c0,0-0.1-0.1-0.1-0.1C67.7,8,67.7,7.7,67.6,7.4z"/>
	<path id="XMLID_107742_" class="st0" d="M61.1,11.2c0.8,0.1,1.5,0.2,2.1,0.5c0.7,0.3,1.3,0.7,1.8,1.2c0.5,0.6,1,1.2,1.3,1.9
		c0.1,0.1,0.1,0.2,0.3,0.1c0.4-0.2,1,0.1,1,0.7c0,0.4-0.2,0.6-0.6,0.7c-0.3,0.1-0.6-0.1-0.8-0.4c0-0.1-0.1-0.1-0.2-0.2
		c-0.7-0.3-1.5-0.6-2.2-0.9c-0.4-0.2-0.9-0.4-1.2-0.8c-0.4-0.5-0.8-1-1.1-1.6C61.4,11.9,61.3,11.6,61.1,11.2z"/>
	<path id="XMLID_107741_" class="st0" d="M67.7,20.6c0.1-0.4,0.2-0.8,0.4-1.2c0.1-0.2,0.1-0.5,0-0.7c-0.1-0.2,0-0.3,0.1-0.4
		c0.4-0.6,0.7-1.2,0.9-1.9c0.1-0.4,0.1-0.8,0.1-1.2c0-0.6-0.2-1.1-0.4-1.6c-0.2-0.5-0.6-1-0.9-1.5c-0.1-0.2-0.3-0.3-0.5-0.5
		c0.1-0.3,0.2-0.5,0.3-0.8c0.3,0.3,0.6,0.5,0.8,0.8c0.3,0.4,0.6,0.8,0.9,1.2c0.4,0.7,0.7,1.4,0.9,2.2c0.1,0.5,0.2,1.1,0.1,1.6
		c-0.1,0.9-0.2,1.8-0.7,2.6c0,0.1-0.1,0.1-0.2,0.2c-0.4,0.2-0.8,0.5-1.2,0.8C68.1,20.2,67.9,20.4,67.7,20.6z"/>
	<path id="XMLID_107740_" class="st0" d="M67.1,6.4c0.1,0.4,0.3,0.9,0.4,1.3c0.1,0.5,0.2,0.9,0.2,1.4c0.1,0.5-0.1,1-0.3,1.5
		c-0.2,0.6-0.5,1.1-0.7,1.6c-0.1,0.1-0.2,0.3-0.2,0.4c-0.1,0.1,0,0.2,0,0.2c0.4,0.6,0.6,1.2,0.9,1.9c-0.2-0.1-0.4-0.1-0.6-0.1
		c0,0-0.1,0-0.1-0.1c-0.3-0.7-0.5-1.4-0.9-2c-0.4-0.6-0.8-1.1-1.1-1.7c-0.1-0.2-0.3-0.3-0.4-0.5c0-0.1-0.1-0.2-0.1-0.2c0,0,0,0,0,0
		c0.2,0.1,0.3,0.2,0.5,0.4c0.4,0.4,0.7,0.7,1.1,1.1c0,0,0.1,0,0.1,0c0,0,0-0.1,0-0.1c-0.1-0.6-0.2-1.2-0.2-1.8
		c0-0.6,0.1-1.3,0.4-1.8C66.3,7.3,66.6,6.9,67.1,6.4C67,6.4,67,6.4,67.1,6.4z"/>
	<path id="XMLID_107739_" class="st0" d="M61.1,16.5c0.2,0,0.3-0.1,0.5-0.1c0.4,0,0.8-0.1,1.2-0.1c0.9,0,1.6,0.3,2.3,0.8
		c0.5,0.3,0.9,0.7,1.3,1.1c0.1,0.1,0.1,0.1,0.2,0c0.2-0.2,0.5-0.2,0.8-0.1c0.3,0.1,0.4,0.3,0.4,0.6c0,0.3-0.1,0.5-0.4,0.7
		c-0.4,0.2-0.8,0.1-1-0.3C66.5,19,66.4,19,66.3,19c-0.2,0-0.4,0-0.7,0c-0.8,0-1.5-0.1-2.3-0.4c-0.4-0.1-0.7-0.3-1-0.6
		C61.9,17.6,61.5,17.1,61.1,16.5z"/>
	<path id="XMLID_107738_" class="st0" d="M57.5,4.2c0.3,0.1,0.6,0.2,0.8,0.3c0.7,0.2,1.3,0.6,1.9,1.1c0.2,0.1,0.3,0.3,0.5,0.4
		c0.1,0.1,0.1,0.2,0.1,0.3c0,0.7,0,1.3,0,2c0,0.1,0,0.1-0.1,0.2c-0.3,0.1-0.6,0.1-0.9,0.2c-0.1,0-0.1,0-0.2,0
		c-0.5-0.3-0.9-0.7-1.2-1.2C58.2,7,58,6.6,57.9,6.2c-0.1-0.4-0.2-0.9-0.3-1.3C57.6,4.7,57.6,4.5,57.5,4.2z"/>
	<path id="XMLID_107737_" class="st0" d="M50.6,15.5c-0.2-1.5,0.1-4,1.7-6.1c1.3-1.8,3.2-3,5.4-3.6c0.1,0.2,0.1,0.4,0.2,0.6
		c0.1,0.2,0.1,0.2-0.2,0.3c-1.1,0.4-2.1,0.9-3,1.6c-0.5,0.4-1,0.8-1.4,1.3c-0.6,0.7-1.2,1.5-1.6,2.3c-0.4,0.9-0.8,1.8-0.9,2.8
		C50.7,15,50.7,15.2,50.6,15.5z"/>
	<path id="XMLID_107736_" class="st0" d="M75.4,28.4c-0.1-0.1-0.1-0.2-0.2-0.3c0-0.1-0.1-0.1-0.1-0.2c0-0.1-0.2-0.2,0-0.3
		c0.1-0.1,0.2-0.1,0.3,0c0.4,0.1,0.7,0.3,1,0.5c0.4,0.3,0.8,0.6,1.2,1c0,0,0,0,0,0c-0.2,0-0.3,0-0.5,0c-0.2,0-0.5-0.1-0.7-0.1
		c-0.4,0-0.9-0.1-1.3-0.1c-0.2,0-0.3,0-0.5,0c-0.3,0-0.5,0-0.8,0c-0.5,0-1,0-1.6-0.1c-0.8,0-1.5,0-2.3,0c-0.4,0-0.9,0-1.3,0.1
		c-0.5,0-1,0.1-1.5,0.1c-0.9,0.1-1.8,0.2-2.7,0.5c-0.1,0-0.3,0.1-0.4,0.1c0,0,0,0,0,0c0,0,0.1-0.1,0.1-0.1c0.6-0.3,1.3-0.5,2-0.6
		c0.5-0.1,1-0.2,1.5-0.3c0.3,0,0.6-0.1,0.9-0.1c0.6,0,1.2-0.1,1.8-0.1c1,0,2,0,2.9,0c0.5,0,1.1,0,1.6,0.1
		C75.1,28.4,75.2,28.4,75.4,28.4z"/>
	<path id="XMLID_107735_" class="st0" d="M64,21.8c0-0.7,0-1.4,0-2c0.2,0,0.4,0,0.6,0c0.5,0,1-0.1,1.5-0.2c0,0,0.1,0,0.1,0
		c0.2,0.1,0.3,0.3,0.6,0.4c-0.2,0.5-0.4,1-0.6,1.5c0,0.1-0.2,0.1-0.3,0.1C65.3,21.8,64.7,21.9,64,21.8z"/>
	<path id="XMLID_107734_" class="st0" d="M62.3,16.2c-0.4,0.1-0.8,0.1-1.2,0.2c0-1.6,0-3.1,0-4.7c0.2,0.4,0.3,0.7,0.5,1.1
		c0.2,0.3,0.4,0.6,0.6,0.9c0,0,0,0.1,0,0.1C62.3,14.6,62.3,15.4,62.3,16.2z"/>
	<path id="XMLID_107733_" class="st0" d="M63.9,32.6c0,0.3,0,0.6,0,0.9c0,0.2-0.1,0.4-0.3,0.5c-0.8,0.5-1.7,1-2.5,1.4c0,0,0,0,0,0
		c0-0.1,0-0.2,0-0.4c0-0.3,0-0.5,0-0.8c0-0.1,0-0.1,0.1-0.2c0.8-0.5,1.7-1,2.5-1.5C63.8,32.6,63.8,32.6,63.9,32.6z"/>
	<path id="XMLID_107732_" class="st0" d="M59.4,30.6c0-0.2,0-0.4,0-0.5c2.1,0,4.1,0,6.2,0c0,0.2,0,0.4,0,0.5
		C63.5,30.6,61.5,30.6,59.4,30.6z"/>
	<path id="XMLID_107731_" class="st0" d="M65.6,30.8c0,0.2,0,0.4,0,0.5c-2.1,0-4.1,0-6.2,0c0-0.2,0-0.4,0-0.5
		C61.4,30.8,63.5,30.8,65.6,30.8z"/>
	<path id="XMLID_107730_" class="st0" d="M61.1,33.9c0-0.4,0-0.8,0-1.2c0,0,0-0.1,0.1-0.1c0.5-0.3,1-0.6,1.5-0.9c0,0,0.1,0,0.1,0
		c0.3,0,0.7,0,1,0c0.1,0,0.1,0,0.1,0.1c0,0,0,0,0,0.1c0.1,0.3-0.1,0.5-0.4,0.6c-0.8,0.4-1.5,0.9-2.3,1.3
		C61.2,33.8,61.1,33.8,61.1,33.9z"/>
	<path id="XMLID_107729_" class="st0" d="M63.9,34.2c0,0,0,0.1,0,0.1c0,0.3,0,0.7,0,1c0,0.1,0,0.1-0.1,0.2c-0.5,0.3-1,0.6-1.5,0.8
		c0,0-0.1,0-0.1,0c-0.4,0-0.8,0-1.2,0c0-0.2,0-0.4,0-0.5c0,0,0.1-0.1,0.1-0.1c0.4-0.2,0.7-0.4,1.1-0.6
		C62.8,34.8,63.3,34.5,63.9,34.2C63.8,34.2,63.8,34.2,63.9,34.2z"/>
	<path id="XMLID_107728_" class="st0" d="M63.8,16.3c-0.4,0-0.8-0.1-1.2-0.1c0-0.6,0-1.3,0-2c0.1,0.1,0.3,0.2,0.4,0.3
		c0.2,0.1,0.4,0.2,0.6,0.4c0,0,0.1,0.1,0.1,0.1C63.8,15.4,63.8,15.8,63.8,16.3C63.8,16.2,63.8,16.2,63.8,16.3z"/>
	<path id="XMLID_107727_" class="st0" d="M63.8,9.9c0,0.6,0,1.2,0,1.8c-0.4-0.1-0.7-0.3-1.1-0.4c0,0-0.1-0.1-0.1-0.1
		c0-0.4,0-0.8,0-1.2c0-0.1,0.1-0.1,0.1-0.1C63.1,9.9,63.5,9.9,63.8,9.9z"/>
	<path id="XMLID_107726_" class="st0" d="M66.1,7.3c-0.7-0.2-1.4-0.5-2-0.7c0-0.2,0-0.5,0-0.7c0.8,0.2,1.6,0.5,2.4,0.9
		C66.4,7,66.2,7.1,66.1,7.3z"/>
	<path id="XMLID_107725_" class="st0" d="M62.3,9.9c0,0.4,0,0.8,0,1.3c-0.4-0.1-0.8-0.1-1.2-0.2c0-0.2,0-0.4,0-0.6c0,0,0-0.1,0-0.1
		C61.5,10.2,61.9,10,62.3,9.9z"/>
	<path id="XMLID_107724_" class="st0" d="M67.1,16.5c0.2-0.1,0.4-0.3,0.7-0.4c0.1,0.6,0.1,1.3,0.2,1.9c-0.3-0.1-0.5-0.2-0.7-0.3
		C67.2,17.4,67.1,16.9,67.1,16.5z"/>
	<path id="XMLID_107723_" class="st0" d="M70.8,22.7c-0.1-0.2-0.1-0.3-0.2-0.5c-0.1-0.2-0.1-0.2-0.3-0.3c0.6-0.3,1-0.8,1.4-1.4
		C71.5,21.3,71.2,22,70.8,22.7z"/>
	<path id="XMLID_107722_" class="st0" d="M71.9,16.5c0.2,0.7,0.2,1.4,0.1,2.1c-0.2,0-0.3,0-0.4,0C71.8,17.9,71.9,17.2,71.9,16.5z"/>
	<path id="XMLID_107721_" class="st0" d="M62.9,36.4c0.3-0.2,0.7-0.4,1-0.6c0,0.2,0,0.4,0,0.6C63.6,36.4,63.2,36.4,62.9,36.4z"/>
	<path id="XMLID_107720_" class="st0" d="M62.1,31.7c-0.3,0.2-0.6,0.4-1,0.6c0-0.2,0-0.4,0-0.6C61.4,31.6,61.7,31.6,62.1,31.7
		C62.1,31.6,62.1,31.7,62.1,31.7z"/>
	<path id="XMLID_107719_" class="st0" d="M60.8,5.4c0,0.2,0,0.3,0,0.5c-0.2-0.1-0.3-0.3-0.5-0.4C60.5,5.4,60.6,5.4,60.8,5.4z"/>
</g>
<g id="XMLID_107057_">
	<path id="XMLID_107086_" class="st0" d="M0,15.6c0-0.1,0-0.2,0-0.2c0.1-1.4,0.7-2.7,1.6-3.8c0.7-0.8,1.5-1.4,2.5-1.9
		C4.5,9.4,5,9.2,5.5,9.1c0.1,0,0.2,0,0.2,0.1c1,1.1,2.1,2.2,3.2,3.2c1.4,1.3,3,2.2,4.7,2.9c0,0,0.1,0,0.1,0c0-0.1,0-0.3,0.1-0.4
		c0.2-0.8,0.5-1.5,1.1-2.1c0.7-0.6,1.4-1.1,2.4-1.2c0.9-0.1,1.7,0,2.5,0.4c1.1,0.5,1.8,1.4,2.2,2.6c0.1,0.2,0.1,0.4,0.1,0.6
		c0,0,0,0,0,0.1c0,0,0.1,0,0.1,0c1.3-0.5,2.5-1.1,3.6-2c0.3-0.2,0.6-0.5,0.9-0.8c1.3-1.2,2.5-2.5,3.7-3.8c1.7-1.8,3.4-3.6,5.1-5.4
		c0,0,0.1-0.1,0.1-0.1c-0.2-0.1-0.4-0.1-0.6-0.2c0,0,0.1,0,0.1,0c0.8-0.3,1.6-0.5,2.3-0.8c0,0,0,0,0,0c0,0,0,0,0,0.1
		c0,0.1,0,0.2-0.1,0.3c-0.1,0.7-0.3,1.4-0.4,2c0,0,0,0.1,0,0.1c-0.1-0.2-0.2-0.4-0.2-0.6c-1.7,1.9-3.4,3.7-5.1,5.5
		c0,0,0.1,0,0.1,0.1c0.9,0.5,1.7,1.1,2.4,1.8c0.9,1,1.4,2.2,1.6,3.5c0.2,1.5,0,2.9-0.6,4.2c-0.8,1.6-2,2.7-3.7,3.4
		c-0.7,0.3-1.5,0.5-2.3,0.6c-2,0.2-3.8-0.4-5.3-1.6c-1.1-0.9-1.9-2-2.3-3.4c-0.1-0.4-0.2-0.7-0.2-1.1c0,0,0,0,0-0.1c0,0,0,0,0,0
		c-2.2,0.6-4.5,0.6-6.7,0c0,0.2-0.1,0.3-0.1,0.4c-0.3,1.4-0.9,2.5-1.8,3.5c-1.1,1.1-2.4,1.8-3.9,2.1c-2,0.4-3.8,0-5.5-1.1
		c-1.4-0.9-2.3-2.1-2.9-3.6c-0.2-0.6-0.3-1.1-0.4-1.7c0-0.1,0-0.1,0-0.2C0,16.2,0,15.9,0,15.6z M6.1,11.5
		C6.1,11.4,6.1,11.4,6.1,11.5c-0.4-0.4-0.6-0.7-0.9-1c-0.1-0.1-0.1-0.1-0.2,0c-0.5,0.2-0.9,0.5-1.4,0.8c-0.7,0.5-1.3,1.1-1.8,1.9
		c-0.4,0.7-0.6,1.5-0.7,2.3c-0.1,0.7,0,1.4,0.2,2.1c0.3,1.3,1,2.3,2,3.1c1,0.9,2.2,1.3,3.6,1.4c0.7,0.1,1.3,0,1.9-0.2
		c1.2-0.3,2.2-0.8,3-1.7c0.9-0.9,1.4-1.9,1.6-3.1c0-0.1,0-0.3,0.1-0.4c-0.4-0.2-0.9-0.3-1.3-0.5c0,0.1,0,0.1,0,0.2
		c0,0.7-0.2,1.4-0.6,2c-1,1.7-2.9,2.7-5,2.4c-1.1-0.2-2-0.6-2.8-1.4c-1.2-1.3-1.6-2.8-1.2-4.6c0.5-1.7,1.6-2.7,3.3-3.2
		C6,11.5,6.1,11.5,6.1,11.5z M22.4,16.6c0,0.1,0,0.2,0,0.3c0.1,0.6,0.2,1.1,0.5,1.6c0.5,1.1,1.3,1.9,2.3,2.6c1,0.6,2.1,1,3.4,1
		c0.7,0,1.4-0.1,2.1-0.4c1.4-0.5,2.5-1.3,3.2-2.6c0.8-1.3,1-2.6,0.8-4.1c-0.2-1-0.6-1.9-1.2-2.7c-0.7-0.8-1.6-1.5-2.6-1.9
		c0,0,0,0,0,0c-0.4,0.3-0.7,0.7-1,1c0,0,0,0,0,0c0,0,0.1,0,0.1,0c0.9,0.2,1.6,0.7,2.3,1.4c1.3,1.4,1.6,3.3,0.9,5
		c-0.7,1.7-2.3,2.9-4.3,3c-0.6,0-1.2-0.1-1.8-0.3c-1.9-0.6-3.2-2.4-3.2-4.4c0,0,0,0,0-0.1C23.3,16.2,22.9,16.4,22.4,16.6z
		 M21.1,15.5c0-0.3-0.1-0.5-0.2-0.7c-0.3-0.8-0.8-1.4-1.5-1.8c-0.7-0.4-1.5-0.5-2.3-0.3c-0.9,0.2-1.5,0.7-2,1.5
		c-0.2,0.4-0.3,0.8-0.4,1.2c0,0.1,0,0.1,0,0.2C16.9,16.1,19,16.1,21.1,15.5z"/>
	<path id="XMLID_107085_" class="st0" d="M18.7,0.7c0.1,0,0.1,0,0.2,0c2.4,0.1,4.6,0.7,6.7,1.7c1.7,0.8,3.3,1.9,4.7,3.3
		c0,0,0.1,0.1,0.1,0.1c-0.3,0.3-0.6,0.6-1,1C26.2,3.7,22.4,2.1,18,2.1C13.6,2.1,9.8,3.7,6.7,6.7c-0.3-0.3-0.6-0.6-1-1
		c0,0,0.1-0.1,0.1-0.1c2.2-2.2,4.8-3.6,7.8-4.4c0.7-0.2,1.5-0.3,2.2-0.4c0.5-0.1,0.9-0.1,1.4-0.1c0,0,0.1,0,0.1,0
		C17.8,0.7,18.2,0.7,18.7,0.7z"/>
	<path id="XMLID_107084_" class="st0" d="M33.7,38.6c0,0,0-0.1,0-0.1c0-1,0-2,0-3c0,0,0-0.1,0-0.1c0.1,0,0.3,0,0.4,0
		c0,0,0,0.1,0,0.1c0,1,0,2,0,3c0,0,0,0.1,0,0.1C34,38.6,33.8,38.6,33.7,38.6z"/>
	<path id="XMLID_107083_" class="st0" d="M34,30.8c0.2,0,0.5,0,0.7,0c0,0,0-0.1,0-0.1c0-0.5,0-1.1,0-1.6c0-0.1,0-0.2,0-0.3
		c-0.1-0.3-0.3-0.4-0.6-0.4c-0.2,0.1-0.4,0.2-0.5,0.4c0,0,0,0.1,0,0.1c0,0.4-0.1,0.8-0.1,1.2c0,0.4-0.1,0.8-0.1,1.3
		c0,0.1,0,0.2,0,0.4c-0.4,0-0.8,0-1.3,0c0-0.1,0-0.3,0-0.4c0-0.3,0.1-0.6,0.1-0.9c0-0.4,0.1-0.8,0.1-1.2c0.1-0.6,0-1.1-0.1-1.6
		c0,0,0,0,0-0.1c0,0,0.1,0,0.1,0c0.3,0,0.6,0,0.9,0c0.1,0,0.1,0,0.2,0.1c0,0.1,0.1,0.2,0.1,0.3c0,0,0,0,0.1,0
		c0.4-0.4,0.8-0.5,1.3-0.5c0.5,0,0.9,0.3,1.1,0.8c0.1,0.2,0.1,0.5,0.2,0.8c0,0.2,0,0.4,0,0.5c0,0.7,0,1.4,0,2.1c0,0,0,0.1,0,0.1
		c-0.1,0-1.8,0-2.1,0C34,31.7,34,30.9,34,30.8z"/>
	<path id="XMLID_107082_" class="st0" d="M13.4,28.4c0-0.3,0-0.6,0-1c0.1,0,0.2,0,0.3,0c0.3,0,0.5,0,0.8,0.1
		c0.3,0.1,0.6,0.3,0.7,0.6c0.1,0.2,0.2,0.5,0.2,0.8c0,0.3,0,0.7,0,1c0,0.4-0.1,0.7-0.3,1c-0.3,0.6-0.7,0.9-1.4,0.9
		c-0.3,0-0.5,0-0.8-0.1c-0.5-0.2-0.9-0.5-1.1-1c-0.2-0.3-0.2-0.7-0.2-1.1c0-0.7,0-1.4,0-2.1c0,0,0,0,0-0.1c0.1,0,1.1,0,1.3,0
		c0,0,0,0.1,0,0.1c0,0.6,0,1.3,0,1.9c0,0.3,0,0.5,0.1,0.8c0,0.1,0.1,0.2,0.1,0.3c0.2,0.3,0.5,0.3,0.7,0c0.1-0.1,0.1-0.3,0.2-0.4
		c0.1-0.4,0.1-0.9,0-1.3c0,0,0-0.1,0-0.1c-0.1-0.3-0.2-0.4-0.5-0.4C13.5,28.4,13.5,28.4,13.4,28.4z"/>
	<path id="XMLID_107081_" class="st0" d="M0.2,26.6c0.4,0,0.8,0,1.3,0c0,0.3,0,0.5,0,0.8c0.2,0,0.4,0,0.5,0c0.2,0,0.4,0,0.5,0
		c0.2,0,0.3,0,0.5,0c0.2,0,0.4,0,0.5,0c0,0,0,0.1,0,0.1c0,0.2,0,0.4,0,0.6c0,0.1,0,0.1,0,0.2c-0.2,0.6-0.3,1.1-0.5,1.7
		c-0.1,0.4-0.2,0.7-0.3,1.1c0,0.2-0.1,0.4-0.1,0.5c0,0,0,0,0,0.1c-0.4,0-0.8,0-1.3,0c0.2-1.1,0.5-2.2,0.9-3.3c-0.2,0-0.3,0-0.4,0
		c-0.1,0-0.3,0-0.4,0c-0.1,0-0.3,0-0.4,0c-0.1,0-0.3,0-0.4,0c-0.1,0-0.3,0-0.4,0C0.2,27.9,0.2,27.3,0.2,26.6z"/>
	<path id="XMLID_107080_" class="st0" d="M31,28.4c-0.1,0-0.1,0.1-0.2,0.1c-0.2,0.1-0.4,0.3-0.4,0.6c0,0.1,0,0.1,0,0.2
		c0,0.8,0,1.6,0,2.4c0,0,0,0.1,0,0.1c-0.4,0-0.9,0-1.3,0c0,0,0-0.1,0-0.1c0-0.8,0-1.6,0-2.5c0-0.3,0.1-0.5,0.3-0.7c0,0,0,0,0,0
		c-0.7,0-1.3,0-2,0c0-0.1,0-0.8,0-1c1.2,0,2.4,0,3.6,0C31,27.8,31,28.1,31,28.4z"/>
	<path id="XMLID_107079_" class="st0" d="M20.3,28.5c0-0.3,0-0.7,0-1c0.1,0,0.3,0,0.4,0c0.4,0,0.7,0,1.1,0c0.2,0,0.5,0,0.7,0.1
		c0.1,0,0.2,0.1,0.3,0.1c0.3,0.2,0.5,0.4,0.6,0.8c0,0.2,0.1,0.4,0.1,0.5c0,0.9,0,1.8,0,2.7c0,0,0,0.1,0,0.1c-0.4,0-0.8,0-1.3,0
		c0,0,0-0.1,0-0.1c0-0.8,0-1.7,0-2.5c0-0.1,0-0.1,0-0.2c0-0.3-0.2-0.5-0.5-0.5c-0.2,0-0.4,0-0.6,0C20.7,28.4,20.5,28.5,20.3,28.5z"
		/>
	<path id="XMLID_107078_" class="st0" d="M18,23.2c-0.7-1.2-1.3-2.3-2-3.5c1.4,0.1,2.7,0.2,4-0.1c0,0,0,0,0,0
		C19.4,20.9,18.7,22,18,23.2z"/>
	<path id="XMLID_107077_" class="st0" d="M26.2,31.8c-0.4,0-0.8,0-1.3,0c0-0.1,0-3.9,0-4.3c0.1,0,1.1,0,1.3,0
		C26.2,28.9,26.2,30.3,26.2,31.8z"/>
	<path id="XMLID_107076_" class="st0" d="M8.9,30.4c0-1,0-1.9,0-2.9c0.1,0,1.2,0,1.3,0c0,0,0,0.1,0,0.1c0,0.6,0,1.2,0,1.8
		c0,0.1,0,0.1-0.1,0.2c-0.2,0.2-0.4,0.5-0.6,0.7c0,0.1-0.1,0.1-0.2,0.1C9.2,30.4,9.1,30.4,8.9,30.4z"/>
	<path id="XMLID_107075_" class="st0" d="M24.4,34.5c0,0.1,0,0.1,0,0.1c0,0.7,0,1.3,0,2c0,0.1,0,0.3-0.1,0.4
		c-0.1,0.3-0.3,0.4-0.6,0.5c-0.1,0-0.1,0-0.2,0c0,0-0.1,0-0.1,0c0-0.1,0-0.2,0-0.4c0,0,0.1,0,0.1,0c0.2,0,0.4-0.1,0.4-0.3
		c0-0.1,0-0.1,0-0.2c0-0.6,0-1.3,0-1.9c0,0,0-0.1,0-0.1c-0.1,0-0.2,0-0.4,0c0-0.1,0-0.2,0-0.4c0.1,0,0.3,0,0.4,0c0.3,0,0.6,0,0.9,0
		c0.2,0,0.4,0,0.6,0.1c0.3,0.1,0.5,0.4,0.6,0.8c0,0.1,0,0.1,0,0.2c0,0.7,0,1.4,0,2.2c0,0,0,0.1,0,0.1c-0.1,0-0.3,0-0.4,0
		c0-0.1,0-0.1,0-0.1c0-0.7,0-1.4,0-2.1c0-0.1,0-0.1,0-0.2c0-0.2-0.1-0.4-0.3-0.5c-0.1-0.1-0.2-0.1-0.4-0.1
		C24.8,34.4,24.6,34.4,24.4,34.5z"/>
	<path id="XMLID_107074_" class="st0" d="M3.7,34.6c0-0.1,0-0.3,0-0.4c0,0,0.1,0,0.1,0c0.3-0.1,0.7-0.1,1-0.1
		c0.3,0.1,0.6,0.3,0.7,0.6c0.1,0.2,0.2,0.4,0.2,0.6c0,0.3,0,0.6,0,0.9c0,0.3-0.1,0.5-0.2,0.7c-0.2,0.3-0.4,0.4-0.8,0.5
		c-0.3,0.1-0.6,0-0.9,0c0,0-0.1,0-0.1,0c0-0.1,0-0.2,0-0.4c0,0,0.1,0,0.1,0C4,37,4.2,37.1,4.4,37.1c0.3,0,0.6-0.2,0.7-0.5
		c0.1-0.1,0.1-0.3,0.1-0.5c0-0.3,0-0.5,0-0.8c0-0.2,0-0.3-0.1-0.5c-0.1-0.3-0.3-0.4-0.6-0.4C4.2,34.4,3.9,34.5,3.7,34.6z"/>
	<path id="XMLID_107073_" class="st0" d="M5.5,28.9c-0.3,0-0.6,0-0.9,0c0.1-0.6,0.2-1.3,0.3-1.9c0,0,0.1,0,0.1,0c0.3,0,0.6,0,1,0
		c0.1,0,0.1,0,0.1,0.1c-0.1,0.6-0.3,1.1-0.5,1.7C5.5,28.8,5.5,28.8,5.5,28.9z"/>
	<path id="XMLID_107072_" class="st0" d="M7.2,28.9c-0.3,0-0.6,0-0.9,0c0.1-0.6,0.2-1.3,0.3-1.9c0,0,0,0,0.1,0c0.3,0,0.7,0,1,0
		c0.1,0,0.1,0,0.1,0.1C7.6,27.7,7.4,28.2,7.2,28.9C7.2,28.8,7.2,28.8,7.2,28.9z"/>
	<path id="XMLID_107071_" class="st0" d="M11.2,34.5c-0.6,0-1.2,0-1.7,0c0-0.1,0-0.2,0-0.3c0.1,0,2.2,0,2.4,0c0,0.1,0,0.2,0,0.3
		c0,0-0.1,0-0.1,0c-0.2,0.1-0.4,0.3-0.4,0.5c0,0.1,0,0.2,0,0.2c0,0.7,0,1.3,0,2c0,0,0,0.1,0,0.1c-0.1,0-0.3,0-0.4,0c0,0,0-0.1,0-0.1
		c0-0.7,0-1.4,0-2.1C10.9,34.9,10.9,34.7,11.2,34.5z"/>
	<path id="XMLID_107070_" class="st0" d="M35.3,37.4c-0.1,0-0.3,0-0.4,0c0-0.1,0-0.2,0-0.3c0.1-0.3,0.2-0.7,0.3-1
		c0.1-0.5,0.3-1,0.4-1.5c0,0,0-0.1,0-0.1c-0.7,0-1.3,0-2,0c0-0.1,0-0.2,0-0.3c0.8,0,1.6,0,2.4,0c0,0.2,0,0.3,0,0.4
		c-0.2,0.7-0.4,1.3-0.6,2C35.4,36.8,35.3,37.1,35.3,37.4C35.3,37.4,35.3,37.4,35.3,37.4z"/>
	<path id="XMLID_107069_" class="st0" d="M12.9,34.5c0-0.1,0-0.2,0-0.4c0.1,0,0.3,0,0.4,0c0.2,0,0.5,0,0.7,0c0.2,0,0.4,0,0.7,0.1
		c0.3,0.1,0.5,0.4,0.5,0.7c0,0.1,0,0.2,0,0.3c0,0.7,0,1.4,0,2.1c0,0,0,0.1,0,0.2c-0.1,0-0.3,0-0.4,0c0-0.1,0-0.1,0-0.1
		c0-0.7,0-1.4,0-2.1c0-0.1,0-0.1,0-0.2c0-0.2-0.2-0.4-0.4-0.5c-0.2-0.1-0.3-0.1-0.5-0.1c-0.3,0-0.7,0-1,0
		C13,34.5,12.9,34.5,12.9,34.5z"/>
	<path id="XMLID_107068_" class="st0" d="M19,37.4c-0.1,0-0.3,0-0.4,0c0-0.1,0-0.1,0-0.1c0-0.7,0-1.4,0-2.1c0-0.1,0-0.1,0-0.2
		c0-0.2-0.1-0.4-0.4-0.5c-0.2-0.1-0.3-0.1-0.5-0.1c-0.3,0-0.7,0-1,0c0,0-0.1,0-0.1,0c0-0.1,0-0.2,0-0.3c0,0,0,0,0.1,0
		c0.4,0,0.8,0,1.2,0c0.2,0,0.3,0,0.5,0.1c0.4,0.1,0.6,0.4,0.6,0.8c0,0,0,0.1,0,0.1c0,0.7,0,1.4,0,2.2C19,37.3,19,37.3,19,37.4z"/>
	<path id="XMLID_107067_" class="st0" d="M0.2,34.5c0-0.1,0-0.2,0-0.3c0,0,0,0,0.1,0c0.4,0,0.8,0,1.2,0c0.2,0,0.4,0,0.6,0.1
		c0.4,0.1,0.6,0.4,0.6,0.8c0,0,0,0.1,0,0.1c0,0.7,0,1.4,0,2.2c0,0,0,0.1,0,0.1c-0.1,0-0.3,0-0.4,0c0,0,0-0.1,0-0.1
		c0-0.7,0-1.4,0-2.1c0-0.1,0-0.1,0-0.2c0-0.2-0.1-0.4-0.4-0.5c-0.2-0.1-0.3-0.1-0.5-0.1c-0.3,0-0.7,0-1,0
		C0.3,34.5,0.3,34.5,0.2,34.5z"/>
	<path id="XMLID_107066_" class="st0" d="M30.4,34.4c0-0.1,0-0.2,0-0.4c0,0,0.1,0,0.1,0c0.3,0,0.5,0,0.8,0c0.1,0,0.3,0,0.4,0.1
		c0.4,0.1,0.6,0.4,0.6,0.8c0,0,0,0.1,0,0.1c0,0.7,0,1.4,0,2.1c0,0,0,0.1,0,0.1c-0.1,0-0.3,0-0.4,0c0,0,0-0.1,0-0.1
		c0-0.7,0-1.4,0-2.1c0-0.1,0-0.1,0-0.2c0-0.2-0.2-0.4-0.4-0.5c-0.1-0.1-0.3-0.1-0.5-0.1C30.9,34.4,30.7,34.4,30.4,34.4
		C30.5,34.4,30.5,34.4,30.4,34.4z"/>
	<path id="XMLID_107065_" class="st0" d="M8.4,37.4c-0.1,0-0.2,0-0.3,0c0,0-0.1,0-0.1,0c0,0,0-0.1,0-0.1c0-0.7,0-1.3,0-2
		c0,0,0-0.1,0-0.1c0-0.5-0.3-0.6-0.6-0.7c-0.1,0-0.2,0-0.3,0c-0.2,0-0.4,0-0.6,0c0-0.1,0-0.2,0-0.3c0,0,0.1,0,0.1,0
		c0.3,0,0.5,0,0.8,0c0.2,0,0.3,0,0.5,0.1c0.4,0.1,0.5,0.4,0.6,0.8c0,0,0,0.1,0,0.1c0,0.7,0,1.5,0,2.2C8.4,37.3,8.4,37.3,8.4,37.4z"
		/>
	<path id="XMLID_107064_" class="st0" d="M13.3,37.4c-0.1,0-0.3,0-0.4,0c0-0.7,0-1.4,0-2.1c0.1,0,0.3,0,0.4,0
		C13.3,36,13.3,36.7,13.3,37.4z"/>
	<path id="XMLID_107063_" class="st0" d="M0.2,35.3c0.1,0,0.3,0,0.4,0c0,0.7,0,1.4,0,2.1c-0.1,0-0.3,0-0.4,0
		C0.2,36.7,0.2,36,0.2,35.3z"/>
	<path id="XMLID_107062_" class="st0" d="M17,37.4c-0.1,0-0.3,0-0.4,0c0-0.7,0-1.4,0-2.1c0.1,0,0.3,0,0.4,0C17,36,17,36.7,17,37.4z"
		/>
	<path id="XMLID_107061_" class="st0" d="M27.4,34.1c0.1,0,0.3,0,0.4,0c0,0,0,0.1,0,0.1c0,0.5,0,1,0,1.5c0,0.1,0,0.1-0.1,0.2
		c-0.1,0.1-0.1,0.2-0.2,0.3c0,0,0,0-0.1,0C27.4,36.2,27.3,34.3,27.4,34.1z"/>
	<path id="XMLID_107060_" class="st0" d="M29,36.3c0-0.7,0-1.4,0-2.1c0.1,0,0.3,0,0.4,0c0,0,0,0.1,0,0.1c0,0.5,0,1,0,1.5
		c0,0.1,0,0.1-0.1,0.2c-0.1,0.1-0.2,0.2-0.2,0.3C29.1,36.3,29.1,36.3,29,36.3z"/>
	<path id="XMLID_107059_" class="st0" d="M28,8.1c-0.3,0.3-0.6,0.6-1,1c-2.5-2.4-5.5-3.7-9-3.7c-3.5,0-6.5,1.3-9,3.7
		C8.6,8.8,8.3,8.5,8,8.2c0.1-0.2,1.4-1.3,2.2-1.8c1.9-1.3,4-2,6.3-2.3c2.5-0.3,5,0.1,7.3,1.1C25.3,5.9,26.7,6.9,28,8.1z"/>
	<path id="XMLID_107058_" class="st0" d="M25.4,10.7c-0.3,0.3-0.6,0.6-1,1C22.7,9.9,20.5,9,18,9c-2.5,0-4.7,0.9-6.5,2.7
		c-0.3-0.3-0.6-0.6-1-0.9C14.3,6.8,21.2,6.4,25.4,10.7z"/>
</g>
<g id="XMLID_73341_">
	<circle id="XMLID_107056_" class="st1" cx="107.6" cy="20.1" r="18.5"/>
	<circle id="XMLID_107055_" class="st2" cx="107.6" cy="20.1" r="20"/>
	<g id="XMLID_73380_">
		<path id="XMLID_107054_" class="st3" d="M106.5,16.8l0-1.3l-0.2,0.8C106.4,16.3,106.4,16.5,106.5,16.8z"/>
		<path id="XMLID_107046_" class="st0" d="M105.5,21.1l0.5-1l0.5-0.5c0,0-0.4-0.6-0.5-1.2c-1.6,0.3-2.8,1.1-2.8,2.1
			c0,0.5,0.3,1,0.9,1.4c-1.1-0.6-2-1.4-2.8-2.4c0-0.1,0-0.3,0-0.4c0-1.8,2.2-3.2,5.2-3.4l0.2-0.3c0,0,0.1,0.5,0.2,0.8
			c0.1,0.4,0.4,0.7,0.4,1c0.1,0.2,0.1,0.7,0.1,0.7s0.2-0.3,0.1-0.8c-0.1-0.6-0.4-1.1-0.4-1.6c0-0.2,0.2-0.9,0.2-0.9s0,0.4,0.2,0.8
			c0.2,0.4,0.4,0.9,0.5,1.1c0.1,0.3,0,1,0,1s0.2-0.7,0.2-1.4c0-0.6-0.5-1.1-0.6-1.6l0-0.9c0,0,0,0.2,0.4,0.8c0.3,0.5,0.7,0.9,1,1.3
			c2.8,0.4,4.9,1.9,4.8,3.6c0,0.1,0,0.3,0,0.4c-0.8,1-1.7,1.8-2.8,2.4c0.6-0.4,0.9-0.9,0.9-1.4c0-1-1.2-1.8-2.8-2.2
			c-0.2,0.7-0.4,1.3-0.4,1.3l0.4,0.4l0.5,1c1,0.4,1.9,1.2,2.5,2.2c3.1-1.7,5.2-5.2,5.2-9.3c0.1-5.8-4.2-10.6-9.6-10.7
			C102.4,3.3,98,8,97.9,13.8c0,4,2,7.5,5,9.4C103.6,22.3,104.4,21.5,105.5,21.1z M108.7,5.2c3.4,0.5,6.2,3.4,6.8,7
			c-0.2-0.6-0.7-1.5-1.5-2.3c-1.1-1-2.5-1.9-5.3-2.1L108.7,5.2z M108.7,8.6c3.5,0.2,4.5,1.5,5.1,2c1.2,0.9,1.8,2.6,1.8,2.6
			c0,0.3,0,0.5,0,0.9c0,0.6-0.1,1.2-0.2,1.8c0-2.2-3-4-6.8-4.3L108.7,8.6z M108.7,12.3c3.7,0.3,6.6,2.2,6.6,4.3c0,0.2,0,0.3-0.1,0.5
			c-0.2,1-1,2-1,2s0.1-0.4,0-0.7c-0.2-1.8-2.4-3.2-5.6-3.5L108.7,12.3z M106.6,5.2l0,2.7c-2.8,0.1-4.2,1-5.4,2
			c-0.9,0.7-1.4,1.6-1.6,2.2C100.4,8.4,103.2,5.6,106.6,5.2z M99.5,13c0,0,0.4-1.3,1.9-2.6c0.6-0.5,1.7-1.7,5.2-1.9l0,2.9
			c-3.9,0.2-6.9,2-6.9,4.2C99.5,15.1,99.5,13.4,99.5,13z M100,17c0-0.2-0.1-0.3,0-0.5c0-2.2,2.9-3.9,6.6-4.2l0,2.6
			c-3.1,0.2-5.3,1.6-5.6,3.4c-0.1,0.4,0,0.7,0,0.7S100.2,18,100,17z"/>
		<path id="XMLID_107045_" class="st4" d="M109.3,18.4c1.6,0.4,2.7,1.2,2.6,2.1c0,0.5-0.4,1-0.9,1.4c1.1-0.6,2.1-1.4,2.8-2.4
			c0-0.1,0-0.3,0-0.4c0-1.7-1.8-3.1-4.6-3.5c0.1,0.2,0.2,0.4,0.2,0.6C109.7,16.8,109.5,17.7,109.3,18.4z"/>
		<path id="XMLID_107044_" class="st4" d="M106.3,16.1l0.3-0.8c-3,0.3-5.4,1.9-5.4,3.7c0,0.1,0,0.3,0,0.4c0.7,1,1.7,1.9,2.8,2.4
			c-0.6-0.4-0.9-0.9-0.9-1.4c0-1,1-1.8,2.6-2.1c0-0.2-0.1-0.3-0.1-0.5C105.6,17.2,106.3,16.1,106.3,16.1z"/>
		<path id="XMLID_107043_" class="st4" d="M109.9,31.1c0,0-0.1-0.1-0.1-0.1l-1.2,0.6l0,1.2c0.4-0.1,0.8-0.2,1.2-0.4
			c0-0.1,0.1-0.2,0.1-0.4"/>
		<path id="XMLID_107042_" class="st4" d="M108.5,29.9c0,0,1.3,0.8,1.4,1"/>
		<path id="XMLID_107041_" class="st4" d="M108.6,27.8l0,0.6l0,1c0,0,0.1,0,0.1,0"/>
		<line id="XMLID_107040_" class="st4" x1="108.6" y1="24.1" x2="108.6" y2="28"/>
		<path id="XMLID_107039_" class="st4" d="M108.9,22.8"/>
		<path id="XMLID_107038_" class="st5" d="M111.4,31.1c0.9-0.5,1.7-2.7,1.7-4.2c0,0,0,0,0-0.1c0-1.1-0.2-2.1-0.7-2.9
			c-0.1-0.2-0.2-0.4-0.4-0.6c-0.6-1-1.5-1.7-2.5-2.2l-0.5-1l-1.2,0c0.1,0.3,0.3,0.6,0.3,0.8c0.2,0.8,0.3,1.7,0.3,1.7"/>
		<path id="XMLID_107037_" class="st4" d="M110,32.3c0,0,0.1,0,0.1-0.1"/>
		<path id="XMLID_107036_" class="st5" d="M106.4,23.3l0-0.6c0,0,0.1-1,0.3-1.7c0.1-0.2,0.2-0.5,0.4-0.8l-1.2,0l-0.5,1
			c-1,0.4-1.9,1.2-2.5,2.1c-0.1,0.2-0.2,0.4-0.4,0.6c-0.5,0.9-0.7,1.9-0.7,3c0,0,0,0,0,0c0,3,1.9,5.5,4.5,6.1l0-1.2l-1.3-0.7
			l1.3-0.6l0-0.4"/>
		<polyline id="XMLID_107035_" class="st4" points="106.4,26.3 106.4,25.2 106.4,25 		"/>
		<polyline id="XMLID_107034_" class="st4" points="106.3,28.9 106.3,28.3 106.4,27.5 		"/>
		<path id="XMLID_107033_" class="st5" d="M109.7,32.5c-0.4,0.2-0.8,0.3-1.2,0.4l0,1.9"/>
		<path id="XMLID_107032_" class="st4" d="M110.1,32.3c0,0-0.1,0-0.1,0.1"/>
		<path id="XMLID_107031_" class="st4" d="M116.8,7.5c0.3,0.4,0.6,0.8,0.8,1.2L117,9.2c-0.2-0.4-0.4-0.8-0.6-1.2L116.8,7.5z"/>
		<path id="XMLID_107030_" class="st4" d="M115.1,5.6c0.4,0.3,0.7,0.7,1,1L115.7,7c-0.3-0.4-0.5-0.8-0.8-1.2L115.1,5.6z"/>
		<path id="XMLID_107029_" class="st4" d="M114.2,4.9L114.2,4.9c-0.1,0-0.1-0.1-0.2-0.1C114.1,4.8,114.2,4.9,114.2,4.9z"/>
		<path id="XMLID_107028_" class="st4" d="M101.4,4.7c-0.1,0.1-0.1,0.1-0.2,0.2l0,0C101.3,4.7,101.4,4.7,101.4,4.7z"/>
		<path id="XMLID_107027_" class="st4" d="M100.4,5.5l0.2,0.2c-0.3,0.4-0.6,0.7-0.8,1.1l-0.4-0.4C99.7,6.1,100,5.8,100.4,5.5z"/>
		<path id="XMLID_107026_" class="st4" d="M98.6,7.3l0.5,0.5c-0.2,0.4-0.4,0.8-0.6,1.2l-0.7-0.4C98,8.1,98.3,7.7,98.6,7.3z"/>
		<path id="XMLID_107025_" class="st4" d="M97.9,13.8"/>
		<path id="XMLID_107024_" class="st0" d="M101.8,26.8c-0.3-0.2-0.6-0.3-0.8-0.5l0.6-0.8l-0.9-0.7l-0.6,0.8c-0.4-0.3-0.7-0.7-1-1
			l0.7-0.7L99.1,23l-0.7,0.7c-0.3-0.4-0.6-0.8-0.8-1.2l0.8-0.5l-0.5-1l-0.8,0.5c-0.2-0.5-0.4-0.9-0.6-1.4l0.9-0.3l-0.3-1.1l-0.9,0.3
			c-0.1-0.5-0.2-1-0.3-1.5l0.9-0.1l-0.1-1.2l-0.9,0.1c0-0.3,0-0.5,0-0.8c0-0.3,0-0.5,0-0.8l0.9,0.1l0.1-1.2L96,13.5
			c0.1-0.5,0.2-1,0.3-1.5l0.9,0.3l0.3-1.1l-0.9-0.3c0.2-0.5,0.4-0.9,0.6-1.4L98,10c-0.4,1.1-0.7,2.4-0.7,3.7c0,4.3,2.1,8.1,5.3,10.1
			"/>
		<path id="XMLID_107023_" class="st0" d="M112.5,23.9c3.3-1.9,5.5-5.7,5.6-10c0-1.3-0.2-2.5-0.7-3.7l0.8-0.5
			c0.2,0.5,0.4,0.9,0.6,1.4l-0.9,0.3l0.3,1.1l0.9-0.3c0.1,0.5,0.2,1,0.3,1.5l-0.9,0.1l0.1,1.2l0.9-0.1c0,0.3,0,0.5,0,0.8
			c0,0.3,0,0.5,0,0.8l-0.9-0.1l-0.1,1.2l0.9,0.1c-0.1,0.5-0.2,1-0.3,1.5l-0.9-0.3l-0.3,1.1l0.9,0.3c-0.2,0.5-0.4,0.9-0.6,1.4
			l-0.8-0.5l-0.5,1l0.8,0.5c-0.3,0.4-0.5,0.8-0.8,1.2l-0.7-0.7l-0.7,0.9l0.7,0.7c-0.3,0.4-0.7,0.7-1.1,1l-0.5-0.8l-0.9,0.7l0.5,0.8
			c-0.3,0.2-0.6,0.4-0.9,0.6"/>
		<g id="XMLID_107018_">
			<path id="XMLID_13_" class="st0" d="M106.6,15.6C106.6,15.6,106.6,15.6,106.6,15.6L106.6,15.6L106.6,15.6z M106.6,15.6l-0.2,1.3
				c0,0.2,0,0.4,0.1,0.6c0.1,0.1,0.1,0.3,0.1,0.3c0.1,0.3,0.1,0.6,0.1,0.6l0.1-0.7C106.9,17.7,106.6,16,106.6,15.6L106.6,15.6z"/>
		</g>
		<path id="XMLID_107004_" class="st0" d="M99.1,7.8l-0.5-0.5c-0.3,0.4-0.6,0.8-0.8,1.2L98.4,9C98.6,8.6,98.8,8.2,99.1,7.8z"/>
		<path id="XMLID_107003_" class="st0" d="M100.5,5.7l-0.2-0.2c-0.4,0.3-0.7,0.7-1.1,1l0.4,0.4C100,6.4,100.2,6,100.5,5.7z"/>
		<path id="XMLID_107002_" class="st0" d="M101.4,4.7c-0.1,0-0.1,0.1-0.2,0.1l0,0C101.3,4.8,101.4,4.7,101.4,4.7z"/>
		<path id="XMLID_96714_" class="st0" d="M117.7,8.8c-0.2-0.4-0.5-0.9-0.8-1.2L116.3,8c0.2,0.4,0.4,0.8,0.6,1.2L117.7,8.8z"/>
		<path id="XMLID_96713_" class="st0" d="M116.1,6.6c-0.3-0.4-0.7-0.7-1-1l-0.2,0.2c0.3,0.4,0.6,0.8,0.8,1.2L116.1,6.6z"/>
		<path id="XMLID_96673_" class="st4" d="M102.6,23.8c-3.2-2-5.4-5.8-5.3-10.1c0-1.3,0.3-2.5,0.7-3.7l-0.8-0.5
			c-0.2,0.4-0.4,0.9-0.6,1.4l0.9,0.3l-0.3,1.1L96.3,12c-0.1,0.5-0.2,1-0.3,1.5l0.9,0.1l-0.1,1.2l-0.9-0.1c0,0.3,0,0.5,0,0.8
			c0,0.3,0,0.5,0,0.8l0.9-0.1l0.1,1.2l-0.9,0.1c0.1,0.5,0.2,1,0.3,1.5l0.9-0.3l0.3,1.1L96.5,20c0.2,0.5,0.3,1,0.6,1.4l0.8-0.5l0.5,1
			l-0.8,0.5c0.2,0.4,0.5,0.9,0.8,1.2l0.7-0.7l0.7,0.9l-0.7,0.7c0.3,0.4,0.7,0.7,1,1l0.6-0.8l0.9,0.7l-0.6,0.8
			c0.3,0.2,0.5,0.4,0.8,0.5c0,0,0,0,0,0C101.8,25.7,102.1,24.7,102.6,23.8z"/>
		<path id="XMLID_96672_" class="st0" d="M114.2,4.9c-0.1,0-0.1-0.1-0.2-0.1C114.1,4.8,114.2,4.9,114.2,4.9L114.2,4.9z"/>
		<polyline id="XMLID_96671_" class="st5" points="106.3,36.9 107.4,36.9 108.8,37 108.8,35.9 108.5,35.9 108.5,34.9 		"/>
		<polyline id="XMLID_96666_" class="st5" points="106.3,29.8 106.3,30.3 105,30.9 106.3,31.6 106.3,32.8 106.3,35.9 106,35.9 
			106,36.7 		"/>
		<path id="XMLID_96665_" class="st5" d="M108.5,35.1l0-2.2l0-1.2l1.2-0.6c0,0,0,0,0,0c-0.2-0.1-0.3-0.2-0.3-0.2"/>
		<polyline id="XMLID_96664_" class="st5" points="106.4,27.5 106.3,28.3 106.3,29.3 		"/>
		<polyline id="XMLID_85440_" class="st5" points="108.6,29.7 108.6,28.4 108.6,27.8 		"/>
		<polyline id="XMLID_85439_" class="st5" points="106.4,25 106.4,25.2 106.4,27 		"/>
		<path id="XMLID_85438_" class="st5" d="M108.6,24.5c0-0.1,0-0.2,0-0.4l0-1.4c0,0,0-1-0.3-1.7c-0.1-0.3-0.2-0.6-0.3-0.8
			c-0.2-0.5-0.4-1-0.4-1s-0.2,0.4-0.5,0.9c-0.1,0.3-0.3,0.6-0.4,0.8c-0.3,0.8-0.3,1.7-0.3,1.7l0,1.3"/>
		<path id="XMLID_73382_" class="st6" d="M111.6,30.4c0,0-1.2,1-1.6,1.8c0,0.1-0.1,0.2-0.1,0.3c-0.3,0.9,0,1.4,0,1.4
			s-0.2,0.3-0.4,0.4c-0.1,0.1-0.3,0.1-0.4,0.1c0.3-0.5,0.5-1.2,0.7-1.9c0-0.1,0.1-0.2,0.1-0.4c0.1-0.5,0.1-1,0.1-1.4
			c0-0.1,0.1-0.2,0.2-0.3c0.1-0.1,0.2-0.2,0.2-0.2s0.8-0.3,0.8-1.5c0-0.2,0-0.5-0.1-0.7c-0.1-0.8-0.4-1.6-0.4-1.6s-0.4,0.5-0.6,1.2
			c-0.1,0.3-0.2,0.5-0.2,0.8c-0.2,1.5,0.3,1.9,0.3,1.9s0,0.1-0.1,0.2c-0.1,0.1-0.1,0.1-0.1,0.1c-0.1-1.1-0.4-2-0.8-2.8
			c0,0,0-0.1,0.1-0.3c0-0.1,0-0.1,0-0.2c0-0.2,0-0.4,0-0.4s0.7-0.1,0.4-1.7c0-0.1,0-0.2,0-0.3c0-0.1-0.1-0.3-0.1-0.4
			c-0.3-0.7-0.7-1.4-0.7-1.4s-0.2,0.6-0.3,1.3c0,0.1,0,0.2,0,0.4c0,0.2,0,0.4,0,0.6c0,0.1,0,0.1,0,0.2c0,0.1,0,0.2,0,0.3
			c0.2,0.9,0.7,1.1,0.7,1.1s0,0.2,0,0.3c0,0.1,0,0.3-0.1,0.3c-0.2-0.4-0.4-0.7-0.7-1c-0.5-0.6-0.9-1-0.9-1s0,0,0,0
			c0,0-0.1-0.3-0.3-0.7c-0.2-0.3-0.4-0.7-0.8-1c-0.1-0.1-0.2-0.1-0.3-0.2c-0.8-0.6-1.8-0.8-1.8-0.8s0.1,0.8,0.8,1.7
			c0.1,0.1,0.2,0.2,0.3,0.3c0.2,0.2,0.5,0.4,0.8,0.5c0.1,0.1,0.2,0.1,0.3,0.2c0.5,0.2,0.8,0.2,0.8,0.2s0.5,0.4,1,1.2
			c0.2,0.3,0.4,0.6,0.5,0.9c0,0-0.1,0-0.1-0.1c-0.1,0-0.2,0-0.2,0s0-0.3-0.2-0.6c-0.2-0.3-0.6-0.6-1.4-0.6c-0.3,0-0.6,0-0.8,0
			c-0.7,0.1-1.4,0.3-1.4,0.3s0.7,0.6,1.4,1c0.2,0.1,0.4,0.2,0.6,0.3c0,0,0,0,0,0c0.4,0.1,0.8,0.2,1.1,0.1c0.2,0,0.4-0.1,0.6-0.2
			c0.2-0.1,0.2-0.2,0.2-0.2s0.1,0,0.2,0.1c0.1,0,0.2,0.1,0.2,0.1c0,0.1,0.1,0.2,0.1,0.4c0.3,0.8,0.5,1.7,0.5,2.8
			c-0.1-0.1-0.4-0.3-0.4-0.3s0-0.8-0.9-1.2c0,0-0.1,0-0.1,0c-0.9-0.3-1.7-0.4-2.2-0.4c-0.5,0-0.9,0.1-0.9,0.1s0.4,0.4,0.9,0.8
			c0.3,0.2,0.6,0.5,0.9,0.6c1.2,0.6,2.2,0.4,2.2,0.4s0.1,0,0.3,0.2c0,0,0,0,0,0c0.1,0,0.1,0.1,0.1,0.1c0,0.3,0,0.6-0.1,0.9
			c0,0.1-0.1,0.2-0.1,0.4c-0.2,1-0.7,1.7-1.2,2.3c-1.1,1.2-2.4,1.6-2.6,1.6c0,0,0,0,0,0l0,0.7c0,0,0.1,0,0.4-0.2
			c0.5-0.2,1.4-0.7,2.2-1.7c0.2-0.2,0.4-0.5,0.6-0.8c0.1,0,0.4,0,0.5-0.1c0.3-0.2,0.6-0.6,0.6-0.6s0.7,0,1-0.7
			c0.4-0.7,0.5-1.6,0.5-2.2C111.6,30.6,111.6,30.4,111.6,30.4z"/>
	</g>
</g>
</svg>
