<?xml version="1.0" encoding="utf-8"?>
<!-- Generator: Adobe Illustrator 19.0.0, SVG Export Plug-In . SVG Version: 6.00 Build 0)  -->
<svg version="1.1" id="Layer_1" xmlns="http://www.w3.org/2000/svg" xmlns:xlink="http://www.w3.org/1999/xlink" x="0px" y="0px"
	 viewBox="0 0 104.2 95" style="enable-background:new 0 0 104.2 95;" xml:space="preserve">
<style type="text/css">
	.st0{fill:#FFF6EE;}
	.st1{fill:#CFA46B;}
	.st2{fill:#A34824;}
	.st3{clip-path:url(#XMLID_82_);fill:none;stroke:#A34824;stroke-width:0.6011;stroke-miterlimit:10;}
	.st4{clip-path:url(#XMLID_82_);fill:none;stroke:#A34824;stroke-width:0.8499;stroke-miterlimit:10;}
	.st5{clip-path:url(#XMLID_82_);fill:none;stroke:#A34824;stroke-width:0.7373;stroke-miterlimit:10;}
	.st6{clip-path:url(#XMLID_82_);}
	.st7{fill:none;stroke:#A34824;stroke-width:0.7373;stroke-miterlimit:10;}
	.st8{fill:#A34924;}
	.st9{clip-path:url(#XMLID_102_);fill:none;stroke:#A34824;stroke-width:0.8004;stroke-miterlimit:10;}
	.st10{fill:#E4C092;stroke:#A34824;stroke-width:1.4745;stroke-miterlimit:10;}
	.st11{clip-path:url(#XMLID_104_);fill:#A34824;}
	.st12{clip-path:url(#XMLID_106_);fill:#FFE6CA;stroke:#A34A24;stroke-width:0.4117;stroke-miterlimit:10;}
	.st13{fill:#2D1710;stroke:#A34A24;stroke-width:0.5858;stroke-miterlimit:10;}
</style>
<g id="XMLID_2361_">
	<g id="XMLID_688_">
		<g id="XMLID_690_">
			<g id="XMLID_750_">
				<g id="XMLID_752_">
					<defs>
						<polygon id="XMLID_753_" points="67.4,17.1 54.5,8.4 27.1,8.9 27.5,65.8 67.7,65.2 						"/>
					</defs>
					<clipPath id="XMLID_69_">
						<use xlink:href="#XMLID_753_"  style="overflow:visible;"/>
					</clipPath>
				</g>
			</g>
			<g id="XMLID_704_">
				<defs>
					<path id="XMLID_705_" d="M93.6,66.6l0-16.3L77.7,29.7c-0.6,0.3,1.4,3.9,4.6,11.4c0.2,0.4,0.2,0.9,0,1.4
						c-2.6,5.9-5.3,12.7-7.9,18.6l1.4,5.6L93.6,66.6z"/>
				</defs>
				<clipPath id="XMLID_70_">
					<use xlink:href="#XMLID_705_"  style="overflow:visible;"/>
				</clipPath>
			</g>
			<g id="XMLID_694_">
				<g id="XMLID_700_">
					<defs>
						<path id="XMLID_701_" d="M71.4,60.7c2.7-5.8,4.7-10.6,7.4-16.4c0.1-0.5,0.8-3.1,0.8-3.7c0-1.4-1.2-1.9-1.5-2.7
							c0.1-1-0.9-2.5-1.4-4.3c-0.3-0.9-1.4-2.9-2.4-4.1c-1.9-2.2-3.4-2.7-3.8-2.1c-0.2,0.2,0.2,0.6,0.5,1.2c2.5,4.8,1.6,6.4,3.7,9.1
							c0.7,0.9,1.2,1.2,1.4,2.1c0.4,1.5-0.4,2.9-0.7,3.5c-2.7,4.9-10,10.3-14.3,13.1c-1.7,1.1-4,0.5-4.9-1.3c0,0-5.2-10.8-5.2-10.8
							c-0.8-1.1,2,13.5,2.3,14.7c0.4,1.3,0.8,3.1,1,3.8c0.1,0.3,0.6-0.3,1-0.9c0.4-0.6,1.2-0.7,1.8-0.3c2.4,1.6,6.3,3.9,8.6,4.7
							c2.1-0.1,5.2,0.1,7.4,0L71.4,60.7z"/>
					</defs>
					<clipPath id="XMLID_78_">
						<use xlink:href="#XMLID_701_"  style="overflow:visible;"/>
					</clipPath>
				</g>
				<g id="XMLID_697_">
					<defs>
						<path id="XMLID_698_" d="M71.4,60.7c2.7-5.8,4.7-10.6,7.4-16.4c0.1-0.5,0.8-3.1,0.8-3.7c0-1.4-1.2-1.9-1.5-2.7
							c0.1-1-0.9-2.5-1.4-4.3c-0.3-0.9-1.4-2.9-2.4-4.1c-1.9-2.2-3.4-2.7-3.8-2.1c-0.2,0.2,0.2,0.6,0.5,1.2c2.5,4.8,1.6,6.4,3.7,9.1
							c0.7,0.9,1.2,1.2,1.4,2.1c0.4,1.5-0.4,2.9-0.7,3.5c-2.7,4.9-10,10.3-14.3,13.1c-1.7,1.1-4,0.5-4.9-1.3c0,0-5.2-10.8-5.2-10.8
							c-0.8-1.1,2,13.5,2.3,14.7c0.4,1.3,0.8,3.1,1,3.8c0.1,0.3,0.6-0.3,1-0.9c0.4-0.6,1.2-0.7,1.8-0.3c2.4,1.6,6.3,3.9,8.6,4.7
							c2.1-0.1,5.2,0.1,7.4,0L71.4,60.7z"/>
					</defs>
					<clipPath id="XMLID_79_">
						<use xlink:href="#XMLID_698_"  style="overflow:visible;"/>
					</clipPath>
				</g>
				<g id="XMLID_695_">
					<defs>
						<path id="XMLID_696_" d="M71.4,60.7c2.7-5.8,4.7-10.6,7.4-16.4c0.1-0.5,0.8-3.1,0.8-3.7c0-1.4-1.2-1.9-1.5-2.7
							c0.1-1-0.9-2.5-1.4-4.3c-0.3-0.9-1.4-2.9-2.4-4.1c-1.9-2.2-3.4-2.7-3.8-2.1c-0.2,0.2,0.2,0.6,0.5,1.2c2.5,4.8,1.6,6.4,3.7,9.1
							c0.7,0.9,1.2,1.2,1.4,2.1c0.4,1.5-0.4,2.9-0.7,3.5c-2.7,4.9-10,10.3-14.3,13.1c-1.7,1.1-4,0.5-4.9-1.3c0,0-5.2-10.8-5.2-10.8
							c-0.8-1.1,2,13.5,2.3,14.7c0.4,1.3,0.8,3.1,1,3.8c0.1,0.3,0.6-0.3,1-0.9c0.4-0.6,1.2-0.7,1.8-0.3c2.4,1.6,6.3,3.9,8.6,4.7
							c2.1-0.1,5.2,0.1,7.4,0L71.4,60.7z"/>
					</defs>
					<clipPath id="XMLID_80_">
						<use xlink:href="#XMLID_696_"  style="overflow:visible;"/>
					</clipPath>
				</g>
			</g>
			<g id="XMLID_691_">
				<defs>
					<path id="XMLID_692_" d="M70,56.2c0,0.1-0.4,0.8-1.1,1c-0.6,0.2-1.1-0.1-1.2-0.2c-3.3-9.6-6.6-19.2-9.9-28.8l0.1-3.4l2.3,2.6
						C63.4,37,66.7,46.6,70,56.2z"/>
				</defs>
				<clipPath id="XMLID_81_">
					<use xlink:href="#XMLID_692_"  style="overflow:visible;"/>
				</clipPath>
			</g>
		</g>
	</g>
	<g id="XMLID_575_">
		<rect id="XMLID_687_" x="3.6" y="3.3" class="st0" width="96.6" height="87.8"/>
		<rect id="XMLID_686_" x="6.6" y="5.5" class="st1" width="90.6" height="65.1"/>
		<g id="XMLID_683_">
			<g>
				<path id="XMLID_102_" class="st2" d="M31.6,74.1l0.6-2c0.7,0.3,1.3,0.5,2.2,0.5l-0.5,1.5H31.6z M40.8,75.8l-0.2,1.5h-8.5
					l0.6-2.8l1.2-0.3l-0.1,1.6H40.8z M37.7,82.9l1.4-5.1l1.5-0.4l-1.5,6.8l-4.7,0.9l0.4-1.6L37.7,82.9z"/>
				<path id="XMLID_106_" class="st2" d="M42.1,77.3l0.6-2c0.7,0.3,1.3,0.5,2.2,0.5h0.6l-0.5,1.5H42.1z M45.1,84.7l-1.8,0.5l0.6-7.4
					l1.2-0.3V84.7z"/>
				<path id="XMLID_109_" class="st2" d="M50.4,83.6l-3.7,1.9l-0.1-1.7l3.5-1.4L50.4,83.6z M47.7,77.3l0.6-2
					c0.7,0.3,1.3,0.5,2.2,0.5H52l-0.5,1.5H47.7z M52.5,84.7l-1.8,0.5l-0.4-7.4l1.2-0.3L52.5,84.7z"/>
				<path id="XMLID_113_" class="st2" d="M53.7,77.3l0.6-2c0.7,0.3,1.3,0.5,2.2,0.5h4l0.8,1.5H53.7z M61.6,84.7l-1.8,0.5l0.4-7.4
					l1.3-0.2L61.6,84.7z"/>
				<path id="XMLID_116_" class="st2" d="M65,77.8l1.2-0.3L66,84.7l-3.6,0.5l0.5-1.8l1.5,0L65,77.8z M63.8,77.3l0.6-2
					c0.7,0.3,1.3,0.5,2.2,0.5h6.1l-0.5,1.5H63.8z M72.5,84.7l-1.8,0.5l0.3-7.4l1.2-0.3L72.5,84.7z"/>
			</g>
			<g>
				<path id="XMLID_83_" class="st2" d="M31.6,74.1l0.6-2c0.7,0.3,1.3,0.5,2.2,0.5l-0.5,1.5H31.6z M40.8,75.8l-0.2,1.5h-8.5l0.6-2.8
					l1.2-0.3l-0.1,1.6H40.8z M37.7,82.9l1.4-5.1l1.5-0.4l-1.5,6.8l-4.7,0.9l0.4-1.6L37.7,82.9z"/>
				<path id="XMLID_88_" class="st2" d="M42.1,77.3l0.6-2c0.7,0.3,1.3,0.5,2.2,0.5h0.6l-0.5,1.5H42.1z M45.1,84.7l-1.8,0.5l0.6-7.4
					l1.2-0.3V84.7z"/>
				<path id="XMLID_91_" class="st2" d="M50.4,83.6l-3.7,1.9l-0.1-1.7l3.5-1.4L50.4,83.6z M47.7,77.3l0.6-2c0.7,0.3,1.3,0.5,2.2,0.5
					H52l-0.5,1.5H47.7z M52.5,84.7l-1.8,0.5l-0.4-7.4l1.2-0.3L52.5,84.7z"/>
				<path id="XMLID_95_" class="st2" d="M53.7,77.3l0.6-2c0.7,0.3,1.3,0.5,2.2,0.5h4l0.8,1.5H53.7z M61.6,84.7l-1.8,0.5l0.4-7.4
					l1.3-0.2L61.6,84.7z"/>
				<path id="XMLID_98_" class="st2" d="M65,77.8l1.2-0.3L66,84.7l-3.6,0.5l0.5-1.8l1.5,0L65,77.8z M63.8,77.3l0.6-2
					c0.7,0.3,1.3,0.5,2.2,0.5h6.1l-0.5,1.5H63.8z M72.5,84.7l-1.8,0.5l0.3-7.4l1.2-0.3L72.5,84.7z"/>
			</g>
			<g id="XMLID_684_">
				<path id="XMLID_28_" class="st2" d="M31.6,74.1l0.6-2c0.7,0.3,1.3,0.5,2.2,0.5l-0.5,1.5H31.6z M40.8,75.8l-0.2,1.5h-8.5l0.6-2.8
					l1.2-0.3l-0.1,1.6H40.8z M37.7,82.9l1.4-5.1l1.5-0.4l-1.5,6.8l-4.7,0.9l0.4-1.6L37.7,82.9z"/>
				<path id="XMLID_32_" class="st2" d="M42.1,77.3l0.6-2c0.7,0.3,1.3,0.5,2.2,0.5h0.6l-0.5,1.5H42.1z M45.1,84.7l-1.8,0.5l0.6-7.4
					l1.2-0.3V84.7z"/>
				<path id="XMLID_35_" class="st2" d="M50.4,83.6l-3.7,1.9l-0.1-1.7l3.5-1.4L50.4,83.6z M47.7,77.3l0.6-2c0.7,0.3,1.3,0.5,2.2,0.5
					H52l-0.5,1.5H47.7z M52.5,84.7l-1.8,0.5l-0.4-7.4l1.2-0.3L52.5,84.7z"/>
				<path id="XMLID_39_" class="st2" d="M53.7,77.3l0.6-2c0.7,0.3,1.3,0.5,2.2,0.5h4l0.8,1.5H53.7z M61.6,84.7l-1.8,0.5l0.4-7.4
					l1.3-0.2L61.6,84.7z"/>
				<path id="XMLID_42_" class="st2" d="M65,77.8l1.2-0.3L66,84.7l-3.6,0.5l0.5-1.8l1.5,0L65,77.8z M63.8,77.3l0.6-2
					c0.7,0.3,1.3,0.5,2.2,0.5h6.1l-0.5,1.5H63.8z M72.5,84.7l-1.8,0.5l0.3-7.4l1.2-0.3L72.5,84.7z"/>
			</g>
		</g>
		<g id="XMLID_577_">
			<g id="XMLID_638_">
				<g id="XMLID_640_">
					<defs>
						<polygon id="XMLID_641_" points="67.4,17.1 54.5,8.4 27.1,8.9 27.5,65.8 67.7,65.2 						"/>
					</defs>
					<use xlink:href="#XMLID_641_"  style="overflow:visible;fill:#FFE6CA;"/>
					<clipPath id="XMLID_82_">
						<use xlink:href="#XMLID_641_"  style="overflow:visible;"/>
					</clipPath>
					<line id="XMLID_682_" class="st3" x1="-10.3" y1="154.6" x2="76.1" y2="152.3"/>
					<line id="XMLID_681_" class="st3" x1="-8.5" y1="151.4" x2="77.9" y2="149.1"/>
					<line id="XMLID_680_" class="st4" x1="-7.6" y1="147.1" x2="78.8" y2="144.8"/>
					<line id="XMLID_679_" class="st4" x1="-7.9" y1="143.3" x2="78.5" y2="141"/>
					<line id="XMLID_678_" class="st4" x1="-6.1" y1="140.1" x2="80.2" y2="137.8"/>
					<line id="XMLID_677_" class="st4" x1="-5.2" y1="135.8" x2="81.1" y2="133.5"/>
					<line id="XMLID_676_" class="st4" x1="-5.6" y1="132" x2="80.8" y2="129.7"/>
					<line id="XMLID_675_" class="st4" x1="-3.8" y1="128.8" x2="82.6" y2="126.5"/>
					<line id="XMLID_674_" class="st4" x1="-2.9" y1="124.5" x2="83.5" y2="122.2"/>
					<line id="XMLID_673_" class="st4" x1="-3.2" y1="120.7" x2="83.2" y2="118.4"/>
					<line id="XMLID_672_" class="st4" x1="-1.5" y1="117.7" x2="84.9" y2="115.4"/>
					<line id="XMLID_671_" class="st4" x1="-0.6" y1="113.4" x2="85.8" y2="111.1"/>
					<line id="XMLID_670_" class="st4" x1="-0.9" y1="109.6" x2="85.5" y2="107.3"/>
					<line id="XMLID_669_" class="st4" x1="0.9" y1="106.4" x2="87.3" y2="104.2"/>
					<line id="XMLID_668_" class="st5" x1="1.8" y1="102.1" x2="88.2" y2="99.8"/>
					<line id="XMLID_667_" class="st5" x1="1.4" y1="98.3" x2="87.8" y2="96.1"/>
					<line id="XMLID_666_" class="st5" x1="2" y1="93.5" x2="88.4" y2="91.2"/>
					<line id="XMLID_665_" class="st5" x1="2.9" y1="89.2" x2="89.2" y2="86.9"/>
					<line id="XMLID_664_" class="st5" x1="2.5" y1="85.4" x2="88.9" y2="83.2"/>
					<line id="XMLID_663_" class="st5" x1="2.8" y1="80.7" x2="89.2" y2="79.5"/>
					<line id="XMLID_662_" class="st5" x1="3.7" y1="76.4" x2="90.1" y2="75.2"/>
					<g id="XMLID_660_" class="st6">
						<line id="XMLID_661_" class="st7" x1="31.6" y1="20.3" x2="63.2" y2="20.3"/>
					</g>
					<g id="XMLID_658_" class="st6">
						<line id="XMLID_659_" class="st7" x1="31.6" y1="23.2" x2="63.2" y2="23.2"/>
					</g>
					<g id="XMLID_656_" class="st6">
						<line id="XMLID_657_" class="st7" x1="31.6" y1="26.6" x2="63.2" y2="26.6"/>
					</g>
					<g id="XMLID_654_" class="st6">
						<line id="XMLID_655_" class="st7" x1="31.6" y1="29.7" x2="63.2" y2="29.7"/>
					</g>
					<g id="XMLID_652_" class="st6">
						<line id="XMLID_653_" class="st7" x1="31.6" y1="32.5" x2="63.2" y2="32.5"/>
					</g>
					<g id="XMLID_650_" class="st6">
						<line id="XMLID_651_" class="st7" x1="31.6" y1="35.7" x2="63.2" y2="35.7"/>
					</g>
					<g id="XMLID_648_" class="st6">
						<line id="XMLID_649_" class="st7" x1="31.6" y1="38.7" x2="63.2" y2="38.7"/>
					</g>
					<g id="XMLID_646_" class="st6">
						<line id="XMLID_647_" class="st7" x1="31.6" y1="41.9" x2="63.2" y2="41.9"/>
					</g>
					<g id="XMLID_644_" class="st6">
						<line id="XMLID_645_" class="st7" x1="31.6" y1="44.7" x2="63.2" y2="44.7"/>
					</g>
					<g id="XMLID_642_" class="st6">
						<line id="XMLID_643_" class="st7" x1="31.6" y1="48.2" x2="63.2" y2="48.2"/>
					</g>
					
						<use xlink:href="#XMLID_641_"  style="overflow:visible;fill:none;stroke:#A34924;stroke-width:0.8788;stroke-miterlimit:10;"/>
				</g>
				<polygon id="XMLID_639_" class="st8" points="67.4,17.1 54.6,8.4 59.5,17.2 				"/>
			</g>
			<g id="XMLID_592_">
				<defs>
					<path id="XMLID_593_" d="M93.6,66.6l0-16.3L77.7,29.7c-0.6,0.3,1.4,3.9,4.6,11.4c0.2,0.4,0.2,0.9,0,1.4
						c-2.6,5.9-5.3,12.7-7.9,18.6l1.4,5.6L93.6,66.6z"/>
				</defs>
				<clipPath id="XMLID_120_">
					<use xlink:href="#XMLID_593_"  style="overflow:visible;"/>
				</clipPath>
				
					<path id="XMLID_637_" style="clip-path:url(#XMLID_120_);fill:none;stroke:#A34824;stroke-width:0.8004;stroke-miterlimit:10;" d="
					M134.7,25.8"/>
				
					<line id="XMLID_636_" style="clip-path:url(#XMLID_120_);fill:none;stroke:#A34824;stroke-width:0.8004;stroke-miterlimit:10;" x1="50.3" y1="32.9" x2="101.4" y2="98"/>
				
					<line id="XMLID_635_" style="clip-path:url(#XMLID_120_);fill:none;stroke:#A34824;stroke-width:0.8004;stroke-miterlimit:10;" x1="51.3" y1="31.8" x2="102.4" y2="97"/>
				
					<line id="XMLID_634_" style="clip-path:url(#XMLID_120_);fill:none;stroke:#A34824;stroke-width:0.8004;stroke-miterlimit:10;" x1="52" y1="30.2" x2="103.1" y2="95.3"/>
				
					<line id="XMLID_633_" style="clip-path:url(#XMLID_120_);fill:none;stroke:#A34824;stroke-width:0.8004;stroke-miterlimit:10;" x1="53.9" y1="30.3" x2="105" y2="95.4"/>
				
					<line id="XMLID_632_" style="clip-path:url(#XMLID_120_);fill:none;stroke:#A34824;stroke-width:0.8004;stroke-miterlimit:10;" x1="55.4" y1="29.3" x2="106.5" y2="94.5"/>
				
					<line id="XMLID_631_" style="clip-path:url(#XMLID_120_);fill:none;stroke:#A34824;stroke-width:0.8004;stroke-miterlimit:10;" x1="56.1" y1="27.7" x2="107.2" y2="92.8"/>
				
					<line id="XMLID_630_" style="clip-path:url(#XMLID_120_);fill:none;stroke:#A34824;stroke-width:0.8004;stroke-miterlimit:10;" x1="58.5" y1="28.3" x2="109.6" y2="93.5"/>
				
					<line id="XMLID_629_" style="clip-path:url(#XMLID_120_);fill:none;stroke:#A34824;stroke-width:0.8004;stroke-miterlimit:10;" x1="59.4" y1="26.9" x2="110.5" y2="92"/>
				
					<line id="XMLID_628_" style="clip-path:url(#XMLID_120_);fill:none;stroke:#A34824;stroke-width:0.8004;stroke-miterlimit:10;" x1="60" y1="25.2" x2="111.1" y2="90.3"/>
				
					<line id="XMLID_627_" style="clip-path:url(#XMLID_120_);fill:none;stroke:#A34824;stroke-width:0.8004;stroke-miterlimit:10;" x1="62" y1="25.1" x2="113.1" y2="90.2"/>
				
					<line id="XMLID_626_" style="clip-path:url(#XMLID_120_);fill:none;stroke:#A34824;stroke-width:0.8004;stroke-miterlimit:10;" x1="63.3" y1="24.4" x2="114.4" y2="89.6"/>
				
					<line id="XMLID_625_" style="clip-path:url(#XMLID_120_);fill:none;stroke:#A34824;stroke-width:0.8004;stroke-miterlimit:10;" x1="64" y1="22.7" x2="115.1" y2="87.9"/>
				
					<line id="XMLID_624_" style="clip-path:url(#XMLID_120_);fill:none;stroke:#A34824;stroke-width:0.8004;stroke-miterlimit:10;" x1="65.5" y1="22.3" x2="116.6" y2="87.5"/>
				
					<line id="XMLID_623_" style="clip-path:url(#XMLID_120_);fill:none;stroke:#A34824;stroke-width:0.8004;stroke-miterlimit:10;" x1="67.3" y1="21.9" x2="118.4" y2="87.1"/>
				
					<line id="XMLID_622_" style="clip-path:url(#XMLID_120_);fill:none;stroke:#A34824;stroke-width:0.8004;stroke-miterlimit:10;" x1="68" y1="20.3" x2="119.1" y2="85.4"/>
				
					<line id="XMLID_621_" style="clip-path:url(#XMLID_120_);fill:none;stroke:#A34824;stroke-width:0.8004;stroke-miterlimit:10;" x1="70.4" y1="20.8" x2="121.5" y2="86"/>
				
					<line id="XMLID_620_" style="clip-path:url(#XMLID_120_);fill:none;stroke:#A34824;stroke-width:0.8004;stroke-miterlimit:10;" x1="71.2" y1="19.5" x2="122.3" y2="84.7"/>
				
					<line id="XMLID_619_" style="clip-path:url(#XMLID_120_);fill:none;stroke:#A34824;stroke-width:0.8004;stroke-miterlimit:10;" x1="71.9" y1="17.8" x2="123" y2="83"/>
				
					<line id="XMLID_618_" style="clip-path:url(#XMLID_120_);fill:none;stroke:#A34824;stroke-width:0.8004;stroke-miterlimit:10;" x1="72" y1="15.8" x2="123.1" y2="80.9"/>
				
					<line id="XMLID_617_" style="clip-path:url(#XMLID_120_);fill:none;stroke:#A34824;stroke-width:0.8004;stroke-miterlimit:10;" x1="75.5" y1="17.9" x2="126.6" y2="83"/>
				
					<line id="XMLID_616_" style="clip-path:url(#XMLID_120_);fill:none;stroke:#A34824;stroke-width:0.8004;stroke-miterlimit:10;" x1="75.2" y1="15.2" x2="126.3" y2="80.4"/>
				
					<path id="XMLID_615_" style="clip-path:url(#XMLID_120_);fill:none;stroke:#A34824;stroke-width:0.8004;stroke-miterlimit:10;" d="
					M108.9,45.1"/>
				
					<line id="XMLID_614_" style="clip-path:url(#XMLID_120_);fill:none;stroke:#A34824;stroke-width:0.8004;stroke-miterlimit:10;" x1="24.4" y1="52.2" x2="75.5" y2="117.3"/>
				
					<line id="XMLID_613_" style="clip-path:url(#XMLID_120_);fill:none;stroke:#A34824;stroke-width:0.8004;stroke-miterlimit:10;" x1="25.5" y1="51.2" x2="76.6" y2="116.3"/>
				
					<line id="XMLID_612_" style="clip-path:url(#XMLID_120_);fill:none;stroke:#A34824;stroke-width:0.8004;stroke-miterlimit:10;" x1="26.1" y1="49.5" x2="77.2" y2="114.6"/>
				
					<line id="XMLID_611_" style="clip-path:url(#XMLID_120_);fill:none;stroke:#A34824;stroke-width:0.8004;stroke-miterlimit:10;" x1="28" y1="49.6" x2="79.1" y2="114.8"/>
				
					<line id="XMLID_610_" style="clip-path:url(#XMLID_120_);fill:none;stroke:#A34824;stroke-width:0.8004;stroke-miterlimit:10;" x1="29.5" y1="48.6" x2="80.6" y2="113.8"/>
				
					<line id="XMLID_609_" style="clip-path:url(#XMLID_120_);fill:none;stroke:#A34824;stroke-width:0.8004;stroke-miterlimit:10;" x1="30.2" y1="47" x2="81.3" y2="112.1"/>
				
					<line id="XMLID_608_" style="clip-path:url(#XMLID_120_);fill:none;stroke:#A34824;stroke-width:0.8004;stroke-miterlimit:10;" x1="32.7" y1="47.6" x2="83.8" y2="112.8"/>
				
					<line id="XMLID_607_" style="clip-path:url(#XMLID_120_);fill:none;stroke:#A34824;stroke-width:0.8004;stroke-miterlimit:10;" x1="33.5" y1="46.2" x2="84.6" y2="111.3"/>
				
					<line id="XMLID_606_" style="clip-path:url(#XMLID_120_);fill:none;stroke:#A34824;stroke-width:0.8004;stroke-miterlimit:10;" x1="34.2" y1="44.5" x2="85.3" y2="109.7"/>
				
					<line id="XMLID_605_" style="clip-path:url(#XMLID_120_);fill:none;stroke:#A34824;stroke-width:0.8004;stroke-miterlimit:10;" x1="36.1" y1="44.4" x2="87.2" y2="109.5"/>
				
					<line id="XMLID_604_" style="clip-path:url(#XMLID_120_);fill:none;stroke:#A34824;stroke-width:0.8004;stroke-miterlimit:10;" x1="37.4" y1="43.7" x2="88.5" y2="108.9"/>
				
					<line id="XMLID_603_" style="clip-path:url(#XMLID_120_);fill:none;stroke:#A34824;stroke-width:0.8004;stroke-miterlimit:10;" x1="38.1" y1="42" x2="89.2" y2="107.2"/>
				
					<line id="XMLID_602_" style="clip-path:url(#XMLID_120_);fill:none;stroke:#A34824;stroke-width:0.8004;stroke-miterlimit:10;" x1="39.7" y1="41.6" x2="90.8" y2="106.8"/>
				
					<line id="XMLID_601_" style="clip-path:url(#XMLID_120_);fill:none;stroke:#A34824;stroke-width:0.8004;stroke-miterlimit:10;" x1="41.4" y1="41.3" x2="92.5" y2="106.4"/>
				
					<line id="XMLID_600_" style="clip-path:url(#XMLID_120_);fill:none;stroke:#A34824;stroke-width:0.8004;stroke-miterlimit:10;" x1="42.1" y1="39.6" x2="93.2" y2="104.7"/>
				
					<line id="XMLID_599_" style="clip-path:url(#XMLID_120_);fill:none;stroke:#A34824;stroke-width:0.8004;stroke-miterlimit:10;" x1="44.5" y1="40.1" x2="95.6" y2="105.3"/>
				
					<line id="XMLID_598_" style="clip-path:url(#XMLID_120_);fill:none;stroke:#A34824;stroke-width:0.8004;stroke-miterlimit:10;" x1="45.3" y1="38.8" x2="96.4" y2="104"/>
				
					<line id="XMLID_597_" style="clip-path:url(#XMLID_120_);fill:none;stroke:#A34824;stroke-width:0.8004;stroke-miterlimit:10;" x1="46" y1="37.1" x2="97.1" y2="102.3"/>
				
					<line id="XMLID_596_" style="clip-path:url(#XMLID_120_);fill:none;stroke:#A34824;stroke-width:0.8004;stroke-miterlimit:10;" x1="46.1" y1="35.1" x2="97.2" y2="100.2"/>
				
					<line id="XMLID_595_" style="clip-path:url(#XMLID_120_);fill:none;stroke:#A34824;stroke-width:0.8004;stroke-miterlimit:10;" x1="49.6" y1="37.2" x2="100.7" y2="102.4"/>
				
					<line id="XMLID_594_" style="clip-path:url(#XMLID_120_);fill:none;stroke:#A34824;stroke-width:0.8004;stroke-miterlimit:10;" x1="49.4" y1="34.6" x2="100.5" y2="99.7"/>
			</g>
			<path id="XMLID_591_" class="st2" d="M54.8,40.6c0.2,0.7,1.4,6.2,6.4,8.6c4.8,2.3,10.9,0.9,14.9-3.6c-3.5-5.2-7-10.4-10.6-15.5
				c-0.2,3.1-0.4,6.2-0.6,9.2C61.6,39.7,58.2,40.1,54.8,40.6z"/>
			<path id="XMLID_590_" class="st10" d="M78.4,37.9l-2.3-5.3c-0.5-2.1-3-4.6-3-4.6c-0.6-0.4-1.3-0.6-2.1-0.7c-2-0.1-4-0.1-6-0.2
				c0,0-4.7-0.6-5.5,0.4c-0.5,0.7,1.3,4.8,3.4,5l3.3,0.2c-0.1,0.6-0.1,1.3,0.1,2l1,4.1c-0.5,0.2-1,0.4-1.6,0.6
				c-2.1,0.8-4.2,1.9-5.4,2.8c-0.1,0-0.1,0.1-0.2,0.1c-0.3-1.2-0.8-2.4-1.5-3.4l1.6-2.7c0.5-0.8,0.6-3.9,0-5c-0.6-1-1.6-1.3-1.6-1.3
				c-1.7-0.3-2.7,0.6-3.6,2l-3.3,5.5c-1.3,1.3-1.9,3.4-1.6,5.5l2.3,12.4c0.1,0.5,0.2,0.9,0.3,1.3c1,4.5,2.6,9.7,2.6,9.7H73
				c-0.5-1.8-1.2-3.9-1.6-5.7c0.9-1.7,1.8-3.6,2.7-5.4c1.8-3.8,3.4-7.5,4.8-11c0.3-0.4,0.6-1,0.7-1.7C79.9,40.9,79.4,39.1,78.4,37.9
				z"/>
			<g id="XMLID_581_">
				<g id="XMLID_587_">
					<defs>
						<path id="XMLID_588_" d="M71.4,60.7c2.7-5.8,4.7-10.6,7.4-16.4c0.1-0.5,0.8-3.1,0.8-3.7c0-1.4-1.2-1.9-1.5-2.7
							c0.1-1-0.9-2.5-1.4-4.3c-0.3-0.9-1.4-2.9-2.4-4.1c-1.9-2.2-3.4-2.7-3.8-2.1c-0.2,0.2,0.2,0.6,0.5,1.2c2.5,4.8,1.6,6.4,3.7,9.1
							c0.7,0.9,1.2,1.2,1.4,2.1c0.4,1.5-0.4,2.9-0.7,3.5c-2.7,4.9-10,10.3-14.3,13.1c-1.7,1.1-4,0.5-4.9-1.3c0,0-5.2-10.8-5.2-10.8
							c-0.8-1.1,2,13.5,2.3,14.7c0.4,1.3,0.8,3.1,1,3.8c0.1,0.3,0.6-0.3,1-0.9c0.4-0.6,1.2-0.7,1.8-0.3c2.4,1.6,6.3,3.9,8.6,4.7
							c2.1-0.1,5.2,0.1,7.4,0L71.4,60.7z"/>
					</defs>
					<clipPath id="XMLID_121_">
						<use xlink:href="#XMLID_588_"  style="overflow:visible;"/>
					</clipPath>
				</g>
				<g id="XMLID_584_">
					<defs>
						<path id="XMLID_585_" d="M71.4,60.7c2.7-5.8,4.7-10.6,7.4-16.4c0.1-0.5,0.8-3.1,0.8-3.7c0-1.4-1.2-1.9-1.5-2.7
							c0.1-1-0.9-2.5-1.4-4.3c-0.3-0.9-1.4-2.9-2.4-4.1c-1.9-2.2-3.4-2.7-3.8-2.1c-0.2,0.2,0.2,0.6,0.5,1.2c2.5,4.8,1.6,6.4,3.7,9.1
							c0.7,0.9,1.2,1.2,1.4,2.1c0.4,1.5-0.4,2.9-0.7,3.5c-2.7,4.9-10,10.3-14.3,13.1c-1.7,1.1-4,0.5-4.9-1.3c0,0-5.2-10.8-5.2-10.8
							c-0.8-1.1,2,13.5,2.3,14.7c0.4,1.3,0.8,3.1,1,3.8c0.1,0.3,0.6-0.3,1-0.9c0.4-0.6,1.2-0.7,1.8-0.3c2.4,1.6,6.3,3.9,8.6,4.7
							c2.1-0.1,5.2,0.1,7.4,0L71.4,60.7z"/>
					</defs>
					<use xlink:href="#XMLID_585_"  style="overflow:visible;fill:#A34824;"/>
					<clipPath id="XMLID_122_">
						<use xlink:href="#XMLID_585_"  style="overflow:visible;"/>
					</clipPath>
					<path id="XMLID_586_" style="clip-path:url(#XMLID_122_);fill:#A34824;" d="M117.1,16.7"/>
				</g>
				<g id="XMLID_582_">
					<defs>
						<path id="XMLID_583_" d="M71.4,60.7c2.7-5.8,4.7-10.6,7.4-16.4c0.1-0.5,0.8-3.1,0.8-3.7c0-1.4-1.2-1.9-1.5-2.7
							c0.1-1-0.9-2.5-1.4-4.3c-0.3-0.9-1.4-2.9-2.4-4.1c-1.9-2.2-3.4-2.7-3.8-2.1c-0.2,0.2,0.2,0.6,0.5,1.2c2.5,4.8,1.6,6.4,3.7,9.1
							c0.7,0.9,1.2,1.2,1.4,2.1c0.4,1.5-0.4,2.9-0.7,3.5c-2.7,4.9-10,10.3-14.3,13.1c-1.7,1.1-4,0.5-4.9-1.3c0,0-5.2-10.8-5.2-10.8
							c-0.8-1.1,2,13.5,2.3,14.7c0.4,1.3,0.8,3.1,1,3.8c0.1,0.3,0.6-0.3,1-0.9c0.4-0.6,1.2-0.7,1.8-0.3c2.4,1.6,6.3,3.9,8.6,4.7
							c2.1-0.1,5.2,0.1,7.4,0L71.4,60.7z"/>
					</defs>
					<clipPath id="XMLID_123_">
						<use xlink:href="#XMLID_583_"  style="overflow:visible;"/>
					</clipPath>
				</g>
			</g>
			<g id="XMLID_578_">
				<defs>
					<path id="XMLID_579_" d="M70,56.2c0,0.1-0.4,0.8-1.1,1c-0.6,0.2-1.1-0.1-1.2-0.2c-3.3-9.6-6.6-19.2-9.9-28.8l0.1-3.4l2.3,2.6
						C63.4,37,66.7,46.6,70,56.2z"/>
				</defs>
				<use xlink:href="#XMLID_579_"  style="overflow:visible;fill:#CDA062;"/>
				<clipPath id="XMLID_124_">
					<use xlink:href="#XMLID_579_"  style="overflow:visible;"/>
				</clipPath>
				
					<path id="XMLID_580_" style="clip-path:url(#XMLID_124_);fill:#FFE6CA;stroke:#A34A24;stroke-width:0.4117;stroke-miterlimit:10;" d="
					M58.9,28L58.7,28c-1.3,0.4-2.7-0.4-3.1-1.7l-0.5-1.9c-0.4-1.3,0.4-2.7,1.7-3.1l0.2-0.1c1.3-0.4,2.7,0.4,3.1,1.7l0.5,1.9
					C61,26.2,60.2,27.6,58.9,28z"/>
				<use xlink:href="#XMLID_579_"  style="overflow:visible;fill:none;stroke:#A34924;stroke-width:0.8788;stroke-miterlimit:10;"/>
			</g>
		</g>
		<polygon id="XMLID_576_" class="st13" points="57.5,27.4 57.6,25.2 59,26.7 		"/>
	</g>
	<g id="XMLID_463_">
		<g id="XMLID_465_">
			<g id="XMLID_525_">
				<g id="XMLID_527_">
					<defs>
						<polygon id="XMLID_528_" points="67.4,17.1 54.5,8.4 27.1,8.9 27.5,65.8 67.7,65.2 						"/>
					</defs>
					<clipPath id="XMLID_125_">
						<use xlink:href="#XMLID_528_"  style="overflow:visible;"/>
					</clipPath>
				</g>
			</g>
			<g id="XMLID_479_">
				<defs>
					<path id="XMLID_480_" d="M93.6,66.6l0-16.3L77.7,29.7c-0.6,0.3,1.4,3.9,4.6,11.4c0.2,0.4,0.2,0.9,0,1.4
						c-2.6,5.9-5.3,12.7-7.9,18.6l1.4,5.6L93.6,66.6z"/>
				</defs>
				<clipPath id="XMLID_126_">
					<use xlink:href="#XMLID_480_"  style="overflow:visible;"/>
				</clipPath>
			</g>
			<g id="XMLID_469_">
				<g id="XMLID_475_">
					<defs>
						<path id="XMLID_476_" d="M71.4,60.7c2.7-5.8,4.7-10.6,7.4-16.4c0.1-0.5,0.8-3.1,0.8-3.7c0-1.4-1.2-1.9-1.5-2.7
							c0.1-1-0.9-2.5-1.4-4.3c-0.3-0.9-1.4-2.9-2.4-4.1c-1.9-2.2-3.4-2.7-3.8-2.1c-0.2,0.2,0.2,0.6,0.5,1.2c2.5,4.8,1.6,6.4,3.7,9.1
							c0.7,0.9,1.2,1.2,1.4,2.1c0.4,1.5-0.4,2.9-0.7,3.5c-2.7,4.9-10,10.3-14.3,13.1c-1.7,1.1-4,0.5-4.9-1.3c0,0-5.2-10.8-5.2-10.8
							c-0.8-1.1,2,13.5,2.3,14.7c0.4,1.3,0.8,3.1,1,3.8c0.1,0.3,0.6-0.3,1-0.9c0.4-0.6,1.2-0.7,1.8-0.3c2.4,1.6,6.3,3.9,8.6,4.7
							c2.1-0.1,5.2,0.1,7.4,0L71.4,60.7z"/>
					</defs>
					<clipPath id="XMLID_127_">
						<use xlink:href="#XMLID_476_"  style="overflow:visible;"/>
					</clipPath>
				</g>
				<g id="XMLID_472_">
					<defs>
						<path id="XMLID_473_" d="M71.4,60.7c2.7-5.8,4.7-10.6,7.4-16.4c0.1-0.5,0.8-3.1,0.8-3.7c0-1.4-1.2-1.9-1.5-2.7
							c0.1-1-0.9-2.5-1.4-4.3c-0.3-0.9-1.4-2.9-2.4-4.1c-1.9-2.2-3.4-2.7-3.8-2.1c-0.2,0.2,0.2,0.6,0.5,1.2c2.5,4.8,1.6,6.4,3.7,9.1
							c0.7,0.9,1.2,1.2,1.4,2.1c0.4,1.5-0.4,2.9-0.7,3.5c-2.7,4.9-10,10.3-14.3,13.1c-1.7,1.1-4,0.5-4.9-1.3c0,0-5.2-10.8-5.2-10.8
							c-0.8-1.1,2,13.5,2.3,14.7c0.4,1.3,0.8,3.1,1,3.8c0.1,0.3,0.6-0.3,1-0.9c0.4-0.6,1.2-0.7,1.8-0.3c2.4,1.6,6.3,3.9,8.6,4.7
							c2.1-0.1,5.2,0.1,7.4,0L71.4,60.7z"/>
					</defs>
					<clipPath id="XMLID_128_">
						<use xlink:href="#XMLID_473_"  style="overflow:visible;"/>
					</clipPath>
				</g>
				<g id="XMLID_470_">
					<defs>
						<path id="XMLID_471_" d="M71.4,60.7c2.7-5.8,4.7-10.6,7.4-16.4c0.1-0.5,0.8-3.1,0.8-3.7c0-1.4-1.2-1.9-1.5-2.7
							c0.1-1-0.9-2.5-1.4-4.3c-0.3-0.9-1.4-2.9-2.4-4.1c-1.9-2.2-3.4-2.7-3.8-2.1c-0.2,0.2,0.2,0.6,0.5,1.2c2.5,4.8,1.6,6.4,3.7,9.1
							c0.7,0.9,1.2,1.2,1.4,2.1c0.4,1.5-0.4,2.9-0.7,3.5c-2.7,4.9-10,10.3-14.3,13.1c-1.7,1.1-4,0.5-4.9-1.3c0,0-5.2-10.8-5.2-10.8
							c-0.8-1.1,2,13.5,2.3,14.7c0.4,1.3,0.8,3.1,1,3.8c0.1,0.3,0.6-0.3,1-0.9c0.4-0.6,1.2-0.7,1.8-0.3c2.4,1.6,6.3,3.9,8.6,4.7
							c2.1-0.1,5.2,0.1,7.4,0L71.4,60.7z"/>
					</defs>
					<clipPath id="XMLID_129_">
						<use xlink:href="#XMLID_471_"  style="overflow:visible;"/>
					</clipPath>
				</g>
			</g>
			<g id="XMLID_466_">
				<defs>
					<path id="XMLID_467_" d="M70,56.2c0,0.1-0.4,0.8-1.1,1c-0.6,0.2-1.1-0.1-1.2-0.2c-3.3-9.6-6.6-19.2-9.9-28.8l0.1-3.4l2.3,2.6
						C63.4,37,66.7,46.6,70,56.2z"/>
				</defs>
				<clipPath id="XMLID_130_">
					<use xlink:href="#XMLID_467_"  style="overflow:visible;"/>
				</clipPath>
			</g>
		</g>
	</g>
</g>
</svg>
