<?xml version="1.0" encoding="utf-8"?>
<!-- Generator: Adobe Illustrator 19.0.0, SVG Export Plug-In . SVG Version: 6.00 Build 0)  -->
<svg version="1.1" id="Layer_1" xmlns="http://www.w3.org/2000/svg" xmlns:xlink="http://www.w3.org/1999/xlink" x="0px" y="0px"
	 viewBox="-248 396 78.3 39.3" style="enable-background:new -248 396 78.3 39.3;" xml:space="preserve">
<style type="text/css">
	.st0{fill:#FFFFFF;}
</style>
<g id="XMLID_14841_">
	<path id="XMLID_14880_" class="st0" d="M-228.3,397.3c5,0.1,9.5,1.9,13,5.6c3.6,3.7,5.2,8.1,5,13.1c-0.2,4.8-2.1,8.9-5.6,12.2
		c-3.7,3.5-8.2,5.2-13.4,5c-4.9-0.2-9.1-2.1-12.4-5.5c-3.5-3.7-5.2-8.1-5-13.1c0.2-4.8,2.1-8.9,5.6-12.2
		C-237.6,399-233.3,397.3-228.3,397.3z M-246.3,415.7c0.2,4.5,1.8,8.3,4.8,11.5c3.5,3.7,7.9,5.5,13,5.6c4.7,0,8.8-1.6,12.2-4.7
		c3.7-3.4,5.6-7.7,5.6-12.8c0-4.6-1.6-8.6-4.8-12c-3.5-3.7-7.9-5.6-13-5.6c-4.7,0-8.7,1.6-12.1,4.7
		C-244.5,406.1-246.3,410.5-246.3,415.7z"/>
	<path id="XMLID_14879_" class="st0" d="M-229.7,418.5c0-2,0-3.9,0-5.9c0.2,0.2,0.3,0.4,0.5,0.5c0.2,0.2,0.3,0.4,0.5,0.6
		c0.1,0.1,0.1,0.1,0.1,0.2c0,1.9,0,3.7,0,5.6c0,0.1,0,0.1,0,0.2c0.1,0,0.2,0,0.3,0c0-1.9,0-3.7,0-5.6c0.1,0.1,0.3,0.1,0.4,0.2
		c0.2,0.1,0.4,0.1,0.6,0.2c0.1,0,0.1,0.1,0.1,0.1c0,0.3,0,0.7,0,1c0,0.9,0,1.8,0,2.8v0.1c0.5-0.1,1-0.3,1.5-0.4l0,0
		c-0.2,0.2-0.3,0.5-0.5,0.7c-0.4,0.5-0.8,0.9-1.2,1.4c-0.6,0.6-1.3,1.1-2,1.6c-0.2,0.1-0.2,0.2-0.2,0.3c0,0.4,0,0.9,0,1.3
		c0,0.1,0,0.1,0.1,0.2c0,0,0.1,0,0.1-0.1c0.3-0.2,0.5-0.4,0.7-0.6c0.5-0.5,1-0.9,1.5-1.4c0.6-0.6,1.1-1.2,1.6-1.8
		c0.3-0.4,0.6-0.9,0.9-1.4c0.1-0.1,0.1-0.1,0.2-0.1c0.4-0.1,0.7-0.1,1.1-0.2s0.9-0.3,1.3-0.4c0.2-0.1,0.4-0.1,0.5-0.1
		c0.1,0,0.2,0,0.3,0c0.2,0.7,0.5,1.3,1,1.9c0.3,0.4,0.7,0.9,1,1.3c0.4,0.4,0.7,0.9,1.1,1.3c0.1,0.2,0.3,0.3,0.4,0.5c0,0,0,0,0.1,0.1
		c-0.1,0-0.3,0-0.4,0c-0.3,0-0.6,0-0.8,0c-0.6,0-1.1,0-1.7,0c-0.3,0-0.6,0-0.9,0s-0.6,0-1,0.1c-0.5,0-1,0.1-1.5,0.2
		c-0.9,0.1-1.9,0.3-2.8,0.6c-0.1,0-0.3,0.1-0.4,0.2c-0.1,0.1,0,0.3,0,0.4s0,0.2,0,0.4c-0.8,0-1.6,0-2.5,0c0-0.2,0-0.5,0-0.7
		c0-0.1,0-0.1-0.1-0.1c-0.7-0.3-1.3-0.4-2-0.6c-0.4-0.1-0.8-0.1-1.2-0.2c-0.3,0-0.6-0.1-0.9-0.1c-0.4,0-0.9-0.1-1.3-0.1
		c-1,0-2,0-3.1-0.1c-0.3,0-0.6,0-0.9,0c0,0,0,0-0.1,0c0.1-0.1,0.1-0.2,0.2-0.2c0.5-0.6,1-1.2,1.5-1.8c0.4-0.5,0.8-1.1,1.2-1.7
		c0.3-0.4,0.5-0.9,0.6-1.4l0.1-0.1c0.3,0,0.7,0.1,1,0.1s0.6,0.1,0.9,0.1c0.3,0.1,0.7,0.1,1,0.2c0.7,0.1,1.3,0.3,2,0.4
		C-230.3,418.3-230,418.4-229.7,418.5z"/>
	<path id="XMLID_14878_" class="st0" d="M-228.9,398.6c-0.1,0.2-0.2,0.4-0.2,0.6c0,0,0,0-0.1,0c-0.1,0-0.2,0-0.3,0
		c-0.4,0-0.8,0.1-1.3,0.1c-1,0.1-1.9,0.4-2.9,0.7c-1.5,0.5-2.8,1.1-4.1,2c-0.5,0.4-1,0.7-1.5,1.1c-0.5,0.4-0.9,0.9-1.4,1.3
		c-0.8,0.9-1.5,1.8-2.1,2.8c-0.7,1.3-1.3,2.6-1.6,4c-0.1,0.5-0.2,1-0.3,1.6c0,0.3-0.1,0.5-0.1,0.8c0,0.4-0.1,0.9-0.1,1.3
		s0,0.7,0,1.1c0,0.2,0,0.5,0.1,0.7c0,0.3,0.1,0.6,0.1,0.9c0.1,0.5,0.2,1,0.3,1.5c0.2,0.7,0.4,1.4,0.7,2c0.3,0.8,0.7,1.6,1.2,2.4
		c0.2-0.1,0.3-0.3,0.5-0.4c0.4-0.4,0.9-0.7,1.4-0.9c0.1,0,0.2,0,0.3,0c0.1,0,0.2,0.1,0.1,0.2c-0.1,0.1-0.2,0.3-0.2,0.4
		c0,0,0,0.1-0.1,0.1c0.3,0,0.6,0,0.9-0.1c0,0,0,0,0.1,0c1.2,0,2.3,0,3.5,0c0.3,0,0.7,0,1,0.1c0.5,0,1.1,0.1,1.6,0.2
		c0.8,0.1,1.7,0.3,2.5,0.6c0.3,0.1,0.5,0.2,0.8,0.3c0,0,0.1,0,0.1,0.1c-0.2-0.1-0.5-0.1-0.7-0.2c-0.5-0.1-0.9-0.2-1.4-0.3
		c-0.4-0.1-0.9-0.1-1.3-0.2c-0.4,0-0.8-0.1-1.1-0.1c-0.9,0-1.9,0-2.8-0.1c-0.5,0-0.9,0-1.4,0c-0.3,0-0.6,0-0.9,0.1
		c-0.5,0-0.9,0.1-1.4,0.1c-0.4,0-0.7,0.1-1.1,0.1c-0.1,0-0.2,0-0.2,0c1.3,2,2.9,3.6,4.9,4.9s4.1,2.1,6.4,2.4
		c-0.1-0.1-0.1-0.1-0.2-0.2s-0.1-0.1-0.2-0.2c2,0,3.9,0,5.9,0c-0.2,0.2-0.3,0.3-0.5,0.5c2.9-0.4,5.4-1.5,7.6-3.3
		c3.3-2.6,5.3-6,5.9-10.1c0.7-4.7-0.5-8.9-3.6-12.5c-3.1-3.6-7.1-5.5-11.8-5.8c-0.1-0.2-0.2-0.4-0.2-0.6c3.7,0.1,7,1.2,9.9,3.5
		c3.5,2.7,5.7,6.3,6.4,10.6c0.7,4.9-0.5,9.4-3.8,13.2c-3,3.5-6.8,5.5-11.4,5.9c-5.4,0.4-10.1-1.3-13.8-5.2
		c-3.3-3.4-4.8-7.5-4.6-12.2c0.1-3.1,1.1-6,2.9-8.5c1.7-2.5,3.9-4.4,6.7-5.7C-233.6,399.2-231.3,398.7-228.9,398.6z"/>
	<path id="XMLID_14877_" class="st0" d="M-225.9,406.4c-0.4-0.1-0.7-0.2-1-0.3c-0.4-0.1-0.9-0.1-1.3-0.1c-0.8,0.1-1.5,0.4-2.2,0.9
		c-0.7,0.6-1.1,1.3-1.3,2.2c-0.1,0.3-0.1,0.6-0.1,0.9c0,0.7,0.2,1.3,0.4,1.9s0.6,1.1,1,1.6c0.2,0.2,0.4,0.4,0.6,0.6v0.1
		c0,0.7,0,1.4,0,2.2c-0.2-0.2-0.5-0.3-0.7-0.4c-0.4-0.3-0.8-0.6-1.1-0.9c-0.7-0.7-1.2-1.4-1.6-2.3c-0.2-0.5-0.4-0.9-0.4-1.4
		c0-0.4-0.1-0.8-0.1-1.3c0-0.7,0.2-1.4,0.5-2c0.3-0.6,0.6-1.1,1.1-1.5c0.4-0.4,0.8-0.7,1.4-0.9c0.4-0.1,0.7-0.3,1.1-0.4
		c0.5-0.1,1.1-0.2,1.6-0.1c0.6,0,1.2,0.2,1.8,0.4c0.2,0.1,0.3,0.1,0.5,0.2c0.1,0.1,0.1,0.2,0.1,0.3
		C-225.9,406-225.9,406.2-225.9,406.4z"/>
	<path id="XMLID_14876_" class="st0" d="M-232.2,404.1c0.2,0.2,0.3,0.3,0.4,0.5c-0.3,0.2-0.7,0.5-1,0.7c-0.5,0.3-0.9,0.7-1.3,1.1
		c-0.3,0.4-0.6,0.8-0.9,1.2c-0.5,0.7-0.8,1.5-0.9,2.3c-0.1,0.5-0.2,1.1-0.1,1.6c0,0.6,0.2,1.1,0.4,1.6c0.4,1.1,0.9,2.1,1.6,3
		c0.3,0.5,1,1.1,1.5,1.5c-0.2,0-0.3-0.1-0.5-0.1c-0.3,0-0.5-0.1-0.8-0.1c-0.3,0-0.6-0.1-0.9-0.1c-0.2,0-0.4,0-0.5-0.1
		c-0.1,0-0.2,0-0.3,0c0,0-0.1,0-0.1-0.1c-0.7-0.9-1.2-1.8-1.5-2.9c-0.2-0.5-0.3-1.1-0.4-1.6c-0.1-0.5-0.1-1.1-0.1-1.6
		c0.1-1.3,0.4-2.5,1.1-3.6c0.2-0.4,0.5-0.8,0.8-1.1c0.7-0.8,1.5-1.3,2.5-1.7C-232.9,404.3-232.5,404.2-232.2,404.1z"/>
	<path id="XMLID_14875_" class="st0" d="M-229.5,423.3c0-0.5,0-0.9,0-1.3v-0.1c0.5-0.3,1-0.6,1.4-1c0.5-0.4,0.9-0.9,1.4-1.4
		c0.6-0.6,1.1-1.3,1.4-2.1c0.3-0.7,0.6-1.4,0.8-2.1v-0.1c0.3,0,0.5,0,0.7-0.2c0,0.2-0.1,0.4-0.1,0.6c-0.1,0.2-0.1,0.5-0.2,0.7v0.1
		c0,0,0.1,0,0.1-0.1c0.5-0.6,1.1-1.2,1.8-1.5c0.4-0.2,0.9-0.3,1.3-0.4c0.4-0.1,0.9-0.1,1.4-0.1c-0.2,0.3-0.3,0.6-0.5,0.8
		c-0.2,0.3-0.4,0.7-0.7,1c-0.4,0.4-0.8,0.8-1.3,1c-0.4,0.2-0.9,0.3-1.3,0.5c-0.5,0.2-1,0.3-1.5,0.3c-0.1,0-0.1,0-0.2,0.1
		c-0.3,0.4-0.6,0.9-0.9,1.3c-0.3,0.4-0.6,0.8-0.9,1.1c-0.5,0.5-1,1.1-1.5,1.6c-0.4,0.4-0.8,0.7-1.3,1.1
		C-229.4,423.2-229.4,423.2-229.5,423.3z"/>
	<path id="XMLID_14874_" class="st0" d="M-227.2,405c-0.4-0.1-0.7-0.1-1.1-0.2c0-1,0-2,0-3c-0.1,0-0.2,0-0.3,0c0,1,0,2,0,3
		c-0.4,0-0.7,0.1-1.1,0.1v-0.1c0-1,0-2,0-3c0-0.2,0.1-0.3,0.1-0.5c0.3-0.9,0.7-1.8,1-2.7c0,0,0-0.1,0.1-0.2c0.2,0.3,0.3,0.6,0.4,0.9
		c0.3,0.8,0.6,1.6,0.9,2.3c0,0.1,0,0.1,0,0.2C-227.2,402.8-227.2,403.8-227.2,405C-227.2,404.9-227.2,404.9-227.2,405z"/>
	<path id="XMLID_14873_" class="st0" d="M-223.8,404c0.3,0.2,0.5,0.3,0.7,0.5c0.6,0.4,1.2,0.9,1.7,1.5c0.5,0.5,0.9,1.1,1.3,1.6
		c0.5,0.8,0.9,1.7,1.2,2.6c0.2,0.6,0.4,1.2,0.5,1.8c0,0.3,0.1,0.6,0.1,0.8c0,0.4,0,0.7,0,1.1c0,0.5-0.1,1-0.2,1.6
		c-0.1,0.6-0.3,1.2-0.6,1.8s-0.6,1.2-1,1.8c0,0,0,0-0.1,0.1c-0.1-0.2-0.2-0.4-0.4-0.5v-0.1c0.6-0.9,1-2,1.3-3.1
		c0.1-0.4,0.1-0.8,0.2-1.1c0-0.3,0.1-0.5,0-0.8c0-0.6-0.1-1.2-0.2-1.7c-0.2-1.1-0.6-2.2-1.2-3.2c-0.3-0.7-0.7-1.3-1.2-1.8
		c-0.3-0.4-0.7-0.8-1-1.1s-0.6-0.5-1-0.8l-0.1-0.1C-223.7,404.5-223.7,404.2-223.8,404z"/>
	<path id="XMLID_14872_" class="st0" d="M-229.7,407.4c0.7,0.1,1.3,0.2,1.9,0.4c0.6,0.2,1.2,0.6,1.6,1.1c0.5,0.5,0.9,1.1,1.2,1.7
		c0.1,0.1,0.1,0.2,0.2,0.1c0.4-0.2,0.9,0.1,0.9,0.6c0,0.3-0.2,0.5-0.6,0.6c-0.3,0.1-0.6-0.1-0.7-0.4c0-0.1-0.1-0.1-0.2-0.2
		c-0.7-0.3-1.3-0.5-2-0.9c-0.4-0.2-0.8-0.4-1.1-0.7c-0.4-0.4-0.7-0.9-1-1.5C-229.4,408.1-229.5,407.8-229.7,407.4z"/>
	<path id="XMLID_14871_" class="st0" d="M-223.7,415.9c0.1-0.4,0.2-0.8,0.3-1.1c0.1-0.2,0.1-0.4,0-0.7c-0.1-0.1,0-0.3,0.1-0.4
		c0.4-0.5,0.7-1.1,0.8-1.7c0.1-0.4,0.1-0.7,0.1-1.1c0-0.5-0.2-1-0.4-1.5s-0.5-0.9-0.9-1.4c-0.1-0.2-0.3-0.3-0.4-0.4
		c0.1-0.2,0.2-0.5,0.3-0.8c0.2,0.2,0.5,0.5,0.7,0.7c0.3,0.4,0.6,0.7,0.8,1.1c0.4,0.6,0.7,1.3,0.8,2c0.1,0.5,0.1,1,0.1,1.5
		c-0.1,0.8-0.2,1.6-0.6,2.4c0,0.1-0.1,0.1-0.2,0.2c-0.4,0.2-0.7,0.4-1.1,0.7C-223.3,415.6-223.5,415.7-223.7,415.9z"/>
	<path id="XMLID_14870_" class="st0" d="M-224.2,403c0.1,0.4,0.3,0.8,0.3,1.2c0.1,0.4,0.2,0.8,0.2,1.3c0.1,0.5-0.1,0.9-0.3,1.3
		c-0.2,0.5-0.4,1-0.7,1.5c-0.1,0.1-0.1,0.3-0.2,0.4c0,0.1,0,0.1,0,0.2c0.3,0.5,0.6,1.1,0.8,1.7c-0.2-0.1-0.4-0.1-0.6-0.1
		c0,0-0.1,0-0.1-0.1c-0.2-0.6-0.5-1.2-0.8-1.8c-0.3-0.5-0.7-1-1-1.5c-0.1-0.2-0.2-0.3-0.4-0.4c0-0.1-0.1-0.1-0.1-0.2l0,0
		c0.1,0.1,0.3,0.2,0.4,0.4c0.3,0.3,0.6,0.7,1,1h0.1v-0.1c-0.1-0.5-0.2-1.1-0.2-1.7c0-0.6,0.1-1.1,0.4-1.7
		C-225,403.9-224.7,403.5-224.2,403C-224.3,403.1-224.3,403.1-224.2,403z"/>
	<path id="XMLID_14869_" class="st0" d="M-229.7,412.2c0.2,0,0.3-0.1,0.5-0.1c0.4,0,0.7-0.1,1.1-0.1c0.8,0,1.5,0.2,2.1,0.7
		c0.4,0.3,0.8,0.6,1.2,1c0.1,0.1,0.1,0.1,0.2,0c0.2-0.2,0.4-0.2,0.7-0.1c0.2,0.1,0.4,0.3,0.4,0.5c0,0.3-0.1,0.5-0.3,0.6
		c-0.3,0.2-0.7,0.1-0.9-0.2c-0.1-0.1-0.1-0.1-0.2-0.1c-0.2,0-0.4,0-0.6,0c-0.7,0-1.4-0.1-2-0.3c-0.3-0.1-0.6-0.3-0.9-0.6
		C-229,413.2-229.3,412.7-229.7,412.2z"/>
	<path id="XMLID_14868_" class="st0" d="M-232.9,401.1c0.3,0.1,0.5,0.2,0.7,0.2c0.6,0.2,1.2,0.5,1.7,1c0.1,0.1,0.3,0.3,0.4,0.4
		c0.1,0.1,0.1,0.1,0.1,0.2c0,0.6,0,1.2,0,1.8c0,0.1,0,0.1-0.1,0.1c-0.3,0.1-0.5,0.1-0.8,0.2c0,0-0.1,0-0.2,0
		c-0.4-0.3-0.8-0.6-1.1-1.1c-0.2-0.3-0.3-0.7-0.4-1.1c-0.1-0.4-0.2-0.8-0.3-1.2C-232.9,401.5-232.9,401.3-232.9,401.1z"/>
	<path id="XMLID_14867_" class="st0" d="M-239.2,411.3c-0.2-1.3,0.1-3.6,1.5-5.6c1.2-1.6,2.9-2.7,4.9-3.3c0.1,0.2,0.1,0.4,0.2,0.5
		c0.1,0.2,0.1,0.2-0.1,0.3c-1,0.3-1.9,0.8-2.7,1.4c-0.5,0.4-0.9,0.8-1.3,1.2c-0.6,0.6-1,1.4-1.4,2.1c-0.4,0.8-0.7,1.6-0.8,2.5
		C-239.1,410.8-239.1,411.1-239.2,411.3z"/>
	<path id="XMLID_14866_" class="st0" d="M-216.7,423c-0.1-0.1-0.1-0.2-0.2-0.2c0-0.1-0.1-0.1-0.1-0.2c0-0.1-0.1-0.2,0-0.3
		c0.1-0.1,0.2-0.1,0.3,0c0.3,0.1,0.6,0.3,0.9,0.5c0.4,0.3,0.7,0.6,1.1,0.9l0,0c-0.1,0-0.3,0-0.4,0c-0.2,0-0.4-0.1-0.7-0.1
		c-0.4,0-0.8-0.1-1.2-0.1c-0.1,0-0.3,0-0.4,0c-0.2,0-0.5,0-0.7,0c-0.5,0-0.9,0-1.4,0c-0.7,0-1.4,0-2.1,0c-0.4,0-0.8,0-1.2,0.1
		c-0.4,0-0.9,0.1-1.3,0.1c-0.8,0.1-1.7,0.2-2.5,0.4c-0.1,0-0.2,0.1-0.4,0.1l0,0l0.1-0.1c0.6-0.3,1.2-0.5,1.8-0.6
		c0.5-0.1,0.9-0.2,1.4-0.3c0.3,0,0.5-0.1,0.8-0.1c0.5,0,1.1-0.1,1.6-0.1c0.9,0,1.8,0,2.7,0c0.5,0,1,0,1.5,0
		C-217,423-216.9,423-216.7,423z"/>
	<path id="XMLID_14865_" class="st0" d="M-227,417.1c0-0.6,0-1.2,0-1.8c0.2,0,0.3,0,0.5,0c0.5,0,0.9-0.1,1.3-0.2h0.1
		c0.2,0.1,0.3,0.2,0.5,0.4c-0.2,0.4-0.3,0.9-0.5,1.4c0,0.1-0.1,0.1-0.2,0.1C-225.9,417.1-226.4,417.1-227,417.1z"/>
	<path id="XMLID_14864_" class="st0" d="M-228.6,411.9c-0.4,0.1-0.7,0.1-1.1,0.2c0-1.4,0-2.8,0-4.2c0.2,0.3,0.3,0.7,0.5,1
		s0.4,0.6,0.5,0.9v0.1C-228.6,410.5-228.6,411.2-228.6,411.9z"/>
	<path id="XMLID_14863_" class="st0" d="M-227.1,426.8c0,0.3,0,0.6,0,0.9c0,0.2-0.1,0.3-0.3,0.5c-0.8,0.4-1.5,0.9-2.3,1.3l0,0
		c0-0.1,0-0.2,0-0.3c0-0.2,0-0.5,0-0.7c0-0.1,0-0.1,0.1-0.1c0.8-0.4,1.5-0.9,2.3-1.3C-227.3,426.9-227.2,426.8-227.1,426.8z"/>
	<path id="XMLID_14860_" class="st0" d="M-231.2,425c0-0.2,0-0.3,0-0.5c1.9,0,3.7,0,5.6,0c0,0.2,0,0.3,0,0.5
		C-227.5,425-229.4,425-231.2,425z"/>
	<path id="XMLID_14859_" class="st0" d="M-225.6,425.2c0,0.2,0,0.3,0,0.5c-1.9,0-3.7,0-5.6,0c0-0.2,0-0.3,0-0.5
		C-229.4,425.2-227.5,425.2-225.6,425.2z"/>
	<path id="XMLID_14858_" class="st0" d="M-229.7,428c0-0.4,0-0.7,0-1.1c0,0,0-0.1,0.1-0.1c0.4-0.3,0.9-0.5,1.3-0.8h0.1
		c0.3,0,0.6,0,0.9,0c0.1,0,0.1,0,0.1,0.1c0,0,0,0,0,0.1c0.1,0.3-0.1,0.4-0.3,0.6c-0.7,0.4-1.4,0.8-2.1,1.2
		C-229.6,427.9-229.6,427.9-229.7,428z"/>
	<path id="XMLID_14856_" class="st0" d="M-227.2,428.3v0.1c0,0.3,0,0.6,0,0.9c0,0.1,0,0.1-0.1,0.2c-0.4,0.3-0.9,0.5-1.3,0.8h-0.1
		c-0.4,0-0.7,0-1.1,0c0-0.2,0-0.3,0-0.5l0.1-0.1c0.3-0.2,0.7-0.4,1-0.6C-228.1,428.8-227.7,428.6-227.2,428.3L-227.2,428.3z"/>
	<path id="XMLID_14854_" class="st0" d="M-227.2,412c-0.4,0-0.7-0.1-1.1-0.1c0-0.6,0-1.2,0-1.8c0.1,0.1,0.3,0.2,0.4,0.3
		c0.2,0.1,0.4,0.2,0.6,0.3l0.1,0.1C-227.2,411.2-227.2,411.6-227.2,412L-227.2,412z"/>
	<path id="XMLID_14852_" class="st0" d="M-227.2,406.2c0,0.6,0,1.1,0,1.7c-0.3-0.1-0.7-0.2-1-0.4l-0.1-0.1c0-0.4,0-0.8,0-1.1
		c0-0.1,0.1-0.1,0.1-0.1C-227.8,406.2-227.5,406.2-227.2,406.2z"/>
	<path id="XMLID_14851_" class="st0" d="M-225.1,403.9c-0.6-0.2-1.2-0.4-1.8-0.7c0-0.2,0-0.4,0-0.6c0.8,0.2,1.5,0.5,2.2,0.8
		C-224.9,403.6-225,403.7-225.1,403.9z"/>
	<path id="XMLID_14850_" class="st0" d="M-228.6,406.3c0,0.4,0,0.8,0,1.1c-0.3-0.1-0.7-0.1-1.1-0.2c0-0.2,0-0.4,0-0.6v-0.1
		C-229.3,406.5-229,406.3-228.6,406.3z"/>
	<path id="XMLID_14849_" class="st0" d="M-224.2,412.3c0.2-0.1,0.4-0.2,0.6-0.4c0.1,0.6,0.1,1.2,0.2,1.8c-0.2-0.1-0.4-0.2-0.7-0.3
		C-224.2,413-224.2,412.6-224.2,412.3z"/>
	<path id="XMLID_14848_" class="st0" d="M-220.9,417.8c-0.1-0.2-0.1-0.3-0.2-0.5c-0.1-0.2-0.1-0.2-0.3-0.2c0.6-0.3,0.9-0.8,1.3-1.2
		C-220.2,416.6-220.5,417.2-220.9,417.8z"/>
	<path id="XMLID_14847_" class="st0" d="M-219.9,412.2c0.2,0.6,0.2,1.3,0.1,1.9c-0.1,0-0.3,0-0.4,0
		C-220,413.5-219.9,412.9-219.9,412.2z"/>
	<path id="XMLID_14846_" class="st0" d="M-228.1,430.3c0.3-0.2,0.6-0.3,0.9-0.5c0,0.2,0,0.4,0,0.5
		C-227.4,430.3-227.7,430.3-228.1,430.3z"/>
	<path id="XMLID_14844_" class="st0" d="M-228.8,426c-0.3,0.2-0.6,0.3-0.9,0.5c0-0.2,0-0.4,0-0.5
		C-229.4,425.9-229.1,425.9-228.8,426L-228.8,426z"/>
	<path id="XMLID_14842_" class="st0" d="M-229.9,402.1c0,0.2,0,0.3,0,0.4c-0.2-0.1-0.3-0.3-0.5-0.4
		C-230.2,402.1-230.1,402.1-229.9,402.1z"/>
</g>
<g id="XMLID_103_">
	<path id="XMLID_37185_" class="st0" d="M-204.9,411.9c0-0.1,0-0.1,0-0.2c0.1-1.3,0.6-2.5,1.4-3.5c0.6-0.7,1.4-1.3,2.2-1.7
		c0.4-0.2,0.8-0.4,1.2-0.5c0.1,0,0.1,0,0.2,0.1c0.9,1,1.9,2,2.9,2.9c1.2,1.2,2.7,2,4.3,2.6h0.1c0-0.1,0-0.2,0.1-0.4
		c0.2-0.7,0.5-1.4,1-1.9c0.6-0.6,1.3-1,2.1-1.1c0.8-0.1,1.6,0,2.3,0.4c1,0.5,1.7,1.3,2,2.4c0.1,0.2,0.1,0.3,0.1,0.5c0,0,0,0,0,0.1
		h0.1c1.2-0.4,2.3-1,3.3-1.8c0.3-0.2,0.5-0.5,0.8-0.7c1.1-1.1,2.3-2.3,3.4-3.4c1.5-1.6,3.1-3.2,4.6-4.9l0.1-0.1
		c-0.2-0.1-0.4-0.1-0.6-0.2c0,0,0,0,0.1,0c0.7-0.2,1.4-0.5,2.1-0.7l0,0c0,0,0,0,0,0.1s0,0.2-0.1,0.3c-0.1,0.6-0.3,1.2-0.4,1.8v0.1
		c-0.1-0.2-0.1-0.4-0.2-0.5c-1.5,1.7-3.1,3.3-4.6,5c0,0,0.1,0,0.1,0.1c0.8,0.4,1.6,1,2.2,1.7c0.8,0.9,1.3,1.9,1.5,3.1
		c0.2,1.3,0,2.6-0.6,3.8c-0.7,1.5-1.8,2.5-3.3,3.1c-0.7,0.3-1.3,0.5-2.1,0.5c-1.8,0.2-3.4-0.4-4.8-1.5c-1-0.8-1.7-1.9-2.1-3.1
		c-0.1-0.3-0.2-0.7-0.2-1c0,0,0,0,0-0.1l0,0c-2,0.5-4,0.5-6.1,0c0,0.1,0,0.3-0.1,0.4c-0.2,1.2-0.8,2.3-1.7,3.2c-1,1-2.2,1.7-3.6,1.9
		c-1.8,0.3-3.4,0-5-1c-1.2-0.8-2.1-1.9-2.6-3.2c-0.2-0.5-0.3-1-0.3-1.6c0-0.1,0-0.1,0-0.2C-204.9,412.4-204.9,412.1-204.9,411.9z
		 M-199.3,408.1C-199.3,408.1-199.4,408-199.3,408.1c-0.3-0.4-0.6-0.6-0.8-0.9c-0.1-0.1-0.1-0.1-0.2,0c-0.4,0.2-0.8,0.4-1.2,0.7
		c-0.7,0.5-1.2,1-1.6,1.7c-0.4,0.7-0.6,1.4-0.7,2.1c-0.1,0.6,0,1.3,0.1,1.9c0.3,1.1,0.9,2.1,1.8,2.8c0.9,0.8,2,1.2,3.2,1.3
		c0.6,0,1.2,0,1.8-0.1c1.1-0.3,2-0.8,2.7-1.5c0.8-0.8,1.3-1.7,1.5-2.8c0-0.1,0-0.3,0.1-0.4c-0.4-0.2-0.8-0.3-1.2-0.5
		c0,0.1,0,0.1,0,0.2c0,0.6-0.2,1.2-0.5,1.8c-0.9,1.6-2.7,2.5-4.5,2.2c-1-0.1-1.8-0.6-2.5-1.3c-1.1-1.2-1.5-2.6-1.1-4.2
		c0.5-1.5,1.5-2.5,3-2.9C-199.4,408.1-199.4,408.1-199.3,408.1z M-184.6,412.8c0,0.1,0,0.2,0,0.3c0.1,0.5,0.2,1,0.4,1.5
		c0.5,1,1.2,1.8,2.1,2.3c0.9,0.6,1.9,0.9,3,0.9c0.7,0,1.3-0.1,1.9-0.3c1.2-0.5,2.2-1.2,2.9-2.4c0.7-1.1,0.9-2.4,0.7-3.7
		c-0.1-0.9-0.5-1.7-1.1-2.4c-0.6-0.8-1.4-1.3-2.3-1.7l0,0c-0.3,0.3-0.6,0.6-0.9,0.9l0,0h0.1c0.8,0.2,1.5,0.6,2.1,1.2
		c1.2,1.2,1.5,3,0.8,4.5c-0.6,1.5-2.1,2.6-3.9,2.7c-0.6,0-1.1-0.1-1.7-0.3c-1.7-0.6-2.9-2.2-2.9-4c0,0,0,0,0-0.1
		C-183.7,412.4-184.1,412.6-184.6,412.8z M-185.7,411.8c0-0.2-0.1-0.4-0.1-0.6c-0.3-0.7-0.7-1.3-1.4-1.6c-0.7-0.4-1.3-0.5-2.1-0.3
		c-0.8,0.2-1.4,0.6-1.8,1.3c-0.2,0.3-0.3,0.7-0.4,1.1c0,0.1,0,0.1,0,0.2C-189.5,412.3-187.6,412.3-185.7,411.8z"/>
	<path id="XMLID_37184_" class="st0" d="M-187.9,398.4h0.1c2.1,0.1,4.2,0.6,6.1,1.5c1.6,0.8,3,1.7,4.2,3l0.1,0.1
		c-0.3,0.3-0.6,0.6-0.9,0.9c-2.9-2.8-6.3-4.2-10.3-4.2s-7.4,1.5-10.3,4.2c-0.3-0.3-0.6-0.6-0.9-0.9l0.1-0.1c2-2,4.4-3.3,7.1-4
		c0.7-0.2,1.3-0.3,2-0.4c0.4,0,0.9-0.1,1.3-0.1h0.1C-188.7,398.4-188.3,398.4-187.9,398.4z"/>
	<path id="XMLID_17557_" class="st0" d="M-174.3,432.7L-174.3,432.7c0-1,0-1.9,0-2.8v-0.1c0.1,0,0.2,0,0.4,0v0.1c0,0.9,0,1.8,0,2.7
		v0.1C-174.1,432.7-174.2,432.7-174.3,432.7z"/>
	<path id="XMLID_17479_" class="st0" d="M-174,425.6c0.2,0,0.4,0,0.7,0v-0.1c0-0.5,0-1,0-1.4c0-0.1,0-0.2,0-0.2
		c-0.1-0.3-0.3-0.4-0.6-0.3c-0.2,0.1-0.3,0.2-0.4,0.4v0.1c0,0.4-0.1,0.7-0.1,1.1s-0.1,0.8-0.1,1.1c0,0.1,0,0.2,0,0.3
		c-0.4,0-0.8,0-1.1,0c0-0.1,0-0.2,0-0.4c0-0.3,0.1-0.6,0.1-0.8c0-0.4,0.1-0.7,0.1-1.1c0.1-0.5,0-1-0.1-1.5c0,0,0,0,0-0.1h0.1
		c0.3,0,0.6,0,0.8,0c0.1,0,0.1,0,0.1,0.1s0.1,0.2,0.1,0.3c0,0,0,0,0.1,0c0.3-0.3,0.8-0.5,1.2-0.4c0.5,0,0.8,0.3,1,0.7
		c-0.1,0.1-0.1,0.3-0.1,0.6c0,0.2,0,0.3,0,0.5c0,0.6,0,1.3,0,1.9v0.1c-0.1,0-1.6,0-1.9,0C-174.1,426.4-174.1,425.7-174,425.6z"/>
	<path id="XMLID_17477_" class="st0" d="M-192.7,423.5c0-0.3,0-0.6,0-0.9c0.1,0,0.2,0,0.2,0c0.2,0,0.5,0,0.7,0.1
		c0.3,0.1,0.5,0.3,0.7,0.6c0.1,0.2,0.1,0.5,0.2,0.7c0,0.3,0,0.6,0,0.9c0,0.3-0.1,0.6-0.2,0.9c-0.3,0.5-0.7,0.8-1.2,0.8
		c-0.3,0-0.5,0-0.7-0.1c-0.5-0.1-0.8-0.5-1-0.9c-0.1-0.3-0.2-0.6-0.2-1c0-0.6,0-1.3,0-1.9c0,0,0,0,0-0.1c0.1,0,1,0,1.2,0v0.1
		c0,0.6,0,1.2,0,1.8c0,0.2,0,0.5,0.1,0.7c0,0.1,0.1,0.2,0.1,0.2c0.2,0.2,0.5,0.2,0.7,0c0.1-0.1,0.1-0.2,0.2-0.4
		c0.1-0.4,0.1-0.8,0-1.2c0,0,0,0,0-0.1C-192.2,423.6-192.3,423.5-192.7,423.5C-192.6,423.5-192.6,423.5-192.7,423.5z"/>
	<path id="XMLID_17456_" class="st0" d="M-204.7,421.9c0.4,0,0.8,0,1.2,0c0,0.3,0,0.5,0,0.8c0.2,0,0.3,0,0.5,0c0.2,0,0.3,0,0.5,0
		c0.2,0,0.3,0,0.5,0c0.2,0,0.3,0,0.5,0v0.1c0,0.2,0,0.4,0,0.6v0.1c-0.1,0.5-0.3,1-0.4,1.5c-0.1,0.3-0.2,0.7-0.2,1
		c0,0.2-0.1,0.3-0.1,0.5c0,0,0,0,0,0.1c-0.4,0-0.8,0-1.1,0c0.2-1,0.5-2,0.8-3c-0.1,0-0.3,0-0.4,0s-0.3,0-0.4,0c-0.1,0-0.3,0-0.4,0
		c-0.1,0-0.3,0-0.4,0c-0.1,0-0.3,0-0.4,0C-204.7,423-204.7,422.4-204.7,421.9z"/>
	<path id="XMLID_17455_" class="st0" d="M-176.7,423.5c-0.1,0-0.1,0.1-0.2,0.1c-0.2,0-0.3,0.2-0.3,0.4c0,0.1,0,0.1,0,0.2
		c0,0.7,0,1.4,0,2.2v0.1c-0.4,0-0.8,0-1.2,0v-0.1c0-0.7,0-1.5,0-2.2c0-0.2,0.1-0.4,0.2-0.6l0,0c-0.6,0-1.2,0-1.8,0
		c0-0.1,0-0.7,0-0.9c1.1,0,2.1,0,3.2,0C-176.7,422.9-176.7,423.2-176.7,423.5z"/>
	<path id="XMLID_17279_" class="st0" d="M-186.5,423.5c0-0.3,0-0.6,0-0.9c0.1,0,0.2,0,0.4,0c0.3,0,0.7,0,1,0c0.2,0,0.4,0,0.7,0.1
		c0.1,0,0.2,0.1,0.3,0.1c0.3,0.1,0.5,0.4,0.5,0.7c0,0.2,0,0.3,0,0.5c0,0.8,0,1.6,0,2.4v0.1c-0.4,0-0.8,0-1.2,0v-0.1
		c0-0.8,0-1.5,0-2.3c0-0.1,0-0.1,0-0.2c0-0.3-0.2-0.5-0.5-0.5c-0.2,0-0.4,0-0.6,0C-186.1,423.5-186.3,423.5-186.5,423.5z"/>
	<path id="XMLID_17273_" class="st0" d="M-188.5,418.8c-0.6-1.1-1.2-2.1-1.8-3.1c1.2,0.1,2.4,0.2,3.6-0.1l0,0
		C-187.3,416.7-187.9,417.7-188.5,418.8z"/>
	<path id="XMLID_7854_" class="st0" d="M-181.1,426.5c-0.4,0-0.8,0-1.1,0c0-0.1,0-3.6,0-3.9c0.1,0,1,0,1.2,0
		C-181.1,423.9-181.1,425.2-181.1,426.5z"/>
	<path id="XMLID_7853_" class="st0" d="M-196.8,425.3c0-0.9,0-1.7,0-2.6c0.1,0,1,0,1.2,0v0.1c0,0.5,0,1.1,0,1.6c0,0.1,0,0.1-0.1,0.2
		c-0.2,0.2-0.4,0.4-0.5,0.7c0,0.1-0.1,0.1-0.1,0.1C-196.5,425.3-196.6,425.3-196.8,425.3z"/>
	<path id="XMLID_7842_" class="st0" d="M-182.8,428.9c0,0.1,0,0.1,0,0.1c0,0.6,0,1.2,0,1.8c0,0.1,0,0.2,0,0.4
		c-0.1,0.3-0.3,0.4-0.5,0.4c-0.1,0-0.1,0-0.2,0h-0.1c0-0.1,0-0.2,0-0.3h0.1c0.2,0,0.4-0.1,0.4-0.3c0-0.1,0-0.1,0-0.2
		c0-0.6,0-1.2,0-1.8v-0.1c-0.1,0-0.2,0-0.3,0c0-0.1,0-0.2,0-0.3c0.1,0,0.3,0,0.4,0c0.3,0,0.5,0,0.8,0c0.2,0,0.4,0,0.6,0.1
		c0.3,0.1,0.5,0.4,0.5,0.7v0.1c0,0.7,0,1.3,0,2v0.1c-0.1,0-0.3,0-0.4,0v-0.1c0-0.6,0-1.2,0-1.9c0-0.1,0-0.1,0-0.2
		c0-0.2-0.1-0.3-0.3-0.4c-0.2,0-0.3,0-0.4-0.1C-182.4,428.9-182.6,428.9-182.8,428.9z"/>
	<path id="XMLID_7206_" class="st0" d="M-201.5,429.1c0-0.1,0-0.2,0-0.3c0,0,0,0,0.1,0c0.3-0.1,0.6-0.1,0.9,0s0.5,0.3,0.7,0.5
		c0.1,0.2,0.1,0.4,0.1,0.6c0,0.3,0,0.5,0,0.8c0,0.2-0.1,0.4-0.2,0.6c-0.2,0.3-0.4,0.4-0.7,0.5c-0.3,0.1-0.5,0-0.8,0h-0.1
		c0-0.1,0-0.2,0-0.3h0.1c0.2,0,0.4,0.1,0.6,0.1c0.3,0,0.5-0.1,0.6-0.4c0.1-0.1,0.1-0.3,0.1-0.4c0-0.2,0-0.5,0-0.7
		c0-0.2,0-0.3-0.1-0.5c-0.1-0.2-0.3-0.3-0.5-0.4C-201,428.9-201.3,429-201.5,429.1z"/>
	<path id="XMLID_2360_" class="st0" d="M-199.9,423.9c-0.3,0-0.6,0-0.8,0c0.1-0.6,0.2-1.2,0.3-1.7c0,0,0,0,0.1,0c0.3,0,0.6,0,0.9,0
		c0.1,0,0.1,0,0.1,0.1c-0.1,0.5-0.3,1-0.5,1.5C-199.8,423.8-199.9,423.8-199.9,423.9z"/>
	<path id="XMLID_2320_" class="st0" d="M-198.4,423.9c-0.3,0-0.5,0-0.8,0c0.1-0.6,0.2-1.2,0.3-1.7c0,0,0,0,0.1,0c0.3,0,0.6,0,0.9,0
		c0.1,0,0.1,0,0.1,0.1C-198,422.8-198.1,423.3-198.4,423.9C-198.3,423.8-198.3,423.9-198.4,423.9z"/>
	<path id="XMLID_2317_" class="st0" d="M-194.7,428.9c-0.5,0-1.1,0-1.6,0c0-0.1,0-0.2,0-0.3c0.1,0,2,0,2.1,0c0,0.1,0,0.2,0,0.3h-0.1
		c-0.2,0.1-0.3,0.3-0.4,0.5c0,0.1,0,0.2,0,0.2c0,0.6,0,1.2,0,1.8v0.1c-0.1,0-0.2,0-0.4,0v-0.1c0-0.6,0-1.3,0-1.9
		C-195,429.3-194.9,429.2-194.7,428.9z"/>
	<path id="XMLID_932_" class="st0" d="M-172.8,431.6c-0.1,0-0.2,0-0.4,0c0-0.1,0-0.2,0-0.3c0.1-0.3,0.2-0.6,0.2-0.9
		c0.1-0.4,0.3-0.9,0.4-1.3V429c-0.6,0-1.2,0-1.8,0c0-0.1,0-0.2,0-0.3c0.7,0,1.4,0,2.2,0c0,0.1,0,0.3,0,0.4c-0.2,0.6-0.4,1.2-0.5,1.8
		C-172.8,431.1-172.8,431.3-172.8,431.6L-172.8,431.6z"/>
	<path id="XMLID_917_" class="st0" d="M-193.2,429c0-0.1,0-0.2,0-0.3c0.1,0,0.3,0,0.4,0c0.2,0,0.4,0,0.7,0c0.2,0,0.4,0,0.6,0.1
		c0.3,0.1,0.4,0.3,0.5,0.6c0,0.1,0,0.2,0,0.2c0,0.6,0,1.2,0,1.9v0.1c-0.1,0-0.3,0-0.4,0v-0.1c0-0.6,0-1.2,0-1.9c0-0.1,0-0.1,0-0.2
		c0-0.2-0.1-0.3-0.3-0.4c-0.1-0.1-0.3-0.1-0.4-0.1C-192.5,428.9-192.8,428.9-193.2,429C-193.1,429-193.1,429-193.2,429z"/>
	<path id="XMLID_912_" class="st0" d="M-187.7,431.6c-0.1,0-0.3,0-0.4,0v-0.1c0-0.6,0-1.2,0-1.9v-0.1c0-0.2-0.1-0.4-0.3-0.5
		c-0.1-0.1-0.3-0.1-0.4-0.1c-0.3,0-0.6,0-0.9,0h-0.1c0-0.1,0-0.2,0-0.3l0,0c0.4,0,0.7,0,1.1,0c0.2,0,0.3,0,0.5,0.1
		c0.3,0.1,0.5,0.4,0.5,0.7v0.1C-187.7,430.2-187.7,430.8-187.7,431.6C-187.7,431.5-187.7,431.6-187.7,431.6z"/>
	<path id="XMLID_812_" class="st0" d="M-204.7,429c0-0.1,0-0.2,0-0.3l0,0c0.3,0,0.7,0,1,0c0.2,0,0.4,0,0.5,0.1
		c0.3,0.1,0.5,0.4,0.5,0.7v0.1c0,0.7,0,1.3,0,2v0.1c-0.1,0-0.2,0-0.4,0v-0.1c0-0.6,0-1.2,0-1.9v-0.1c0-0.2-0.1-0.4-0.3-0.5
		c-0.1-0.1-0.3-0.1-0.4-0.1C-204,428.9-204.3,428.9-204.7,429C-204.6,429-204.6,429-204.7,429z"/>
	<path id="XMLID_134_" class="st0" d="M-177.3,428.9c0-0.1,0-0.2,0-0.3c0,0,0,0,0.1,0c0.2,0,0.5,0,0.7,0c0.1,0,0.3,0,0.4,0.1
		c0.4,0.1,0.6,0.4,0.6,0.8v0.1c0,0.6,0,1.3,0,1.9v0.1c-0.1,0-0.3,0-0.4,0v-0.1c0-0.6,0-1.3,0-1.9v-0.1c0-0.2-0.1-0.3-0.3-0.4
		c-0.1-0.1-0.3-0.1-0.4-0.1C-176.8,428.9-177,428.9-177.3,428.9C-177.2,428.9-177.2,428.9-177.3,428.9z"/>
	<path id="XMLID_132_" class="st0" d="M-197.2,431.6c-0.1,0-0.2,0-0.3,0c0,0,0,0-0.1,0v-0.1c0-0.6,0-1.2,0-1.8v-0.1
		c0-0.4-0.2-0.6-0.5-0.6c-0.1,0-0.2,0-0.3,0c-0.2,0-0.4,0-0.6,0c0-0.1,0-0.2,0-0.3h0.1c0.2,0,0.5,0,0.7,0c0.1,0,0.3,0,0.4,0.1
		c0.3,0.1,0.5,0.4,0.5,0.7v0.1C-197.3,430.3-197.3,430.9-197.2,431.6C-197.2,431.5-197.2,431.6-197.2,431.6z"/>
	<path id="XMLID_131_" class="st0" d="M-192.8,431.6c-0.1,0-0.2,0-0.4,0c0-0.6,0-1.3,0-1.9c0.1,0,0.2,0,0.4,0
		C-192.8,430.3-192.8,431-192.8,431.6z"/>
	<path id="XMLID_124_" class="st0" d="M-204.6,429.7c0.1,0,0.2,0,0.4,0c0,0.6,0,1.3,0,1.9c-0.1,0-0.2,0-0.4,0
		C-204.6,431-204.6,430.3-204.6,429.7z"/>
	<path id="XMLID_111_" class="st0" d="M-189.5,431.6c-0.1,0-0.3,0-0.4,0c0-0.6,0-1.2,0-1.9c0.1,0,0.2,0,0.4,0
		C-189.5,430.3-189.5,431-189.5,431.6z"/>
	<path id="XMLID_110_" class="st0" d="M-180,428.7c0.1,0,0.2,0,0.4,0v0.1c0,0.4,0,0.9,0,1.3c0,0.1,0,0.1-0.1,0.2s-0.1,0.2-0.2,0.3
		c0,0,0,0-0.1,0C-180.1,430.5-180.1,428.8-180,428.7z"/>
	<path id="XMLID_108_" class="st0" d="M-178.5,430.6c0-0.6,0-1.3,0-1.9c0.1,0,0.2,0,0.4,0v0.1c0,0.5,0,0.9,0,1.4
		c0,0.1,0,0.1-0.1,0.2s-0.1,0.2-0.2,0.3C-178.5,430.6-178.5,430.6-178.5,430.6z"/>
	<path id="XMLID_107_" class="st0" d="M-179.5,405.1c-0.3,0.3-0.6,0.6-0.9,0.9c-2.3-2.2-5-3.4-8.2-3.4c-3.2,0-5.9,1.2-8.2,3.4
		c-0.3-0.3-0.6-0.6-0.8-0.9c0.1-0.2,1.3-1.2,2-1.6c1.7-1.1,3.6-1.8,5.7-2c2.3-0.2,4.5,0.1,6.6,1C-181.9,403.1-180.6,404-179.5,405.1
		z"/>
	<path id="XMLID_104_" class="st0" d="M-181.8,407.4c-0.3,0.3-0.6,0.6-0.9,0.9c-1.6-1.6-3.6-2.4-5.9-2.4c-2.3,0-4.2,0.8-5.9,2.4
		c-0.3-0.3-0.6-0.6-0.9-0.9C-191.9,403.8-185.6,403.5-181.8,407.4z"/>
</g>
</svg>
