<?xml version="1.0" encoding="utf-8"?>
<!-- Generator: Adobe Illustrator 19.0.0, SVG Export Plug-In . SVG Version: 6.00 Build 0)  -->
<svg version="1.1" id="Layer_1" xmlns="http://www.w3.org/2000/svg" xmlns:xlink="http://www.w3.org/1999/xlink" x="0px" y="0px"
	 viewBox="0 0 107.6 100.6" style="enable-background:new 0 0 107.6 100.6;" xml:space="preserve">
<style type="text/css">
	.st0{fill:#29170F;}
	.st1{fill:#FFF6EE;}
	.st2{fill:#CFA46B;}
	.st3{fill:#A34824;}
	.st4{fill:#FFE6CA;}
	.st5{fill:none;stroke:#A34824;stroke-width:0.7563;stroke-miterlimit:10;}
	.st6{clip-path:url(#XMLID_60_);fill:#29170F;}
	.st7{clip-path:url(#XMLID_60_);fill:none;stroke:#A34824;stroke-width:0.7563;stroke-miterlimit:10;}
</style>
<g id="XMLID_933_">
	<g id="XMLID_481_">
		<g id="XMLID_491_">
			<defs>
				<polygon id="XMLID_492_" points="87.1,45.2 88.7,47.6 84.3,51.5 84.4,55.4 89.4,57.5 91,59.9 52.4,68.9 97.3,69.4 97.3,40.2 
					88.7,41.6 				"/>
			</defs>
			<clipPath id="XMLID_58_">
				<use xlink:href="#XMLID_492_"  style="overflow:visible;"/>
			</clipPath>
		</g>
	</g>
	<g id="XMLID_409_">
		<path id="XMLID_479_" class="st0" d="M91.4,26.2c-0.1-0.6-0.4-1.5-1.1-2.4c-1-1.3-2.2-2-2.8-2.2c0.2,0.3,1,1.3,1,2.8
			c0,1.8-1.1,2.9-1.3,3.1c0.3-0.7,0.6-1.8,0.3-2.9c-0.6-1.9-2.6-2.2-3.4-4.2c-0.3-0.7-0.4-1.8,0.1-3.3c1.4-0.4,2.8-0.8,4.2-1.2
			c-0.5,1.9-0.3,3.1,0.1,3.9c0.8,1.7,2.3,2.1,2.9,4.1C91.6,24.7,91.5,25.6,91.4,26.2z"/>
		<path id="XMLID_478_" class="st0" d="M91.4,26.2c-0.1-0.6-0.4-1.5-1.1-2.4c-1-1.3-2.2-2-2.8-2.2c0.2,0.3,1,1.3,1,2.8
			c0,1.8-1.1,2.9-1.3,3.1c0.3-0.7,0.6-1.8,0.3-2.9c-0.6-1.9-2.6-2.2-3.4-4.2c-0.3-0.7-0.4-1.8,0.1-3.3c1.4-0.4,2.8-0.8,4.2-1.2
			c-0.5,1.9-0.3,3.1,0.1,3.9c0.8,1.7,2.3,2.1,2.9,4.1C91.6,24.7,91.5,25.6,91.4,26.2z"/>
		<rect id="XMLID_477_" x="6.7" y="5.5" class="st1" width="96.6" height="87.8"/>
		<rect id="XMLID_476_" x="9.5" y="8.1" class="st2" width="90.6" height="65.1"/>
		<g id="XMLID_473_">
			<g>
				<path id="XMLID_79_" class="st3" d="M39.5,79.5h-7.6l0.6-2c0.7,0.3,1.3,0.5,2.2,0.5h5.9l0.5,7l-1.7,0.4L39.5,79.5z M41.2,86.9
					l-8.7,0.5l0.5-7.4l1.2-0.3l0,6.1l6.9-0.3L41.2,86.9z"/>
				<path id="XMLID_82_" class="st3" d="M42.8,79.5l0.6-2c0.7,0.3,1.3,0.5,2.2,0.5h0.8L46,79.5H42.8z M45.7,82.2l-1.7,0.4l0.5-2.6
					l1.4-0.3L45.7,82.2z"/>
				<path id="XMLID_85_" class="st3" d="M47.6,79.5l0.6-2c0.7,0.3,1.3,0.5,2.2,0.5h4l0.8,1.5H47.6z M55.5,86.8l-1.8,0.5l0.4-7.4
					l1.3-0.2L55.5,86.8z"/>
				<path id="XMLID_88_" class="st3" d="M57.3,85.5l7.9-0.2l-0.8,1.5l-7.5,0.5L57.3,85.5z M57.6,79.5l0.6-2c0.7,0.3,1.3,0.5,2.2,0.5
					h4l1.4,4.1l-0.5,2.8l-1.8,0.5l0.7-3.1l-0.7-2.7H57.6z M59.5,81.9l1.1,1.5l-1.8,0.5L58,82.4l0.7-2.4l1.4-0.3L59.5,81.9z"/>
				<path id="XMLID_92_" class="st3" d="M74.9,79.5H67l0.6-2c0.7,0.3,1.3,0.5,2.2,0.5H76l0.4,1.5l-1,5.5l-1.7,0.4L74.9,79.5z
					 M75,86.9L69,87.4l-0.9-7.4l1.2-0.3l1.2,6.1l4.7-0.3L75,86.9z"/>
			</g>
			<g>
				<path id="XMLID_61_" class="st3" d="M39.5,79.5h-7.6l0.6-2c0.7,0.3,1.3,0.5,2.2,0.5h5.9l0.5,7l-1.7,0.4L39.5,79.5z M41.2,86.9
					l-8.7,0.5l0.5-7.4l1.2-0.3l0,6.1l6.9-0.3L41.2,86.9z"/>
				<path id="XMLID_66_" class="st3" d="M42.8,79.5l0.6-2c0.7,0.3,1.3,0.5,2.2,0.5h0.8L46,79.5H42.8z M45.7,82.2l-1.7,0.4l0.5-2.6
					l1.4-0.3L45.7,82.2z"/>
				<path id="XMLID_69_" class="st3" d="M47.6,79.5l0.6-2c0.7,0.3,1.3,0.5,2.2,0.5h4l0.8,1.5H47.6z M55.5,86.8l-1.8,0.5l0.4-7.4
					l1.3-0.2L55.5,86.8z"/>
				<path id="XMLID_72_" class="st3" d="M57.3,85.5l7.9-0.2l-0.8,1.5l-7.5,0.5L57.3,85.5z M57.6,79.5l0.6-2c0.7,0.3,1.3,0.5,2.2,0.5
					h4l1.4,4.1l-0.5,2.8l-1.8,0.5l0.7-3.1l-0.7-2.7H57.6z M59.5,81.9l1.1,1.5l-1.8,0.5L58,82.4l0.7-2.4l1.4-0.3L59.5,81.9z"/>
				<path id="XMLID_76_" class="st3" d="M74.9,79.5H67l0.6-2c0.7,0.3,1.3,0.5,2.2,0.5H76l0.4,1.5l-1,5.5l-1.7,0.4L74.9,79.5z
					 M75,86.9L69,87.4l-0.9-7.4l1.2-0.3l1.2,6.1l4.7-0.3L75,86.9z"/>
			</g>
			<g id="XMLID_474_">
				<path id="XMLID_42_" class="st3" d="M39.5,79.5h-7.6l0.6-2c0.7,0.3,1.3,0.5,2.2,0.5h5.9l0.5,7l-1.7,0.4L39.5,79.5z M41.2,86.9
					l-8.7,0.5l0.5-7.4l1.2-0.3l0,6.1l6.9-0.3L41.2,86.9z"/>
				<path id="XMLID_45_" class="st3" d="M42.8,79.5l0.6-2c0.7,0.3,1.3,0.5,2.2,0.5h0.8L46,79.5H42.8z M45.7,82.2l-1.7,0.4l0.5-2.6
					l1.4-0.3L45.7,82.2z"/>
				<path id="XMLID_48_" class="st3" d="M47.6,79.5l0.6-2c0.7,0.3,1.3,0.5,2.2,0.5h4l0.8,1.5H47.6z M55.5,86.8l-1.8,0.5l0.4-7.4
					l1.3-0.2L55.5,86.8z"/>
				<path id="XMLID_51_" class="st3" d="M57.3,85.5l7.9-0.2l-0.8,1.5l-7.5,0.5L57.3,85.5z M57.6,79.5l0.6-2c0.7,0.3,1.3,0.5,2.2,0.5
					h4l1.4,4.1l-0.5,2.8l-1.8,0.5l0.7-3.1l-0.7-2.7H57.6z M59.5,81.9l1.1,1.5l-1.8,0.5L58,82.4l0.7-2.4l1.4-0.3L59.5,81.9z"/>
				<path id="XMLID_55_" class="st3" d="M74.9,79.5H67l0.6-2c0.7,0.3,1.3,0.5,2.2,0.5H76l0.4,1.5l-1,5.5l-1.7,0.4L74.9,79.5z
					 M75,86.9L69,87.4l-0.9-7.4l1.2-0.3l1.2,6.1l4.7-0.3L75,86.9z"/>
			</g>
		</g>
		<g id="XMLID_448_">
			<g id="XMLID_456_">
				<g id="XMLID_457_">
					<g id="XMLID_458_">
						<path id="XMLID_459_" class="st3" d="M90.2,30c-0.2-0.1-0.3-0.3-0.5-0.3c-1.3-0.5-2.7-1-4-1.5c-0.4-0.1-0.6-0.3-0.6-0.7
							c0-1.1-0.1-2.3,0-3.4c0.2-1.9,0.9-3.5,3-4.1c0.3-0.1,0.6-0.2,0.7-0.4c0.2-0.3,0.6-0.7,0.5-1c0-0.3-0.5-0.6-0.8-0.7
							c-8.3-2.5-16.5-5-24.8-7.5c-0.3-0.1-0.6-0.2-0.9-0.1c-2.2,0.3-4.4,0.6-6.6,0.9c-5.7,0.8-11.4,1.6-17.1,2.4
							c-5.8,0.8-11.7,1.6-17.5,2.4c-2,0.3-3.5,1.4-4.1,3.2c-1.5,4.2-1.1,8.2,1.6,11.8c0.1,0.1,0.1,0.2,0.1,0.3
							c-1,0.3-1.9,0.6-2.8,0.8c-0.9,0.3-1.1,1-0.4,1.6c0.3,0.3,0.8,0.5,1.2,0.7c1.1,0.4,1.8,1.2,2.2,2.3c0.6,1.5,0.5,3.2,0.5,4.8
							c0,0.8-0.3,1.1-1,1.3c-1.3,0.4-2.6,1-3.9,1.5c-0.2,0.1-0.4,0.4-0.6,0.7c0.2,0.2,0.5,0.4,0.7,0.5c0.4,0.2,0.9,0.2,1.2,0.3
							c-0.5,0.8-1.1,1.6-1.3,2.4c-1.1,3.5-0.8,6.9,0.8,10.2c0.6,1.2,1.6,2,2.9,2.5c8.9,2.9,17.8,5.8,26.7,8.6
							c0.5,0.2,1.2,0.2,1.7,0.1c11.3-2.7,22.6-5.5,33.9-8.2c2.2-0.5,4.3-1,6.5-1.6c0.2-0.1,0.5-0.3,0.7-0.4
							c-0.2-0.2-0.3-0.6-0.5-0.7c-0.4-0.3-0.8-0.5-1.3-0.7c-1-0.4-2.1-0.7-3.1-1.1c-0.2-0.1-0.5-0.3-0.5-0.5c0-1.3-0.1-2.6,0-3.8
							c0.2-1.8,1-3.3,2.9-3.9c0.4-0.1,0.7-0.4,1-0.7c0.5-0.5,0.4-1.2-0.3-1.4C86,46.1,85.5,46,85,45.9c2.2-1.7,2.9-4.1,3.1-6.7
							c0.3-2.6,0.2-5.1-1.6-7.3c0.3-0.1,0.4-0.2,0.6-0.2c0.9-0.2,1.9-0.4,2.8-0.7C90.6,30.8,90.7,30.4,90.2,30z M50.3,31.2
							c0-0.9,0.1-1.8,0.1-2.7c0-0.4,0.1-0.6,0.6-0.7c10.5-2.1,21-4.3,31.5-6.5c0.6-0.1,1.2-0.2,2-0.4c-1.2,2.5-1,5.1-0.7,7.7
							c-11.2,2.8-22.3,5.6-33.4,8.3C50.3,35,50.3,33.1,50.3,31.2z M19.6,20.5c0.4-1.3,1.4-1.7,2.7-1.3c8.7,2.8,17.4,5.7,26.1,8.5
							c0.2,0.1,0.3,0.1,0.5,0.2c-0.1,3-0.2,6-0.3,9.1c-1.3-0.4-2.6-0.7-3.8-1.1c-7.7-2.1-15.4-4.3-23.1-6.4
							c-0.9-0.2-1.4-0.8-1.8-1.6C18.9,25.5,18.7,23,19.6,20.5z M46.3,65.5c-1.7-0.5-3.3-0.9-4.9-1.3c-7.3-2.1-14.7-4.1-22-6.2
							c-0.8-0.2-1.4-0.8-1.7-1.5c-1-2.3-1.2-4.8-0.5-7.3c0.4-1.6,1.4-2,3-1.5c8.6,2.8,17.2,5.6,25.8,8.4c0.5,0.2,0.7,0.4,0.6,0.9
							C46.5,59.9,46.4,62.6,46.3,65.5z M21.2,42.9c0.2-2.6,0.4-5.1-0.8-7.7c1.1,0.2,2,0.4,3,0.6c10.1,2.1,20.3,4.2,30.4,6.3
							c0.2,0,0.6,0.3,0.6,0.5c0.1,2.9,0.2,5.7,0.3,8.7C43.5,48.5,32.4,45.7,21.2,42.9z M81.4,57.2c-11.2,2.8-22.3,5.6-33.6,8.4
							c0.1-3.1,0.2-6,0.3-9.1c1.7-0.4,3.4-0.7,5.1-1c1-0.2,2-0.6,3-0.2c0.1,0,0.3,0,0.4-0.1c4.2-1.5,8.6-2.1,12.9-3.1
							c3.9-0.9,7.8-1.6,11.8-2.4c0.2,0,0.4-0.1,0.8-0.1C81,52,81.1,54.6,81.4,57.2z M85.2,41.6c-0.4,1.2-1.2,1.9-2.5,2.3
							C74.1,46.2,65.6,48.6,57,51c-0.2,0.1-0.4,0.1-0.7,0.2c-0.1-3-0.2-5.8-0.3-8.7c0-0.2,0.3-0.5,0.6-0.6c3.3-1.1,6.6-2.2,10-3.3
							c5.2-1.7,10.5-3.4,15.7-5.1c1.8-0.6,2.9-0.1,3.3,1.7C86.1,37.4,85.9,39.5,85.2,41.6z"/>
					</g>
				</g>
			</g>
			<path id="XMLID_455_" class="st4" d="M56.3,51.2c0-1.1-0.1-2.2-0.1-3.3c0-1-0.1-2-0.1-3c0-0.8,0-1.6-0.1-2.4
				c0-0.2,0.3-0.5,0.6-0.6c3.3-1.1,6.6-2.2,10-3.3c5.2-1.7,10.5-3.4,15.7-5.1c1.8-0.6,2.9-0.1,3.3,1.7c0.5,2.1,0.4,4.3-0.3,6.3
				c-0.4,1.2-1.2,1.9-2.5,2.3C74.1,46.2,65.6,48.6,57,51C56.8,51.1,56.6,51.1,56.3,51.2z"/>
			<path id="XMLID_454_" class="st4" d="M48.9,27.9c-0.1,3-0.2,6-0.3,9.1c-1.3-0.4-2.6-0.7-3.8-1.1c-7.7-2.1-15.4-4.3-23.1-6.4
				c-0.9-0.2-1.4-0.8-1.8-1.6c-1-2.4-1.2-4.9-0.4-7.4c0.4-1.3,1.4-1.7,2.7-1.3c8.7,2.8,17.4,5.7,26.1,8.5
				C48.6,27.7,48.7,27.8,48.9,27.9z"/>
			<path id="XMLID_453_" class="st4" d="M46.3,65.5c-1.7-0.5-3.3-0.9-4.9-1.3c-7.3-2.1-14.7-4.1-22-6.2c-0.8-0.2-1.4-0.8-1.7-1.5
				c-1-2.3-1.2-4.8-0.5-7.3c0.4-1.6,1.4-2,3-1.5c8.6,2.8,17.2,5.6,25.8,8.4c0.5,0.2,0.7,0.4,0.6,0.9C46.5,59.9,46.4,62.6,46.3,65.5z
				"/>
			<path id="XMLID_451_" class="st4" d="M54.8,51.3c-11.2-2.8-22.4-5.6-33.5-8.3c0.2-2.6,0.4-5.1-0.8-7.7c1.1,0.2,2,0.4,3,0.6
				c10.1,2.1,20.3,4.2,30.4,6.3c0.2,0,0.6,0.3,0.6,0.5c0,0.6,0,1.1,0.1,1.7"/>
			<path id="XMLID_450_" class="st4" d="M84.4,21c-1.2,2.5-1,5.1-0.7,7.7c-11.2,2.8-22.3,5.6-33.4,8.3c0-1.9,0-3.8,0-5.8
				c0-0.9,0.1-1.8,0.1-2.7c0-0.4,0.1-0.6,0.6-0.7c10.5-2.1,21-4.3,31.5-6.5C83.1,21.2,83.7,21.1,84.4,21z"/>
			<path id="XMLID_449_" class="st4" d="M48.1,56.5c1.7-0.4,3.4-0.7,5.1-1c1-0.2,2-0.6,3-0.2c0.1,0,0.3,0,0.4-0.1
				c4.2-1.5,8.6-2.1,12.9-3.1c3.9-0.9,7.8-1.6,11.8-2.4c0.2,0,0.4-0.1,0.8-0.1c-1.1,2.5-1,5-0.7,7.7c-11.2,2.8-22.3,5.6-33.6,8.4
				C47.9,62.5,48,59.5,48.1,56.5z"/>
		</g>
		<g id="XMLID_446_">
			<line id="XMLID_447_" class="st5" x1="61.6" y1="30.2" x2="83.6" y2="25.8"/>
		</g>
		<g id="XMLID_444_">
			<line id="XMLID_445_" class="st5" x1="50.3" y1="30.2" x2="72.3" y2="25.8"/>
		</g>
		<g id="XMLID_442_">
			<line id="XMLID_443_" class="st5" x1="83" y1="42.4" x2="55.9" y2="50.3"/>
		</g>
		<g id="XMLID_440_">
			<path id="XMLID_441_" class="st5" d="M71.5,41.6c-5.2,1.5-10.4,3.1-15.6,4.6"/>
		</g>
		<g id="XMLID_438_">
			<line id="XMLID_439_" class="st5" x1="51.6" y1="59.9" x2="82.2" y2="53.3"/>
		</g>
		<g id="XMLID_436_">
			<line id="XMLID_437_" class="st5" x1="56.7" y1="56.7" x2="82.7" y2="51.3"/>
		</g>
		<path id="XMLID_435_" class="st5" d="M47.4,63.4c9.9-2.3,19.8-4.7,29.6-7"/>
		<g id="XMLID_411_">
			<defs>
				<polygon id="XMLID_412_" points="87.1,45.2 88.7,47.6 84.3,51.5 84.4,55.4 89.4,57.5 91,59.9 52.4,68.9 97.3,69.4 97.3,40.2 
					88.7,41.6 				"/>
			</defs>
			<clipPath id="XMLID_60_">
				<use xlink:href="#XMLID_412_"  style="overflow:visible;"/>
			</clipPath>
			<path id="XMLID_434_" class="st6" d="M128.4,19.4"/>
			<line id="XMLID_433_" class="st7" x1="52.4" y1="69" x2="129.4" y2="59.4"/>
			<line id="XMLID_432_" class="st7" x1="52.3" y1="67.3" x2="129.3" y2="57.7"/>
			<line id="XMLID_431_" class="st7" x1="51.3" y1="66" x2="128.3" y2="56.4"/>
			<line id="XMLID_430_" class="st7" x1="52.3" y1="64.5" x2="129.3" y2="54.9"/>
			<line id="XMLID_429_" class="st7" x1="52.3" y1="62.8" x2="129.3" y2="53.3"/>
			<line id="XMLID_428_" class="st7" x1="51.3" y1="61.5" x2="128.3" y2="51.9"/>
			<line id="XMLID_427_" class="st7" x1="52.2" y1="60.1" x2="129.2" y2="50.6"/>
			<line id="XMLID_426_" class="st7" x1="52.2" y1="58.5" x2="129.2" y2="48.9"/>
			<line id="XMLID_425_" class="st7" x1="51.2" y1="57.1" x2="128.2" y2="47.5"/>
			<line id="XMLID_424_" class="st7" x1="52.2" y1="55.8" x2="129.2" y2="46.2"/>
			<line id="XMLID_423_" class="st7" x1="52.1" y1="54.1" x2="129.2" y2="44.5"/>
			<line id="XMLID_422_" class="st7" x1="51.1" y1="52.7" x2="128.1" y2="43.2"/>
			<line id="XMLID_421_" class="st7" x1="52.1" y1="51.4" x2="129.1" y2="41.8"/>
			<line id="XMLID_420_" class="st7" x1="52.1" y1="49.7" x2="129.1" y2="40.1"/>
			<line id="XMLID_419_" class="st7" x1="51.1" y1="48.4" x2="128.1" y2="38.8"/>
			<line id="XMLID_418_" class="st7" x1="52" y1="47.1" x2="129" y2="37.5"/>
			<line id="XMLID_417_" class="st7" x1="52" y1="45.4" x2="129" y2="35.8"/>
			<line id="XMLID_416_" class="st7" x1="51" y1="44.1" x2="128" y2="34.5"/>
			<line id="XMLID_415_" class="st7" x1="52" y1="42.7" x2="129" y2="33.1"/>
			<line id="XMLID_414_" class="st7" x1="51.9" y1="41" x2="129" y2="31.4"/>
			<line id="XMLID_413_" class="st7" x1="50.9" y1="39.7" x2="127.9" y2="30.1"/>
		</g>
		<path id="XMLID_410_" class="st0" d="M83.5,33.5c-0.1-0.6-0.4-1.5-1.1-2.4c-1-1.3-2.2-2-2.8-2.2c0.2,0.3,1,1.3,1,2.8
			c0,1.8-1.1,2.9-1.3,3.1c0.3-0.7,0.6-1.8,0.3-2.9c-0.6-1.9-2.6-2.2-3.4-4.2c-0.3-0.7-0.4-1.8,0.1-3.3c1.4-0.4,2.8-0.8,4.2-1.2
			c-0.5,1.9-0.3,3.1,0.1,3.9c0.8,1.7,2.3,2.1,2.9,4.1C83.7,32.1,83.6,32.9,83.5,33.5z"/>
	</g>
	<g id="XMLID_337_">
		<g id="XMLID_339_">
			<defs>
				<polygon id="XMLID_340_" points="87.1,45.2 88.7,47.6 84.3,51.5 84.4,55.4 89.4,57.5 91,59.9 52.4,68.9 97.3,69.4 97.3,40.2 
					88.7,41.6 				"/>
			</defs>
			<clipPath id="XMLID_95_">
				<use xlink:href="#XMLID_340_"  style="overflow:visible;"/>
			</clipPath>
		</g>
	</g>
</g>
</svg>
