<?xml version="1.0" encoding="utf-8"?>
<!-- Generator: Adobe Illustrator 19.0.0, SVG Export Plug-In . SVG Version: 6.00 Build 0)  -->
<svg version="1.1" xmlns="http://www.w3.org/2000/svg" xmlns:xlink="http://www.w3.org/1999/xlink" x="0px" y="0px"
	 viewBox="0 0 112.4 36.5" style="enable-background:new 0 0 112.4 36.5;" xml:space="preserve">
<style type="text/css">
	.st0{fill:#FFF6EE;}
</style>
<g id="Layer_2">
</g>
<g id="Layer_1">
	<g id="XMLID_62502_">
		<path id="XMLID_62534_" class="st0" d="M55.2,0c5.1,0.1,9.6,1.9,13.3,5.7c3.6,3.7,5.3,8.2,5.1,13.4c-0.2,4.9-2.1,9-5.7,12.4
			c-3.8,3.6-8.4,5.3-13.6,5c-5-0.2-9.2-2.1-12.6-5.6c-3.6-3.7-5.3-8.2-5.1-13.4c0.2-4.9,2.1-9,5.7-12.4C45.8,1.7,50.1,0.1,55.2,0z
			 M37,18.7c0.2,4.6,1.8,8.5,4.9,11.7c3.6,3.7,8,5.6,13.2,5.6c4.8,0,8.9-1.6,12.4-4.8c3.8-3.5,5.7-7.9,5.7-13
			c0-4.7-1.6-8.8-4.9-12.2c-3.6-3.8-8-5.7-13.3-5.7c-4.7,0-8.9,1.6-12.3,4.8C38.8,8.9,36.9,13.5,37,18.7z"/>
		<path id="XMLID_62533_" class="st0" d="M53.8,21.5c0-2,0-4,0-6c0.2,0.2,0.3,0.4,0.5,0.5c0.2,0.2,0.4,0.4,0.5,0.6
			c0.1,0.1,0.1,0.1,0.1,0.2c0,1.9,0,3.8,0,5.7c0,0.1,0,0.1,0,0.2c0.1,0,0.2,0,0.3,0c0-1.9,0-3.8,0-5.7c0.2,0.1,0.3,0.2,0.4,0.2
			c0.2,0.1,0.4,0.1,0.6,0.2c0.1,0,0.1,0.1,0.1,0.1c0,0.3,0,0.7,0,1c0,0.9,0,1.9,0,2.8c0,0,0,0.1,0,0.1c0.5-0.1,1-0.3,1.5-0.4
			c0,0,0,0,0,0c-0.2,0.2-0.3,0.5-0.5,0.7c-0.4,0.5-0.8,0.9-1.2,1.4c-0.6,0.6-1.3,1.2-2.1,1.6c-0.2,0.1-0.2,0.2-0.2,0.3
			c0,0.4,0,0.9,0,1.3c0,0.1,0,0.1,0.1,0.2c0,0,0.1,0,0.1-0.1c0.3-0.2,0.5-0.4,0.8-0.6c0.5-0.5,1-0.9,1.5-1.4
			c0.6-0.6,1.1-1.2,1.6-1.9c0.3-0.5,0.6-0.9,0.9-1.4c0.1-0.1,0.1-0.1,0.2-0.1c0.4-0.1,0.7-0.1,1.1-0.2c0.4-0.1,0.9-0.3,1.3-0.4
			c0.2-0.1,0.4-0.1,0.5-0.1c0.1,0,0.2,0,0.3,0c0.2,0.7,0.6,1.4,1,1.9c0.3,0.4,0.7,0.9,1,1.3c0.4,0.5,0.8,0.9,1.1,1.4
			c0.1,0.2,0.3,0.3,0.4,0.5c0,0,0,0.1,0.1,0.1c-0.1,0-0.3,0-0.4,0c-0.3,0-0.6,0-0.8,0c-0.6,0-1.1,0-1.7,0c-0.3,0-0.6,0-1,0
			c-0.3,0-0.6,0-1,0.1c-0.5,0-1.1,0.1-1.6,0.2c-1,0.1-1.9,0.3-2.8,0.7c-0.1,0-0.3,0.1-0.4,0.2c-0.1,0.1,0,0.3,0,0.4
			c0,0.1,0,0.3,0,0.4c-0.8,0-1.7,0-2.5,0c0-0.2,0-0.5,0-0.7c0-0.1,0-0.1-0.1-0.1c-0.7-0.3-1.3-0.5-2.1-0.6c-0.4-0.1-0.8-0.2-1.2-0.2
			c-0.3,0-0.6-0.1-1-0.1c-0.4,0-0.9-0.1-1.4-0.1c-1,0-2.1,0-3.1-0.1c-0.3,0-0.6,0-0.9,0c0,0,0,0-0.1,0c0.1-0.1,0.1-0.2,0.2-0.2
			c0.5-0.6,1-1.2,1.5-1.8c0.4-0.5,0.9-1.1,1.3-1.7c0.3-0.4,0.5-0.9,0.6-1.4c0,0,0.1-0.1,0.1-0.1c0.3,0,0.7,0.1,1,0.1
			c0.3,0,0.6,0.1,0.9,0.1c0.4,0.1,0.7,0.1,1.1,0.2c0.7,0.1,1.4,0.3,2,0.4C53.2,21.4,53.5,21.5,53.8,21.5z"/>
		<path id="XMLID_62532_" class="st0" d="M54.6,1.4c-0.1,0.2-0.2,0.4-0.2,0.6c0,0,0,0-0.1,0c-0.1,0-0.2,0-0.3,0
			c-0.4,0-0.9,0.1-1.3,0.1c-1,0.1-2,0.4-2.9,0.7c-1.5,0.5-2.9,1.2-4.1,2.1c-0.5,0.4-1,0.8-1.5,1.2c-0.5,0.4-1,0.9-1.4,1.3
			c-0.8,0.9-1.5,1.8-2.1,2.9c-0.7,1.3-1.3,2.7-1.6,4.1c-0.1,0.5-0.2,1.1-0.3,1.6c0,0.3-0.1,0.6-0.1,0.8c0,0.4-0.1,0.9-0.1,1.3
			c0,0.4,0,0.7,0,1.1c0,0.2,0,0.5,0.1,0.7c0,0.3,0.1,0.6,0.1,0.9c0.1,0.5,0.2,1,0.3,1.5c0.2,0.7,0.4,1.4,0.7,2.1
			c0.3,0.8,0.8,1.6,1.2,2.4c0.2-0.1,0.3-0.3,0.5-0.4c0.5-0.4,0.9-0.7,1.4-1c0.1,0,0.2,0,0.3,0c0.1,0,0.2,0.1,0.1,0.2
			c-0.1,0.1-0.2,0.3-0.3,0.4c0,0,0,0.1-0.1,0.1c0.3,0,0.6,0,0.9-0.1c0,0,0,0,0.1,0c1.2,0,2.4,0,3.6,0c0.3,0,0.7,0,1,0.1
			c0.5,0,1.1,0.1,1.6,0.2c0.8,0.1,1.7,0.3,2.5,0.6c0.3,0.1,0.5,0.2,0.8,0.3c0,0,0.1,0,0.1,0.1c-0.2-0.1-0.5-0.1-0.7-0.2
			c-0.5-0.1-0.9-0.2-1.4-0.3c-0.4-0.1-0.9-0.1-1.3-0.2c-0.4,0-0.8-0.1-1.2-0.1c-1,0-1.9,0-2.9-0.1c-0.5,0-0.9,0-1.4,0
			c-0.3,0-0.6,0-0.9,0.1c-0.5,0-0.9,0.1-1.4,0.1c-0.4,0-0.7,0.1-1.1,0.1c-0.1,0-0.2,0-0.2,0c1.3,2,2.9,3.7,4.9,5
			c2,1.3,4.2,2.1,6.6,2.5c-0.1-0.1-0.2-0.1-0.2-0.2c-0.1-0.1-0.1-0.2-0.2-0.2c2,0,4,0,6,0c-0.2,0.2-0.3,0.3-0.5,0.5
			c2.9-0.4,5.5-1.5,7.8-3.4c3.3-2.7,5.4-6.1,6-10.3c0.7-4.7-0.5-9-3.6-12.7C64.7,4.2,60.6,2.3,55.8,2c-0.1-0.2-0.2-0.4-0.3-0.6
			c3.8,0.1,7.1,1.3,10.1,3.5c3.6,2.8,5.8,6.4,6.5,10.8c0.8,5-0.5,9.6-3.8,13.4c-3,3.5-6.9,5.6-11.6,6c-5.5,0.4-10.2-1.3-14-5.3
			c-3.3-3.5-4.8-7.6-4.6-12.4c0.1-3.2,1.1-6.1,2.9-8.7c1.7-2.5,4-4.4,6.8-5.8C49.9,2,52.2,1.4,54.6,1.4z"/>
		<path id="XMLID_62531_" class="st0" d="M57.6,9.3c-0.4-0.1-0.7-0.2-1.1-0.3c-0.4-0.1-0.9-0.1-1.4-0.1C54.4,9,53.7,9.4,53,9.9
			c-0.7,0.6-1.1,1.3-1.3,2.2c-0.1,0.3-0.1,0.6-0.1,0.9c0,0.7,0.2,1.3,0.4,1.9c0.2,0.6,0.6,1.1,1.1,1.6c0.2,0.2,0.4,0.4,0.6,0.6
			c0,0,0,0.1,0,0.1c0,0.7,0,1.4,0,2.2c-0.3-0.2-0.5-0.3-0.7-0.5c-0.4-0.3-0.8-0.6-1.2-1c-0.7-0.7-1.3-1.5-1.6-2.4
			c-0.2-0.5-0.4-0.9-0.4-1.4c0-0.4-0.1-0.9-0.1-1.3c0-0.7,0.2-1.4,0.5-2.1c0.3-0.6,0.6-1.1,1.1-1.5c0.4-0.4,0.9-0.7,1.4-0.9
			c0.4-0.1,0.7-0.3,1.1-0.4c0.5-0.2,1.1-0.2,1.7-0.1c0.6,0,1.2,0.2,1.8,0.4c0.2,0.1,0.3,0.1,0.5,0.2c0.1,0.1,0.1,0.2,0.1,0.3
			C57.7,8.9,57.7,9.1,57.6,9.3z"/>
		<path id="XMLID_62530_" class="st0" d="M51.3,6.9c0.2,0.2,0.3,0.3,0.4,0.5c-0.3,0.2-0.7,0.5-1,0.7c-0.5,0.3-0.9,0.7-1.3,1.2
			c-0.3,0.4-0.7,0.8-0.9,1.2c-0.5,0.7-0.8,1.5-1,2.3c-0.1,0.5-0.2,1.1-0.1,1.6c0,0.6,0.2,1.1,0.4,1.6c0.4,1.1,0.9,2.2,1.6,3.1
			c0.4,0.5,1,1.1,1.5,1.5c-0.2,0-0.3-0.1-0.5-0.1c-0.3,0-0.5-0.1-0.8-0.1c-0.3,0-0.6-0.1-0.9-0.1c-0.2,0-0.4,0-0.5-0.1
			c-0.1,0-0.2,0-0.3,0c0,0-0.1,0-0.1-0.1c-0.7-0.9-1.2-1.9-1.6-2.9c-0.2-0.5-0.3-1.1-0.4-1.7c-0.1-0.6-0.1-1.1-0.1-1.7
			c0.1-1.3,0.4-2.5,1.1-3.7c0.2-0.4,0.5-0.8,0.8-1.1c0.7-0.8,1.6-1.3,2.5-1.8C50.5,7.2,50.9,7,51.3,6.9z"/>
		<path id="XMLID_62529_" class="st0" d="M54,26.5c0-0.5,0-0.9,0-1.3c0,0,0-0.1,0-0.1c0.5-0.3,1-0.6,1.4-1c0.5-0.4,1-0.9,1.4-1.4
			c0.6-0.6,1.1-1.4,1.5-2.1c0.4-0.7,0.6-1.4,0.8-2.2c0,0,0-0.1,0-0.1c0.3,0,0.5,0,0.7-0.2c-0.1,0.2-0.1,0.4-0.1,0.6
			c-0.1,0.2-0.1,0.5-0.2,0.7c0,0,0,0.1,0,0.1c0,0,0.1,0,0.1-0.1c0.5-0.7,1.1-1.2,1.9-1.6c0.4-0.2,0.9-0.3,1.4-0.4
			c0.4-0.1,0.9-0.1,1.4-0.1c-0.2,0.3-0.3,0.6-0.5,0.9c-0.2,0.3-0.4,0.7-0.7,1c-0.4,0.5-0.8,0.8-1.4,1c-0.4,0.2-0.9,0.4-1.3,0.5
			c-0.5,0.2-1,0.3-1.6,0.3c-0.1,0-0.1,0.1-0.2,0.1c-0.3,0.5-0.6,0.9-0.9,1.4c-0.3,0.4-0.6,0.8-0.9,1.1c-0.5,0.5-1,1.1-1.5,1.6
			c-0.4,0.4-0.9,0.7-1.3,1.1C54.1,26.4,54.1,26.4,54,26.5z"/>
		<path id="XMLID_62528_" class="st0" d="M56.3,7.8c-0.4-0.1-0.7-0.1-1.1-0.2c0-1,0-2,0-3c-0.1,0-0.2,0-0.3,0c0,1,0,2,0,3
			c-0.4,0-0.7,0.1-1.1,0.1c0,0,0-0.1,0-0.1c0-1,0-2,0-3c0-0.2,0.1-0.3,0.1-0.5c0.3-0.9,0.7-1.8,1-2.7c0,0,0-0.1,0.1-0.2
			c0.1,0.3,0.2,0.6,0.3,0.8c0.3,0.8,0.6,1.6,0.9,2.4c0,0.1,0,0.1,0,0.2C56.4,5.6,56.4,6.7,56.3,7.8C56.4,7.8,56.3,7.8,56.3,7.8z"/>
		<path id="XMLID_62527_" class="st0" d="M59.8,6.8c0.3,0.2,0.5,0.3,0.8,0.5c0.6,0.4,1.2,0.9,1.7,1.5c0.5,0.5,0.9,1.1,1.3,1.7
			c0.5,0.8,0.9,1.7,1.3,2.7c0.2,0.6,0.4,1.2,0.5,1.9c0,0.3,0.1,0.6,0.1,0.9c0,0.4,0,0.7,0,1.1c0,0.5-0.1,1.1-0.2,1.6
			c-0.1,0.6-0.3,1.3-0.6,1.9c-0.3,0.6-0.6,1.3-1,1.8c0,0,0,0-0.1,0.1c-0.1-0.2-0.3-0.4-0.4-0.5c0,0,0-0.1,0-0.1c0.6-1,1.1-2,1.3-3.1
			c0.1-0.4,0.1-0.8,0.2-1.2c0-0.3,0.1-0.6,0.1-0.8c0-0.6-0.1-1.2-0.2-1.8c-0.2-1.2-0.6-2.3-1.2-3.3c-0.4-0.7-0.8-1.3-1.3-1.9
			c-0.3-0.4-0.7-0.8-1.1-1.1c-0.3-0.3-0.7-0.5-1-0.8c0,0-0.1-0.1-0.1-0.1C60,7.3,59.9,7.1,59.8,6.8z"/>
		<path id="XMLID_62526_" class="st0" d="M53.9,10.3c0.7,0.1,1.3,0.2,2,0.5c0.6,0.2,1.2,0.6,1.7,1.1c0.5,0.5,0.9,1.1,1.2,1.7
			c0.1,0.1,0.1,0.2,0.2,0.1c0.4-0.2,0.9,0.1,0.9,0.6c0,0.3-0.2,0.5-0.6,0.6c-0.3,0.1-0.6-0.1-0.7-0.4c0-0.1-0.1-0.1-0.2-0.2
			c-0.7-0.3-1.4-0.6-2-0.9c-0.4-0.2-0.8-0.4-1.1-0.8c-0.4-0.5-0.7-1-1-1.5C54.1,11,54,10.7,53.9,10.3z"/>
		<path id="XMLID_62525_" class="st0" d="M59.9,18.9c0.1-0.4,0.2-0.8,0.3-1.1c0.1-0.2,0.1-0.4,0-0.7c-0.1-0.2,0-0.3,0.1-0.4
			c0.4-0.5,0.7-1.1,0.8-1.8c0.1-0.4,0.1-0.8,0.1-1.1c0-0.5-0.2-1-0.4-1.5c-0.2-0.5-0.5-1-0.9-1.4c-0.1-0.2-0.3-0.3-0.4-0.5
			c0.1-0.2,0.2-0.5,0.3-0.8c0.3,0.2,0.5,0.5,0.7,0.7c0.3,0.4,0.6,0.7,0.8,1.1c0.4,0.6,0.7,1.3,0.8,2c0.1,0.5,0.1,1,0.1,1.5
			c-0.1,0.8-0.2,1.7-0.6,2.4c0,0.1-0.1,0.1-0.2,0.2c-0.4,0.2-0.8,0.4-1.1,0.7C60.3,18.6,60.1,18.8,59.9,18.9z"/>
		<path id="XMLID_62524_" class="st0" d="M59.4,5.9c0.1,0.4,0.3,0.8,0.3,1.2c0.1,0.4,0.2,0.8,0.2,1.3c0.1,0.5-0.1,0.9-0.3,1.4
			c-0.2,0.5-0.4,1-0.7,1.5c-0.1,0.1-0.1,0.3-0.2,0.4c0,0.1,0,0.1,0,0.2c0.3,0.5,0.6,1.1,0.8,1.7c-0.2-0.1-0.4-0.1-0.6-0.1
			c0,0-0.1,0-0.1-0.1c-0.2-0.6-0.5-1.3-0.9-1.8C57.7,11,57.3,10.5,57,10c-0.1-0.2-0.3-0.3-0.4-0.5c0-0.1-0.1-0.1-0.1-0.2
			c0,0,0,0,0,0c0.1,0.1,0.3,0.2,0.4,0.4c0.3,0.3,0.6,0.7,1,1c0,0,0.1,0,0.1,0c0,0,0-0.1,0-0.1C58,10,58,9.5,58,8.9
			c0-0.6,0.1-1.2,0.4-1.7C58.6,6.7,58.9,6.3,59.4,5.9C59.3,5.9,59.3,5.9,59.4,5.9z"/>
		<path id="XMLID_62523_" class="st0" d="M53.8,15.2c0.2,0,0.3-0.1,0.5-0.1c0.4,0,0.8-0.1,1.1-0.1c0.8,0,1.5,0.2,2.2,0.7
			c0.4,0.3,0.8,0.7,1.2,1c0.1,0.1,0.1,0.1,0.2,0c0.2-0.2,0.5-0.2,0.7-0.1c0.2,0.1,0.4,0.3,0.4,0.5c0,0.3-0.1,0.5-0.3,0.6
			c-0.3,0.2-0.7,0.1-0.9-0.2c-0.1-0.1-0.1-0.1-0.2-0.1c-0.2,0-0.4,0-0.6,0c-0.7,0-1.4-0.1-2.1-0.3c-0.4-0.1-0.7-0.3-0.9-0.6
			C54.6,16.2,54.2,15.7,53.8,15.2z"/>
		<path id="XMLID_62522_" class="st0" d="M50.6,3.9C50.8,4,51.1,4,51.3,4.1c0.6,0.2,1.2,0.6,1.7,1c0.2,0.1,0.3,0.3,0.4,0.4
			c0.1,0.1,0.1,0.1,0.1,0.2c0,0.6,0,1.2,0,1.8c0,0.1,0,0.1-0.1,0.1c-0.3,0.1-0.5,0.1-0.8,0.2c-0.1,0-0.1,0-0.2,0
			c-0.4-0.3-0.8-0.6-1.1-1.1c-0.2-0.3-0.3-0.7-0.5-1.1c-0.1-0.4-0.2-0.8-0.3-1.2C50.6,4.3,50.6,4.1,50.6,3.9z"/>
		<path id="XMLID_62521_" class="st0" d="M44.2,14.3c-0.2-1.3,0.1-3.7,1.6-5.7C47,7,48.6,5.9,50.7,5.3c0.1,0.2,0.1,0.4,0.2,0.5
			c0.1,0.2,0.1,0.2-0.1,0.3c-1,0.3-1.9,0.8-2.7,1.4C47.5,8,47,8.4,46.6,8.8c-0.6,0.7-1.1,1.4-1.5,2.2c-0.4,0.8-0.7,1.7-0.9,2.6
			C44.3,13.8,44.2,14,44.2,14.3z"/>
		<path id="XMLID_62520_" class="st0" d="M67.1,26.2c-0.1-0.1-0.1-0.2-0.2-0.2c0-0.1-0.1-0.1-0.1-0.2c0-0.1-0.1-0.2,0-0.3
			c0.1-0.1,0.2-0.1,0.3,0c0.3,0.1,0.6,0.3,0.9,0.5c0.4,0.3,0.8,0.6,1.1,0.9c0,0,0,0,0,0c-0.1,0-0.3,0-0.4,0c-0.2,0-0.4-0.1-0.7-0.1
			c-0.4,0-0.8-0.1-1.2-0.1c-0.1,0-0.3,0-0.4,0c-0.2,0-0.5,0-0.7,0c-0.5,0-1,0-1.4-0.1c-0.7,0-1.4,0-2.1,0c-0.4,0-0.8,0-1.2,0.1
			c-0.5,0-0.9,0.1-1.4,0.1c-0.9,0.1-1.7,0.2-2.5,0.4c-0.1,0-0.2,0.1-0.4,0.1c0,0,0,0,0,0c0,0,0.1-0.1,0.1-0.1
			c0.6-0.3,1.2-0.5,1.8-0.6c0.5-0.1,0.9-0.2,1.4-0.3c0.3,0,0.5-0.1,0.8-0.1c0.6,0,1.1-0.1,1.7-0.1c0.9,0,1.8,0,2.7,0
			c0.5,0,1,0,1.5,0.1C66.7,26.1,66.9,26.2,67.1,26.2z"/>
		<path id="XMLID_62519_" class="st0" d="M56.5,20.1c0-0.6,0-1.3,0-1.9c0.2,0,0.3,0,0.5,0c0.5,0,0.9-0.1,1.3-0.2c0,0,0.1,0,0.1,0
			c0.2,0.1,0.3,0.2,0.5,0.4c-0.2,0.4-0.3,0.9-0.5,1.4c0,0.1-0.1,0.1-0.2,0.1C57.7,20.1,57.1,20.2,56.5,20.1z"/>
		<path id="XMLID_62518_" class="st0" d="M54.9,14.9c-0.4,0.1-0.7,0.1-1.1,0.2c0-1.4,0-2.9,0-4.3c0.2,0.3,0.3,0.7,0.5,1
			c0.2,0.3,0.4,0.6,0.6,0.9c0,0,0,0.1,0,0.1C54.9,13.4,54.9,14.2,54.9,14.9z"/>
		<path id="XMLID_62517_" class="st0" d="M56.4,30c0,0.3,0,0.6,0,0.9c0,0.2-0.1,0.3-0.3,0.5c-0.8,0.4-1.5,0.9-2.3,1.3c0,0,0,0,0,0
			c0-0.1,0-0.2,0-0.3c0-0.2,0-0.5,0-0.7c0-0.1,0-0.1,0.1-0.2c0.8-0.5,1.6-0.9,2.3-1.4C56.3,30.1,56.4,30.1,56.4,30z"/>
		<path id="XMLID_62516_" class="st0" d="M52.3,28.2c0-0.2,0-0.3,0-0.5c1.9,0,3.8,0,5.7,0c0,0.2,0,0.3,0,0.5
			C56.1,28.2,54.2,28.2,52.3,28.2z"/>
		<path id="XMLID_62515_" class="st0" d="M58,28.4c0,0.2,0,0.3,0,0.5c-1.9,0-3.8,0-5.7,0c0-0.2,0-0.3,0-0.5
			C54.2,28.4,56.1,28.4,58,28.4z"/>
		<path id="XMLID_62514_" class="st0" d="M53.8,31.2c0-0.4,0-0.8,0-1.1c0,0,0-0.1,0.1-0.1c0.5-0.3,0.9-0.5,1.4-0.8c0,0,0.1,0,0.1,0
			c0.3,0,0.6,0,0.9,0c0.1,0,0.1,0,0.1,0.1c0,0,0,0,0,0.1c0.1,0.3-0.1,0.5-0.4,0.6c-0.7,0.4-1.4,0.8-2.1,1.2
			C53.9,31.2,53.9,31.2,53.8,31.2z"/>
		<path id="XMLID_62513_" class="st0" d="M56.4,31.5c0,0,0,0.1,0,0.1c0,0.3,0,0.6,0,1c0,0.1,0,0.1-0.1,0.2c-0.4,0.3-0.9,0.5-1.3,0.8
			c0,0-0.1,0-0.1,0c-0.4,0-0.7,0-1.1,0c0-0.2,0-0.3,0-0.5c0,0,0.1-0.1,0.1-0.1c0.3-0.2,0.7-0.4,1-0.6C55.4,32.1,55.9,31.8,56.4,31.5
			C56.4,31.6,56.4,31.6,56.4,31.5z"/>
		<path id="XMLID_62512_" class="st0" d="M56.3,15c-0.4,0-0.7-0.1-1.1-0.1c0-0.6,0-1.2,0-1.8c0.1,0.1,0.3,0.2,0.4,0.3
			c0.2,0.1,0.4,0.2,0.6,0.3c0,0,0.1,0.1,0.1,0.1C56.4,14.2,56.4,14.6,56.3,15C56.4,15,56.3,15,56.3,15z"/>
		<path id="XMLID_62511_" class="st0" d="M56.3,9.1c0,0.6,0,1.1,0,1.7c-0.3-0.1-0.7-0.2-1-0.4c0,0-0.1-0.1-0.1-0.1
			c0-0.4,0-0.8,0-1.1c0-0.1,0.1-0.1,0.1-0.1C55.7,9.1,56,9.1,56.3,9.1z"/>
		<path id="XMLID_62510_" class="st0" d="M58.5,6.7c-0.6-0.2-1.2-0.5-1.9-0.7c0-0.2,0-0.4,0-0.7c0.8,0.2,1.5,0.5,2.2,0.8
			C58.7,6.4,58.6,6.6,58.5,6.7z"/>
		<path id="XMLID_62509_" class="st0" d="M54.9,9.2c0,0.4,0,0.8,0,1.2c-0.4-0.1-0.7-0.1-1.1-0.2c0-0.2,0-0.4,0-0.6c0,0,0-0.1,0-0.1
			C54.2,9.4,54.5,9.2,54.9,9.2z"/>
		<path id="XMLID_62508_" class="st0" d="M59.4,15.2c0.2-0.1,0.4-0.2,0.6-0.4c0.1,0.6,0.1,1.2,0.2,1.8c-0.2-0.1-0.4-0.2-0.7-0.3
			C59.4,16,59.4,15.6,59.4,15.2z"/>
		<path id="XMLID_62507_" class="st0" d="M62.8,20.9c-0.1-0.2-0.1-0.3-0.2-0.5c-0.1-0.2-0.1-0.2-0.3-0.2c0.6-0.3,1-0.8,1.3-1.3
			C63.4,19.6,63.2,20.3,62.8,20.9z"/>
		<path id="XMLID_62506_" class="st0" d="M63.8,15.2c0.2,0.6,0.2,1.3,0.1,2c-0.1,0-0.3,0-0.4,0C63.7,16.5,63.8,15.9,63.8,15.2z"/>
		<path id="XMLID_62505_" class="st0" d="M55.5,33.6c0.3-0.2,0.6-0.4,0.9-0.5c0,0.2,0,0.4,0,0.5C56.1,33.6,55.8,33.6,55.5,33.6z"/>
		<path id="XMLID_62504_" class="st0" d="M54.7,29.2c-0.3,0.2-0.6,0.3-0.9,0.5c0-0.2,0-0.4,0-0.5C54.1,29.2,54.4,29.2,54.7,29.2
			C54.7,29.2,54.7,29.2,54.7,29.2z"/>
		<path id="XMLID_62503_" class="st0" d="M53.6,4.9c0,0.2,0,0.3,0,0.4c-0.2-0.1-0.3-0.3-0.5-0.4C53.3,5,53.4,4.9,53.6,4.9z"/>
	</g>
	<g id="XMLID_48964_">
		<path id="XMLID_49037_" class="st0" d="M0,15.3c0-0.1,0-0.1,0-0.2c0.1-1.3,0.6-2.5,1.4-3.5c0.6-0.7,1.4-1.3,2.2-1.7
			c0.4-0.2,0.8-0.4,1.2-0.5c0.1,0,0.1,0,0.2,0.1c0.9,1,1.9,2,2.9,2.9c1.2,1.2,2.7,2,4.3,2.6c0,0,0.1,0,0.1,0c0-0.1,0-0.2,0.1-0.4
			c0.2-0.7,0.5-1.4,1-1.9c0.6-0.6,1.3-1,2.1-1.1c0.8-0.1,1.6,0,2.3,0.4c1,0.5,1.7,1.3,2,2.4c0.1,0.2,0.1,0.3,0.1,0.5c0,0,0,0,0,0.1
			c0,0,0.1,0,0.1,0c1.2-0.4,2.3-1,3.3-1.8c0.3-0.2,0.5-0.5,0.8-0.7c1.1-1.1,2.3-2.3,3.4-3.4c1.5-1.6,3.1-3.2,4.6-4.9
			c0,0,0.1-0.1,0.1-0.1c-0.2-0.1-0.4-0.1-0.6-0.2c0,0,0,0,0.1,0c0.7-0.2,1.4-0.5,2.1-0.7c0,0,0,0,0,0c0,0,0,0,0,0.1
			c0,0.1,0,0.2-0.1,0.3c-0.1,0.6-0.3,1.2-0.4,1.8c0,0,0,0.1,0,0.1c-0.1-0.2-0.1-0.4-0.2-0.5c-1.5,1.7-3.1,3.3-4.6,5
			c0,0,0.1,0,0.1,0.1c0.8,0.4,1.6,1,2.2,1.7c0.8,0.9,1.3,1.9,1.5,3.1c0.2,1.3,0,2.6-0.6,3.8c-0.7,1.5-1.8,2.5-3.3,3.1
			c-0.7,0.3-1.3,0.5-2.1,0.5c-1.8,0.2-3.4-0.4-4.8-1.5c-1-0.8-1.7-1.8-2.1-3.1c-0.1-0.3-0.2-0.7-0.2-1c0,0,0,0,0-0.1c0,0,0,0,0,0
			c-2,0.5-4,0.5-6.1,0c0,0.1,0,0.3-0.1,0.4c-0.2,1.2-0.8,2.3-1.7,3.2c-1,1-2.2,1.7-3.6,1.9c-1.8,0.3-3.4,0-4.9-1
			c-1.2-0.8-2.1-1.9-2.6-3.2c-0.2-0.5-0.3-1-0.3-1.6c0-0.1,0-0.1,0-0.2C0,15.8,0,15.5,0,15.3z M5.5,11.5C5.5,11.5,5.5,11.5,5.5,11.5
			c-0.3-0.4-0.6-0.6-0.8-0.9c-0.1-0.1-0.1-0.1-0.2,0c-0.4,0.2-0.8,0.4-1.2,0.7c-0.7,0.5-1.2,1-1.6,1.7c-0.4,0.7-0.6,1.4-0.7,2.1
			C1,15.8,1,16.4,1.2,17c0.3,1.1,0.9,2.1,1.8,2.8c0.9,0.8,2,1.2,3.2,1.3c0.6,0,1.2,0,1.8-0.1c1.1-0.3,2-0.8,2.7-1.5
			c0.8-0.8,1.3-1.7,1.5-2.8c0-0.1,0-0.3,0.1-0.4c-0.4-0.2-0.8-0.3-1.2-0.5c0,0.1,0,0.1,0,0.2c0,0.6-0.2,1.2-0.5,1.8
			c-0.9,1.6-2.7,2.5-4.5,2.2c-1-0.1-1.8-0.6-2.5-1.3c-1.1-1.2-1.5-2.6-1.1-4.2c0.5-1.5,1.5-2.5,3-2.9C5.4,11.5,5.5,11.5,5.5,11.5z
			 M20.3,16.2c0,0.1,0,0.2,0,0.3c0.1,0.5,0.2,1,0.4,1.5c0.5,1,1.2,1.8,2.1,2.3c0.9,0.6,1.9,0.9,3,0.9c0.7,0,1.3-0.1,1.9-0.3
			c1.2-0.5,2.2-1.2,2.9-2.4c0.7-1.1,0.9-2.4,0.7-3.7c-0.1-0.9-0.5-1.7-1.1-2.4c-0.6-0.8-1.4-1.3-2.3-1.7c0,0,0,0,0,0
			c-0.3,0.3-0.6,0.6-0.9,0.9c0,0,0,0,0,0c0,0,0.1,0,0.1,0c0.8,0.2,1.5,0.6,2.1,1.2c1.2,1.2,1.5,3,0.8,4.5c-0.6,1.5-2.1,2.6-3.9,2.7
			c-0.6,0-1.1-0.1-1.7-0.3c-1.7-0.6-2.9-2.2-2.9-4c0,0,0,0,0-0.1C21.1,15.8,20.7,16,20.3,16.2z M19.1,15.2c0-0.2-0.1-0.4-0.1-0.6
			c-0.3-0.7-0.7-1.3-1.4-1.6c-0.7-0.4-1.3-0.5-2.1-0.3c-0.8,0.2-1.4,0.6-1.8,1.3c-0.2,0.3-0.3,0.7-0.4,1.1c0,0.1,0,0.1,0,0.2
			C15.3,15.7,17.2,15.7,19.1,15.2z"/>
		<path id="XMLID_49036_" class="st0" d="M16.9,1.8c0,0,0.1,0,0.1,0c2.1,0.1,4.2,0.6,6.1,1.5c1.6,0.8,3,1.7,4.2,3
			c0,0,0.1,0.1,0.1,0.1c-0.3,0.3-0.6,0.6-0.9,0.9C23.7,4.5,20.3,3.1,16.3,3c-4,0-7.4,1.5-10.3,4.2C5.7,7,5.5,6.7,5.2,6.4
			c0,0,0.1-0.1,0.1-0.1c2-2,4.4-3.3,7.1-4c0.7-0.2,1.3-0.3,2-0.4c0.4,0,0.9-0.1,1.3-0.1c0,0,0.1,0,0.1,0C16.1,1.8,16.5,1.8,16.9,1.8
			z"/>
		<path id="XMLID_49035_" class="st0" d="M30.5,36.1c0,0,0-0.1,0-0.1c0-0.9,0-1.8,0-2.7c0,0,0-0.1,0-0.1c0.1,0,0.2,0,0.4,0
			c0,0,0,0.1,0,0.1c0,0.9,0,1.8,0,2.7c0,0,0,0.1,0,0.1C30.8,36.1,30.7,36.1,30.5,36.1z"/>
		<path id="XMLID_49034_" class="st0" d="M30.8,29c0.2,0,0.4,0,0.7,0c0,0,0-0.1,0-0.1c0-0.5,0-1,0-1.4c0-0.1,0-0.2,0-0.2
			c-0.1-0.3-0.3-0.4-0.6-0.3c-0.2,0.1-0.3,0.2-0.4,0.4c0,0,0,0.1,0,0.1c0,0.4-0.1,0.7-0.1,1.1c0,0.4-0.1,0.8-0.1,1.1
			c0,0.1,0,0.2,0,0.3c-0.4,0-0.8,0-1.1,0c0-0.1,0-0.2,0-0.4c0-0.3,0.1-0.6,0.1-0.8c0-0.4,0.1-0.7,0.1-1.1c0.1-0.5,0-1-0.1-1.5
			c0,0,0,0,0-0.1c0,0,0.1,0,0.1,0c0.3,0,0.6,0,0.8,0c0.1,0,0.1,0,0.1,0.1c0,0.1,0.1,0.2,0.1,0.3c0,0,0,0,0.1,0
			c0.3-0.3,0.8-0.5,1.2-0.4c0.5,0,0.8,0.3,1,0.7c0.1,0.2,0.1,0.5,0.1,0.7c0,0.2,0,0.3,0,0.5c0,0.6,0,1.3,0,1.9c0,0,0,0.1,0,0.1
			c-0.1,0-1.6,0-1.9,0C30.8,29.8,30.8,29.1,30.8,29z"/>
		<path id="XMLID_49033_" class="st0" d="M12.2,26.9c0-0.3,0-0.6,0-0.9c0.1,0,0.2,0,0.2,0c0.2,0,0.5,0,0.7,0.1
			c0.3,0.1,0.5,0.3,0.7,0.6c0.1,0.2,0.1,0.5,0.2,0.7c0,0.3,0,0.6,0,0.9c0,0.3-0.1,0.6-0.2,0.9c-0.3,0.5-0.7,0.8-1.2,0.8
			c-0.3,0-0.5,0-0.7-0.1c-0.5-0.1-0.8-0.5-1-0.9c-0.1-0.3-0.2-0.6-0.2-1c0-0.6,0-1.3,0-1.9c0,0,0,0,0-0.1c0.1,0,1,0,1.2,0
			c0,0,0,0.1,0,0.1c0,0.6,0,1.2,0,1.8c0,0.2,0,0.5,0.1,0.7c0,0.1,0.1,0.2,0.1,0.2c0.2,0.2,0.5,0.2,0.7,0c0.1-0.1,0.1-0.2,0.2-0.4
			c0.1-0.4,0.1-0.8,0-1.2c0,0,0,0,0-0.1C12.7,27,12.5,26.9,12.2,26.9C12.2,26.9,12.2,26.9,12.2,26.9z"/>
		<path id="XMLID_49030_" class="st0" d="M0.2,25.3c0.4,0,0.8,0,1.2,0c0,0.3,0,0.5,0,0.8c0.2,0,0.3,0,0.5,0c0.2,0,0.3,0,0.5,0
			c0.2,0,0.3,0,0.5,0c0.2,0,0.3,0,0.5,0c0,0,0,0.1,0,0.1c0,0.2,0,0.4,0,0.6c0,0,0,0.1,0,0.1c-0.1,0.5-0.3,1-0.4,1.5
			c-0.1,0.3-0.2,0.7-0.2,1c0,0.2-0.1,0.3-0.1,0.5c0,0,0,0,0,0.1c-0.4,0-0.8,0-1.1,0c0.2-1,0.5-2,0.8-3c-0.1,0-0.3,0-0.4,0
			c-0.1,0-0.3,0-0.4,0c-0.1,0-0.3,0-0.4,0c-0.1,0-0.3,0-0.4,0c-0.1,0-0.3,0-0.4,0C0.2,26.4,0.2,25.8,0.2,25.3z"/>
		<path id="XMLID_49009_" class="st0" d="M28.1,26.9c-0.1,0-0.1,0.1-0.2,0.1c-0.2,0.1-0.3,0.3-0.3,0.5c0,0.1,0,0.1,0,0.2
			c0,0.7,0,1.4,0,2.2c0,0,0,0.1,0,0.1c-0.4,0-0.8,0-1.2,0c0,0,0-0.1,0-0.1c0-0.7,0-1.5,0-2.2c0-0.2,0.1-0.4,0.2-0.6c0,0,0,0,0,0
			c-0.6,0-1.2,0-1.8,0c0-0.1,0-0.7,0-0.9c1.1,0,2.1,0,3.2,0C28.1,26.3,28.1,26.6,28.1,26.9z"/>
		<path id="XMLID_49008_" class="st0" d="M18.4,26.9c0-0.3,0-0.6,0-0.9c0.1,0,0.2,0,0.4,0c0.3,0,0.7,0,1,0c0.2,0,0.4,0,0.7,0.1
			c0.1,0,0.2,0.1,0.3,0.1c0.3,0.1,0.5,0.4,0.5,0.7c0,0.2,0,0.3,0,0.5c0,0.8,0,1.6,0,2.4c0,0,0,0.1,0,0.1c-0.4,0-0.8,0-1.2,0
			c0,0,0-0.1,0-0.1c0-0.8,0-1.5,0-2.3c0-0.1,0-0.1,0-0.2c0-0.3-0.2-0.5-0.5-0.5c-0.2,0-0.4,0-0.6,0C18.8,26.9,18.6,26.9,18.4,26.9z"
			/>
		<path id="XMLID_49006_" class="st0" d="M16.4,22.2c-0.6-1.1-1.2-2.1-1.8-3.1c1.2,0.1,2.4,0.2,3.6-0.1c0,0,0,0,0,0
			C17.6,20.1,17,21.1,16.4,22.2z"/>
		<path id="XMLID_48995_" class="st0" d="M23.8,29.9c-0.4,0-0.8,0-1.1,0c0-0.1,0-3.6,0-3.9c0.1,0,1,0,1.2,0
			C23.8,27.3,23.8,28.6,23.8,29.9z"/>
		<path id="XMLID_48994_" class="st0" d="M8.1,28.7c0-0.9,0-1.7,0-2.6c0.1,0,1,0,1.2,0c0,0,0,0.1,0,0.1c0,0.5,0,1.1,0,1.6
			c0,0.1,0,0.1-0.1,0.2c-0.2,0.2-0.4,0.4-0.5,0.7c0,0.1-0.1,0.1-0.1,0.1C8.4,28.7,8.2,28.7,8.1,28.7z"/>
		<path id="XMLID_48993_" class="st0" d="M22.1,32.3c0,0.1,0,0.1,0,0.1c0,0.6,0,1.2,0,1.8c0,0.1,0,0.2,0,0.4
			c-0.1,0.3-0.3,0.4-0.5,0.4c-0.1,0-0.1,0-0.2,0c0,0-0.1,0-0.1,0c0-0.1,0-0.2,0-0.3c0,0,0.1,0,0.1,0c0.2,0,0.4-0.1,0.4-0.3
			c0-0.1,0-0.1,0-0.2c0-0.6,0-1.2,0-1.8c0,0,0-0.1,0-0.1c-0.1,0-0.2,0-0.3,0c0-0.1,0-0.2,0-0.3c0.1,0,0.3,0,0.4,0c0.3,0,0.5,0,0.8,0
			c0.2,0,0.4,0,0.6,0.1c0.3,0.1,0.5,0.4,0.5,0.7c0,0,0,0.1,0,0.1c0,0.7,0,1.3,0,2c0,0,0,0.1,0,0.1c-0.1,0-0.3,0-0.4,0
			c0,0,0-0.1,0-0.1c0-0.6,0-1.2,0-1.9c0-0.1,0-0.1,0-0.2c0-0.2-0.1-0.3-0.3-0.4c-0.1-0.1-0.2-0.1-0.3-0.1
			C22.5,32.3,22.3,32.3,22.1,32.3z"/>
		<path id="XMLID_48992_" class="st0" d="M3.3,32.5c0-0.1,0-0.2,0-0.3c0,0,0,0,0.1,0C3.7,32,4,32,4.3,32c0.3,0.1,0.5,0.3,0.7,0.5
			c0.1,0.2,0.1,0.4,0.1,0.6c0,0.3,0,0.5,0,0.8c0,0.2-0.1,0.4-0.2,0.6C4.8,34.8,4.5,35,4.2,35c-0.3,0.1-0.5,0-0.8,0c0,0-0.1,0-0.1,0
			c0-0.1,0-0.2,0-0.3c0,0,0.1,0,0.1,0c0.2,0,0.4,0.1,0.6,0.1c0.3,0,0.5-0.1,0.6-0.4c0.1-0.1,0.1-0.3,0.1-0.4c0-0.2,0-0.5,0-0.7
			c0-0.2,0-0.3-0.1-0.5c-0.1-0.2-0.3-0.3-0.5-0.4C3.8,32.3,3.6,32.4,3.3,32.5z"/>
		<path id="XMLID_48989_" class="st0" d="M5,27.3c-0.3,0-0.6,0-0.8,0c0.1-0.6,0.2-1.2,0.3-1.7c0,0,0,0,0.1,0c0.3,0,0.6,0,0.9,0
			c0.1,0,0.1,0,0.1,0.1c-0.1,0.5-0.3,1-0.5,1.5C5,27.2,5,27.2,5,27.3z"/>
		<path id="XMLID_48988_" class="st0" d="M6.5,27.3c-0.3,0-0.5,0-0.8,0c0.1-0.6,0.2-1.2,0.3-1.7c0,0,0,0,0.1,0c0.3,0,0.6,0,0.9,0
			c0.1,0,0.1,0,0.1,0.1C6.9,26.2,6.7,26.7,6.5,27.3C6.5,27.2,6.5,27.3,6.5,27.3z"/>
		<path id="XMLID_48987_" class="st0" d="M10.2,32.3c-0.5,0-1.1,0-1.6,0c0-0.1,0-0.2,0-0.3c0.1,0,2,0,2.1,0c0,0.1,0,0.2,0,0.3
			c0,0-0.1,0-0.1,0c-0.2,0.1-0.3,0.3-0.4,0.5c0,0.1,0,0.2,0,0.2c0,0.6,0,1.2,0,1.8c0,0,0,0.1,0,0.1c-0.1,0-0.2,0-0.4,0
			c0,0,0-0.1,0-0.1c0-0.6,0-1.3,0-1.9C9.9,32.7,9.9,32.6,10.2,32.3z"/>
		<path id="XMLID_48985_" class="st0" d="M32,35c-0.1,0-0.2,0-0.4,0c0-0.1,0-0.2,0-0.3c0.1-0.3,0.2-0.6,0.2-0.9
			c0.1-0.4,0.3-0.9,0.4-1.3c0,0,0-0.1,0-0.1c-0.6,0-1.2,0-1.8,0c0-0.1,0-0.2,0-0.3c0.7,0,1.4,0,2.2,0c0,0.1,0,0.3,0,0.4
			c-0.2,0.6-0.4,1.2-0.5,1.8C32.1,34.5,32,34.7,32,35C32,35,32,35,32,35z"/>
		<path id="XMLID_48983_" class="st0" d="M11.7,32.4c0-0.1,0-0.2,0-0.3c0.1,0,0.3,0,0.4,0c0.2,0,0.4,0,0.7,0c0.2,0,0.4,0,0.6,0.1
			c0.3,0.1,0.4,0.3,0.5,0.6c0,0.1,0,0.2,0,0.2c0,0.6,0,1.2,0,1.9c0,0,0,0.1,0,0.1c-0.1,0-0.3,0-0.4,0c0,0,0-0.1,0-0.1
			c0-0.6,0-1.2,0-1.9c0-0.1,0-0.1,0-0.2c0-0.2-0.1-0.3-0.3-0.4c-0.1-0.1-0.3-0.1-0.4-0.1C12.4,32.3,12.1,32.3,11.7,32.4
			C11.7,32.4,11.7,32.4,11.7,32.4z"/>
		<path id="XMLID_48982_" class="st0" d="M17.2,35c-0.1,0-0.3,0-0.4,0c0,0,0-0.1,0-0.1c0-0.6,0-1.2,0-1.9c0,0,0-0.1,0-0.1
			c0-0.2-0.1-0.4-0.3-0.5c-0.1-0.1-0.3-0.1-0.4-0.1c-0.3,0-0.6,0-0.9,0c0,0-0.1,0-0.1,0c0-0.1,0-0.2,0-0.3c0,0,0,0,0,0
			c0.4,0,0.7,0,1.1,0c0.2,0,0.3,0,0.5,0.1c0.3,0.1,0.5,0.4,0.5,0.7c0,0,0,0.1,0,0.1c0,0.7,0,1.3,0,2C17.2,34.9,17.2,35,17.2,35z"/>
		<path id="XMLID_48981_" class="st0" d="M0.2,32.4c0-0.1,0-0.2,0-0.3c0,0,0,0,0,0c0.3,0,0.7,0,1,0c0.2,0,0.4,0,0.5,0.1
			c0.3,0.1,0.5,0.4,0.5,0.7c0,0,0,0.1,0,0.1c0,0.7,0,1.3,0,2c0,0,0,0.1,0,0.1c-0.1,0-0.2,0-0.4,0c0,0,0-0.1,0-0.1c0-0.6,0-1.2,0-1.9
			c0,0,0-0.1,0-0.1c0-0.2-0.1-0.4-0.3-0.5c-0.1-0.1-0.3-0.1-0.4-0.1C0.9,32.3,0.6,32.3,0.2,32.4C0.3,32.4,0.2,32.4,0.2,32.4z"/>
		<path id="XMLID_48980_" class="st0" d="M27.6,32.3c0-0.1,0-0.2,0-0.3c0,0,0,0,0.1,0c0.2,0,0.5,0,0.7,0c0.1,0,0.3,0,0.4,0.1
			c0.4,0.1,0.6,0.4,0.6,0.8c0,0,0,0.1,0,0.1c0,0.6,0,1.3,0,1.9c0,0,0,0.1,0,0.1c-0.1,0-0.3,0-0.4,0c0,0,0-0.1,0-0.1
			c0-0.6,0-1.3,0-1.9c0,0,0-0.1,0-0.1c0-0.2-0.1-0.3-0.3-0.4c-0.1-0.1-0.3-0.1-0.4-0.1C28,32.3,27.8,32.3,27.6,32.3
			C27.6,32.3,27.6,32.3,27.6,32.3z"/>
		<path id="XMLID_48979_" class="st0" d="M7.7,35c-0.1,0-0.2,0-0.3,0c0,0,0,0-0.1,0c0,0,0-0.1,0-0.1c0-0.6,0-1.2,0-1.8
			c0,0,0-0.1,0-0.1c0-0.4-0.2-0.6-0.5-0.6c-0.1,0-0.2,0-0.3,0c-0.2,0-0.4,0-0.6,0c0-0.1,0-0.2,0-0.3c0,0,0.1,0,0.1,0
			c0.2,0,0.5,0,0.7,0c0.1,0,0.3,0,0.4,0.1c0.3,0.1,0.5,0.4,0.5,0.7c0,0,0,0.1,0,0.1c0,0.7,0,1.3,0,2C7.7,34.9,7.7,35,7.7,35z"/>
		<path id="XMLID_48978_" class="st0" d="M12,35c-0.1,0-0.2,0-0.4,0c0-0.6,0-1.3,0-1.9c0.1,0,0.2,0,0.4,0C12,33.7,12,34.4,12,35z"/>
		<path id="XMLID_48971_" class="st0" d="M0.2,33.1c0.1,0,0.2,0,0.4,0c0,0.6,0,1.2,0,1.9c-0.1,0-0.2,0-0.4,0
			C0.2,34.4,0.2,33.7,0.2,33.1z"/>
		<path id="XMLID_48970_" class="st0" d="M15.4,35c-0.1,0-0.3,0-0.4,0c0-0.6,0-1.2,0-1.9c0.1,0,0.2,0,0.4,0
			C15.4,33.7,15.4,34.4,15.4,35z"/>
		<path id="XMLID_48969_" class="st0" d="M24.8,32.1c0.1,0,0.2,0,0.4,0c0,0,0,0.1,0,0.1c0,0.4,0,0.9,0,1.3c0,0.1,0,0.1-0.1,0.2
			C25,33.8,25,33.9,24.9,34c0,0,0,0-0.1,0C24.8,33.9,24.8,32.2,24.8,32.1z"/>
		<path id="XMLID_48968_" class="st0" d="M26.3,34c0-0.6,0-1.3,0-1.9c0.1,0,0.2,0,0.4,0c0,0,0,0.1,0,0.1c0,0.5,0,0.9,0,1.4
			c0,0.1,0,0.1-0.1,0.2c-0.1,0.1-0.1,0.2-0.2,0.3C26.4,34,26.4,34,26.3,34z"/>
		<path id="XMLID_48967_" class="st0" d="M25.3,8.5c-0.3,0.3-0.6,0.6-0.9,0.9c-2.3-2.2-5-3.4-8.2-3.4c-3.2,0-5.9,1.2-8.2,3.4
			C7.8,9.1,7.5,8.8,7.3,8.5c0.1-0.2,1.3-1.2,2-1.6c1.7-1.1,3.6-1.8,5.7-2c2.3-0.2,4.5,0.1,6.6,1C23,6.5,24.2,7.4,25.3,8.5z"/>
		<path id="XMLID_48966_" class="st0" d="M23.1,10.8c-0.3,0.3-0.6,0.6-0.9,0.9c-1.6-1.6-3.6-2.4-5.9-2.4c-2.3,0-4.2,0.8-5.9,2.4
			c-0.3-0.3-0.6-0.6-0.9-0.9C13,7.3,19.2,6.9,23.1,10.8z"/>
	</g>
	<g id="XMLID_48900_">
		<g id="XMLID_48963_">
			<path id="XMLID_2353_" class="st0" d="M94.1,35.4c-9.4,0-17.1-7.7-17.1-17.1S84.7,1.1,94.1,1.1s17.1,7.7,17.1,17.1
				S103.6,35.4,94.1,35.4z M94.1,1.9c-9,0-16.4,7.3-16.4,16.4c0,9,7.3,16.4,16.4,16.4s16.4-7.3,16.4-16.4
				C110.5,9.2,103.2,1.9,94.1,1.9z"/>
		</g>
		<g id="XMLID_48962_">
			<path id="XMLID_2331_" class="st0" d="M94.1,36.5c-10.1,0-18.3-8.2-18.3-18.3S84.1,0,94.1,0s18.3,8.2,18.3,18.3
				S104.2,36.5,94.1,36.5z M94.1,0.4c-9.9,0-17.9,8-17.9,17.9s8,17.9,17.9,17.9s17.9-8,17.9-17.9S104,0.4,94.1,0.4z"/>
		</g>
		<g id="XMLID_48901_">
			<g id="XMLID_48961_">
				<path id="XMLID_17996_" class="st0" d="M93.1,15.2l0-1.2L93,14.7C93,14.7,93.1,14.9,93.1,15.2z"/>
			</g>
			<g id="XMLID_48953_">
				<path id="XMLID_17987_" class="st0" d="M92.2,19.1l0.4-0.9l0.4-0.5c0,0-0.3-0.6-0.5-1.1c-1.5,0.3-2.5,1-2.5,1.9
					c0,0.5,0.3,0.9,0.8,1.3c-1-0.5-1.8-1.3-2.5-2.2c0-0.1,0-0.3,0-0.4c0-1.6,2-2.9,4.8-3.1l0.2-0.3c0,0,0.1,0.5,0.2,0.7
					c0.1,0.3,0.3,0.6,0.4,0.9c0.1,0.2,0.1,0.6,0.1,0.6s0.2-0.3,0.1-0.7c-0.1-0.5-0.3-1-0.3-1.5c0-0.2,0.2-0.8,0.2-0.8s0,0.4,0.2,0.7
					c0.2,0.4,0.4,0.8,0.4,1c0.1,0.3,0,0.9,0,0.9s0.2-0.7,0.2-1.2c0-0.5-0.5-1-0.5-1.5l0-0.8c0,0,0,0.2,0.4,0.7
					c0.3,0.4,0.7,0.8,0.9,1.2c2.5,0.4,4.4,1.7,4.4,3.2c0,0.1,0,0.3,0,0.4c-0.7,0.9-1.6,1.7-2.6,2.2c0.5-0.3,0.9-0.8,0.9-1.3
					c0-0.9-1-1.6-2.5-2c-0.2,0.7-0.4,1.2-0.4,1.2l0.4,0.4l0.4,0.9c0.9,0.4,1.7,1.1,2.2,2c2.8-1.6,4.7-4.7,4.7-8.4
					c0.1-5.3-3.8-9.6-8.7-9.7c-4.9-0.1-8.8,4.2-8.9,9.5c0,3.6,1.8,6.8,4.5,8.5C90.5,20.2,91.2,19.5,92.2,19.1z M95.2,4.7
					c3.1,0.5,5.6,3.1,6.2,6.4c-0.2-0.6-0.6-1.4-1.4-2c-1-0.9-2.3-1.7-4.8-1.9L95.2,4.7z M95.1,7.8c3.1,0.2,4.1,1.3,4.7,1.8
					c1.1,0.8,1.7,2.3,1.7,2.3c0,0.3,0,0.5,0,0.8c0,0.6-0.1,1.1-0.2,1.6c0-2-2.7-3.6-6.2-3.9L95.1,7.8z M95.1,11.1
					c3.4,0.3,6,2,5.9,3.9c0,0.2,0,0.3-0.1,0.5c-0.2,0.9-0.9,1.8-0.9,1.8s0.1-0.3,0-0.7c-0.2-1.6-2.2-2.9-5-3.2L95.1,11.1z M93.2,4.7
					l0,2.4c-2.5,0.1-3.8,0.9-4.9,1.8c-0.8,0.7-1.2,1.4-1.4,2C87.6,7.6,90.1,5.1,93.2,4.7z M86.8,11.8c0,0,0.4-1.1,1.7-2.3
					c0.6-0.4,1.5-1.5,4.7-1.7l0,2.6c-3.5,0.2-6.2,1.8-6.3,3.8C86.8,13.7,86.8,12.2,86.8,11.8z M87.2,15.4c0-0.2,0-0.3,0-0.5
					c0-2,2.6-3.6,6-3.8l0,2.4c-2.8,0.2-4.8,1.4-5.1,3c-0.1,0.3,0,0.7,0,0.7S87.4,16.3,87.2,15.4z"/>
			</g>
			<g id="XMLID_48952_">
				<path id="XMLID_2115_" class="st0" d="M97.3,20l-0.1-0.2c0.4-0.2,0.8-0.6,0.8-1.2c0-0.8-0.9-1.5-2.3-1.8l-0.1,0l0-0.1
					c0.2-0.9,0.3-1.5,0.2-1.9c0-0.2-0.1-0.3-0.2-0.5L95.3,14l0.3,0c2.6,0.4,4.3,1.7,4.3,3.3c0,0.1,0,0.3,0,0.4l0,0.1
					C99.2,18.7,98.3,19.5,97.3,20z M95.8,16.6c1.5,0.3,2.4,1.1,2.4,2c0,0.2-0.1,0.4-0.1,0.6c0.6-0.4,1.1-0.9,1.6-1.5
					c0-0.1,0-0.2,0-0.3c0-1.4-1.5-2.6-3.8-3c0,0.1,0.1,0.2,0.1,0.3C96.1,15.1,96,15.7,95.8,16.6z"/>
			</g>
			<g id="XMLID_48951_">
				<path id="XMLID_1552_" class="st0" d="M90.8,19.9c-1-0.5-1.9-1.3-2.6-2.3l0-0.1c0-0.1,0-0.3,0-0.4c0-1.7,2.2-3.3,5-3.5l0.2,0
					l-0.3,0.9c-0.2,0.3-0.6,1.1-0.6,1.6c0,0.1,0,0.2,0.1,0.4l0,0.1l-0.1,0c-1.4,0.3-2.2,1-2.2,1.8c0,0.5,0.4,0.9,0.8,1.2L90.8,19.9z
					 M88.5,17.6c0.4,0.6,1,1.1,1.6,1.6c-0.1-0.2-0.1-0.4-0.1-0.6c0-0.9,0.9-1.7,2.3-2c0-0.1,0-0.2,0-0.3c0-0.6,0.6-1.6,0.7-1.7
					L93,14c-2.5,0.3-4.5,1.7-4.6,3.2C88.5,17.3,88.5,17.4,88.5,17.6z"/>
			</g>
			<g id="XMLID_48949_">
				<path id="XMLID_1551_" class="st0" d="M94.8,29.9l0-1.4l1.2-0.6l0.1,0.1c0.1,0,0.1,0.1,0.1,0.1l-0.2,0.2c0,0,0,0,0,0l-0.9,0.5
					l0,0.9c0.3-0.1,0.5-0.2,0.8-0.3l0,0c0-0.1,0-0.2,0-0.2l0.3,0c0,0.1,0,0.2-0.1,0.3l0,0.1l-0.1,0c-0.4,0.2-0.7,0.3-1.1,0.4
					L94.8,29.9z"/>
			</g>
			<g id="XMLID_48947_">
				<path id="XMLID_1550_" class="st0" d="M96.1,28.1c-0.1-0.1-0.7-0.5-1.3-0.9L95,27c0.2,0.1,1.2,0.8,1.3,0.9L96.1,28.1z"/>
			</g>
			<g id="XMLID_48946_">
				<path id="XMLID_1549_" class="st0" d="M95,26.8C95,26.8,95,26.8,95,26.8l-0.2-0.1l0-1.6l0.3,0l0,1.4l0,0l0,0l0,0.1l0,0L95,26.8z
					"/>
			</g>
			<g id="XMLID_48945_">
				<rect id="XMLID_1418_" x="94.9" y="21.9" class="st0" width="0.3" height="3.5"/>
			</g>
			<g id="XMLID_48944_">
				<path id="XMLID_17963_" class="st0" d="M95.3,20.7"/>
			</g>
			<g id="XMLID_48943_">
				<path id="XMLID_902_" class="st0" d="M97.7,28.4l-0.2-0.3c0.7-0.4,1.4-2.4,1.4-3.6l0-0.1c0-0.9-0.2-1.8-0.6-2.6
					c-0.1-0.2-0.2-0.4-0.3-0.6c-0.5-0.9-1.3-1.5-2.2-1.9l-0.1,0l-0.4-0.8l-0.6,0c0.1,0.2,0.1,0.3,0.2,0.5c0.2,0.7,0.3,1.6,0.3,1.6
					l-0.4,0c0,0,0-0.9-0.3-1.5c-0.1-0.2-0.2-0.5-0.3-0.7l-0.1-0.3l1.5,0l0.4,0.9c0.9,0.4,1.7,1.1,2.3,2c0.1,0.2,0.2,0.4,0.3,0.6
					c0.4,0.9,0.6,1.8,0.6,2.8l0,0.1C99.3,25.8,98.6,27.9,97.7,28.4z"/>
			</g>
			<g id="XMLID_48942_">
				<path id="XMLID_523_" class="st0" d="M96.3,29.3c0,0,0.1,0,0.1-0.1"/>
			</g>
			<g id="XMLID_48941_">
				<path id="XMLID_899_" class="st0" d="M93.1,30l-0.2-0.1c-2.5-0.6-4.2-3-4.2-5.7c0-1,0.2-1.9,0.7-2.8c0.1-0.2,0.2-0.4,0.3-0.6
					c0.6-0.9,1.4-1.6,2.3-2l0.5-0.9l1.5,0l-0.1,0.3c-0.1,0.3-0.2,0.5-0.3,0.7c-0.2,0.6-0.3,1.5-0.3,1.5l0,0.5l-0.4,0l0-0.5
					c0,0,0.1-0.9,0.3-1.6c0.1-0.1,0.1-0.3,0.2-0.5l-0.6,0l-0.4,0.8l-0.1,0c-0.9,0.4-1.6,1-2.2,1.8c-0.1,0.1-0.2,0.3-0.3,0.5
					c-0.4,0.8-0.6,1.7-0.7,2.6c0,2.5,1.5,4.6,3.7,5.3l0-0.8L91.4,28l1.4-0.7l0-0.3l0.4,0l0,0.5L92.2,28l0.9,0.5L93.1,30z"/>
			</g>
			<g id="XMLID_48938_">
				<rect id="XMLID_898_" x="92.9" y="22.7" class="st0" width="0.3" height="1.1"/>
			</g>
			<g id="XMLID_48937_">
				<rect id="XMLID_896_" x="92.8" y="24.9" class="st0" width="0.3" height="1.3"/>
			</g>
			<g id="XMLID_48936_">
				<path id="XMLID_895_" class="st0" d="M95.1,31.5l-0.4,0l0-1.9l0.2,0c0.3-0.1,0.7-0.2,1-0.3l0.2,0.3c-0.3,0.1-0.6,0.3-1,0.3
					L95.1,31.5z"/>
			</g>
			<g id="XMLID_48934_">
				<path id="XMLID_444_" class="st0" d="M96.4,29.2c0,0-0.1,0-0.1,0.1"/>
			</g>
			<g id="XMLID_48933_">
				<path id="XMLID_467_" class="st0" d="M102.5,8.5l-0.1-0.1c-0.2-0.4-0.3-0.7-0.6-1.1l-0.1-0.1l0.6-0.6l0.1,0.1
					c0.3,0.4,0.5,0.7,0.7,1.1l0.1,0.1L102.5,8.5z M102.2,7.3c0.2,0.3,0.3,0.6,0.4,0.9l0.4-0.2c-0.2-0.3-0.4-0.6-0.6-0.9L102.2,7.3z"
					/>
			</g>
			<g id="XMLID_48932_">
				<path id="XMLID_464_" class="st0" d="M101.5,6.6l-0.1-0.1c-0.2-0.4-0.5-0.7-0.7-1l-0.1-0.1l0.3-0.4L101,5c0.3,0.3,0.7,0.6,0.9,1
					L102,6L101.5,6.6z M100.9,5.3c0.2,0.3,0.4,0.6,0.6,0.8l0.1-0.1C101.4,5.8,101.2,5.5,100.9,5.3L100.9,5.3z"/>
			</g>
			<g id="XMLID_48931_">
				<path id="XMLID_463_" class="st0" d="M100.1,4.7l-0.3-0.3l-0.8-0.9l1,0.7c0.1,0,0.1,0.1,0.2,0.1l0.1,0.1L100.1,4.7z"/>
			</g>
			<g id="XMLID_48930_">
				<path id="XMLID_462_" class="st0" d="M88.4,4.6l-0.2-0.3l0.1-0.1c0,0,0.1-0.1,0.1-0.1l1-0.7L88.4,4.6z"/>
			</g>
			<g id="XMLID_48929_">
				<path id="XMLID_459_" class="st0" d="M87,6.4l-0.5-0.5l0.1-0.1c0.3-0.3,0.6-0.6,1-0.9l0.1-0.1l0.3,0.4l-0.1,0.1
					c-0.3,0.3-0.5,0.7-0.8,1L87,6.4z M86.8,5.9L86.9,6c0.2-0.3,0.4-0.5,0.6-0.8C87.3,5.4,87,5.6,86.8,5.9z"/>
			</g>
			<g id="XMLID_48928_">
				<path id="XMLID_456_" class="st0" d="M85.9,8.3L85,7.8l0.1-0.1c0.2-0.4,0.5-0.8,0.8-1.1l0.1-0.1L86.6,7l-0.1,0.1
					c-0.2,0.4-0.4,0.7-0.6,1.1L85.9,8.3z M85.4,7.7l0.4,0.2c0.1-0.3,0.3-0.6,0.5-0.9L86,6.9C85.8,7.1,85.6,7.4,85.4,7.7z"/>
			</g>
			<g id="XMLID_48927_">
				<path id="XMLID_17866_" class="st0" d="M85.3,12.5"/>
			</g>
			<g id="XMLID_48926_">
				<path id="XMLID_17858_" class="st0" d="M88.9,24.3c-0.3-0.2-0.5-0.3-0.7-0.5l0.5-0.8l-0.8-0.6l-0.5,0.7
					c-0.3-0.3-0.6-0.6-0.9-0.9l0.6-0.6l-0.6-0.8l-0.6,0.6c-0.3-0.4-0.5-0.7-0.7-1.1l0.7-0.5l-0.5-0.9l-0.7,0.5
					c-0.2-0.4-0.4-0.8-0.5-1.3l0.8-0.3l-0.3-1l-0.8,0.3c-0.1-0.4-0.2-0.9-0.2-1.4l0.9-0.1l-0.1-1l-0.9,0.1c0-0.2,0-0.5,0-0.7
					c0-0.2,0-0.5,0-0.7l0.9,0.1l0.1-1l-0.9-0.1c0.1-0.5,0.2-0.9,0.3-1.4l0.8,0.3l0.3-1l-0.8-0.3c0.2-0.4,0.3-0.9,0.5-1.3l0.7,0.4
					c-0.4,1-0.6,2.2-0.7,3.3c0,3.9,1.9,7.4,4.8,9.2"/>
			</g>
			<g id="XMLID_48925_">
				<path id="XMLID_17853_" class="st0" d="M98.5,21.7c3-1.7,5-5.1,5.1-9.1c0-1.2-0.2-2.3-0.6-3.3l0.7-0.4c0.2,0.4,0.4,0.8,0.5,1.3
					l-0.8,0.3l0.3,1l0.8-0.3c0.1,0.4,0.2,0.9,0.2,1.4l-0.9,0.1l0.1,1l0.9-0.1c0,0.2,0,0.5,0,0.7c0,0.2,0,0.5,0,0.7l-0.9-0.1l-0.1,1
					l0.9,0.1c-0.1,0.5-0.2,0.9-0.3,1.4l-0.8-0.3l-0.3,1l0.8,0.3c-0.2,0.4-0.3,0.9-0.5,1.3l-0.7-0.5l-0.5,0.9l0.7,0.5
					c-0.2,0.4-0.5,0.8-0.8,1.1l-0.6-0.6l-0.7,0.8l0.6,0.6c-0.3,0.3-0.6,0.6-1,0.9l-0.5-0.8l-0.8,0.6l0.5,0.8
					c-0.3,0.2-0.5,0.3-0.8,0.5"/>
			</g>
			<g id="XMLID_48918_">
				<path id="XMLID_17802_" class="st0" d="M93.2,14.1C93.2,14.1,93.2,14.1,93.2,14.1L93.2,14.1L93.2,14.1z M93.2,14.2L93,15.4
					c0,0.2,0,0.3,0.1,0.5c0.1,0.1,0.1,0.3,0.1,0.3c0.1,0.3,0.1,0.5,0.1,0.5l0.1-0.6C93.4,16.1,93.2,14.5,93.2,14.2L93.2,14.2z"/>
			</g>
			<g id="XMLID_48917_">
				<path id="XMLID_17783_" class="st0" d="M86.4,7.1L86,6.6c-0.3,0.4-0.5,0.7-0.8,1.1l0.6,0.4C86,7.8,86.2,7.4,86.4,7.1z"/>
			</g>
			<g id="XMLID_48915_">
				<path id="XMLID_17777_" class="st0" d="M87.7,5.2l-0.1-0.2c-0.3,0.3-0.7,0.6-1,0.9l0.3,0.3C87.2,5.8,87.4,5.5,87.7,5.2z"/>
			</g>
			<g id="XMLID_48914_">
				<path id="XMLID_17775_" class="st0" d="M88.5,4.2c-0.1,0-0.1,0.1-0.2,0.1l0,0C88.4,4.3,88.5,4.3,88.5,4.2z"/>
			</g>
			<g id="XMLID_48913_">
				<path id="XMLID_17758_" class="st0" d="M103.2,7.9c-0.2-0.4-0.5-0.8-0.7-1.1L102,7.2c0.2,0.3,0.4,0.7,0.6,1.1L103.2,7.9z"/>
			</g>
			<g id="XMLID_48912_">
				<path id="XMLID_17756_" class="st0" d="M101.8,6c-0.3-0.3-0.6-0.6-0.9-0.9l-0.2,0.2c0.3,0.3,0.5,0.7,0.7,1L101.8,6z"/>
			</g>
			<g id="XMLID_48911_">
				<path id="XMLID_452_" class="st0" d="M89,24.5l-0.3-0.2c-0.2-0.1-0.4-0.3-0.6-0.4L88,23.8l0.5-0.8l-0.6-0.4l-0.5,0.8l-0.1-0.1
					c-0.3-0.3-0.7-0.6-0.9-1l-0.1-0.1l0.6-0.6L86.4,21l-0.6,0.6l-0.1-0.1c-0.3-0.4-0.5-0.8-0.7-1.1l-0.1-0.1l0.8-0.5l-0.3-0.7
					l-0.8,0.5l-0.1-0.1c-0.2-0.4-0.4-0.8-0.5-1.3l0-0.1l0.8-0.3L84.5,17l-0.8,0.3l0-0.1c-0.1-0.5-0.2-0.9-0.3-1.4l0-0.1l0.9-0.1
					l-0.1-0.8l-0.9,0.1l0-0.1c0-0.2,0-0.5,0-0.7c0-0.2,0-0.5,0-0.7l0-0.1l0.9,0.1l0.1-0.8l-0.9-0.1l0-0.1c0.1-0.5,0.2-0.9,0.3-1.4
					l0-0.1l0.8,0.3l0.2-0.7L84,10l0-0.1c0.2-0.4,0.3-0.9,0.5-1.3l0.1-0.1L85.6,9l0,0.1c-0.4,1.1-0.6,2.2-0.6,3.3
					c0,3.8,1.8,7.2,4.8,9l0.1,0.1l-0.1,0.1c-0.4,0.8-0.6,1.7-0.7,2.6L89,24.5z M88.3,23.7c0.1,0.1,0.3,0.2,0.4,0.3
					c0-0.8,0.3-1.6,0.6-2.4c-3-1.9-4.8-5.4-4.8-9.2c0-0.3,0-0.7,0.1-1L84,11.1c-0.1,0.3-0.2,0.7-0.2,1.1l0.8,0.1l-0.1,1.3l-0.8-0.1
					c0,0.2,0,0.4,0,0.5c0,0.2,0,0.4,0,0.5l0.8-0.1l0.1,1.3l-0.8,0.1c0,0.4,0.1,0.7,0.2,1.1l0.8-0.3l0.4,1.3l-0.8,0.3
					c0.1,0.3,0.2,0.7,0.4,1l0.7-0.5l0.6,1.2l-0.7,0.5c0.2,0.3,0.4,0.6,0.6,0.9l0.6-0.6l0.8,1l-0.6,0.6c0.2,0.3,0.5,0.5,0.7,0.7
					l0.5-0.7l1,0.8L88.3,23.7z M84.3,9.8l0.6,0.2c0.1-0.3,0.2-0.6,0.3-0.9l-0.5-0.3C84.6,9.2,84.5,9.5,84.3,9.8z"/>
			</g>
			<g id="XMLID_48910_">
				<path id="XMLID_17682_" class="st0" d="M100.1,4.5c-0.1,0-0.1-0.1-0.2-0.1C100,4.4,100.1,4.4,100.1,4.5L100.1,4.5z"/>
			</g>
			<g id="XMLID_48909_">
				<polygon id="XMLID_451_" class="st0" points="95.4,33.7 92.9,33.7 92.9,33.3 95,33.3 95,32.7 94.7,32.7 94.7,31.6 95.1,31.6 
					95.1,32.4 95.4,32.4 				"/>
			</g>
			<g id="XMLID_48908_">
				<polygon id="XMLID_450_" class="st0" points="92.8,33.3 92.4,33.3 92.4,32.3 92.7,32.3 92.8,28.7 91.4,28 92.8,27.3 92.8,27 
					93.2,27 93.2,27.6 92.2,28 93.1,28.5 93.1,32.7 92.8,32.7 				"/>
			</g>
			<g id="XMLID_48907_">
				<path id="XMLID_449_" class="st0" d="M95.1,31.8l-0.4,0l0-3.3l1-0.5l0.1-0.3c0,0,0.2,0,0.3,0.2l0.3,0.2l-0.3,0.1l-1,0.5
					L95.1,31.8z"/>
			</g>
			<g id="XMLID_48906_">
				<rect id="XMLID_448_" x="92.8" y="24.9" class="st0" width="0.4" height="1.6"/>
			</g>
			<g id="XMLID_48905_">
				<rect id="XMLID_447_" x="94.8" y="25.2" class="st0" width="0.4" height="1.8"/>
			</g>
			<g id="XMLID_48904_">
				<rect id="XMLID_446_" x="92.8" y="22.7" class="st0" width="0.4" height="1.7"/>
			</g>
			<g id="XMLID_48903_">
				<path id="XMLID_445_" class="st0" d="M95.2,22.2l-0.4,0c0-0.1,0-0.2,0-0.3l0-1.2l0,0c0,0,0-0.9-0.3-1.5
					c-0.1-0.2-0.2-0.5-0.3-0.7c-0.1-0.2-0.2-0.4-0.2-0.5c-0.1,0.1-0.2,0.3-0.3,0.5c-0.1,0.3-0.2,0.5-0.3,0.7
					c-0.2,0.6-0.3,1.5-0.3,1.5l0,1.2l-0.4,0l0-1.2c0,0,0.1-0.9,0.3-1.6c0.1-0.2,0.2-0.5,0.3-0.8c0.2-0.5,0.4-0.9,0.4-0.9l0.2-0.3
					l0.2,0.3c0,0,0.2,0.4,0.4,0.9c0.1,0.2,0.2,0.5,0.3,0.8c0.2,0.7,0.3,1.6,0.3,1.6l0,1.2C95.2,22,95.2,22.1,95.2,22.2z"/>
			</g>
			<g id="XMLID_48902_">
				<path id="XMLID_437_" class="st0" d="M97.8,27.5c0,0-1.1,0.9-1.4,1.6c0,0.1-0.1,0.2-0.1,0.3c-0.3,0.8,0,1.3,0,1.3
					S96,30.9,95.8,31c-0.1,0.1-0.3,0.1-0.4,0.1c0.3-0.5,0.5-1,0.6-1.7c0-0.1,0.1-0.2,0.1-0.3c0.1-0.5,0.1-0.9,0.1-1.3
					c0-0.1,0.1-0.2,0.2-0.3c0.1-0.1,0.2-0.2,0.2-0.2s0.7-0.2,0.7-1.4c0-0.2,0-0.4,0-0.7c-0.1-0.7-0.3-1.5-0.3-1.5s-0.3,0.5-0.6,1.1
					c-0.1,0.2-0.2,0.5-0.2,0.7c-0.2,1.4,0.3,1.7,0.3,1.7s0,0.1-0.1,0.2c0,0.1-0.1,0.1-0.1,0.1c-0.1-1-0.4-1.8-0.7-2.5
					c0,0,0-0.1,0.1-0.2c0-0.1,0-0.1,0-0.2c0-0.2,0-0.3,0-0.3s0.6-0.1,0.3-1.5c0-0.1,0-0.2,0-0.2c0-0.1-0.1-0.3-0.1-0.4
					c-0.2-0.6-0.7-1.3-0.7-1.3S95,21.4,94.9,22c0,0.1,0,0.2,0,0.3c0,0.2,0,0.4,0,0.5c0,0.1,0,0.1,0,0.2c0,0.1,0,0.2,0,0.3
					c0.2,0.8,0.6,1,0.6,1s0,0.2,0,0.3c0,0.1,0,0.2-0.1,0.3c-0.2-0.4-0.4-0.7-0.6-0.9c-0.4-0.6-0.8-0.9-0.8-0.9s0,0,0,0
					c0,0-0.1-0.3-0.2-0.7c-0.1-0.3-0.4-0.6-0.7-0.9c-0.1-0.1-0.2-0.1-0.2-0.2c-0.8-0.5-1.7-0.7-1.7-0.7s0.1,0.7,0.7,1.5
					c0.1,0.1,0.1,0.2,0.2,0.3c0.2,0.2,0.5,0.4,0.7,0.5c0.1,0.1,0.2,0.1,0.3,0.1c0.4,0.2,0.8,0.2,0.8,0.2s0.4,0.4,0.9,1
					c0.2,0.2,0.3,0.5,0.5,0.8c0,0-0.1,0-0.1-0.1c-0.1,0-0.2,0-0.2,0s0-0.3-0.2-0.5c-0.2-0.2-0.6-0.5-1.3-0.6c-0.2,0-0.5,0-0.8,0
					c-0.7,0.1-1.3,0.3-1.3,0.3s0.6,0.5,1.3,0.9c0.2,0.1,0.4,0.2,0.5,0.3c0,0,0,0,0,0c0.4,0.1,0.7,0.2,1,0.1c0.2,0,0.4-0.1,0.5-0.2
					c0.1-0.1,0.2-0.2,0.2-0.2s0.1,0,0.2,0.1c0.1,0,0.2,0.1,0.2,0.1c0,0.1,0.1,0.2,0.1,0.3c0.3,0.7,0.4,1.5,0.4,2.5
					c-0.1-0.1-0.3-0.2-0.3-0.2s0-0.8-0.8-1.1c0,0-0.1,0-0.1,0c-0.8-0.3-1.5-0.4-2-0.4c-0.5,0-0.8,0-0.8,0s0.3,0.4,0.8,0.8
					c0.2,0.2,0.5,0.4,0.8,0.6c1,0.6,2,0.3,2,0.3s0.1,0,0.3,0.1c0,0,0,0,0,0c0,0,0.1,0.1,0.1,0.1c0,0.3,0,0.6-0.1,0.9
					c0,0.1,0,0.2-0.1,0.3c-0.2,0.9-0.6,1.6-1.1,2.1c-1,1-2.2,1.4-2.3,1.5c0,0,0,0,0,0l0,0.6c0,0,0.1,0,0.3-0.1
					c0.4-0.2,1.3-0.7,2-1.5c0.2-0.2,0.4-0.4,0.5-0.7c0.1,0,0.3,0,0.5-0.1c0.2-0.2,0.5-0.6,0.5-0.6s0.6,0,0.9-0.7
					c0.3-0.7,0.5-1.5,0.5-2C97.8,27.7,97.8,27.5,97.8,27.5z"/>
				<path id="XMLID_440_" class="st0" d="M92.4,33.8l0-0.7l0,0c0,0,0,0,0,0c0.1,0,1.3-0.4,2.3-1.5c0.5-0.6,0.9-1.3,1.1-2.1l0-0.1
					c0-0.1,0-0.2,0.1-0.2c0-0.3,0.1-0.6,0.1-0.8c0,0-0.1-0.1-0.1-0.1l0,0c-0.1-0.1-0.2-0.1-0.2-0.1c-0.1,0-1,0.2-2-0.3
					c-0.2-0.1-0.5-0.3-0.8-0.6c-0.4-0.4-0.8-0.8-0.8-0.8l-0.1-0.1l0.1,0c0,0,0.3-0.1,0.8,0c0.5,0,1.2,0.1,2,0.4c0,0,0,0,0,0
					c0,0,0,0,0.1,0c0.7,0.3,0.8,1,0.8,1.1c0,0,0.1,0.1,0.2,0.2c0-0.8-0.1-1.6-0.4-2.4c0,0,0-0.1,0-0.1c0-0.1-0.1-0.1-0.1-0.2
					c-0.1,0-0.1-0.1-0.2-0.1c-0.1,0-0.1-0.1-0.2-0.1c0,0-0.1,0.1-0.2,0.2c-0.1,0.1-0.3,0.1-0.5,0.2c-0.3,0-0.6,0-1-0.1c0,0,0,0,0,0
					c-0.1-0.1-0.3-0.1-0.5-0.3c-0.6-0.4-1.3-0.9-1.3-0.9l-0.1-0.1l0.1,0c0,0,0.6-0.2,1.3-0.3c0.3,0,0.6,0,0.8,0
					c0.6,0.1,1,0.2,1.3,0.6c0.2,0.2,0.2,0.4,0.2,0.5c0,0,0.1,0,0.1,0c-0.1-0.2-0.3-0.5-0.4-0.7c-0.4-0.6-0.8-1-0.9-1
					c-0.1,0-0.4-0.1-0.8-0.2c-0.1,0-0.2-0.1-0.3-0.1c-0.3-0.1-0.5-0.3-0.7-0.5c-0.1-0.1-0.2-0.2-0.2-0.3c-0.6-0.8-0.7-1.5-0.7-1.5
					l0-0.1l0.1,0c0,0,0.9,0.2,1.7,0.7c0.1,0.1,0.2,0.1,0.2,0.2c0.3,0.3,0.5,0.6,0.7,0.9c0.2,0.4,0.2,0.6,0.2,0.7
					c0.1,0.1,0.4,0.4,0.8,0.9c0.2,0.3,0.4,0.5,0.5,0.8c0,0,0-0.1,0-0.2c0-0.1,0-0.2,0-0.2c-0.1-0.1-0.5-0.3-0.6-1c0-0.1,0-0.2,0-0.3
					c0,0,0,0,0-0.1c0,0,0-0.1,0-0.1c0-0.1,0-0.3,0-0.5c0-0.1,0-0.2,0-0.3c0.1-0.6,0.2-1.2,0.2-1.2l0-0.1l0.1,0.1
					c0,0,0.4,0.7,0.7,1.3c0.1,0.2,0.1,0.3,0.1,0.4c0,0.1,0,0.1,0,0.2c0,0,0,0.1,0,0.1c0.2,0.8,0,1.2-0.1,1.4
					c-0.1,0.1-0.2,0.1-0.2,0.2c0,0.1,0,0.2,0,0.3c0,0.1,0,0.1,0,0.2c0,0.1,0,0.2-0.1,0.2c0.2,0.4,0.4,0.9,0.5,1.3
					c0-0.2,0-0.5,0.1-0.8c0-0.2,0.1-0.4,0.2-0.7c0.2-0.6,0.6-1.1,0.6-1.1l0.1-0.1l0,0.1c0,0,0.2,0.7,0.3,1.5c0,0.3,0,0.5,0,0.7
					c0,1.1-0.6,1.4-0.7,1.4c0,0-0.1,0.1-0.2,0.2c-0.1,0.1-0.1,0.2-0.2,0.2c0,0.4,0,0.9-0.1,1.3c0,0.1,0,0.1-0.1,0.2c0,0,0,0.1,0,0.1
					c-0.1,0.6-0.3,1.2-0.6,1.6c0.1,0,0.2,0,0.2-0.1c0.1-0.1,0.3-0.3,0.3-0.4c-0.1-0.1-0.2-0.5,0-1.3l0,0c0-0.1,0.1-0.1,0.1-0.2
					c0.3-0.7,1.4-1.6,1.4-1.6l0.1-0.1l0,0.1c0,0,0,0.2,0,0.5c0,0.5-0.1,1.3-0.5,2c-0.3,0.6-0.8,0.7-0.9,0.7
					c-0.1,0.1-0.3,0.4-0.5,0.6c-0.2,0.1-0.4,0.1-0.5,0.1c-0.1,0.2-0.3,0.4-0.5,0.7c-0.8,0.9-1.6,1.3-2,1.5
					C92.6,33.8,92.5,33.8,92.4,33.8L92.4,33.8z M92.5,33.2l0,0.5c0.1,0,0.1-0.1,0.3-0.1c0.4-0.2,1.2-0.7,2-1.5
					c0.2-0.2,0.4-0.5,0.5-0.7l0,0l0,0c0,0,0.3,0,0.5-0.1c0.2-0.2,0.5-0.6,0.5-0.6l0,0h0h0c0,0,0.6,0,0.9-0.6c0.3-0.7,0.4-1.4,0.5-2
					c0-0.2,0-0.3,0-0.4c-0.3,0.2-1.1,0.9-1.3,1.5c0,0.1-0.1,0.2-0.1,0.2l0,0c-0.3,0.8,0,1.2,0,1.2l0,0l0,0c0,0-0.2,0.3-0.4,0.4
					c-0.1,0.1-0.3,0.1-0.4,0.1l-0.1,0l0-0.1c0.3-0.5,0.5-1,0.6-1.7c0,0,0-0.1,0-0.1c0-0.1,0-0.1,0-0.2c0.1-0.4,0.1-0.9,0.1-1.3l0,0
					c0-0.1,0.1-0.2,0.2-0.3c0.1-0.1,0.2-0.2,0.2-0.2l0,0c0,0,0.7-0.2,0.7-1.3c0-0.2,0-0.4,0-0.6C97.2,24.8,97,24.2,97,24
					c-0.1,0.2-0.3,0.5-0.5,1c-0.1,0.3-0.2,0.5-0.2,0.7c-0.2,1.3,0.2,1.6,0.2,1.6l0,0l0,0c0,0,0,0.1-0.1,0.2c0,0.1-0.1,0.1-0.1,0.1
					l-0.1,0l0-0.1c-0.1-0.9-0.3-1.7-0.7-2.5l0,0l0,0c0,0,0-0.1,0.1-0.2c0-0.1,0-0.1,0-0.2c0-0.2,0-0.3,0-0.3l0,0l0,0
					c0,0,0.1,0,0.2-0.1c0.1-0.2,0.2-0.5,0.1-1.3c0,0,0-0.1,0-0.1c0,0,0-0.1,0-0.2c0-0.1-0.1-0.2-0.1-0.4c-0.2-0.5-0.5-1-0.6-1.2
					c0,0.2-0.1,0.6-0.2,1c0,0.1,0,0.2,0,0.3c0,0.2,0,0.4,0,0.5c0,0,0,0.1,0,0.1c0,0,0,0,0,0.1c0,0.1,0,0.2,0,0.3
					c0.2,0.8,0.6,1,0.6,1l0,0l0,0c0,0,0,0.2,0,0.3c0,0.1,0,0.2-0.1,0.3l0,0.1l-0.1-0.1c-0.2-0.3-0.4-0.6-0.6-0.9
					c-0.4-0.6-0.8-0.9-0.8-0.9l0,0l0,0c0,0,0,0,0,0l0,0c0,0,0-0.3-0.2-0.6c-0.2-0.3-0.4-0.6-0.7-0.9c-0.1-0.1-0.2-0.1-0.2-0.2
					c-0.6-0.4-1.4-0.6-1.6-0.7c0,0.2,0.2,0.8,0.7,1.4c0.1,0.1,0.1,0.2,0.2,0.3c0.2,0.2,0.4,0.3,0.7,0.5c0.1,0.1,0.2,0.1,0.3,0.1
					c0.4,0.2,0.8,0.2,0.8,0.2l0,0c0,0,0.5,0.4,0.9,1.1c0.2,0.3,0.4,0.6,0.5,0.9l0.1,0.1l-0.1-0.1c0,0-0.1,0-0.1,0
					c-0.1,0-0.2,0-0.2,0l0,0l0,0c0,0,0-0.2-0.2-0.5c-0.2-0.3-0.7-0.5-1.2-0.5c-0.2,0-0.5,0-0.7,0c-0.5,0.1-1,0.2-1.2,0.2
					c0.2,0.1,0.7,0.5,1.2,0.8c0.2,0.1,0.4,0.2,0.5,0.3c0,0,0,0,0,0c0.3,0.1,0.7,0.2,0.9,0.1c0.2,0,0.4-0.1,0.5-0.2
					c0.1-0.1,0.2-0.2,0.2-0.2l0,0l0,0c0,0,0.1,0,0.2,0.1c0.1,0,0.1,0.1,0.2,0.1l0,0c0,0.1,0.1,0.2,0.1,0.2c0,0,0,0.1,0,0.1
					c0.3,0.8,0.5,1.6,0.4,2.5l0,0.1L96,28.2c-0.1-0.1-0.3-0.2-0.3-0.2l0,0l0,0c0,0,0-0.7-0.7-1.1c0,0,0,0,0,0c0,0,0,0,0,0
					c-0.8-0.3-1.5-0.4-2-0.4c-0.3,0-0.6,0-0.7,0c0.1,0.1,0.4,0.4,0.7,0.7c0.3,0.3,0.6,0.4,0.8,0.6c1,0.5,2,0.3,2,0.3l0,0l0,0
					c0,0,0.1,0,0.3,0.1l0,0c0.1,0,0.1,0.1,0.1,0.1l0,0l0,0c0,0.3,0,0.6-0.1,0.9c0,0.1,0,0.2-0.1,0.3l0,0.1c-0.2,0.8-0.5,1.5-1.1,2.1
					C93.9,32.7,92.7,33.1,92.5,33.2z M96.3,27.1c0,0.1,0,0.3,0,0.4c0,0,0,0,0-0.1c0-0.1,0.1-0.1,0.1-0.1
					C96.4,27.3,96.3,27.2,96.3,27.1z"/>
			</g>
		</g>
	</g>
</g>
</svg>
